<?xml version="1.0" encoding="UTF-8"?>
<!-- Generator: visioncortex VTracer 0.6.4 -->
<svg version="1.1" xmlns="http://www.w3.org/2000/svg" width="1024" height="1024">
<path d="M0 0 C5.84940414649077 3.8996027643271702 9.520968342155015 9.235271431372695 11.6171875 15.98828125 C13.119488838225266 23.88302807842865 12.035968661645597 31.03301086937836 8 38 C5.850527961528428 40.572922632774294 3.554884650147301 42.83265403274021 1 45 C2.5297108932387573 46.529710893238786 4.157823978245801 46.43355839952545 6.27734375 46.76171875 C35.360415397353165 51.494835853018145 62.474117235086 62.33048146804822 84 83 C85.34973783357447 84.13030975477028 86.7037400748336 85.25555199903124 88.0625 86.375 C111.91034435934904 107.25383562384775 125.83311763557765 140.9521336821336 129 172 C129.06283890252604 174.3325800617667 129.08680520574222 176.66670024874725 129.0625 179 C129.0534765625 180.13437499999998 129.04445312500002 181.26875 129.03515625 182.4375 C129.01775390625 183.7059375 129.01775390625 183.7059375 129 185 C129.59014892578125 184.979052734375 130.1802978515625 184.95810546874998 130.788330078125 184.9365234375 C133.46287999380252 184.85336317248436 136.13715815162107 184.80134309236098 138.8125 184.75 C139.74126953125 184.716484375 140.6700390625 184.68296875 141.626953125 184.6484375 C142.51962890624998 184.635546875 143.4123046875 184.62265624999998 144.33203125 184.609375 C145.15421142578123 184.588427734375 145.9763916015625 184.56748046874998 146.823486328125 184.5458984375 C149 185 149 185 150.780029296875 186.7900390625 C152.9034736501834 190.63663067469685 152.14976938468538 193.9676334375962 151 198 C145.7617931220496 211.71059584221723 138.60471356130438 221.26770213886414 125.1875 227.80859375 C117.03748461769567 230.8548617544152 109.08473888220675 231.3748086399362 100.4375 231.625 C98.781376953125 231.68300781250002 98.781376953125 231.68300781250002 97.091796875 231.7421875 C94.39468875207058 231.8355938419196 91.697572299142 231.92136476056533 89 232 C89.32307128906251 232.60287841796878 89.64614257812502 233.2057568359375 89.97900390625 233.826904296875 C92.05231235808128 238.2397494737641 91.4765132622066 243.24740720062357 91 248 C87.10754872456926 258.43884660229156 75.88829404252624 264.9500136778029 67.235107421875 271.3486328125 C62.595077015027925 274.78200651837074 58.05121346930002 278.3088742380665 53.5625 281.9375 C47.629994126510496 286.7264938717879 41.61148951045459 291.38818938812256 35.544921875 296.005859375 C30.360871203626857 299.95360527921645 25.203529628753472 303.9339008631116 20.0625 307.9375 C18.948750000000018 308.8038708496094 18.948750000000018 308.8038708496094 17.8125 309.687744140625 C13.974251506590633 312.67558485256853 10.143099833521092 315.6720884691706 6.3203125 318.6796875 C-19.127393978303303 338.67012051478287 -19.127393978303303 338.67012051478287 -31 342 C-31.618471794128425 342.17527190208443 -32.23694358825685 342.35054380416864 -32.8741569519043 342.5311269760132 C-35.09639913465662 343.02126166078756 -37.07940166243418 343.13861553157267 -39.35333251953125 343.15821838378906 C-40.2170748901367 343.1680072021484 -41.08081726074215 343.1777960205078 -41.970733642578125 343.18788146972656 C-42.91012786865235 343.193636932373 -43.84952209472658 343.19939239501946 -44.8173828125 343.205322265625 C-45.812831115722645 343.215221862793 -46.80827941894529 343.225121459961 -47.833892822265625 343.2353210449219 C-51.12361270169703 343.2669039515324 -54.41334702057989 343.2916808880623 -57.703125 343.31640625 C-59.9842770893319 343.3369785391153 -62.26542538895748 343.3579750855059 -64.54656982421875 343.37937927246094 C-70.55034313407299 343.43457149953224 -76.55415068488699 343.48399340123854 -82.5579833984375 343.5322265625 C-88.68451992951464 343.5824623389823 -94.81100674069268 343.6381375787296 -100.9375 343.693359375 C-112.9582908578634 343.8009061283658 -124.97912488735318 343.90235889022915 -137 344 C-137.28875 345.26972656249995 -137.5775 346.539453125 -137.875 347.84765625 C-138.73232749194202 351.61760080162003 -139.8839191133547 353.5655618073083 -143 356 C-145.3953972091864 357.19769860459314 -146.91106127110544 357.1393717882196 -149.585693359375 357.1611328125 C-150.5368553161621 357.1707403564453 -151.4880172729492 357.18034790039064 -152.46800231933594 357.19024658203125 C-153.49820999145507 357.1944964599609 -154.5284176635742 357.1987463378906 -155.58984375 357.203125 C-156.64530899047853 357.2088250732422 -157.70077423095702 357.21452514648445 -158.78822326660156 357.22039794921875 C-161.0234374468358 357.2298548906426 -163.25866561372942 357.2363846770527 -165.493896484375 357.240234375 C-168.92000502299393 357.24995038645307 -172.3455164651367 357.28097193238455 -175.771484375 357.3125 C-177.9401005932805 357.3190288096372 -180.10872111300904 357.32427975945575 -182.27734375 357.328125 C-183.30552719116213 357.34047180175776 -184.33371063232423 357.35281860351563 -185.39305114746094 357.36553955078125 C-186.34736526489257 357.36253845214844 -187.3016793823242 357.35953735351563 -188.284912109375 357.3564453125 C-189.12493270874023 357.36009094238284 -189.96495330810546 357.3637365722657 -190.83042907714844 357.36749267578125 C-193.51412070313654 356.91291568720794 -194.42440421158483 356.1961451101971 -196 354 C-195.875 350.9375 -195.875 350.9375 -195 348 C-191.86469770647764 345.90979847098515 -191.18168229901968 345.75254050258445 -187.620361328125 345.77294921875 C-186.72740356445314 345.7731909179688 -185.83444580078125 345.7734326171875 -184.9144287109375 345.773681640625 C-183.97973754882813 345.7839135742188 -183.04504638671875 345.7941455078126 -182.08203125 345.8046875 C-180.78912170410155 345.8077087402344 -180.78912170410155 345.8077087402344 -179.4700927734375 345.810791015625 C-176.25084103561488 345.8212536898136 -173.03166516431315 345.8491762919414 -169.8125 345.875 C-159.0153125 345.936875 -159.0153125 345.936875 -148 346 C-148 319.6 -148 293.2 -148 266 C-162.3005964530343 266.15818611465284 -162.3005964530343 266.15818611465284 -176.6005859375 266.3603515625 C-178.39517262854233 266.3720354807771 -180.18976991916975 266.3822280082312 -181.984375 266.390625 C-182.9139501953125 266.4110888671875 -183.84352539062502 266.431552734375 -184.80126953125 266.45263671875 C-191.35511472311651 266.45618509189126 -191.35511472311651 266.45618509189126 -194.6298828125 264.1396484375 C-196 262 -196 262 -195.9375 259.375 C-195 257 -195 257 -192 255 C-189.93327331542966 254.7393035888672 -189.93327331542966 254.7393035888672 -187.531982421875 254.725341796875 C-186.63062057495117 254.71580978393553 -185.72925872802733 254.7062777709961 -184.8005828857422 254.6964569091797 C-183.3427513885498 254.69782402038572 -183.3427513885498 254.69782402038572 -181.85546875 254.69921875 C-180.85292556762695 254.6949336242676 -179.8503823852539 254.69064849853515 -178.8174591064453 254.6862335205078 C-176.69496414284964 254.68048798703649 -174.57244948590926 254.67999159397021 -172.449951171875 254.684326171875 C-169.2104300451393 254.68747769283942 -165.97182949778227 254.6640586957522 -162.732421875 254.638671875 C-160.66927198367898 254.63639799558803 -158.60611964078655 254.6356957973224 -156.54296875 254.63671875 C-155.57715377807617 254.62750900268554 -154.61133880615233 254.61829925537108 -153.6162567138672 254.6088104248047 C-148.32995921368683 254.64496169389975 -144.5569947075791 255.00186822408392 -140 258 C-138.4498632229886 260.27645872598845 -137.89849863006586 262.35442070036163 -137 265 C-129.01685695353825 263.9657505233431 -122.61902107407377 261.76076207221377 -115.5 258.0625 C-113.7651776535958 257.1690794962671 -112.02555593304248 256.2849165497545 -110.28125 255.41015625 C-109.52908203125 255.01965087890625 -108.7769140625 254.6291455078125 -108.001953125 254.226806640625 C-98.57778293726312 250.3754358539157 -89.84148240140783 249.54296188497472 -79.71484375 249.56640625 C-78.36446372181149 249.56183036326104 -77.014086004533 249.55652068481652 -75.66371154785156 249.55052185058594 C-72.8524521281056 249.54165467204223 -70.04147778614191 249.54394145790536 -67.230224609375 249.553955078125 C-63.65403451297925 249.56546193996314 -60.07882944308784 249.54517571270276 -56.50276851654053 249.516037940979 C-53.720361458901266 249.49756886960438 -50.938186168961465 249.49798902430848 -48.15573310852051 249.50367546081543 C-46.20502141937243 249.50390018156588 -44.254331074486345 249.48711780207032 -42.30369567871094 249.46986389160156 C-33.78794337984277 249.53615773740387 -26.35632824662116 250.53833632219516 -19.52734375 255.96484375 C-19.00269531250001 256.6158203125 -18.478046875000018 257.266796875 -17.9375 257.9375 C-17.3896484375 258.5858984375 -16.841796875 259.234296875 -16.27734375 259.90234375 C-14.835458733459632 262.27020996982316 -14.384418660649203 264.2711021003297 -14 267 C-3.4354108922641444 261.1902632179515 6.9379884129656375 255.092859276693 17.249755859375 248.845458984375 C23.766518509647653 244.90644037075134 30.329206284750626 241.0567023481347 36.922607421875 237.24755859375 C37.79831138610837 236.74113327026367 38.67401535034179 236.23470794677735 39.576255798339844 235.7129364013672 C41.71725684712197 234.47486280249996 43.858509992760105 233.23722759189366 46 232 C45.03516252517704 231.99761164665222 44.07032505035397 231.99522329330443 43.076250076293945 231.9927625656128 C19.580929060690153 231.933922958783 -3.9142897758757726 231.85801249969268 -27.40949821472168 231.76428508758545 C-38.771687281343816 231.71935256885803 -50.13384518202906 231.67993198182114 -61.49609375 231.653564453125 C-71.40141709432558 231.6305638344117 -81.30664160113241 231.59714263243518 -91.21188652515411 231.55129843950272 C-96.45482918765373 231.52739417053414 -101.69767412999062 231.50864703582982 -106.94067001342773 231.50238609313965 C-111.88024433394105 231.49632264613336 -116.81956871118837 231.47627713914602 -121.7590503692627 231.4457244873047 C-123.56734669553072 231.43696447124648 -125.37567571199259 231.43321744271714 -127.18399238586426 231.43499183654785 C-141.3527902315695 231.4445012023948 -152.56797103569184 230.1080290552709 -164 221 C-172.32892679382138 212.55946279688118 -177.1978155275766 202.5031554076878 -178.3125 190.6875 C-178 188 -178 188 -176.744873046875 186.364013671875 C-174.6143217191923 184.6985050294008 -173.44963287887478 184.58332031485372 -170.76953125 184.48828125 C-169.96708984375 184.45283203125 -169.1646484375 184.41738281250002 -168.337890625 184.380859375 C-167.50451171875 184.35830078125002 -166.6711328125 184.3357421875 -165.8125 184.3125 C-164.96751953125 184.27833984375002 -164.1225390625 184.24417968750004 -163.251953125 184.208984375 C-161.16843351014097 184.12658529418638 -159.0842378376476 184.06161355483363 -157 184 C-156.90203125 182.7534765625 -156.8040625 181.506953125 -156.703125 180.22265625 C-154.23260197153468 151.1652836535734 -145.6533063140462 122.96321997255967 -127 100 C-126.59700683593752 99.49307617187503 -126.19401367187498 98.98615234375 -125.77880859375 98.4638671875 C-102.84949368716121 69.71383488266093 -70.02584524052219 51.42165924309745 -33.4599609375 46.669921875 C-31.3084878423914 46.42946806288546 -29.15441691056003 46.212467150942814 -27 46 C-27.79664062500001 45.381249999999994 -27.79664062500001 45.381249999999994 -28.609375 44.75 C-34.834732443947075 39.66065668816006 -39.155213024406976 34.23667301203193 -40 26 C-40.63324414481605 17.76782611739125 -38.60091568479061 11.527306079755874 -33.375 5.1875 C-24.531272986343765 -4.009976094202443 -11.403279952491175 -6.329461007337812 0 0 Z M-26 13 C-28.863728362387633 17.653558588879832 -29.527034316413847 21.48052694331011 -28.7109375 26.78515625 C-27.25065482111421 31.334498441913382 -24.107264729900976 34.7448761867721 -20.0390625 37.16796875 C-16.092225781277534 38.77845959499592 -12.052622999805294 38.69250109286361 -8.06640625 37.34765625 C-4.129787240784708 35.37511382172653 -1.6188680943972713 32.94352827700922 0.33984375 28.9921875 C2.0489848266590798 23.83442448759692 1.752596192538931 19.534138392483158 -0.625 14.6875 C-3.838344104267776 11.05134746096013 -6.4358938660063245 8.45348653940053 -11.36328125 7.58203125 C-17.52183312543326 7.2362551962958435 -21.782161258233486 8.384913288094765 -26 13 Z M-113.41748046875 100.21044921875 C-117.7742216231515 105.13715589288807 -121.49189672586104 110.44624702189958 -125 116 C-125.390263671875 116.61568847656247 -125.78052734375001 117.231376953125 -126.1826171875 117.86572265625 C-134.35752559868985 131.0042090104253 -139.85907152913347 145.13148000333103 -143.375 160.1875 C-143.60860229492187 161.16372314453122 -143.60860229492187 161.16372314453122 -143.846923828125 162.15966796875 C-145.46936714923137 169.79917498616334 -145.50102650153397 177.0164240245436 -146 185 C-58.879999999999995 185 28.24000000000001 185 118 185 C122.9239195636718 165.30432174531285 111.37911793310127 137.42314135931906 101.400146484375 120.681884765625 C86.3913569098786 96.47184222970083 66.01101910106638 78.47431901724383 40 67 C39.36126953125 66.71785644531249 38.722539062500005 66.43571289062498 38.064453125 66.14501953125 C23.214979124296065 59.74919278526153 7.143502359458523 56.52148954251061 -9 56 C-9.7734375 55.960039062500016 -10.546875 55.920078125 -11.34375 55.87890625 C-50.489377634993616 54.739393116789586 -87.15151963574803 71.79594353233273 -113.41748046875 100.21044921875 Z M-165 195 C-166.2208775608414 198.6626326825242 -165.71903662934648 199.31620979906165 -164.0625 202.6875 C-159.1229207983913 211.98313668434605 -153.00535582677244 216.92819808376078 -143 220 C-139.36847639449869 220.51871199243487 -135.810004100879 220.53785954895454 -132.14599609375 220.50120544433594 C-130.57567910194396 220.50950703948735 -130.57567910194396 220.50950703948735 -128.9736385345459 220.51797634363174 C-125.48999161953117 220.53151414963565 -122.00706970526255 220.516650434445 -118.5234375 220.501708984375 C-116.01604916443944 220.50549463688452 -113.50866292186609 220.51099670386668 -111.00128173828125 220.51808166503906 C-104.9124831194166 220.53057550626102 -98.8239503028316 220.52449009719572 -92.73516511917114 220.50940608233213 C-85.63572050036026 220.49249201690122 -78.5363269811615 220.49576304337722 -71.43686842918396 220.4995001628995 C-58.764510987542366 220.5053708476824 -46.09225308578334 220.4912383568036 -33.419921875 220.466552734375 C-21.139936005985135 220.44263429103836 -8.860083106655452 220.43554949214126 3.419921875 220.446044921875 C16.811095922287507 220.45746963360335 30.20220855658789 220.4593650295027 43.59338188171387 220.4449468255043 C45.02292759637078 220.44342108209912 46.45247331678718 220.44190072537145 47.88201904296875 220.44038581848145 C48.5852742731571 220.4396280042455 49.2885295033455 220.43887019000948 50.01309549808502 220.43808941170573 C54.954804922967185 220.43335857523448 59.89648680959817 220.4351894786015 64.83819580078125 220.43945121765137 C71.49657131777644 220.44490946889107 78.15473640450051 220.4340759938824 84.8130874633789 220.41249656677246 C87.25352611506992 220.40694273633926 89.69398245090338 220.40645046462566 92.1344223022461 220.41144943237305 C95.47181568432006 220.41742725667734 98.80865272273627 220.40484861469093 102.14599609375 220.38768005371094 C103.58619582176209 220.39669512182473 103.58619582176209 220.39669512182473 105.05549049377441 220.4058923125267 C116.08064563605791 220.30312875596053 124.67242581941565 217.3770083538701 132.5 209.48828125 C135.98303121376347 205.53877264153607 139 201.37126669367916 139 196 C38.68000000000001 195.66999999999996 -61.640000000000015 195.34000000000003 -165 195 Z M53.5625 239.5625 C51.90173372955667 240.59877088166866 50.24092453427926 241.63497940883104 48.57777404785156 242.66741943359375 C47.4314226166224 243.37982308651624 46.28652531043065 244.0945716365095 45.14305114746094 244.81158447265625 C39.252627206760394 248.4989641355678 33.22700848008333 251.9384333103693 27.1875 255.375 C18.317160877673473 260.4664678091024 9.486694662822913 265.6209507872395 0.721588134765625 270.89141845703125 C-0.48998070257351856 271.6187722322578 -1.703169391917129 272.34343598408174 -2.918121337890625 273.06512451171875 C-9.192945264910236 276.79686007675866 -15.042477236785999 280.5192955928966 -20.342529296875 285.56689453125 C-26.76224709241785 291.1176005939745 -35.10506360663811 291.15216389689823 -43.1328125 291.1328125 C-44.00646453857422 291.1337692260742 -44.88011657714844 291.1347259521484 -45.780242919921875 291.1357116699219 C-47.62091138027654 291.1363903142344 -49.461582270385236 291.1345580805748 -51.30224609375 291.13037109375 C-54.12212470790905 291.12500547106265 -56.941844983086554 291.13033338874413 -59.76171875 291.13671875 C-61.55208368495127 291.13605816521203 -63.34244852141802 291.13477741003993 -65.1328125 291.1328125 C-66.39848556518555 291.1358488464356 -66.39848556518555 291.1358488464356 -67.68972778320313 291.1389465332031 C-71.0424819789198 291.1254743968239 -73.79726550579716 291.0675781647343 -77 290 C-77.6875 287.6875 -77.6875 287.6875 -78 285 C-76.48650154810963 282.95673633877806 -75.5673985359526 282.10803009919874 -73.04716491699219 281.62818908691406 C-71.93846794128419 281.629631729126 -71.93846794128419 281.629631729126 -70.807373046875 281.631103515625 C-69.54542366027832 281.62077842712404 -69.54542366027832 281.62077842712404 -68.25798034667969 281.61024475097656 C-67.35171401977539 281.6164030456543 -66.44544769287108 281.622561340332 -65.51171875 281.62890625 C-63.58919096841359 281.6115194621004 -61.66666496508526 281.5939351276516 -59.744140625 281.576171875 C-56.715867738334794 281.5661095370185 -53.68771271850471 281.562499879946 -50.659423828125 281.564208984375 C-47.734832486203175 281.5606310649452 -44.81114826143852 281.5332532832586 -41.88671875 281.50390625 C-40.53642829895023 281.51618003845215 -40.53642829895023 281.51618003845215 -39.15885925292969 281.52870178222656 C-33.46639707485508 281.4615532685933 -30.3866741967945 280.69433786430284 -26 277 C-23.906090255201036 274.3598529304709 -24 272.98824536409865 -24 269.5625 C-24.9988177518336 266.00421175909287 -25.917489743570968 264.2974920357828 -28.824615478515625 262.0300598144531 C-33.85644868146841 259.6474515333866 -39.74152215698439 260.3124674153154 -45.19921875 260.37109375 C-46.599189089021934 260.37026370042383 -47.99915931605506 260.3677991914531 -49.39912414550781 260.36378479003906 C-52.33042826152166 260.36093194499966 -55.260966235868494 260.37556613545536 -58.192138671875 260.403076171875 C-61.919777488059594 260.4370015434804 -65.64603326406433 260.431189497527 -69.37373638153076 260.41241359710693 C-72.26604893093133 260.4017544439651 -75.15804934468946 260.4108638003687 -78.05033302307129 260.4257984161377 C-79.42281982690463 260.4309264194208 -80.79534001262797 260.430564996303 -82.16782188415527 260.4242534637451 C-95.20665815357006 260.3868236552863 -104.91276832491255 264.12270107165074 -116.263671875 270.087890625 C-123.28483762801363 273.56818084006045 -128.69801686915736 274.22100361481944 -137 276 C-137 294.81 -137 313.62 -137 333 C-120.2548978255719 333.0873759385329 -120.2548978255719 333.0873759385329 -103.509765625 333.146484375 C-96.67188460448193 333.1643608423859 -89.83412504121284 333.18542206249936 -82.996337890625 333.226318359375 C-77.4785040592242 333.25911050727257 -71.96080063558128 333.27689464443824 -66.4428768157959 333.284631729126 C-64.34633013313436 333.290139781462 -62.24978992166044 333.3008948556128 -60.15329933166504 333.3171901702881 C-37.03479657570563 333.48960225064377 -23.71639838190498 329.1029866992867 -5.86376953125 314.50927734375 C-3.1746216275875554 312.3316100211876 -0.43612229179308315 310.22729644315405 2.3125 308.125 C7.561863212816036 304.10888201922313 12.785911487704652 300.0618097696992 18 296 C25.838556925624346 289.896608581114 33.70203784998489 283.8271457586731 41.5869140625 277.78369140625 C50.107915251721636 271.25195855780294 58.57637748885702 264.6568891839862 67 258 C67.99000000000001 257.218828125 68.98000000000002 256.43765625 70 255.6328125 C71.33031249999999 254.57707031249998 71.33031249999999 254.57707031249998 72.6875 253.5 C73.45449218750002 252.89156249999996 74.22148437499999 252.28312499999998 75.01171875 251.65625 C79.01839014686368 248.38537760047257 79.01839014686368 248.38537760047257 80.875 243.625 C81.01533977674131 239.55514647450184 80.56972166731987 238.1013882191791 78 235 C68.91628871073499 229.6150739451412 61.52120276223434 234.41479162807224 53.5625 239.5625 Z " fill="#000000" transform="translate(308,185)"/>
<path d="M0 0 C13.779121931013947 10.03790633253385 20.275074028764493 25.39337691216673 23.49609375 41.79296875 C25.99983965498427 59.504652744518694 25.246467621664237 77.8636779818799 15 93 C11.542595822947078 97.23831149573158 7.814924445094448 101.19538762561638 3.9375 105.05078125 C-1.6246985400257472 110.83315014890172 -2.931323625397681 116.16835543081538 -3.0447120666503906 124.14566421508789 C-2.9288264564737574 127.77324963018759 -2.725413426666819 131.38633189376026 -2.49267578125 135.00830078125 C-2.41304036056772 136.39260097292538 -2.3345513086692335 137.77696750942027 -2.257110595703125 139.16139221191406 C-2.088867988816901 142.1251814333824 -1.9126043879180088 145.0883412303922 -1.7298927307128906 148.05127334594727 C-1.4400369822324137 152.75204506459863 -1.168258847674224 157.4537610478577 -0.898651123046875 162.15573120117188 C-0.46929632052024317 169.60616695057564 -0.027705988561251615 177.05581944825747 0.41902267932891846 184.50523173809052 C1.2166928132531893 197.81245161087816 1.994530451430478 211.12083565611886 2.766395688056946 224.42957484722137 C3.037003987478897 229.08693927411082 3.3132040995526495 233.74392662869798 3.594318151473999 238.40066838264465 C3.7697464646965955 241.3195509397351 3.941368081109772 244.23864978839055 4.112201690673828 247.15780448913574 C4.228279855896403 249.12052764217685 4.349066953829151 251.08297061435775 4.4700927734375 253.04539489746094 C4.848624376175962 259.5737482477746 5.092685380387252 266.09258909899063 5.149444580078125 272.6310729980469 C5.1673539257049015 274.5768867206573 5.1673539257049015 274.5768867206573 5.185625076293945 276.56200981140137 C4.889680668500546 282.0432410689342 3.31359829931273 285.6059825084651 -0.4609375 289.51171875 C-5.453320589485088 293.9339058013459 -10.270191026886664 296.09203157570073 -17 296 C-24.57189481350565 294.61700551351487 -29.6863502914739 292.2134023729528 -34.25 285.875 C-38.628091147261784 277.5216695213038 -36.9283943807219 266.8855115433323 -36.379150390625 257.83642578125 C-36.29980212036082 256.4357581106599 -36.22115275244005 255.03505070110236 -36.14314270019531 253.63430786132813 C-35.97469573914884 250.63634757732405 -35.801381413902504 247.63872411471476 -35.624162673950195 244.6412696838379 C-35.34334270001159 239.8909120498255 -35.07362393899962 235.13996200659864 -34.80528259277344 230.38888549804688 C-34.379124953014184 222.8666471976557 -33.94562742963046 215.34485298053204 -33.50895828008652 207.8232182264328 C-32.728080008629604 194.3703551662325 -31.95750605627768 180.91690327320964 -31.192933976650238 167.46310412883759 C-30.924840530062966 162.75121748290542 -30.652848892005522 158.03957736630844 -30.377554059028625 153.32810616493225 C-30.206136689364712 150.3842435610643 -30.037505790133082 147.44022558185202 -29.869504928588867 144.49616622924805 C-29.75494486851221 142.50410333610455 -29.63694536494404 140.51223914378153 -29.518798828125 138.5203857421875 C-27.736071592358712 122.51389175996093 -27.736071592358712 122.51389175996093 -33 108 C-34.97063389617267 105.79551665474054 -37.10920354817847 103.843159535994 -39.3125 101.875 C-51.517007880402616 90.2501977188341 -55.78318724464293 75.67760363834321 -56.400634765625 59.09375 C-56.69586565571751 39.82358011422673 -51.39761397825475 20.812818745724257 -38.8515625 5.83203125 C-28.20534718159911 -4.701882219050617 -13.236864697614351 -7.844851122707553 0 0 Z M-33.84375 16.26953125 C-44.53086160047906 32.678280429037386 -48.229296125966584 53.806687109410404 -44.31640625 73.08203125 C-41.260565089408374 83.77113539265036 -35.44823221161005 91.10033898654461 -27.314453125 98.400634765625 C-22.43546462521897 102.96324642381285 -19.457923535841473 108.16745377137465 -18.656204223632813 114.87736511230469 C-18.54893297553076 118.16378085925851 -18.574679705678932 121.42176964075588 -18.654296875 124.708984375 C-18.669823532104488 125.93162742614743 -18.685350189208975 127.15427047729492 -18.70134735107422 128.4139633178711 C-18.931436239850996 142.1794087220248 -19.706515517686853 155.91608672742666 -20.53125 169.65625 C-20.689960061203692 172.38991394380292 -20.846023051501675 175.12372715005478 -21.0020751953125 177.8575439453125 C-21.36784665722314 184.24234556978206 -21.74104372125896 190.62668599381925 -22.11767816543579 197.0108551979065 C-22.79337721022796 208.46689037047759 -23.457953897303128 219.923570281664 -24.116769313812256 231.38058805465698 C-24.383974290471997 236.02081943196555 -24.65754782921647 240.660649064621 -24.9327392578125 245.3004150390625 C-25.074442445505383 247.73607570885025 -25.216010504057067 250.17174424527946 -25.357421875 252.607421875 C-25.42287704467776 253.68913162231445 -25.488332214355523 254.7708413696289 -25.555770874023438 255.8853302001953 C-25.72985161688007 258.9230741369463 -25.874980198947128 261.9598587417678 -26 265 C-26.047740631103466 266.07576797485353 -26.095481262207045 267.15153594970707 -26.144668579101563 268.25990295410156 C-26.17205612182613 269.31660690307615 -26.199443664550813 270.37331085205074 -26.2276611328125 271.4620361328125 C-26.25666755676275 272.40595466613763 -26.285673980712886 273.3498731994629 -26.31555938720703 274.32239532470703 C-25.814704397465448 278.57228208626304 -23.994695914372528 281.17108673802295 -20.75 283.875 C-16.99479018401655 285.41122219744784 -14.883234694436169 285.1094956269817 -11 284 C-8.186611354011688 281.9762391252441 -6.283398715650378 280.4038488330614 -5.5764007568359375 276.9016513824463 C-5.445631188046491 274.25000036811207 -5.490249717003849 271.65038608899863 -5.591796875 268.997314453125 C-5.611835250854483 267.9896644306183 -5.631873626708966 266.9820144081116 -5.652519226074219 265.943829536438 C-5.732864809097919 262.6269995887301 -5.859158586170338 259.3147910537326 -6 256 C-6.046376037597611 254.88993465423584 -6.092752075195335 253.7798693084717 -6.140533447265625 252.63616561889648 C-6.46077671267858 245.40972460996215 -6.864298991907731 238.18942757007255 -7.2963714599609375 230.96889305114746 C-7.537766424080019 226.93404867731857 -7.77100890890415 222.89880262046563 -8.0020751953125 218.8633575439453 C-8.452034998469003 211.02768772907268 -8.911517983293493 203.1925922016933 -9.372413635253906 195.35755920410156 C-9.959750530381712 185.36780961199634 -10.543401808457475 175.37785644000132 -11.116769313812256 165.38729459047318 C-11.382698633115297 160.7603637057349 -11.65685639670744 156.13396438906932 -11.9327392578125 151.5076141357422 C-12.533699240674991 141.25676766217964 -13.134565491767717 131.00082146613954 -13.283203125 120.731689453125 C-13.302576828002884 120.04833872795103 -13.321950531005882 119.36498800277707 -13.341911315917969 118.6609296798706 C-13.360708220375727 111.21643546329437 -10.560856140636247 104.7935199624298 -6 99 C-4.727759827169393 97.85307684633466 -3.4341167802945165 96.72964520699139 -2.125 95.625 C7.337585734890126 87.60466710946116 12.162036433835283 77.89277243035428 13.74609375 65.6484375 C14.95977618058987 48.20875457429361 11.419082760093374 30.87223593698951 2 16 C-2.2220206352933474 11.151900259092827 -6.771342456075672 7.385071681908812 -13.31640625 6.7890625 C-22.000734779934646 6.452560947424274 -28.295395508814977 9.439883030977796 -33.84375 16.26953125 Z " fill="#000000" transform="translate(865,257)"/>
<path d="M0 0 C3.0149873803895844 0.5276227915681773 3.722289220824905 0.9713492630375811 5.5 3.4375 C5.8718109130859375 6.4576416015625 5.8718109130859375 6.4576416015625 5.868896484375 10.212890625 C5.872662963867242 10.897916564941397 5.8764294433593705 11.582942504882794 5.88031005859375 12.288726806640625 C5.886744817882686 13.776663536946558 5.886410306183734 15.264641366030446 5.880125045776367 16.752578735351563 C5.871004582097953 19.116864881324716 5.881252590830741 21.480359382351367 5.8967437744140625 23.8446044921875 C5.93679270239636 30.566637524330815 5.9380612393669026 37.28860968788638 5.935791015625 44.0107421875 C5.935739547072899 48.12519438707426 5.955097858307681 52.23922507646006 5.985124588012695 56.35356140136719 C5.995850099857535 58.66621375888195 5.9838734507142135 60.97802521196934 5.9712982177734375 63.2906494140625 C5.998580193218459 74.18380809267018 7.585071620664621 83.45777661143097 14.5 92.25 C15.193515625000032 93.15750000000003 15.88703124999995 94.065 16.6015625 95 C17.228046875000018 95.804375 17.854531250000036 96.60874999999999 18.5 97.4375 C23.46118343092678 104.1684623156433 24.826768704044866 109.9963307492801 24.704833984375 118.215087890625 C24.69443289279934 119.51724668025969 24.69443289279934 119.51724668025969 24.68382167816162 120.84571170806885 C24.53906246526276 132.24296303247303 23.867749258216804 143.61858439264063 23.22265625 154.99609375 C23.090093090094342 157.4025689273234 22.95797609145211 159.80906871853915 22.826278686523438 162.21559143066406 C22.55130740835682 167.22033328589202 22.272849310669812 172.22486327305 21.991455078125 177.229248046875 C21.632554592046972 183.6123672181888 21.279668120981 189.99579991108823 20.92903995513916 196.37937831878662 C20.59139680733813 202.5225602868614 20.25094505682 208.66558560443235 19.91015625 214.80859375 C19.84638353347782 215.9616695976257 19.782610816955525 217.11474544525146 19.71690559387207 218.3027629852295 C19.423675809504175 223.58864506453767 19.124504635287735 228.87395345364212 18.806671142578125 234.15841674804688 C18.615256636778327 237.34195268702047 18.450326095483547 240.52299041709364 18.330780029296875 243.70999145507813 C18.275038146972634 244.87054046630863 18.219296264648392 246.03108947753907 18.161865234375 247.226806640625 C18.12818344116215 248.16472549438475 18.094501647949187 249.1026443481445 18.059799194335938 250.06898498535156 C17.31939761658259 253.20163017584446 16.012540720003017 254.48136220971935 13.5 256.4375 C10.750000000000114 256.1875 10.750000000000114 256.1875 8.5 255.4375 C6.028879254621643 249.7821068550478 6.4412096404111026 244.80439684254242 6.82373046875 238.7958984375 C6.881959838867147 237.73463241577144 6.940189208984407 236.673366394043 7.00018310546875 235.57994079589844 C7.1952998370242085 232.06823549856216 7.406496788601203 228.55767727365821 7.6171875 225.046875 C7.755785277810219 222.58431709964026 7.893144982413332 220.12168923597733 8.029327392578125 217.65899658203125 C8.391188016385286 211.15825417626132 8.765663801619098 204.65830802856033 9.14404296875 198.15850830078125 C9.744828237694833 187.828780398344 10.33308406702588 177.49838544303003 10.90903091430664 167.16724395751953 C11.110818152745992 163.59706646831614 11.321915415638614 160.0275307712218 11.533905029296875 156.45794677734375 C12.192636572920946 145.0604486504473 12.678428390111208 133.6632171272974 12.83642578125 122.2470703125 C12.864734172821045 121.17823986053469 12.89304256439209 120.10940940856932 12.922208786010742 119.0081901550293 C12.968109802597724 110.78029541896967 11.222338209717577 105.25140199947703 5.625 99.1875 C-4.948968339587395 87.43268240421509 -5.816544025837857 73.37357352988835 -5.80078125 58.38671875 C-5.80467461100227 56.83974595491469 -5.809010588725528 55.2927742168539 -5.8137664794921875 53.74580383300781 C-5.821189035567386 50.52084872059669 -5.820964111151966 47.29600320979608 -5.815673828125 44.071044921875 C-5.809850729789218 39.94062932865353 -5.826897154169956 35.810658026351234 -5.850018501281738 31.68031597137451 C-5.86474304409694 28.49328496777332 -5.865629887850332 25.306361738068745 -5.862508773803711 22.11930274963379 C-5.863021526909051 20.59587529190162 -5.8682506817267495 19.072441731845572 -5.878320693969727 17.549047470092773 C-5.8906584814810685 15.423921630357597 -5.883913098429048 13.299672338557968 -5.872314453125 11.174560546875 C-5.872943878173828 9.967046356201195 -5.873573303222656 8.759532165527332 -5.8742218017578125 7.5154266357421875 C-5.366528388908023 3.3397130058549465 -4.33291171069834 0.7582595493722124 0 0 Z " fill="#000000" transform="translate(721.5,253.5625)"/>
<path d="M0 0 C1.631988525390625 1.160888671875 1.631988525390625 1.160888671875 3 3 C3.380950927734375 5.618408203125 3.380950927734375 5.618408203125 3.38818359375 8.80078125 C3.3976400756836256 9.992116699218741 3.4070965576171375 11.183452148437482 3.416839599609375 12.410888671875 C3.4107669067383313 13.698420410156245 3.404694213867174 14.985952148437491 3.3984375 16.3125 C3.4004585538581296 17.646241854077573 3.403370255450568 18.97998263116267 3.407135009765625 20.313720703125 C3.411556957390758 23.108017257472284 3.405131899201365 25.902025981085103 3.39111328125 28.6962890625 C3.374020941639401 32.277744651612124 3.383862890918749 35.85852582019061 3.4018306732177734 39.43995666503906 C3.412672310574976 42.19377726155335 3.4092205436313634 44.94743801154357 3.401447296142578 47.701263427734375 C3.398473286172134 49.66388384777724 3.407582917387117 51.626510484413075 3.416839599609375 53.589111328125 C3.4073831176757494 54.78044677734374 3.3979266357422375 55.97178222656248 3.38818359375 57.19921875 C3.3857968139648165 58.24940185546876 3.383410034179633 59.29958496093752 3.380950927734375 60.381591796875 C3 63 3 63 1.631988525390625 64.835205078125 C0 66 0 66 -2.5 66.4375 C-5 66 -5 66 -6.631988525390625 64.33656311035156 C-8.33931437719366 61.42045116486389 -8.380376922223036 59.54705718454869 -8.38818359375 56.177490234375 C-8.397640075683626 55.00625106811526 -8.407096557617137 53.83501190185547 -8.416839599609375 52.62828063964844 C-8.410766906738331 51.36778396606445 -8.404694213867174 50.107287292480464 -8.3984375 48.80859375 C-8.401307678222679 47.51180191040038 -8.404177856445358 46.21501007080076 -8.407135009765625 44.87892150878906 C-8.411552017343297 42.13767752825436 -8.405146810309134 39.39672734389961 -8.39111328125 36.655517578125 C-8.374004272074558 33.142467694095444 -8.383876502159978 29.63010455029007 -8.401830673217773 26.117079734802246 C-8.415276641112087 22.764195953047533 -8.405863930971691 19.411497045439546 -8.3984375 16.05859375 C-8.404510192871044 14.79607284545898 -8.410582885742201 13.53355194091796 -8.416839599609375 12.232772827148438 C-8.40738311767575 11.064685821533203 -8.397926635742238 9.896598815917969 -8.38818359375 8.693115234375 C-8.385796813964816 7.66371322631835 -8.383410034179633 6.634311218261701 -8.380950927734375 5.5737152099609375 C-8 3 -8 3 -6.631988525390625 1.1676177978515625 C-4.295843408695987 -0.5037938414942573 -2.804266399647304 -0.4206399599470956 0 0 Z " fill="#000000" transform="translate(751,254)"/>
<path d="M0 0 C2.397082307842652 2.3494627544318405 2.9708427269243884 3.7572272116673844 3.3742218017578125 7.1158905029296875 C3.3735923767089844 8.34116958618165 3.3729629516601563 9.566448669433612 3.372314453125 10.828857421875 C3.375965118408203 11.507488403320338 3.3796157836914063 12.186119384765618 3.3833770751953125 12.88531494140625 C3.391472189891374 15.125622122777429 3.377874735000205 17.365203156705945 3.36328125 19.60546875 C3.362762213282508 21.1700286814592 3.363281598592039 22.734589270950437 3.3647918701171875 24.299148559570313 C3.364702173258479 27.58014655672946 3.3542837973141104 30.86089873590504 3.336181640625 34.141845703125 C3.3135883329233593 38.326774707263326 3.312933692785805 42.51134173108943 3.319699287414551 46.69631481170654 C3.3230593863276 49.92988745833895 3.316369443332178 53.16337918359403 3.306570053100586 56.39693641662598 C3.302745774417758 57.938546625718516 3.301558214538204 59.48016588939794 3.3031558990478516 61.021780014038086 C3.3060673623111825 77.83582457218978 -0.12844916523067695 88.9525160306822 -10.38671875 102.41796875 C-14.110506285454903 108.37783209367001 -15.472849338838273 113.90668710581002 -15.26953125 120.868896484375 C-15.252468795776394 122.01570593357087 -15.252468795776394 122.01570593357087 -15.235061645507813 123.18568325042725 C-15.034824879135499 133.29692715795375 -14.453449427325609 143.39982292208487 -13.888824462890625 153.4958667755127 C-13.682579749693673 157.18568184565146 -13.482537559123216 160.8757908919423 -13.283935546875 164.56602478027344 C-12.861327657608172 172.39848051248362 -12.431158417883353 180.23051095019127 -12 188.0625 C-11.499722957846984 197.15449753409325 -11.00268508385409 206.24665190179905 -10.513092041015625 215.33923149108887 C-10.317417125215684 218.9445578158079 -10.116254159560185 222.54954926781102 -9.914794921875 226.15455627441406 C-9.388436995671555 235.74192171685127 -8.877969846164433 245.3334278276953 -8.73046875 254.935302734375 C-8.707507324218795 256.2440184020996 -8.684545898437477 257.5527340698242 -8.660888671875 258.90110778808594 C-9 262 -9 262 -10.356689453125 263.92201232910156 C-12.677770973499719 265.4446078402618 -14.285220018472046 265.3480487155805 -17 265 C-21.375637269461095 260.6243627305389 -20.354311824303522 252.2008501772026 -20.664306640625 246.285888671875 C-20.722974090576145 245.21635955810547 -20.78164154052729 244.14683044433593 -20.842086791992188 243.04489135742188 C-21.035196633280748 239.5027752817105 -21.22305024779962 235.96040675103592 -21.41015625 232.41796875 C-21.543201715012742 229.92726902581103 -21.676294775183464 227.43657184359802 -21.809432983398438 224.9458770751953 C-22.088490482398583 219.7063197782648 -22.36453402300492 214.46661043427991 -22.638916015625 209.226806640625 C-22.917155228979254 203.91527616043027 -23.201725099773512 198.60413236861632 -23.491455078125 193.293212890625 C-26.251013800999885 142.65821043697997 -26.251013800999885 142.65821043697997 -26.414579391479492 124.48494911193848 C-26.432700039091515 122.52256604442402 -26.466679163499748 120.56034844502085 -26.501480102539063 118.59819030761719 C-26.475202817061472 106.52718786190394 -22.302092041525725 98.88086202778072 -15.21875 89.46875 C-9.231250114348995 80.577414205384 -8.42780306182567 71.95558564153657 -8.483579635620117 61.515092849731445 C-8.496336228639962 59.114526027476074 -8.484810495131796 56.71508750385249 -8.467544555664063 54.31455993652344 C-8.441009233386694 50.0923682637133 -8.435243427058822 45.8704594003259 -8.4366455078125 41.648193359375 C-8.438886545772334 34.86681249277842 -8.42481166949699 28.085777311473294 -8.381059646606445 21.304533004760742 C-8.3712206044803 18.940633931125376 -8.379932054875894 16.57728192460479 -8.389755249023438 14.213394165039063 C-8.383614177129516 12.76994464128876 -8.37670349693542 11.326498115342247 -8.368896484375 9.883056640625 C-8.369858245849628 8.623043365478509 -8.370820007324255 7.363030090332018 -8.371810913085938 6.0648345947265625 C-8 3 -8 3 -6.6331939697265625 1.0971527099609375 C-4.257720545010329 -0.49865106698047157 -2.7938480623431587 -0.4889234109100471 0 0 Z " fill="#000000" transform="translate(778,254)"/>
<path d="M0 0 C5.023637398144956 1.674545799381633 6.101345737078873 4.2095215615037205 8.5859375 8.70703125 C11.962765043959394 16.08392632086435 11.966294045132258 24.849254722908142 9.1875 32.4375 C6.814230203099328 37.66872145373168 3.4279940784272185 41.87949657626217 -0.25 46.25 C-7.6011894862153895 55.231369581484955 -13.223328639950182 63.18072486461756 -12.25 75.25 C-10.813186906210035 80.36445904369793 -9.133082158259185 85.2946328741204 -6 89.625 C-4.0780798410470425 92.50788023842944 -3.590792720165723 93.8597911322808 -4.25 97.25 C-7.25 99.25 -7.25 99.25 -9.6875 99.125 C-14.702475755262753 97.41256925430054 -16.5262458962236 93.9564479540494 -18.875 89.4375 C-23.62239472483759 79.4022379201125 -24.91416418967276 69.96805940729206 -21.75 59.1875 C-18.951055443295104 51.62837860918091 -14.171811610406053 45.75513228841936 -9.05859375 39.62109375 C-3.992045480531033 33.509511583329356 -0.9345695525472593 28.870844479694256 0.25 20.875 C-0.3518870970868875 16.51131854612038 -1.9766764350854373 13.46972375454584 -4.15625 9.6796875 C-5.385235097839427 6.949584889799667 -5.608869355818456 5.210672185501892 -5.25 2.25 C-3.25 0.25 -3.25 0.25 0 0 Z " fill="#000000" transform="translate(559.25,310.75)"/>
<path d="M0 0 C4.8276649553148445 2.8965989731888726 6.6558469027870615 6.370186329655041 8.3125 11.625 C10.619441916125083 21.198808951919034 9.13166397850182 28.810951632463798 4.515625 37.44921875 C1.8646433343237732 41.46165417808743 -1.2514341502093203 44.81581510837157 -4.5888671875 48.26123046875 C-11.671895009221771 55.63591237724859 -13.911739654257985 62.97140602611012 -13.85546875 73.06640625 C-13.315728388777075 78.27994226664833 -11.241224451116864 82.11077751577119 -8.5 86.5 C-7.602812500000027 88.046875 -7.602812500000027 88.046875 -6.6875 89.625 C-6.295624999999973 90.24374999999998 -5.903749999999945 90.86250000000001 -5.5 91.5 C-6.6875 94 -6.6875 94 -8.5 96.5 C-10.8125 97.25 -10.8125 97.25 -13.5 96.5 C-19.013419041233874 91.78233216059368 -23.178368351363588 84.64429183649679 -24.5 77.5 C-25.543048750739217 62.00816117754522 -22.270172123228463 52.680511583951386 -12.21875 40.8046875 C-5.597563704953018 32.91515707700563 -1.8823481323847773 27.735933138771884 -2.12890625 17.1484375 C-2.6805430430607657 13.21149280847186 -4.370191772655744 10.8278253552254 -6.5 7.5 C-7 4.75 -7 4.75 -6.5 2.5 C-4.276537183406617 -0.05286471534799375 -3.3630403458743103 -0.6726080691748848 0 0 Z " fill="#000000" transform="translate(617.5,311.5)"/>
<path d="M0 0 C8.007301727653385 7.620430599852114 13.617048972475914 15.658422459259896 17.296875 26.09375 C19.536941650587437 30.80661749863856 23.436689306144217 32.14625281021415 28.03369140625 34.275390625 C36.296144173003995 38.12592896785338 44.759222293577295 42.535504487741264 49.69140625 50.564453125 C53.28767493521116 56.22987930010805 56.545923468727096 57.830446900461766 63.00390625 59.41015625 C64.07511718749993 59.646054687500055 65.14632812500008 59.881953124999995 66.25 60.125 C84.73110484542849 64.75065487982204 101.70711432092139 70.84531490100562 113.5 86.625 C115.75461435760326 90.64409515920579 115.8943497360151 94.05054306222496 115.5 98.625 C112.3990315776191 108.65754489593826 104.45090052137778 115.60108769756005 95.5 120.625 C87.05900528573511 124.68317053570422 78.36713518284773 128.0682462172656 69.4375 130.875 C63.5825791872079 132.88762902939732 58.97075579546845 135.8036953087261 53.9375 139.3125 C30.671895649861654 155.46703087363085 3.2692150056834635 164.0941178046063 -24.5 168.625 C-25.497250976562555 168.7887109375 -26.494501953124995 168.95242187500003 -27.52197265625 169.12109375 C-43.78613192992384 171.63325366334232 -60.01715206145104 171.9082475027128 -76.4375 171.9375 C-77.4245291137695 171.94117584228513 -78.4115582275391 171.94485168457027 -79.42849731445313 171.94863891601563 C-97.22691374351689 171.98324566280257 -114.8740760424248 170.87808909639557 -132.4375 167.875 C-133.424921875 167.7072607421875 -134.41234375 167.53952148437497 -135.4296875 167.36669921875 C-161.13008397448016 162.7872814393004 -189.75974091929862 154.59628399084318 -210 137.375 C-216.01624210528064 132.42779183560583 -222.15247523903088 130.42491461452232 -229.5439453125 128.164794921875 C-243.42396709587518 123.8995017414162 -258.14445980771256 117.94570995693357 -265.5625 104.6875 C-268.00577125000467 99.14772178384362 -268.68171053577294 94.35086380690768 -266.8359375 88.53125 C-262.11563887246336 77.85927049426493 -252.42918393721249 72.70910211228556 -242.5 67.625 C-241.14841796874998 66.92890624999995 -241.14841796874998 66.92890624999995 -239.76953125 66.21875 C-234.88046720020907 63.96559197409931 -230.10549662903287 62.49853706670922 -224.8359375 61.4453125 C-212.4802541442486 58.91724608906145 -204.95004183234772 56.88500162779326 -197.125 46.81640625 C-190.55632558025496 38.384788292026656 -180.02761872483342 34.714061702203026 -170.147705078125 31.613525390625 C-165.102945646519 30.14710040415474 -165.102945646519 30.14710040415474 -161.5 26.625 C-160.744782648576 24.85393322206818 -159.99568968638755 23.07937429591385 -159.307373046875 21.28125 C-155.67897794091044 11.871780260431763 -150.83831851085966 5.452293544922327 -143.5 -1.375 C-142.71882812499996 -2.1123437499999795 -141.93765625000003 -2.849687500000016 -141.1328125 -3.609375 C-105.17358682759959 -34.846682149762046 -34.866888294463934 -31.505619926508473 0 0 Z M-139.5 9.625 C-140.14968750000003 10.228281250000009 -140.79937500000005 10.831562500000018 -141.46875 11.453125 C-146.01343217514778 16.037672808263096 -148.23865746973377 21.220222234732546 -150.2841796875 27.25830078125 C-152.3033512421568 32.99519366955474 -155.54028067504436 37.03139898240386 -161.0625 39.6875 C-164.39966779338033 41.26826369160119 -167.7842593881482 42.35891867306083 -171.3125 43.4375 C-182.60488723043244 47.08756455933167 -192.59573698635893 53.929749066107206 -198.375 64.4375 C-201.1818967937303 70.54389468039994 -202.44978033048142 76.33242818766439 -200.5625 82.875 C-192.37604486015329 93.79027351979562 -179.22628504038255 95.02451247677345 -166.538330078125 96.864990234375 C-152.58175790569567 98.74985058514324 -138.55445811944105 99.80274122454637 -124.5 100.625 C-123.50274902343745 100.68429687499997 -122.505498046875 100.74359374999995 -121.47802734375 100.8046875 C-37.056841479436684 108.51082150398099 -37.056841479436684 108.51082150398099 41.5 87.625 C45.864183275157984 83.26081672484202 47.58477464942257 79.03869525323228 47.9375 72.9375 C47.78287631032026 65.52660744463878 44.07107645354165 58.51354693007397 39.12109375 53.0546875 C33.51715238523752 48.11241632047455 27.131748588507094 44.759323158575455 20.1875 42.125 C13.248326763533328 39.32246938965926 10.072384161050422 36.3073355566479 7.12890625 29.4140625 C6.653242187500041 28.22554687500002 6.177578124999968 27.037031249999984 5.6875 25.8125 C2.778528080738397 18.687407740613935 -0.9015421429430717 13.849619465950468 -6.5 8.625 C-7.250234374999991 7.917304687500007 -8.000468749999982 7.209609375000014 -8.7734375 6.48046875 C-42.22645591517323 -22.582535620657154 -108.38848876495149 -21.27341869234266 -139.5 9.625 Z M-252.828125 86.73046875 C-255.0816234560603 89.28408265464782 -256.362695724285 91.32181380417853 -256.72265625 94.73828125 C-256.32589177989826 100.18653482725085 -255.0078419676131 103.33294081701388 -250.87109375 106.9453125 C-183.96730049718485 154.34009190479492 -53.86053533956351 142.47617642717705 26.79052734375 129.86474609375 C68.76580286886156 123.4765099943263 68.76580286886156 123.4765099943263 103.3125 101.25 C104.77463004119477 98.01792306683274 105.00244962122451 96.14214734857148 104.5 92.625 C98.55497641190459 80.47647353737023 84.37775250535503 75.96785207780192 72.5 71.625 C65.63281083661627 69.35839672478176 65.63281083661627 69.35839672478176 58.5 68.625 C58.35304687500002 69.67558593750005 58.206093750000036 70.72617187499998 58.0546875 71.80859375 C56.61241578442548 81.20070296686004 55.15275273296652 89.16123982049169 47.30859375 95.35546875 C-4.611352573464842 129.10760079013357 -123.64176263651802 116.32052024359393 -181.237060546875 104.17626953125 C-191.3802377105327 101.8588939207483 -201.42268073954068 98.63619752412933 -207.5 89.625 C-211.47225900749868 82.95727952312723 -210.784101980422 76.21157510682508 -210.5 68.625 C-225.31568941461973 68.625 -242.2049632221358 76.9260092896028 -252.828125 86.73046875 Z M-187.5 138.625 C-170.30159274942912 157.5216042878974 -123.76037111599817 159.54628017776008 -100.010498046875 160.810791015625 C-54.86286545385576 162.7927682918039 -7.476463214338423 160.75925692811597 33.5 139.625 C30.206173427065778 138.52705780902193 28.834103483597914 138.72315319454037 25.46875 139.296875 C24.443784179687555 139.4653393554688 23.418818359374995 139.6338037109375 22.36279296875 139.807373046875 C21.253071289062518 139.99468994140625 20.143349609375036 140.1820068359375 19 140.375 C9.478402472184825 141.91033257964273 -0.0387389101088047 143.2500910074166 -9.625 144.3125 C-10.676230468749964 144.43141601562502 -11.727460937500041 144.55033203125004 -12.810546875 144.6728515625 C-26.518620175033675 146.15469001580584 -40.18617177477927 146.78607175713444 -53.96875 146.828125 C-55.40624520242136 146.83515134965478 -56.84374011055763 146.8422381254113 -58.28123474121094 146.84938049316406 C-62.854161077946515 146.8687834264233 -67.42703665019906 146.87381568233332 -72 146.875 C-72.78067462921149 146.8754418563842 -73.56134925842287 146.87588371276854 -74.36568069458008 146.87633895874023 C-112.54281249447286 146.88766179992024 -149.69085356786962 143.9058696732543 -187.5 138.625 Z " fill="#000000" transform="translate(655.5,454.375)"/>
<path d="M0 0 C6.349117315258468 5.120255899401968 10.985703552950781 11.552700193706983 12.8125 19.5625 C12.874374999999986 20.36687500000005 12.936249999999973 21.171249999999986 13 22 C6.564794724773833 25.64079463379187 1.4121668078444145 27.641346767362393 -6 28 C-6.4543945312500455 26.986796874999982 -6.4543945312500455 26.986796874999982 -6.91796875 25.953125 C-9.762056194929755 19.89740650187275 -12.019759067821724 15.906618908071437 -18.234375 12.9296875 C-24.973162213127466 10.664388973553173 -33.36502964986698 10.949824321207416 -40 13.5 C-46.19978444953267 16.784272431443924 -49.528423656564314 22.144343197811736 -51.8125 28.625 C-53.90856576534884 35.459444737925196 -54.20963202062694 42.155327625190694 -54.25 49.25 C-54.270624999999995 50.140742187499995 -54.29124999999999 51.03148437499999 -54.3125 51.94921875 C-54.368724098794246 61.63381976730852 -52.01372092960594 70.2910164937989 -46 78 C-40.940831605935955 82.92944612754968 -35.58141391498668 84.28723457415867 -28.625 84.3125 C-22.301608878383945 84.18301076201465 -17.03481692728849 83.81077004003896 -12.25390625 79.3828125 C-8.35425436733567 75.02492814191464 -5.896754522952051 71.16321792679003 -5.375 65.25 C-5.262851562500032 64.05117187500002 -5.262851562500032 64.05117187500002 -5.1484375 62.828125 C-5.099453124999968 62.22484374999999 -5.050468749999936 61.62156249999998 -5 61 C-5.6309155273437455 61.005236816406295 -6.261831054687491 61.01047363281248 -6.911865234375 61.015869140625 C-9.753733470208203 61.036578262535386 -12.595585875723827 61.04964066007119 -15.4375 61.0625 C-16.927333984374968 61.075068359374995 -16.927333984374968 61.075068359374995 -18.447265625 61.087890625 C-19.863623046874977 61.092724609374955 -19.863623046874977 61.092724609374955 -21.30859375 61.09765625 C-22.183142089843727 61.102893066406295 -23.057690429687455 61.10812988281248 -23.958740234375 61.113525390625 C-26 61 -26 61 -27 60 C-27.099812137205845 57.32268620200671 -27.13879875388966 54.67695825458691 -27.125 52 C-27.130800781249945 50.874648437500014 -27.130800781249945 50.874648437500014 -27.13671875 49.7265625 C-27.126610533453913 44.12661053345391 -27.126610533453913 44.12661053345391 -26 43 C-23.054644297350137 42.89889646875622 -20.133224402031146 42.86030720571716 -17.1875 42.8671875 C-16.303444824218786 42.866230773925736 -15.419389648437459 42.865274047851585 -14.508544921875 42.864288330078125 C-12.635578705187868 42.86360648508264 -10.762610141032951 42.86546106952528 -8.8896484375 42.86962890625 C-6.012316124516701 42.874977107575205 -3.135139921448058 42.869684066925515 -0.2578125 42.86328125 C1.5572920134208061 42.863942030700514 3.3723964291907578 42.865223191706605 5.1875 42.8671875 C6.054152832031264 42.86516326904302 6.920805664062527 42.86313903808593 7.813720703125 42.861053466796875 C13.885049906343852 42.88504990634385 13.885049906343852 42.88504990634385 15 44 C15.104038455298792 45.70772422363598 15.138532241048893 47.419738058183384 15.145263671875 49.130615234375 C15.151643524169913 50.22522567749024 15.158023376464826 51.31983612060549 15.164596557617188 52.44761657714844 C15.165709381103511 53.63923904418948 15.166822204589835 54.83086151123052 15.16796875 56.05859375 C15.17296134948731 57.88053001403807 15.17296134948731 57.88053001403807 15.178054809570313 59.73927307128906 C15.183129228816142 62.31421529025488 15.185462977527322 64.88916411409025 15.185302734375 67.464111328125 C15.187488629847053 71.41693897342986 15.205637616642434 75.36948745187453 15.224609375 79.322265625 C15.227543221536052 81.817707373031 15.229528075786448 84.31315045463077 15.23046875 86.80859375 C15.237654266357367 87.99819198608395 15.244839782714848 89.1877902221679 15.252243041992188 90.41343688964844 C15.249166412353475 91.51119949340818 15.246089782714876 92.60896209716793 15.242919921875 93.739990234375 C15.244344940185556 94.70960189819334 15.245769958496112 95.67921356201168 15.247238159179688 96.67820739746094 C15 99 15 99 13 101 C9.960937499999886 101.1953125 9.960937499999886 101.1953125 6.375 101.125 C5.186484374999964 101.10695312500002 3.997968750000041 101.08890625000004 2.7734375 101.0703125 C1.8582031250000455 101.04710937499999 0.9429687499999773 101.02390624999998 0 101 C-0.9900000000000091 97.53499999999997 -0.9900000000000091 97.53499999999997 -2 94 C-2.724453124999968 94.48210937499994 -3.4489062499999363 94.96421874999999 -4.1953125 95.4609375 C-5.162109375 96.09257812500005 -6.12890625 96.72421874999998 -7.125 97.375 C-8.076328125000032 98.00148437500002 -9.027656250000064 98.62796875000004 -10.0078125 99.2734375 C-19.263866567817217 104.61439820231749 -30.56778965740409 104.96418086276742 -40.88671875 102.9140625 C-54.04416271998366 99.05102374344267 -63.90426891688139 91.78041608726721 -70.68359375 79.7734375 C-74.38877078012877 71.96727817836381 -76.64457159343374 63.6339483761725 -77 55 C-77.05156250000005 54.13503906250003 -77.10312499999998 53.270078125000055 -77.15625 52.37890625 C-77.69882332948748 35.71738359032042 -74.13831122456838 19.672188829646643 -63 7 C-62.45343749999995 6.359335937499964 -61.906875000000014 5.718671875000041 -61.34375 5.05859375 C-46.18512129967155 -11.494342778896339 -17.881916014805938 -12.463153586076942 0 0 Z " fill="#000000" transform="translate(869,685)"/>
<path d="M0 0 C5.818797499593245 5.580601110720977 10.454825654407074 12.071663072262481 11.37890625 20.234375 C11.193281249999984 21.56468749999999 11.193281249999984 21.56468749999999 11.00390625 22.921875 C7.289242605721995 25.39831742951867 4.310049854468161 25.32489520245531 0.00390625 25.359375 C-0.7205468749999966 25.392246093750032 -1.4449999999999932 25.42511718749995 -2.19140625 25.458984375 C-4.308593750000028 25.48046875 -4.308593750000028 25.48046875 -7.99609375 24.921875 C-9.890625 22.5859375 -9.890625 22.5859375 -10.99609375 19.921875 C-13.503969749405542 15.370544482560376 -15.821802315284117 12.706588360937303 -20.52734375 10.6171875 C-27.969230999468323 8.521212926573753 -36.17691690120509 8.934438482740234 -43.0625 12.53515625 C-50.16974498666852 17.632271341449155 -52.831541893707225 25.35157101605421 -54.5546875 33.59375 C-56.337517583677965 47.035973285784394 -56.74364809076846 63.70844000228374 -48.61328125 75.23046875 C-43.37290638495978 80.71134391077874 -37.276698530050794 82.2383152484656 -29.87109375 82.484375 C-24.172047641790897 82.237127880338 -19.386062589820142 81.78096388709776 -14.99609375 77.921875 C-12.701454526714429 75.07158322937175 -10.825230351830498 72.08499976049029 -8.99609375 68.921875 C-8.006093749999991 67.43687499999999 -8.006093749999991 67.43687499999999 -6.99609375 65.921875 C-0.502733360453476 65.00551306338718 5.8697379524545 65.6912683463471 12.00390625 67.921875 C11.613917218333143 76.69662821250392 7.180389266806884 84.25369475495779 0.87890625 90.234375 C-10.677182049771744 99.67701762078661 -22.889984788419355 102.85286568815025 -37.5703125 101.45703125 C-50.74030646167964 99.39968897776498 -61.1156615081874 92.56132071815841 -68.99609375 81.921875 C-75.85938079381268 71.06540276705994 -77.54690951457607 59.18068341876631 -77.43359375 46.546875 C-77.4260205078125 45.36093749999998 -77.41844726562499 44.174999999999955 -77.41064453125 42.953125 C-77.24836879707183 34.33000569476644 -76.4898938047545 26.89992933063877 -72.99609375 18.921875 C-72.5719921875 17.94605468750001 -72.147890625 16.970234375000018 -71.7109375 15.96484375 C-65.70897802596619 3.7435836510620675 -56.3831755264066 -3.159519975172657 -43.99609375 -8.078125 C-29.100331505540424 -12.89187340909723 -11.989564545852062 -10.037774968620283 0 0 Z " fill="#000000" transform="translate(220.99609375,687.078125)"/>
<path d="M0 0 C3.4373870742660984 -0.6591212614888491 6.944457254064218 -0.4629966623790551 10.4375 -0.4375 C11.404941406250032 -0.4574804687499636 12.372382812500007 -0.4774609375000409 13.369140625 -0.498046875 C14.297910156249998 -0.49740234374996817 15.226679687499995 -0.49675781250005 16.18359375 -0.49609375 C17.034938964843718 -0.4979467773437136 17.886284179687493 -0.4997998046875409 18.763427734375 -0.501708984375 C21.80690533562796 0.18100539948864025 22.320334698181455 1.4191104172628002 24 4 C25.012374877929688 6.3109130859375 25.012374877929688 6.3109130859375 25.922607421875 8.896484375 C26.271686553955078 9.87683151245119 26.620765686035156 10.85717864990238 26.980422973632813 11.867233276367188 C27.35168807983399 12.931983795166047 27.72295318603517 13.996734313964794 28.10546875 15.09375 C28.5023942565918 16.213164825439435 28.8993197631836 17.33257965087887 29.308273315429688 18.485916137695313 C30.607932269861465 22.15498766672374 31.897959173564573 25.82736133758874 33.1875 29.5 C34.75464635073456 33.94563146048392 36.32684195706662 38.38947979671582 37.89961242675781 42.8331241607666 C38.355778227685164 44.122301518568634 38.81163803866406 45.411587188203384 39.26719665527344 46.700979232788086 C42.42138009463497 55.62637447701513 45.646896719908966 64.52268832841867 48.94921875 73.39453125 C49.32920516967772 74.41952728271485 49.70919158935544 75.4445233154297 50.10069274902344 76.50057983398438 C52.26411354478722 82.33677321513585 52.26411354478722 82.33677321513585 54.453948974609375 88.1630859375 C55.44716699288688 90.78811648077749 56.42430538797828 93.41862130305367 57.3984375 96.05078125 C57.84367012023927 97.2046306610107 57.84367012023927 97.2046306610107 58.29789733886719 98.38179016113281 C59.07568359375 100.509033203125 59.07568359375 100.509033203125 60 104 C58 107 58 107 56.076416015625 107.404052734375 C53.57067993801962 107.43592428545139 51.06844764251821 107.45778360858549 48.5625 107.4375 C47.69044921875002 107.45748046874996 46.81839843749998 107.47746093750004 45.919921875 107.498046875 C39.63209242373853 107.49321380086371 39.63209242373853 107.49321380086371 37.09765625 105.515625 C35.49361262122159 101.83945383653622 34.13829687543529 98.11826119006764 32.875 94.3125 C31.555052979126174 89.27498560399545 31.555052979126174 89.27498560399545 29 85 C26.188366202725547 84.91138007756172 23.401417445691095 84.88477644893328 20.58984375 84.90234375 C19.326791610717805 84.90446617126463 19.326791610717805 84.90446617126463 18.038223266601563 84.90663146972656 C15.337946652277367 84.91224736679658 12.637751724907616 84.92480251606594 9.9375 84.9375 C8.111329318973958 84.94251295414074 6.285157343674086 84.9470762148029 4.458984375 84.951171875 C-0.02737542140283722 84.96222195824191 -4.513673842952301 84.9794972087318 -9 85 C-9.206813964843775 85.63091552734375 -9.413627929687493 86.26183105468749 -9.626708984375 86.911865234375 C-10.56053426441207 89.75477449044968 -11.498953257274763 92.59614616243448 -12.4375 95.4375 C-12.762988281249989 96.43072265625005 -13.088476562499977 97.4239453125 -13.423828125 98.447265625 C-13.892724609375023 99.86362304687498 -13.892724609375023 99.86362304687498 -14.37109375 101.30859375 C-14.65911865234375 102.18314208984373 -14.9471435546875 103.05769042968745 -15.243896484375 103.958740234375 C-16 106 -16 106 -17 107 C-18.488718596174067 107.08669432025306 -19.981444996023413 107.10703493713197 -21.47265625 107.09765625 C-22.37177734375001 107.09443359374995 -23.270898437499994 107.09121093750002 -24.197265625 107.087890625 C-25.615556640624987 107.075322265625 -25.615556640624987 107.075322265625 -27.0625 107.0625 C-28.011894531249993 107.05798828125 -28.961289062499986 107.05347656250001 -29.939453125 107.048828125 C-32.293030650912186 107.03700110225668 -34.646484772750625 107.02052025349042 -37 107 C-36.41394282207901 99.86887711982433 -33.89175610578445 93.43638425867141 -31.51171875 86.73046875 C-31.05156901392226 85.41935028597834 -30.591991604303217 84.10803083583642 -30.132949829101563 82.79652404785156 C-28.9104107897156 79.3088105311391 -27.680001858522473 75.82392425849571 -26.447799682617188 72.33961486816406 C-25.180705129716273 68.75295938347301 -23.92028379225914 65.1639604766491 -22.6591796875 61.5751953125 C-20.67737968824906 55.93797597937942 -18.69140684036796 50.30224421015214 -16.70263671875 44.66748046875 C-14.435382979723045 38.24264458312666 -12.18399067237948 31.812390396003934 -9.94140625 25.37890625 C-9.124551897670926 23.041143244141495 -8.307177723809332 20.703563167603875 -7.489410400390625 18.366119384765625 C-6.999769903275592 16.96481674287145 -6.511289237637641 15.56310825104083 -6.024017333984375 14.160980224609375 C-5.368935823349489 12.27781087037124 -4.708101334661819 10.396645557215493 -4.046875 8.515625 C-3.6946386718749977 7.507900390624968 -3.3424023437499955 6.50017578125005 -2.9794921875 5.4619140625 C-2 3 -2 3 0 0 Z M10 26 C6.496491395035491 34.19337770995503 3.8422739849123673 42.61142649165629 1.25 51.125 C0.8350215691019685 52.47668111268274 0.41965949596448127 53.82824450565511 0.00390625 55.1796875 C-1.0018126441366348 58.451782704163975 -2.002364265592689 61.725429954989636 -3 65 C-1.951287472077695 66.27305555801968 -1.951287472077695 66.27305555801968 0.408447265625 66.113525390625 C1.4505737304687614 66.1082885742187 2.4927001953125227 66.10305175781252 3.56640625 66.09765625 C4.691113281250011 66.09443359374995 5.815820312500023 66.09121093750002 6.974609375 66.087890625 C8.750615234375005 66.075322265625 8.750615234375005 66.075322265625 10.5625 66.0625 C11.750371093750005 66.05798828125 12.938242187500009 66.05347656250001 14.162109375 66.048828125 C17.10812225990179 66.03699674795223 20.05403680714744 66.02051286636697 23 66 C24.368818328649752 63.262363342700496 23.636171827954115 62.162026188211485 22.7421875 59.265625 C22.448522949218727 58.30479003906248 22.15485839843751 57.343955078124964 21.852294921875 56.35400390625 C21.529787597656252 55.32968261718747 21.207280273437505 54.305361328124945 20.875 53.25 C20.553137207031227 52.21407714843747 20.23127441406251 51.17815429687505 19.899658203125 50.11083984375 C16.38207243114971 38.39578766868135 16.38207243114971 38.39578766868135 12 27 C11.340000000000032 26.66999999999996 10.680000000000007 26.340000000000032 10 26 Z " fill="#000000" transform="translate(278,679)"/>
<path d="M0 0 C1.1143391418456758 0.0030363464355787073 1.1143391418456758 0.0030363464355787073 2.251190185546875 0.006134033203125 C3.4194282531738054 0.0035055541992505823 3.4194282531738054 0.0035055541992505823 4.61126708984375 0.000823974609375 C7.198295047285683 -0.00359492613756629 9.785255223715296 -0.0006564257146237651 12.372283935546875 0.002716064453125 C14.162078991778685 0.002043036000486609 15.951873959189697 0.001073020316084694 17.741668701171875 -0.00018310546875 C21.497781045606587 -0.0016601299554395155 25.253869655494498 0.0004946226283664146 29.009979248046875 0.005157470703125 C33.83578887036913 0.010854762494886927 38.66154288408069 0.007575781750688293 43.48735046386719 0.0015850067138671875 C47.18466616335087 -0.002020484194531491 50.88196857843326 -0.0008820761755714557 54.57928466796875 0.001712799072265625 C56.35917161554107 0.0023821017133514033 58.13905975146599 0.0015535318699448908 59.9189453125 -0.000766754150390625 C62.40212215800335 -0.0032930858300233012 64.88520767966878 0.0005470210996918468 67.36837768554688 0.006134033203125 C68.11127044677733 0.00410980224614832 68.85416320800783 0.0020855712890579525 69.61956787109375 0 C74.69552131703159 0.021265945937784636 74.69552131703159 0.021265945937784636 75.80978393554688 1.135528564453125 C75.93636615325278 3.7937551362769 75.9949860740395 6.414402800439007 75.99728393554688 9.073028564453125 C76.00953002929685 9.814884033203157 76.02177612304689 10.556739501953075 76.03439331054688 11.321075439453125 C76.03966871241312 13.260664858931591 75.93167295499296 15.199765662402342 75.80978393554688 17.135528564453125 C73.05538877631466 19.889923723685342 71.34375190637189 19.445421321998424 67.48947143554688 19.549591064453125 C65.60421752929688 19.607598876953148 65.60421752929688 19.607598876953148 63.680877685546875 19.666778564453125 C61.70281127929684 19.713184814453143 61.70281127929684 19.713184814453143 59.684783935546875 19.760528564453125 C58.3449147557007 19.798708850186472 57.00507010435547 19.837760619550977 55.665252685546875 19.877716064453125 C52.380237749087996 19.972248868380007 49.095232556681026 20.057800120444767 45.809783935546875 20.135528564453125 C45.7994764709473 21.210722503662055 45.78916900634766 22.2859164428711 45.77854919433594 23.393692016601563 C45.68098974965068 33.503430453970395 45.578272702306435 43.613104932579404 45.470444679260254 53.72273921966553 C45.41517051445817 58.9207790987158 45.361743472107094 64.11882455433147 45.312469482421875 69.31692504882813 C45.264892033590684 74.32900118683165 45.21255189520906 79.34100660548063 45.156843185424805 84.35299873352051 C45.13638953307105 86.26963106603034 45.11768154761461 88.18628281426845 45.10070991516113 90.10294914245605 C45.07673227491375 92.7778618289301 45.04666906588443 95.45263954711129 45.015106201171875 98.12747192382813 C45.00935073852537 98.9280401611328 45.00359527587892 99.72860839843747 44.99766540527344 100.55343627929688 C44.92383609682696 106.02147640317298 44.92383609682696 106.02147640317298 43.809783935546875 107.13552856445313 C42.406296582390326 107.2341298763796 40.99797916408727 107.26631793039405 39.591033935546875 107.26834106445313 C38.31679565429687 107.2702746582031 38.31679565429687 107.2702746582031 37.016815185546875 107.27224731445313 C36.123494873046866 107.26838012695316 35.23017456054686 107.26451293945308 34.309783935546875 107.26052856445313 C33.416463623046866 107.26439575195309 32.52314331054686 107.26826293945317 31.602752685546875 107.27224731445313 C30.75326049804687 107.27095825195306 29.903768310546866 107.26966918945311 29.028533935546875 107.26834106445313 C28.244139404296902 107.2672131347656 27.459744873046873 107.26608520507807 26.651580810546875 107.26492309570313 C24.809783935546875 107.13552856445313 24.809783935546875 107.13552856445313 23.809783935546875 106.13552856445313 C23.714638018569246 103.42714770199757 23.6842346136595 100.74434342963343 23.696258544921875 98.03567504882813 C23.696112518310542 97.18696838378901 23.69596649169921 96.33826171875 23.695816040039063 95.46383666992188 C23.69651545344766 92.64473965622585 23.704309159811828 89.82570785477242 23.712127685546875 87.00662231445313 C23.713991764540992 85.05749039828379 23.715415714662186 83.10835801503936 23.716415405273438 81.15922546386719 C23.720241384329825 76.01846024652946 23.730072346689894 70.8777230911129 23.741119384765625 65.73696899414063 C23.751331790384768 60.4954770883503 23.755912657846125 55.253980667220844 23.760955810546875 50.012481689453125 C23.771694544863692 39.72015162270975 23.788771920586612 29.42784242304856 23.809783935546875 19.135528564453125 C22.553189697265623 19.143383789062455 22.553189697265623 19.143383789062455 21.271209716796875 19.151397705078125 C18.166394580285726 19.16842870048049 15.061603230060769 19.180973384501613 11.956756591796875 19.190460205078125 C9.95071842506718 19.197968920746916 7.94470191250889 19.210673269389304 5.938690185546875 19.223419189453125 C4.053436279296875 19.22825317382808 4.053436279296875 19.22825317382808 2.130096435546875 19.233184814453125 C0.38623657226560226 19.241040039062455 0.38623657226560226 19.241040039062455 -1.392852783203125 19.249053955078125 C-4.190216064453125 19.135528564453125 -4.190216064453125 19.135528564453125 -6.190216064453125 18.135528564453125 C-6.21705918779071 15.322965752526216 -6.236977940449378 12.510656154266599 -6.252716064453125 9.698028564453125 C-6.261094970703141 8.89558715820317 -6.2694738769531 8.093145751953102 -6.278106689453125 7.266387939453125 C-6.286730367023836 5.222576355191563 -6.242497563519976 3.1786895479862096 -6.190216064453125 1.135528564453125 C-4.472982001430637 -0.581705498569363 -2.289894398964236 0.009593620392820412 0 0 Z " fill="#000000" transform="translate(341.1902160644531,678.8644714355469)"/>
<path d="M0 0 C1.0073041534423623 -0.0026284790038744177 1.0073041534423623 -0.0026284790038744177 2.0349578857421875 -0.00531005859375 C4.264867652522014 -0.009727766879223054 6.49469873755595 -0.006790889426497415 8.724609375 -0.00341796875 C10.267781731334821 -0.004091031804705381 11.810953984632192 -0.005061076674223841 13.3541259765625 -0.006317138671875 C16.59237677865849 -0.007794000832177517 19.83060004702577 -0.0056399346448188226 23.06884765625 -0.0009765625 C27.22878460195227 0.00472072696561554 31.38865703741584 0.001441659019974395 35.54859161376953 -0.0045490264892578125 C38.73635345390153 -0.008154957350825498 41.92409988954614 -0.007015907371851426 45.11186218261719 -0.004421234130859375 C46.64613349954226 -0.003752053313178294 48.18040619558985 -0.004580079997140274 49.71467590332031 -0.006900787353515625 C51.85539478136229 -0.009427844125184492 53.996007797901825 -0.005586012697108345 56.13671875 0 C57.96752990722655 0.0011933898925917674 57.96752990722655 0.0011933898925917674 59.8353271484375 0.002410888671875 C62.568359375 0.12939453125 62.568359375 0.12939453125 63.568359375 1.12939453125 C63.6949415927059 3.787621103073775 63.75356151349263 6.408268767235882 63.755859375 9.06689453125 C63.76810546874998 9.808750000000032 63.780351562500016 10.55060546874995 63.79296875 11.31494140625 C63.79824415186624 13.254530825728466 63.69024839444609 15.193631629199217 63.568359375 17.12939453125 C61.568359375 19.12939453125 61.568359375 19.12939453125 59.581512451171875 19.369903564453125 C58.362396697998065 19.363241729736274 58.362396697998065 19.363241729736274 57.11865234375 19.3564453125 C56.19784881591795 19.356294250488304 55.27704528808596 19.356143188476608 54.328338623046875 19.355987548828125 C53.33246734619138 19.345664978027344 52.33659606933594 19.335342407226563 51.310546875 19.32470703125 C50.292358703613274 19.321877136230455 49.27417053222655 19.31904724121091 48.225128173828125 19.316131591796875 C44.96442037096813 19.304912234318408 41.70398453691081 19.279804490606125 38.443359375 19.25439453125 C36.23633208411252 19.24436699995624 34.02930049975623 19.235240757778 31.822265625 19.22705078125 C26.40420365468401 19.20496720731876 20.98630094052794 19.171472481171577 15.568359375 19.12939453125 C14.744225842095318 22.22448116957662 14.45112337941299 24.902691254983438 14.470703125 28.11376953125 C14.475537109375011 29.515625 14.475537109375011 29.515625 14.48046875 30.94580078125 C14.488847656250016 31.91388671874995 14.497226562499975 32.881972656250014 14.505859375 33.87939453125 C14.510371093749995 34.86294921875003 14.514882812499991 35.84650390624995 14.51953125 36.85986328125 C14.531294562242806 39.283105603263834 14.548596514831047 41.706208216520736 14.568359375 44.12939453125 C16.423521728515652 44.12153930664067 16.423521728515652 44.12153930664067 18.316162109375 44.113525390625 C22.88760662304537 44.09547891836473 27.45904796652985 44.083963825057594 32.030517578125 44.074462890625 C34.01229378998244 44.069421858166834 35.994066263060745 44.062589149822315 37.975830078125 44.053955078125 C40.81788046038753 44.04187938292421 43.659881848263694 44.03616407956622 46.501953125 44.03173828125 C47.39361679077149 44.02657699584961 48.28528045654298 44.02141571044922 49.20396423339844 44.01609802246094 C51.32576538845041 44.015902765883766 53.447467173031725 44.06729423064451 55.568359375 44.12939453125 C57.45388467109768 46.014919827347626 56.700826269415586 48.707082842036584 56.705078125 51.21142578125 C56.70121093749998 52.00935546874996 56.697343750000016 52.80728515625003 56.693359375 53.62939453125 C56.69722656250002 54.42732421874996 56.701093749999984 55.22525390625003 56.705078125 56.04736328125 C56.69496704931976 62.00278685693024 56.69496704931976 62.00278685693024 55.568359375 63.12939453125 C52.53858133522783 63.21810725642433 49.53168915460867 63.244588035415404 46.501953125 63.22705078125 C45.59333023071292 63.225635833740284 44.68470733642579 63.224220886230455 43.74855041503906 63.22276306152344 C40.83428716786807 63.217146463810764 37.920099566393446 63.204591179843874 35.005859375 63.19189453125 C33.03515735617634 63.18688166815127 31.06445413830744 63.18231839184375 29.09375 63.17822265625 C24.25190023370277 63.16802069719756 19.410214902325265 63.14844861946426 14.568359375 63.12939453125 C14.568359375 71.70939453125004 14.568359375 80.28939453124997 14.568359375 89.12939453125 C19.748457031249984 89.11199218749994 19.748457031249984 89.11199218749994 25.033203125 89.09423828125 C28.362547892734653 89.0864488445269 31.691891661642558 89.08037143852857 35.021240234375 89.074462890625 C37.342533887285356 89.06942119629025 39.663824346913884 89.06258801637307 41.985107421875 89.053955078125 C45.31364732197369 89.04188228565613 48.64214539655319 89.03616474335274 51.970703125 89.03173828125 C53.01548324584962 89.02657699584961 54.060263366699246 89.02141571044922 55.13670349121094 89.01609802246094 C56.09762405395509 89.01602249145503 57.05854461669924 89.01594696044924 58.048583984375 89.015869140625 C58.899078216552766 89.01364852905272 59.749572448730476 89.01142791748043 60.62583923339844 89.00914001464844 C62.568359375 89.12939453125 62.568359375 89.12939453125 63.568359375 90.12939453125 C63.6681715122059 92.80670832924318 63.7071581288896 95.4524362766632 63.693359375 98.12939453125 C63.69722656250002 98.87962890624999 63.701093749999984 99.62986328124998 63.705078125 100.40283203125 C63.69496990845391 106.00278399779609 63.69496990845391 106.00278399779609 62.568359375 107.12939453125 C60.42635613938103 107.2289174606284 58.28103232809224 107.25739132022579 56.13671875 107.2587890625 C55.12941459655764 107.26141754150387 55.12941459655764 107.26141754150387 54.10176086425781 107.26409912109375 C51.87185109747804 107.26851682937922 49.64202001244399 107.26557995192638 47.412109375 107.26220703125 C45.86893701866518 107.2628800943047 44.32576476536781 107.26385013917422 42.7825927734375 107.26510620117188 C39.54434197134151 107.26658306333229 36.30611870297423 107.26442899714482 33.06787109375 107.259765625 C28.90793414804773 107.25406833553438 24.74806171258416 107.25734740348003 20.58812713623047 107.26333808898926 C17.40036529609847 107.26694401985083 14.212618860453915 107.26580496987185 11.024856567382813 107.26321029663086 C9.490585250457741 107.26254111581318 7.956312554410147 107.26336914249714 6.4220428466796875 107.26568984985352 C4.281323968637764 107.26821690662518 2.140710952098175 107.26437507519711 0 107.2587890625 C-1.8308111572265489 107.25759567260741 -1.8308111572265489 107.25759567260741 -3.6986083984375 107.25637817382813 C-6.431640625 107.12939453125 -6.431640625 107.12939453125 -7.431640625 106.12939453125 C-7.5291453809228415 104.76564324355047 -7.557956619231845 103.39689543867621 -7.558624267578125 102.0296630859375 C-7.561444091796886 101.14624740600584 -7.564263916015648 100.26283172607418 -7.567169189453125 99.35264587402344 C-7.5651449584960915 98.37598464965822 -7.563120727539058 97.399323425293 -7.56103515625 96.39306640625 C-7.562787475585935 95.37040176391599 -7.5645397949218705 94.34773712158199 -7.56634521484375 93.29408264160156 C-7.570765898613956 89.89541961453881 -7.567824976294219 86.49680813698455 -7.564453125 83.09814453125 C-7.565126101829605 80.74784332214938 -7.5660960739512575 78.39754218066594 -7.567352294921875 76.0472412109375 C-7.568829561980806 71.11416971136453 -7.566673785900434 66.1811162801381 -7.56201171875 61.248046875 C-7.556314421328864 54.90888785692755 -7.559593272143331 48.569771171518596 -7.565584182739258 42.230613708496094 C-7.5691890177734535 37.37522052133659 -7.568051567421264 32.51983745337759 -7.565456390380859 27.664443969726563 C-7.564786905971005 25.32633967144193 -7.5656162858314815 22.988234469040776 -7.567935943603516 20.650131225585938 C-7.5704611975515945 17.388636763879617 -7.5666236653605665 14.127211902832414 -7.56103515625 10.86572265625 C-7.564071502685522 9.400730819702176 -7.564071502685522 9.400730819702176 -7.567169189453125 7.9061431884765625 C-7.564349365234364 7.022727508544904 -7.561529541015602 6.139311828613245 -7.558624267578125 5.2291259765625 C-7.558247241973902 4.457040481567333 -7.557870216369622 3.6849549865722793 -7.55748176574707 2.8894729614257813 C-7.259164224206074 -1.2829484509381928 -3.34103089494198 0.002177806534064075 0 0 Z " fill="#000000" transform="translate(442.431640625,678.87060546875)"/>
<path d="M0 0 C0.8821467590331622 -0.009607543945321595 1.764293518066438 -0.01921508789064319 2.6731719970703125 -0.02911376953125 C3.636559906005914 -0.03336364746098752 4.599947814941402 -0.03761352539061136 5.592529296875 -0.0419921875 C7.079243850708053 -0.05054229736333582 7.079243850708053 -0.05054229736333582 8.595993041992188 -0.05926513671875 C10.7052604895581 -0.06873927274364178 12.814542900914489 -0.07525863792864129 14.923828125 -0.0791015625 C18.11510234470154 -0.0887116632895868 21.305705968822167 -0.11967141765512679 24.496826171875 -0.1513671875 C52.069323477668604 -0.2970748454151817 52.069323477668604 -0.2970748454151817 62.854248046875 9.1611328125 C70.44427326278253 17.05076428693019 72.3645371302083 25.48359610017644 72.27392578125 36.2080078125 C71.93936855154004 45.34755193988201 68.93800760921988 51.835370423326026 62.737060546875 58.4658203125 C59.98500453184943 60.94381265797938 57.17471033478046 62.5347839367912 53.854248046875 64.1611328125 C55.37130198647344 68.31030693246544 57.41437046778981 72.03174280047108 59.662841796875 75.8173828125 C60.03022964477543 76.4421350097656 60.39761749267575 77.06688720703119 60.77613830566406 77.7105712890625 C61.944754733339664 79.69603030921235 63.118186920860694 81.67859334710249 64.291748046875 83.6611328125 C65.07656830606061 84.99297846183424 65.8610765872969 86.32500800338153 66.645263671875 87.6572265625 C70.515491465379 94.32947449514927 70.515491465379 94.32947449514927 74.6630859375 100.8271484375 C75.854248046875 103.1611328125 75.854248046875 103.1611328125 75.541748046875 105.4736328125 C75.31487304687494 106.03050781249999 75.08799804687499 106.58738281249998 74.854248046875 107.1611328125 C68.10982357598596 108.7781362204795 61.406261352013644 110.03217295020283 54.854248046875 107.1611328125 C46.91849716992567 99.37845733317704 41.65251706725826 87.71909489068071 37.344970703125 77.6240234375 C35.762170546077186 74.26384488256917 34.51304553749651 71.76389143496715 31.854248046875 69.1611328125 C27.03657245214697 68.15371339157866 22.69899854304458 68.43542816120134 17.854248046875 69.1611328125 C17.829191894531277 70.2767358398437 17.804135742187555 71.3923388671875 17.7783203125 72.541748046875 C17.684413832224095 76.66605871329125 17.58415290785649 80.79019431349593 17.48193359375 84.914306640625 C17.43852104812663 86.7020255137686 17.39685076153478 88.48978755551275 17.35693359375 90.277587890625 C17.29938344551499 92.84176671754278 17.23564601425585 95.40572693435422 17.170654296875 97.9697265625 C17.145585556030255 99.17597938537597 17.145585556030255 99.17597938537597 17.120010375976563 100.40660095214844 C16.968119753678366 106.04726110569663 16.968119753678366 106.04726110569663 15.854248046875 107.1611328125 C14.377721406545788 107.25994078211795 12.896575690176064 107.29192526696511 11.416748046875 107.2939453125 C10.074833984375005 107.29587890624998 10.074833984375005 107.29587890624998 8.705810546875 107.2978515625 C7.294287109374977 107.29205078125005 7.294287109374977 107.29205078125005 5.854248046875 107.2861328125 C4.442724609374977 107.29193359374995 4.442724609374977 107.29193359374995 3.002685546875 107.2978515625 C2.108076171875041 107.29656249999994 1.2134667968749682 107.29527343749999 0.291748046875 107.2939453125 C-0.5345410156249955 107.29281738281247 -1.360830078124991 107.29168945312495 -2.212158203125 107.29052734375 C-4.145751953125 107.1611328125 -4.145751953125 107.1611328125 -5.145751953125 106.1611328125 C-5.2432567090478415 104.79738152480047 -5.272067947356845 103.42863371992621 -5.272735595703125 102.0614013671875 C-5.2755554199218295 101.17798568725584 -5.278375244140648 100.29457000732418 -5.281280517578125 99.38438415527344 C-5.279256286621148 98.40772293090822 -5.277232055664058 97.431061706543 -5.275146484375 96.4248046875 C-5.276898803710992 95.40214004516599 -5.2786511230468705 94.37947540283199 -5.28045654296875 93.32582092285156 C-5.284877226739013 89.92715789578881 -5.281936304419219 86.52854641823455 -5.278564453125 83.1298828125 C-5.279237429954605 80.77958160339938 -5.2802074020762575 78.42928046191594 -5.281463623046875 76.0789794921875 C-5.282940890105806 71.14590799261453 -5.280785114025434 66.2128545613881 -5.276123046875 61.27978515625 C-5.270425749453921 54.94062613817755 -5.273704600268275 48.601509452768596 -5.279695510864258 42.262351989746094 C-5.28330034589851 37.40695880258659 -5.282162895546207 32.55157573462759 -5.279567718505859 27.696182250976563 C-5.278898234096005 25.35807795269193 -5.279727613956538 23.019972750290776 -5.282047271728516 20.681869506835938 C-5.2845725256765945 17.420375045129617 -5.2807349934855665 14.158950184082414 -5.275146484375 10.8974609375 C-5.278182830810579 9.432469100952176 -5.278182830810579 9.432469100952176 -5.281280517578125 7.9378814697265625 C-5.2784606933594205 7.054465789794904 -5.275640869140602 6.171050109863245 -5.272735595703125 5.2608642578125 C-5.272358570098845 4.488778762817333 -5.271981544494679 3.7166932678222793 -5.27159309387207 2.9212112426757813 C-5.023476819410689 -0.5490696230447156 -2.989483845563086 0.026210825717157604 0 0 Z M16.854248046875 19.1611328125 C16.75421515409971 21.294664548220112 16.723437571793056 23.431508228434268 16.721435546875 25.5673828125 C16.72014648437505 26.868046875000005 16.718857421874986 28.16871093750001 16.717529296875 29.5087890625 C16.719624023437518 30.1895751953125 16.721718750000036 30.870361328125 16.723876953125 31.57177734375 C16.729225643660357 33.65241796201451 16.723931247217592 35.73284270115346 16.717529296875 37.8134765625 C16.71881835937495 39.114140625000005 16.720107421875014 40.41480468750001 16.721435546875 41.7548828125 C16.722563476562527 42.95822265624997 16.723691406250055 44.161562499999945 16.724853515625 45.4013671875 C16.53968827851554 48.07097763550314 16.53968827851554 48.07097763550314 17.854248046875 49.1611328125 C20.88747141164845 49.31622387933203 23.882176291589076 49.39297531508623 26.916748046875 49.4111328125 C27.751416015624955 49.431757812499995 28.586083984375023 49.45238281249999 29.446044921875 49.4736328125 C35.50794825794958 49.51143111857061 41.74144619730919 49.05457940672932 46.416748046875 44.708740234375 C50.550372446528286 39.868318907011144 51.15410741267351 36.81385873549448 51.065185546875 30.6337890625 C50.785077531385696 27.35030065870899 50.03693987699796 25.63485021997269 47.854248046875 23.1611328125 C41.158311278435235 17.920834471981948 35.260324064478255 17.999448812420837 27.104248046875 18.0361328125 C26.228974609374973 18.032265625000036 25.353701171874945 18.02839843749996 24.451904296875 18.0244140625 C23.204736328125023 18.026347656249982 23.204736328125023 18.026347656249982 21.932373046875 18.0283203125 C21.173437499999977 18.029448242187527 20.414501953124955 18.030576171875055 19.632568359375 18.03173828125 C17.82929837629854 17.968106699352916 17.82929837629854 17.968106699352916 16.854248046875 19.1611328125 Z " fill="#000000" transform="translate(533.145751953125,678.8388671875)"/>
<path d="M0 0 C3.3124818678996917 -0.02888146497832622 6.624931673552169 -0.046757991659774234 9.9375 -0.0625 C10.883027343749973 -0.07087890624995907 11.828554687499945 -0.07925781250003183 12.802734375 -0.087890625 C14.151416015625045 -0.09272460937495453 14.151416015625045 -0.09272460937495453 15.52734375 -0.09765625 C16.77632446289067 -0.10551147460932953 16.77632446289067 -0.10551147460932953 18.050537109375 -0.113525390625 C20 0 20 0 21 1 C21.09750475592284 2.363751287699529 21.126315994231845 3.7324990925737893 21.126983642578125 5.0997314453125 C21.12980346679683 5.983147125244159 21.132623291015648 6.866562805175818 21.135528564453125 7.7767486572265625 C21.13350433349615 8.753409881591779 21.131480102539058 9.730071105956995 21.12939453125 10.736328125 C21.131146850585992 11.758992767334007 21.13289916992187 12.781657409668014 21.13470458984375 13.835311889648438 C21.139125273614013 17.233974916711304 21.13618435129422 20.632586394265445 21.1328125 24.03125 C21.133485476829605 26.38155120910062 21.134455448951257 28.731852350584063 21.135711669921875 31.0821533203125 C21.137188936980806 36.015224819885475 21.135033160900434 40.9482782511119 21.13037109375 45.88134765625 C21.12467379632892 52.22050667432245 21.127952647143275 58.559623359731404 21.133943557739258 64.8987808227539 C21.13754839277351 69.7541740099133 21.136410942421207 74.60955707787241 21.13381576538086 79.46495056152344 C21.133146280971005 81.80305485980807 21.13397566083154 84.14116006220922 21.136295318603516 86.47926330566406 C21.138820572551595 89.74075776737027 21.134983040360567 93.00218262841759 21.12939453125 96.263671875 C21.131418762206977 97.24033309936522 21.133442993164067 98.21699432373043 21.135528564453125 99.22325134277344 C21.131298828124955 100.54837486267093 21.131298828124955 100.54837486267093 21.126983642578125 101.9002685546875 C21.126606616973845 102.67235404968255 21.12622959136968 103.44443954467772 21.12584114074707 104.23992156982422 C21 106 21 106 20 107 C18.511281403825933 107.08669432025306 17.01855500397653 107.10703493713197 15.52734375 107.09765625 C14.628222656250045 107.09443359374995 13.729101562499977 107.09121093750002 12.802734375 107.087890625 C11.384443359375041 107.075322265625 11.384443359375041 107.075322265625 9.9375 107.0625 C8.98810546874995 107.05798828125 8.038710937500014 107.05347656250001 7.060546875 107.048828125 C4.706969349087785 107.03700110225668 2.3535152272494315 107.02052025349042 0 107 C-0.1536251588969435 93.3443021099041 -0.3018070032583182 79.68855718668237 -0.4429636001586914 66.03272438049316 C-0.5086749376224589 59.69235618173684 -0.5762891512332544 53.35201998151649 -0.648193359375 47.01171875 C-0.7174648557478349 40.897475102047224 -0.781814726317748 34.783197960812004 -0.8426952362060547 28.668865203857422 C-0.866843783473314 26.33156820803231 -0.892791270705402 23.99428910888969 -0.9205341339111328 21.657032012939453 C-0.9589723796934777 18.3932907241292 -0.991118596407091 15.12954540019632 -1.021728515625 11.86572265625 C-1.0346745300292923 10.89108566284176 -1.0476205444335847 9.916448669433635 -1.0609588623046875 8.912277221679688 C-1.0679983520508358 8.026041717529324 -1.0750378417968705 7.139806213378961 -1.0822906494140625 6.226715087890625 C-1.090586786270137 5.454252567291292 -1.0988829231262116 4.6817900466918445 -1.1074304580688477 3.8859195709228516 C-1 2 -1 2 0 0 Z " fill="#000000" transform="translate(631,679)"/>
<path d="M0 0 C7.254942956424657 0.2703741877859329 7.254942956424657 0.2703741877859329 10.49072265625 2.569091796875 C13.937614895121897 6.44414931072572 16.109928982735823 11.064971597622389 18.326171875 15.717529296875 C20.400252263821585 19.87140379459754 22.97346506754093 23.69151699769111 25.50439453125 27.577392578125 C26.515045967451783 29.17455802396819 27.522846618864264 30.773530839062573 28.52783203125 32.374267578125 C29.028955078125023 33.17026367187498 29.530078125000045 33.966259765624955 30.04638671875 34.786376953125 C31.06005859375 36.39705403645837 32.07373046875 38.00773111979163 33.08740234375 39.618408203125 C34.600554700172665 42.021936383423395 36.11496006339837 44.42467210164841 37.62939453125 46.827392578125 C38.06308349609378 47.51752441406245 38.49677246093745 48.207656250000014 38.943603515625 48.918701171875 C44.07628628627492 57.06135372259223 49.32977313657284 65.12671141150577 54.56689453125 73.202392578125 C54.57720199584958 72.3151197814941 54.587509460449155 71.42784698486332 54.59812927246094 70.51368713378906 C54.69592877647631 62.16987687127585 54.798417685790696 53.82614043131093 54.90623378753662 45.48245334625244 C54.961501895826586 41.19243047672967 55.01492796337857 36.90240084176435 55.064208984375 32.6123046875 C55.11179538656722 28.475538222644445 55.164135848445426 24.33885721404647 55.21983528137207 20.202192306518555 C55.24028486926966 18.620494111392873 55.25899355782599 17.038772458148287 55.27596855163574 15.457033157348633 C55.29995522778211 13.249100798867175 55.330017086880275 11.041331377274673 55.361572265625 8.83349609375 C55.37711654663087 7.5744093322754225 55.392660827636746 6.315322570800731 55.40867614746094 5.0180816650390625 C55.56689453125 2.202392578125 55.56689453125 2.202392578125 56.56689453125 1.202392578125 C57.970381884406606 1.1037912661985274 59.378699302709606 1.0716032121840726 60.78564453125 1.069580078125 C62.059882812500064 1.0676464843750182 62.059882812500064 1.0676464843750182 63.35986328125 1.065673828125 C64.25318359375001 1.0695410156249636 65.14650390625002 1.073408203125041 66.06689453125 1.077392578125 C66.96021484375001 1.0735253906250364 67.85353515625002 1.069658203124959 68.77392578125 1.065673828125 C69.62341796875 1.06696289062495 70.47291015625001 1.0682519531250136 71.34814453125 1.069580078125 C72.13253906249997 1.0707080078125273 72.91693359374995 1.0718359375000546 73.72509765625 1.072998046875 C75.56689453125 1.202392578125 75.56689453125 1.202392578125 76.56689453125 2.202392578125 C76.66650853720739 3.5511331182516415 76.69763848489572 4.905020153024111 76.70060729980469 6.2574310302734375 C76.70700477600099 7.5677655792236465 76.70700477600099 7.5677655792236465 76.71353149414063 8.904571533203125 C76.71285171508794 10.353180694580033 76.71285171508794 10.353180694580033 76.712158203125 11.8310546875 C76.71551681518554 12.842359466552693 76.71887542724608 13.8536642456055 76.72233581542969 14.895614624023438 C76.73187761799238 18.25700083081199 76.73379052637574 21.618337401408212 76.73486328125 24.979736328125 C76.73807355816439 27.305221772045456 76.74143744942842 29.630707008612376 76.74494934082031 31.956192016601563 C76.75094866288453 36.83798694352038 76.75278841300451 41.719764144395526 76.752197265625 46.6015625 C76.7520955839517 52.87115279214072 76.76575047574283 59.14062998247584 76.78296947479248 65.41019344329834 C76.79406280123374 70.21501695495431 76.79611729944452 75.01981289256332 76.79558753967285 79.82464790344238 C76.79677159081893 82.13680982002609 76.80121695854336 84.44897236130726 76.80891990661621 86.76112174987793 C76.81866634004325 89.98894146044381 76.81586300193749 93.21651262203227 76.809814453125 96.4443359375 C76.81543395996096 97.40805114746092 76.82105346679691 98.37176635742185 76.82684326171875 99.36468505859375 C76.82264877319335 100.24106124877926 76.81845428466795 101.11743743896488 76.81413269042969 102.02037048339844 C76.81467745780947 102.78415984153753 76.81522222518925 103.54794919967651 76.81578350067139 104.33488368988037 C76.56689453125 106.202392578125 76.56689453125 106.202392578125 74.56689453125 108.202392578125 C67.5386364589807 109.52895424987094 57.191229238430765 110.52086012363452 51.00830078125 106.565673828125 C49.1843840974102 103.88665406058976 47.913861899222866 101.15087232849066 46.56689453125 98.202392578125 C44.99795943058348 95.630580876066 43.3036676799785 93.14399171626962 41.62939453125 90.639892578125 C40.678040072330646 89.17075889319153 39.7303042078272 87.69927745966288 38.78564453125 86.225830078125 C38.27517578125003 85.43015624999998 37.764707031250055 84.63448242187496 37.23876953125 83.814697265625 C35.39756270214559 80.93781159514924 33.56002268660495 78.05860645507232 31.72314453125 75.178955078125 C31.046306152343732 74.11878173828131 30.369467773437464 73.05860839843751 29.672119140625 71.96630859375 C28.363806150750065 69.9158833234942 27.05717060984307 67.86438616765804 25.752685546875 65.8115234375 C19.825915048960155 56.51825593999888 13.702369644830355 47.358728822431544 7.56689453125 38.202392578125 C7.551433334350577 39.495717544555646 7.551433334350577 39.495717544555646 7.5356597900390625 40.81517028808594 C7.437858551366844 48.923524057458735 7.335369389843663 57.03180189147827 7.227555274963379 65.14002895355225 C7.172288175408198 69.30898273817343 7.1188622713235645 73.47794348616594 7.069580078125 77.64697265625 C7.021992183108978 81.66703151356535 6.969651669139125 85.68700247258175 6.91395378112793 89.70695686340332 C6.893504870441916 91.2439970529341 6.8747960648826165 92.78106137032182 6.857820510864258 94.31814384460449 C6.833832326720881 96.46381264067827 6.8037706974737375 98.6093138705678 6.772216796875 100.7548828125 C6.756672515869127 101.97843978881838 6.741128234863254 103.20199676513676 6.7251129150390625 104.46263122558594 C6.56689453125 107.202392578125 6.56689453125 107.202392578125 5.56689453125 108.202392578125 C4.163407178093394 108.30099389005147 2.755089759790394 108.33318194406593 1.34814453125 108.335205078125 C0.07390625000005002 108.33713867187498 0.07390625000005002 108.33713867187498 -1.22607421875 108.339111328125 C-2.119394531250009 108.33524414062504 -3.012714843750018 108.33137695312496 -3.93310546875 108.327392578125 C-4.826425781250009 108.33125976562496 -5.719746093750018 108.33512695312504 -6.64013671875 108.339111328125 C-7.4896289062500045 108.33782226562494 -8.339121093750009 108.33653320312499 -9.21435546875 108.335205078125 C-9.998749999999973 108.33407714843747 -10.783144531249945 108.33294921874995 -11.59130859375 108.331787109375 C-13.43310546875 108.202392578125 -13.43310546875 108.202392578125 -14.43310546875 107.202392578125 C-14.530610224672841 105.83864129042547 -14.559421462981845 104.46989348555121 -14.560089111328125 103.1026611328125 C-14.56290893554683 102.21924545288084 -14.565728759765648 101.33582977294918 -14.568634033203125 100.42564392089844 C-14.566609802246148 99.44898269653322 -14.564585571289058 98.472321472168 -14.5625 97.466064453125 C-14.564252319335992 96.44339981079099 -14.56600463867187 95.42073516845699 -14.56781005859375 94.36708068847656 C-14.572230742364013 90.96841766141381 -14.569289820044219 87.56980618385955 -14.56591796875 84.171142578125 C-14.566590945579605 81.82084136902438 -14.567560917701257 79.47054022754094 -14.568817138671875 77.1202392578125 C-14.570294405730806 72.18716775823953 -14.568138629650434 67.2541143270131 -14.5634765625 62.321044921875 C-14.55777926507892 55.98188590380255 -14.561058115893275 49.642769218393596 -14.567049026489258 43.303611755371094 C-14.57065386152351 38.44821856821159 -14.569516411171207 33.59283550025259 -14.56692123413086 28.737442016601563 C-14.566251749721005 26.39933771831693 -14.567081129581538 24.061232515915776 -14.569400787353516 21.723129272460938 C-14.571926041301595 18.461634810754617 -14.568088509110567 15.200209949707414 -14.5625 11.938720703125 C-14.565536346435579 10.473728866577176 -14.565536346435579 10.473728866577176 -14.568634033203125 8.979141235351563 C-14.56581420898442 8.095725555419904 -14.562994384765602 7.212309875488245 -14.560089111328125 6.3021240234375 C-14.559712085723845 5.530038528442333 -14.559335060119679 4.757953033447279 -14.55894660949707 3.9624710083007813 C-14.18696742245686 -1.2402197786466331 -3.881107986336133 0.0982205996861012 0 0 Z " fill="#000000" transform="translate(694.43310546875,677.797607421875)"/>
</svg>
