<?xml version="1.0" encoding="UTF-8"?>
<!-- Generator: visioncortex VTracer 0.6.4 -->
<svg version="1.1" xmlns="http://www.w3.org/2000/svg" width="1024" height="1024">
<path d="M0 0 C5.301048846335334 -0.1136713890631853 10.601421832406231 -0.19646221057406876 15.903493165969849 -0.24294352531433105 C17.549350395952615 -0.2597973343814317 19.19515720624281 -0.2832722854559364 20.840807676315308 -0.3143303394317627 C44.17874553304932 -0.7319291245577801 64.04828613496113 6.045841733897802 81.11902904510498 22.37134075164795 C86.10390314467259 27.526395474813853 89.88750404791153 32.812756711067564 93.36902904510498 39.05884075164795 C93.81931468963626 39.863860282897946 94.26960033416754 40.66887981414794 94.73353099822998 41.49829387664795 C100.1730091788719 52.255449233709086 102.83819795819181 63.88195629592383 105.80311107635498 75.50659465789795 C106.74478992020545 79.18681436367808 107.7138021926778 82.85908646070405 108.68543529510498 86.53149700164795 C109.29776371163553 88.89695556505876 109.90849597387592 91.26282801020682 110.51746654510498 93.62915325164795 C110.80487712860099 94.71278148651123 111.09228771209723 95.79640972137452 111.38840770721436 96.91287517547607 C112.90293643554969 102.93983320077825 113.52247034802076 108.28569145931067 113.3527021408081 114.48950481414795 C113.37837794661175 118.53006078091167 114.28468615571353 122.22274101423233 115.29090404510498 126.11743450164795 C115.60772640228265 127.41162807464599 115.60772640228265 127.41162807464599 115.9309492111206 128.73196697235107 C116.39865443566578 130.63649129148428 116.87213973108851 132.53960318994172 117.35065746307373 134.44143962860107 C118.44185032325595 138.7798175332332 119.50420927347159 143.1251461177479 120.56919384002686 147.47001934051514 C121.1712383388118 149.9252096993585 121.77474610972058 152.38004161031483 122.3795576095581 154.83455181121826 C124.92655312750787 165.1794884603761 127.39563962777504 175.54210224350413 129.84559154510498 185.91040325164795 C130.24273951968166 187.59015723577193 130.63991078377705 189.2699057136631 131.03710460662842 190.9496488571167 C131.23671071052559 191.79382743835447 131.43631681442253 192.6380060195923 131.64197158813477 193.5077657699585 C131.84347037315365 194.35993301391602 132.04496915817253 195.21210025787354 132.25257396697998 196.09009075164795 C132.45594843864433 196.95026428222656 132.6593229103089 197.81043781280516 132.86886024475098 198.69667720794678 C141.72233598304683 236.13303238442677 150.84491141968113 273.4991111295207 160.12244701385498 310.83252239227295 C160.34659912109373 311.73465497016906 160.57075122833248 312.6367875480652 160.80169582366943 313.56625747680664 C162.10329918250204 318.80478069539737 162.10329918250204 318.80478069539737 163.40595531463623 324.04304218292236 C166.0092861679468 334.5080724162764 168.58958526991978 344.9770030022701 171.01647472381592 355.4847288131714 C171.89059725272227 359.3746277785584 171.89059725272227 359.3746277785584 173.36902904510498 363.05884075164795 C175.90409783106657 363.95215070479634 178.40305302033107 364.72846201240776 180.98621654510498 365.45727825164795 C182.62606780828196 365.93557515322595 184.2658771241263 366.4140158895417 185.90565013885498 366.89258098602295 C186.7759888839721 367.1435352706909 187.64632762908934 367.39448955535886 188.54304027557373 367.6530485153198 C203.3866952099587 371.9439995411965 218.12399927868432 376.49585179943034 232.74402904510498 381.49634075164795 C233.46765636444093 381.7409202194214 234.19128368377687 381.9854996871948 234.93683910369873 382.2374906539917 C260.2412078879157 390.8097371509522 260.2412078879157 390.8097371509522 266.806529045105 401.37134075164795 C268.2116170363116 408.0845389318577 268.18430055780016 414.21378981311744 264.681529045105 420.24634075164795 C259.7427458701535 427.0665651361047 253.3148884300109 429.8119396402349 245.36902904510498 432.05884075164795 C244.65956127166749 432.0766459274292 243.95009349823 432.0944511032105 243.21912670135498 432.11279582977295 C240.4542909310852 432.3125972852484 238.78066952490417 432.65977487653856 236.36902904510498 434.05884075164795 C234.00961646932933 437.8682873950645 232.58879398417514 441.9165846478704 231.1896162033081 446.14697551727295 C230.012363891802 449.7000637905642 228.71502901895303 453.2095814623608 227.43543529510498 456.72680950164795 C227.18186763763424 457.4341724777221 226.9282999801635 458.14153545379645 226.66704845428467 458.8703336715698 C224.2904366979251 465.4444320312134 221.4774719499328 471.76685268941105 218.43152904510498 478.05884075164795 C217.99534252166745 478.9756058883668 217.55915599822993 479.89237102508537 217.10975170135498 480.83691692352295 C215.18296252418963 484.7828654174598 213.2986367301295 488.239127621491 210.49012279510498 491.62134075164795 C207.87680254638394 495.13712204059016 208.359798031237 497.44070263039225 208.94572925567627 501.61962032318115 C209.61677867873027 505.4864719070979 210.48281493751847 509.2834442431397 211.42835521697998 513.091555595398 C211.63747508049005 513.9532721614837 211.84659494400023 514.8149887275696 212.0620517730713 515.7028179168701 C212.75675530635533 518.559787074875 213.45938534036577 521.4147447770719 214.16199779510498 524.269778251648 C214.66123739497118 526.3164421649552 215.15995297297377 528.3632339629654 215.65818309783936 530.4101438522339 C216.72601025402116 534.7927425364331 217.79726438269904 539.1744834991069 218.8712568283081 543.5555753707886 C220.57457056158285 550.5041203420014 222.27025988809976 557.4545112137934 223.96448802947998 564.405276298523 C225.709836595752 571.5645868929298 227.4555100885732 578.7238165083505 229.2037000656128 585.8824338912964 C234.12486386603803 606.0357980227076 239.00911619055637 626.1979470254076 243.87731742858887 646.3641624450684 C245.46579836880608 652.9442543060477 247.0565533706839 659.5237929664473 248.64857006072998 666.103030204773 C252.4452420559877 681.795837044399 256.23746899859293 697.489588755254 259.99334239959717 713.1922178268433 C261.30120245005446 718.6597653028697 262.6137463071152 724.1261847508588 263.92761611938477 729.5922908782959 C264.9492388674073 733.8444819148567 265.96446359650486 738.0981266155947 266.9743480682373 742.3531198501587 C267.72755892878047 745.5181760746061 268.4904715536976 748.6808952781046 269.251841545105 751.843997001648 C269.6409244155884 753.4980958175659 269.6409244155884 753.4980958175659 270.03786754608154 755.1856107711792 C271.43909690844964 760.9639634873249 273.1349012454093 766.4064342281457 275.45522594451904 771.8842039108276 C276.8894960388884 775.2974300039571 278.0501488687545 778.7858969409813 279.181529045105 782.308840751648 C279.410337638855 782.976575126648 279.63914623260496 783.644309501648 279.874888420105 784.332278251648 C281.24673727080915 788.611439804303 281.63315810295376 791.7255824389226 280.369029045105 796.058840751648 C277.3146394191871 799.6758810981297 275.1242465097156 801.7387107224265 270.318247795105 802.297122001648 C269.57188060760495 802.3216141891479 268.8255134201049 802.346106376648 268.056529045105 802.371340751648 C267.317896232605 802.408723564148 266.579263420105 802.446106376648 265.818247795105 802.484622001648 C262.17329375805673 801.8509697049362 260.1618645808179 800.4637824629563 257.369029045105 798.058840751648 C256.232310295105 794.836184501648 256.232310295105 794.836184501648 255.68152904510498 790.996340751648 C255.3624310804572 788.8166089103211 255.04145945698156 786.637158283695 254.72025394439697 784.4577360153198 C254.49699681523043 782.932871261089 254.27635598425672 781.4076194053499 254.05923175811768 779.8818693161011 C252.26502161083545 767.310819119898 249.63450456077874 755.0905105360057 246.55262279510498 742.777590751648 C246.09009031996504 740.903150803194 245.6283611270752 739.028512478876 245.16738414764404 737.1536893844604 C243.96657668392845 732.2771305830289 242.75700883003105 727.4027937474372 241.54481029510498 722.529055595398 C239.60006324493008 714.70505010187 237.6675255462145 706.8780304135125 235.73779010772705 699.050311088562 C235.06869563551982 696.3426339763746 234.3948988608962 693.6361611019861 233.72045421600342 690.9298124313354 C233.30556688361798 689.2534550240637 232.8908109313677 687.5770650938312 232.47620677947998 685.900637626648 C232.2917449569702 685.1658720016479 232.10728313446043 684.4311063766479 231.91723155975342 683.674075126648 C230.4822561229039 677.8453745771994 229.3946258803336 671.9722304737999 228.36902904510498 666.058840751648 C227.8224866867065 666.1745888710022 227.27594432830813 666.2903369903564 226.71284008026123 666.409592628479 C206.5613714510515 670.6392316578844 186.2853913855456 674.0276152389547 165.97782969474792 677.4033832550049 C161.08175726725972 678.218202001699 156.1864769039604 679.0377538733711 151.2911024093628 679.8567533493042 C142.95629696770993 681.250564013091 134.6210390865008 682.6416390088167 126.2854413986206 684.0307035446167 C113.3167898665115 686.1918718982806 100.34905874967535 688.3585298807839 87.38148021697998 690.526125907898 C83.05273484744907 691.2496374915647 78.72398313196743 691.9731110997803 74.3952283859253 692.6965665817261 C73.32740003764627 692.875033878088 72.25957168936725 693.0535011744499 71.15938490629196 693.2373765707016 C63.64011402022538 694.4940040272555 56.12071377996858 695.7498554789282 48.60125255584717 697.0053434371948 C24.08040233509564 701.0996346933927 -0.4390856004689567 705.2018448969947 -24.95518970489502 709.324465751648 C-25.63714106082915 709.4391418027877 -26.319092416763283 709.5538178539276 -27.021708965301514 709.6719689369202 C-35.276695796404056 711.0602036296277 -43.531510781743634 712.4494585498677 -51.78624439239502 713.8391981124878 C-58.633990398224796 714.9920012198635 -65.4818313509362 716.1442401930041 -72.32966041564941 717.2965497970581 C-78.0461137078895 718.2585002932924 -83.76254091107876 719.2206045791149 -89.47882270812988 720.1835737228394 C-91.07567758619382 720.4522741371899 -92.67262221475352 720.7204418780086 -94.26966857910156 720.9880018234253 C-97.614594742012 721.5485470444223 -100.95761697650175 722.1160574205737 -104.29835987091064 722.7012357711792 C-105.36049701690672 722.8857932662963 -106.4226341629028 723.0703507614136 -107.51695728302002 723.260500907898 C-108.39966800689695 723.4170112228394 -109.28237873077393 723.5735215377807 -110.19183826446533 723.7347745895386 C-112.70047627320776 724.0680753135232 -115.10336016051662 724.1166832442656 -117.63097095489502 724.058840751648 C-117.44828662872317 724.8809202194213 -117.26560230255126 725.7029996871948 -117.07738208770752 726.5499906539917 C-114.40839608510328 738.5604276657106 -111.7394100824992 750.5708646774291 -109.07042407989502 762.581301689148 C-108.89720630645752 763.360733833313 -108.72398853302002 764.140165977478 -108.54552173614502 764.9432172775269 C-108.19550502362591 766.5183893256257 -107.84557046875125 768.0935796320488 -107.49571704864502 769.6687879562378 C-106.61368962857648 773.6396101076512 -105.73021401565683 777.610099778314 -104.84386157989502 781.5799589157104 C-103.21202413678463 788.8954246680282 -101.59127871947646 796.2125632241464 -100.0225191116333 803.5418539047241 C-99.32498003792625 806.7974412539587 -98.61994016242454 810.0513851917494 -97.91440296173096 813.3052473068237 C-97.58602545168833 814.8299612284877 -97.2612971218864 816.3554668308414 -96.94067859649658 817.8818311691284 C-95.1754953825631 826.2810206507987 -93.05579782979208 834.2591968782334 -89.76878833770752 842.2247953414917 C-86.96293314628588 849.2135451592839 -84.58866806168459 856.5021447758722 -85.63097095489502 864.058840751648 C-88.13433821578093 867.2575878072244 -90.71812128389661 869.8290879979056 -94.63097095489502 871.058840751648 C-99.99464886456809 871.4845294746378 -103.26776026684962 871.5237433568605 -107.63097095489502 868.058840751648 C-110.13328439084819 864.3053705977183 -110.49760321626053 860.73879411421 -111.13097095489502 856.371340751648 C-111.24827564239501 855.612727470398 -111.36558032989501 854.8541141891479 -111.48643970489502 854.072512626648 C-112.06774524489299 850.2315206446183 -112.59300260906485 846.391425966706 -113.03366565704346 842.5314207077026 C-114.09765032812936 833.2875540208954 -115.70115217999103 824.322715360193 -117.79112720489502 815.246340751648 C-118.1010306199127 813.8747022643231 -118.41024128844765 812.5029071056209 -118.71881580352783 811.1309690475464 C-119.53424932160908 807.5139699418107 -120.35879904511603 803.8991111638823 -121.18540668487549 800.2846517562866 C-122.03998890061484 796.5407582916113 -122.88615759587691 792.794964651821 -123.73302173614502 789.049319267273 C-124.91154015126256 783.8399973000896 -126.09267768609072 778.6312837961833 -127.27753925323486 773.4234008789063 C-129.06534833454396 765.5648976313688 -130.83535825694224 757.702618840912 -132.58800220489502 749.836184501648 C-133.00913387713035 747.9488122765038 -133.43027593853412 746.061442369468 -133.85142993927002 744.174075126648 C-134.42364207816263 741.6090907520907 -134.99538139470513 739.0440073496023 -135.56532764434814 736.478518486023 C-136.07174400751904 734.2013523246166 -136.58137438238782 731.9249303984666 -137.09190845489502 729.648684501648 C-137.3682512283325 728.4098148727417 -137.64459400177003 727.1709452438355 -137.92931079864502 725.894534111023 C-138.50275193672002 723.1325416967063 -138.50275193672002 723.1325416967063 -139.63097095489502 721.058840751648 C-140.1982138442993 721.159065361023 -140.76545673370362 721.259289970398 -141.3498888015747 721.362551689148 C-147.36717505759225 722.4220607587258 -153.38847841803226 723.4561037408633 -159.41246509552002 724.476809501648 C-161.6466134825854 724.8585892848007 -163.8797404493003 725.2464059139775 -166.11168384552002 725.640872001648 C-188.20185200077225 729.5370906369051 -207.62215059097298 732.6454569234568 -227.63097095489502 721.058840751648 C-228.193646736145 722.903489189148 -228.193646736145 722.903489189148 -228.76768970489502 724.785403251648 C-229.28388206524733 726.4184481734899 -229.80085044444502 728.0512479436271 -230.31847095489502 729.683840751648 C-230.56274829864503 730.492082939148 -230.80702564239505 731.300325126648 -231.05870532989502 732.133059501648 C-232.77177761092486 737.4674364780194 -234.70404639771243 741.036756471755 -238.63097095489502 745.058840751648 C-241.85956942213778 746.6731399852694 -245.1409074896194 746.6545473171495 -248.63097095489502 746.058840751648 C-251.65605240957188 744.3228197027114 -254.04887164054003 742.2230393803579 -255.63097095489502 739.058840751648 C-255.62097976684584 732.7808063753074 -253.92884963293926 727.5616498858501 -251.27159595489502 721.957278251648 C-250.9308151626587 721.2103269577026 -250.59003437042236 720.4633756637573 -250.2389268875122 719.6937894821167 C-249.50891831763215 718.096520219343 -248.77331252085844 716.5017989731292 -248.0325517654419 714.9094877243042 C-246.0672210580592 710.6844563835251 -244.1420891785919 706.441136666495 -242.21300220489502 702.199465751648 C-241.6280976486206 700.9174477767945 -241.6280976486206 700.9174477767945 -241.03137683868408 699.6095304489136 C-237.65579830158725 692.1839017859032 -234.4825961370803 684.6841790966887 -231.3759355545044 677.142825126648 C-226.8763411700039 666.2263897840478 -222.33001928165703 655.413127751741 -216.63097095489502 645.058840751648 C-216.194623298645 644.2639725875855 -215.758275642395 643.4691044235229 -215.30870532989502 642.650149345398 C-209.06090844726697 631.3487386784791 -202.43363797206968 620.3584488042126 -195.30479907989502 609.593997001648 C-193.29342158386032 606.5475932795324 -191.2974100882758 603.4912630862249 -189.30284595489502 600.433840751648 C-186.3220277764533 595.8659555266365 -183.34002164708835 591.2988643791232 -180.35362720489502 586.734622001648 C-179.42175586700438 585.3101676559448 -179.42175586700438 585.3101676559448 -178.47105884552002 583.856936454773 C-176.63097095489508 581.0588407516481 -176.63097095489508 581.0588407516481 -174.27330493927002 578.454104423523 C-171.67592152069875 573.0844283120215 -173.32889688802396 568.7129563848301 -174.63097095489502 563.058840751648 C-174.9082074048759 561.7427707039194 -175.18209164390527 560.4259911419894 -175.45305347442627 559.1086149215698 C-176.40943980647245 554.4897776245875 -177.41457503788126 549.8820437767068 -178.42003345489502 545.273684501648 C-178.79970624896043 543.5229462804995 -179.17909326769018 541.7721460641878 -179.55821704864502 540.0212888717651 C-180.36668459298164 536.2898401907939 -181.17678248506928 532.5587509407618 -181.98820972442627 528.8279447555542 C-183.92672924670228 519.9140348217549 -185.85630389414843 510.9981867530796 -187.7863473892212 502.0824384689331 C-188.22564133368274 500.0532978122051 -188.66503652159912 498.0241790713784 -189.10453128814697 495.9950819015503 C-193.3584681316376 476.3546532132491 -197.56624448722818 456.7045826242834 -201.7520456314087 437.0495328903198 C-202.42485564228025 433.8910066576492 -203.09833137367593 430.73262254055044 -203.7718276977539 427.5742425918579 C-209.0804010649021 402.6789909266461 -209.0804010649021 402.6789909266461 -211.53642749786377 391.04121685028076 C-218.2373343674551 359.29270029545455 -225.48740142281918 327.6698032768671 -232.72081470489502 296.0393705368042 C-234.85576044363165 286.70324971819014 -236.98650513426668 277.3661691149766 -239.11723804473877 268.0290861129761 C-239.8816905930148 264.6806886469658 -240.6471669096294 261.33252631948073 -241.41270923614502 257.98437786102295 C-244.6056453039347 244.00789978602808 -247.76718767817079 230.02464832371743 -250.91051197052002 216.036940574646 C-252.20995990696719 210.25637503624597 -253.51168546714064 204.47632172600458 -254.81318378448486 198.69621753692627 C-256.09746773401895 192.99079154991136 -257.37753094912017 187.2844387130873 -258.6545820236206 181.57738971710205 C-259.4559560378533 178.0005936234724 -260.26118020393585 174.42467193002074 -261.0673761367798 170.84895992279053 C-261.4434731317552 169.17706816211583 -261.8179547489085 167.50481206205382 -262.1906900405884 165.83216762542725 C-264.14162418040286 157.08100444413222 -266.11857832840946 148.4719612715707 -269.396595954895 140.104510307312 C-271.46799199727434 134.78985879087955 -272.83783054747386 129.46349573265627 -274.076283454895 123.89868450164795 C-274.2916273880005 122.94997982025149 -274.506971321106 122.00127513885496 -274.7288408279419 121.02382183074951 C-275.18017127717087 119.03015687826357 -275.62878955456165 117.03587617464518 -276.074818611145 115.04101848602295 C-276.75503196249156 112.00053794672453 -277.44424814983677 108.96220486103527 -278.134877204895 105.92407512664795 C-278.5742099445679 103.97823132056146 -279.0130294924455 102.03227155988321 -279.451283454895 100.08618450164795 C-279.75753147125243 98.73435321807861 -279.75753147125243 98.73435321807861 -280.06996631622314 97.35521221160889 C-284.7910887012446 76.17107596592209 -283.54789900792485 56.56811555589016 -271.824330329895 37.82251262664795 C-261.49439200733406 22.555844369246074 -246.2784068111378 12.669384093985386 -228.40056324005127 8.7118558883667 C-221.26525191803205 7.47578950611441 -214.0954081033816 7.313244460660627 -206.87315845489502 7.066653251647949 C-204.96426010807522 6.992336549466586 -203.0553972161178 6.917105140284264 -201.1465654373169 6.841097831726074 C-195.3609877027966 6.6155111100081 -189.57482183686636 6.409467901083403 -183.78842639923096 6.206072807312012 C-179.2768506974723 6.047020094051192 -174.76549551902326 5.88208199120885 -170.25413990020752 5.716921806335449 C-149.74574618528663 4.967362400258651 -129.23645094955555 4.246698192749378 -108.7262659072876 3.5479116439819336 C-106.73616745294788 3.480106874188948 -104.7460691357972 3.4122980777222125 -102.75597095489502 3.344485282897949 C-101.76804514646528 3.310827486515052 -100.78011933803555 3.2771696901321405 -99.76225638389587 3.2424919605255127 C-91.75018337948256 2.968995597851489 -83.73835718051521 2.6887253297710316 -75.72656643390656 2.407098650932312 C-67.84756972877688 2.1305008644849153 -59.9684001752189 1.8592219461229007 -52.08909022808075 1.5916978120803833 C-47.4455038152048 1.4339312217965556 -42.80200716018038 1.2742545036259258 -38.158684730529785 1.1088857650756836 C-25.440649979444004 0.6574957302895967 -12.722854651597572 0.28454222552885255 0 0 Z M-6.0154924392700195 18.76147747039795 C-8.226686999549997 18.837266119160418 -10.437889223743468 18.912831441727704 -12.64909839630127 18.988192558288574 C-18.60994409224014 19.192161873437442 -24.570658246002836 19.399747842720743 -30.531341314315796 19.608410358428955 C-34.26499721124355 19.738980515980302 -37.99867783175159 19.868819568121097 -41.732367515563965 19.998419761657715 C-54.11343578294117 20.428272691597854 -66.49441114936542 20.860695035063713 -78.87528442591429 21.29612646996975 C-79.53981967188417 21.319496987611046 -80.20435491785406 21.342867505252357 -80.88902759552002 21.36694622039795 C-81.55438984699549 21.390346517711876 -82.21975209847096 21.413746815025803 -82.90527684241533 21.43785621225834 C-93.68845921898992 21.816919883139064 -104.47185805712559 22.189396518265326 -115.25536917895079 22.55897842347622 C-126.37433722493898 22.940145024124703 -137.4931072768984 23.32674545357358 -148.61171108484268 23.71840012073517 C-154.83540854176448 23.937526271650484 -161.05916272111483 24.154468376734783 -167.28312969207764 24.36581325531006 C-173.13821917001803 24.56479991409205 -178.99303182066853 24.770594055146773 -184.84770679473877 24.98141384124756 C-186.98358292925258 25.05719776892238 -189.11954387536258 25.130637593509988 -191.2555913925171 25.20142650604248 C-225.19087386308615 26.11931859451056 -225.19087386308615 26.11931859451056 -252.88097095489502 44.30884075164795 C-256.9785043846714 49.09201722545063 -259.40913318980563 54.2029039699751 -261.630970954895 60.05884075164795 C-262.06409595489504 61.151965751647936 -262.49722095489506 62.24509075164795 -262.943470954895 63.37134075164795 C-265.68469048353023 78.07424549614592 -261.55578066586315 91.99043752069684 -258.193470954895 106.24634075164795 C-257.6706264480078 108.51751244063496 -257.14913113542946 110.78899516887378 -256.629017829895 113.06079387664795 C-255.67878602553947 117.18989541163245 -254.72475517281617 121.31799488985746 -253.75426197052002 125.44238567352295 C-253.46447216033937 126.67477222442628 -253.46447216033937 126.67477222442628 -253.16882801055908 127.93205547332764 C-252.7313923382021 129.66175621515822 -252.19517079748096 131.3662412238902 -251.63097095489502 133.05884075164795 C-248.36215084737626 134.14844745415422 -245.91169386922616 134.20014127179127 -242.47081470489502 134.23462200164795 C-222.79405523552572 134.56301005364332 -204.11770666213107 136.75556923524084 -184.74034595489502 140.32837200164795 C-183.5636735916138 140.54332317352294 -182.3870012283325 140.75827434539795 -181.17467212677002 140.97973918914795 C-178.9930297849919 141.381826016709 -176.81314522953306 141.793708289665 -174.63609790802002 142.21997356414795 C-151.99440535261363 146.47065241085997 -129.3739933492991 147.5768382021848 -106.38097095489502 147.43384075164795 C-105.02793469345198 147.4287926909477 -103.67489707515921 147.4240968156889 -102.3218584060669 147.4197416305542 C-82.91567298337128 147.3478981642279 -63.85863361631806 146.86696899940284 -44.63097095489502 144.05884075164795 C-43.267234190563954 143.87283125156983 -41.90329199384644 143.68832319105948 -40.53917407989502 143.50512981414795 C-12.572933240375164 139.7192903686041 14.948147855806383 133.73507940396465 42.49726390838623 127.6869535446167 C45.94168998999123 126.93358828551919 49.388625756200554 126.1923057902763 52.83602428436279 125.45268535614014 C56.307418631480004 124.70571641605076 59.77566639373572 123.94476480549318 63.24402904510498 123.18384075164795 C64.40474925994874 122.9344877243042 65.56546947479251 122.68513469696046 66.76136302947998 122.42822551727295 C81.41712233923442 119.20493026788964 81.41712233923442 119.20493026788964 94.36902904510498 112.05884075164795 C93.12137286372058 104.73538527813696 91.60129280539604 97.54017859945097 89.75965404510498 90.34399700164795 C89.51036144256591 89.36700344085693 89.26106884002684 88.39000988006592 89.00422191619873 87.38341045379639 C88.4786978590198 85.33330791100906 87.95085866082161 83.28379753547563 87.42078685760498 81.23486614227295 C86.62270888392914 78.1356309418197 85.8434836935586 75.032022779551 85.06434154510498 71.92798137664795 C80.30950257442032 53.31318922019794 74.04320537884155 36.76930196082063 56.74402904510498 26.29712200164795 C36.49523561783144 15.739774112756976 16.09555583695669 17.983461564669966 -6.0154924392700195 18.76147747039795 Z M89.3411054611206 133.84225749969482 C75.91337503939758 138.64805983051764 62.01493501898494 141.50394867485025 48.09550380706787 144.48346996307373 C45.96851746142795 144.9393081844558 43.84220911679449 145.39819764400525 41.716044425964355 145.8578519821167 C-6.903295643356614 156.35874361941953 -55.22438121494986 165.3208766915958 -105.13097095489502 165.24634075164795 C-105.95479267120362 165.2454041671753 -106.77861438751222 165.24446758270264 -107.6274003982544 165.24350261688232 C-139.59474358167574 165.16539741538705 -170.67809608082257 160.70459327954293 -202.00572681427002 154.67090129852295 C-212.23029107117645 152.70237655428602 -221.71610703104216 151.92194886647758 -232.13097095489502 151.99634075164795 C-233.33495532989502 152.00085247039794 -234.53893970489503 152.00536418914794 -235.77940845489502 152.01001262664795 C-238.7299816887823 152.02172125059195 -241.6804495492728 152.0381207979568 -244.63097095489502 152.05884075164795 C-243.92098008732557 158.78411594828432 -242.5940328839368 165.28647015078408 -241.13878345489502 171.88696575164795 C-240.8813133621216 173.06697154998778 -240.62384326934813 174.24697734832765 -240.35857105255127 175.46274089813232 C-239.6454864807447 178.7245204521067 -238.92887492360705 181.9854828959761 -238.21024799346924 185.24604320526123 C-237.75236035488382 187.32523589428484 -237.29586302279102 189.40472929338284 -236.83977222442627 191.4843168258667 C-230.54488240024352 220.1787447143763 -224.05733301593955 248.8295235891552 -217.55724048614502 277.47803020477295 C-216.75619677204844 281.00885069387573 -215.9552481578546 284.5396927343012 -215.15440845489502 288.07055950164795 C-214.9592325592041 288.9310445976257 -214.7640566635132 289.7915296936035 -214.56296634674072 290.67809009552 C-210.3849977816912 309.10287083160586 -206.27399784754414 327.5420840994881 -202.19493579864502 345.98901653289795 C-201.75698292671638 347.96933035370046 -201.3189963940465 349.9496367307185 -200.88097095489502 351.92993450164795 C-200.68057209014893 352.83612529754635 -200.48017322540284 353.74231609344486 -200.27370166778564 354.6759672164917 C-198.7662173502368 361.4797224890339 -197.22080031487724 368.2737915674556 -195.63097095489502 375.05884075164795 C-185.66493997620398 373.954407148181 -175.77133090985285 372.4857940541965 -165.86925220489502 370.91430950164795 C-130.0025045011904 365.2372982796913 -94.08431166973531 360.1288714280326 -58.06831455230713 355.4864568710327 C-54.79789619354756 355.0642532058 -51.52782970106557 354.63941386339945 -48.257832527160645 354.2139616012573 C-23.087815714105545 350.9448669835083 2.0524548597992407 347.92976501500186 27.36902904510498 346.05884075164795 C28.719085350036607 345.9559675216675 28.719085350036607 345.9559675216675 30.096415519714355 345.8510160446167 C43.02952209344312 344.89266627059317 55.99816747408522 344.7741057074465 68.96204662322998 344.70874309539795 C71.34951570649105 344.6922028626674 73.73693566746135 344.66493873634437 76.12415599822998 344.62671184539795 C92.59037642997862 344.36636739641864 107.45851619031214 345.7836367286957 123.36902904510498 350.05884075164795 C124.76705059678329 350.4206705898564 126.16522953580159 350.78189320176057 127.56360912322998 351.14233684539795 C132.0840103708979 352.3389932747067 136.57787843737628 353.6186935429931 141.07410717010498 354.90259075164795 C142.13693920135506 355.1990751266479 143.19977123260492 355.49555950164796 144.29481029510498 355.80102825164795 C145.2272053146362 356.06770305633546 146.1596003341674 356.334377861023 147.12024974822998 356.60913372039795 C149.39260578767426 357.30285410252145 149.39260578767426 357.30285410252145 151.36902904510498 356.05884075164795 C148.17496846781864 342.98870028241697 144.9795753178139 329.9188859177923 141.7833890914917 316.8492650985718 C140.99506893267517 313.625593156392 140.2068554504424 310.4018951437141 139.41865062713623 307.1781949996948 C134.0638633669364 285.2790215825257 128.70619710644814 263.3806432968971 123.29090404510498 241.49634075164795 C123.0963091087342 240.7097860336304 122.9017141723632 239.92323131561278 122.70122241973877 239.11284160614014 C121.7505254429957 235.2701779148682 120.79963353700555 231.42756247598425 119.8486738204956 227.58496379852295 C119.57463411331173 226.47760372161866 119.57463411331173 226.47760372161866 119.29505825042725 225.34787273406982 C118.92766279429509 223.8633457337337 118.56022860129747 222.3788283195844 118.19275569915771 220.89432048797607 C112.35847137693258 197.321988295751 106.67405650856449 173.7187080923272 101.16150951385498 150.06885051727295 C100.90929134368889 148.9899857711792 100.65707317352303 147.91112102508544 100.39721202850342 146.79956340789795 C99.93082419870257 144.80295393393047 99.46662600886884 142.80583121030315 99.00503063201904 140.80810832977295 C98.80215938568108 139.93960247039794 98.59928813934334 139.07109661102294 98.39026927947998 138.17627239227295 C98.21583797454832 137.42382747650146 98.04140666961666 136.67138256072997 97.86168956756592 135.8961362838745 C97.41428902427242 133.98244243076934 97.41428902427242 133.98244243076934 96.36902904510498 132.05884075164795 C93.79299333402344 132.05884075164795 91.73806563303356 132.9720957072669 89.3411054611206 133.84225749969482 Z M43.05652904510498 363.30884075164795 C41.26434444427491 363.4107018661499 41.26434444427491 363.4107018661499 39.435954093933105 363.5146207809448 C-8.226012833723644 366.24951424233615 -55.325130511179 372.1325755715417 -102.62749195098877 378.39697551727295 C-107.56786467897098 379.051009476316 -112.50879383993572 379.70076961837106 -117.44981861114502 380.34985637664795 C-125.91571097492016 381.4624201260323 -134.38049127951126 382.5831972162706 -142.84460544586182 383.7092046737671 C-144.97901743256318 383.992759992792 -147.11358434020678 384.2751222770052 -149.24818897247314 384.5572233200073 C-170.0229910504479 387.29528229700145 -170.0229910504479 387.29528229700145 -190.63097095489502 391.05884075164795 C-189.2191926683858 393.8823973246664 -187.6081453808597 394.07487352694613 -184.69347095489502 395.24634075164795 C-183.59591480255125 395.6885697555542 -182.49835865020754 396.13079875946045 -181.36754322052002 396.58642864227295 C-180.12228781558008 397.0779139765498 -178.87675264008664 397.56869092742835 -177.63097095489502 398.05884075164795 C-176.991827583313 398.31261486053467 -176.35268421173095 398.5663889694214 -175.6941728591919 398.8278532028198 C-155.09546236151704 406.9980427064033 -134.2354545848426 414.5004264858704 -113.40446949005127 422.0525541305542 C-110.84814836492825 422.98004398310815 -108.29281945203923 423.91020048638956 -105.73790454864502 424.84155559539795 C-70.61089731395919 437.63525350096126 -36.54424681585067 446.5422342155093 1.0565290451049805 446.37134075164795 C1.9066355514526094 446.36951793670653 2.7567420578002384 446.3676951217651 3.6326093673706055 446.3658170700073 C38.36599535000482 446.24273575764323 72.93116576439388 442.2811974610422 107.36902904510498 438.05884075164795 C108.11640331268313 437.9677201461792 108.86377758026129 437.87659954071046 109.63379955291748 437.78271770477295 C148.092602277198 433.06338577430677 186.9627749717149 426.4966313767761 224.68152904510498 417.62134075164795 C225.3495957565308 417.46611949920657 226.0176624679566 417.31089824676513 226.7059736251831 417.1509733200073 C237.48357490502087 414.77565530262814 237.48357490502087 414.77565530262814 247.36902904510498 410.05884075164795 C247.6990290451049 409.06884075164794 248.02902904510506 408.07884075164793 248.36902904510498 407.05884075164795 C232.1970574606596 400.9546304423595 215.84131177211918 395.58422826427955 199.32952404022217 390.4777936935425 C197.33881434352838 389.8619942372701 195.34857824485312 389.2446825282367 193.35840892791748 388.6271390914917 C139.10077356230727 369.6445659251691 139.10077356230727 369.6445659251691 82.81434154510498 361.87524700164795 C81.73759670257573 361.88090679168704 80.66085186004636 361.8865665817261 79.5514783859253 361.8923978805542 C67.36906420105925 362.0041262512355 55.217200493461746 362.608043890171 43.05652904510498 363.30884075164795 Z M-185.63097095489502 416.05884075164795 C-185.04036245195857 422.03111882869564 -184.17633728466262 427.8026308719421 -182.90025806427002 433.66333293914795 C-182.64133777618406 434.8782567214966 -182.64133777618406 434.8782567214966 -182.37718677520752 436.11772441864014 C-181.80843109935756 438.78130734498365 -181.23342065999014 441.44349737729704 -180.65831470489502 444.10571575164795 C-180.25254844709787 445.9995358180827 -179.8471659266104 447.8934381390725 -179.44214344024658 449.7874174118042 C-178.37233776346022 454.7848491283419 -177.29718707632264 459.78111633408616 -176.22093677520752 464.7771635055542 C-175.15702852087645 469.7206047497897 -174.098366657768 474.66516865979975 -173.03917407989502 479.60962200164795 C-167.93313225877205 503.4324980344237 -162.78834079605952 527.2470296140174 -157.63097095489502 551.058840751648 C-156.97097095489505 551.058840751648 -156.31097095489503 551.058840751648 -155.63097095489502 551.058840751648 C-154.3828276405348 549.6520605172371 -153.207887057451 548.1800437146003 -152.06847095489502 546.683840751648 C-144.84199211566022 537.2188060973488 -136.4949489479701 528.7612084131093 -128.06847095489502 520.371340751648 C-127.17450611114504 519.473508720398 -126.28054126739505 518.5756766891479 -125.35948657989502 517.650637626648 C-120.2784275547632 512.5770124845083 -115.09848461793786 507.7117482597316 -109.63097095489502 503.05884075164795 C-108.51299351147446 502.08578927241956 -107.39577711011373 501.1118625517611 -106.27940845489502 500.13696575164795 C-99.39950187292942 494.1784659548557 -92.39605210322213 488.4303394586557 -85.20518970489502 482.85180950164795 C-82.72495717920748 480.92502295241866 -80.27358887051696 478.9675389984998 -77.83800220489502 476.98462200164795 C-70.34581537833026 470.8910275277532 -62.80176805145652 465.23215734909843 -54.63097095489502 460.05884075164795 C-57.93437335658194 457.85657248385667 -60.55813662674052 457.1420473373121 -64.39268970489502 456.13305950164795 C-65.81527326350835 455.7523932981496 -67.23771088332956 455.37118140732673 -68.66002368927002 454.98950481414795 C-69.41661273956299 454.7881290817261 -70.17320178985597 454.5867533493042 -70.9527177810669 454.37927532196045 C-108.11922829670823 444.4357319195998 -145.0204309554171 432.3405563887939 -180.30186939239502 416.92407512664795 C-182.68557082285008 415.88472281618334 -182.68557082285008 415.88472281618334 -185.63097095489502 416.05884075164795 Z M202.74402904510498 440.55884075164795 C201.94223217010494 440.70192668914797 201.1404352951049 440.84501262664793 200.31434154510498 440.99243450164795 C198.3322965049689 441.34637111595794 196.35062668311048 441.70240777179265 194.36902904510498 442.05884075164795 C193.1148838215954 445.64636596073774 193.6363122088635 448.06392717586414 194.58387279510498 451.69946575164795 C194.85779857635498 452.7693876266479 195.13172435760498 453.8393095016479 195.41395092010498 454.94165325164795 C195.85577709197992 456.60841106414796 195.85577709197992 456.60841106414796 196.30652904510498 458.30884075164795 C196.5972126388549 459.4354813766479 196.88789623260504 460.56212200164794 197.18738842010498 461.72290325164795 C197.90619309665647 464.5038524920767 198.63368885022714 467.28222659054927 199.36902904510498 470.05884075164795 C202.3665723845238 467.5131552198584 203.559813898554 464.74353502036047 205.06824779510498 461.14868450164795 C205.55486888885503 459.9943290328979 206.04148998260496 458.83997356414795 206.54285717010498 457.65063762664795 C207.04236888885498 456.44471965789796 207.54188060760498 455.238801689148 208.05652904510498 453.99634075164795 C208.56764232635499 452.7865555953979 209.078755607605 451.57677043914794 209.60535717010498 450.33032512664795 C212.23917342246068 444.8717797314571 212.23917342246068 444.8717797314571 213.36902904510498 439.05884075164795 C209.78455605081808 439.05884075164795 206.26432970200153 439.92450086055135 202.74402904510498 440.55884075164795 Z M168.69959545135498 446.69214153289795 C167.718915977478 446.8564365768432 166.738236503601 447.02073162078864 165.72783946990967 447.1900053024292 C164.65294765472413 447.37617412567147 163.5780558395386 447.5623429489135 162.47059154510498 447.75415325164795 C160.15288846265298 448.1425286660584 157.83509470803574 448.53036326795336 155.51722240447998 448.91772747039795 C154.29099163055412 449.12460186004637 153.06476085662848 449.3314762496948 151.80137157440186 449.5446195602417 C126.55191256974877 453.783794035121 101.32620369817414 457.364906193347 75.84168529510498 459.81921672821045 C73.44519321443909 460.0514597156881 71.04967043793283 460.2920443199537 68.65418529510498 460.53442668914795 C52.2153922133881 462.177239518403 35.904241043683555 463.1289529713398 19.37684154510498 463.14477825164795 C17.408299598693816 463.1529356002808 17.408299598693816 463.1529356002808 15.399989128112793 463.16125774383545 C8.854940000379429 463.18704011240345 2.3157652045391615 463.1683723868475 -4.2288713455200195 463.06567668914795 C-18.85567004061113 462.98411876331033 -28.807931838406603 464.24538650443674 -40.63097095489502 473.05884075164795 C-42.70862286591591 474.40100992585326 -44.79104351717683 475.73586725961263 -46.88097095489502 477.05884075164795 C-55.892539091007166 483.21694888255 -64.5058785563686 489.85186773217777 -72.91222095489502 496.80884075164795 C-75.65619823387169 499.0797184997666 -78.42439000706406 501.3186853781217 -81.19347095489502 503.55884075164795 C-85.62564521516475 507.1800214238683 -89.87797150544077 510.95815563034535 -94.10362720489502 514.816653251648 C-96.69362033029813 517.1144214958232 -99.36134096233116 519.2758165589942 -102.06847095489502 521.433840751648 C-107.13946241867984 525.5279840014459 -111.6490239077873 529.9736686651732 -116.19737720489502 534.625247001648 C-118.04040978143706 536.46827957819 -119.84048233799399 538.1388470667152 -121.88097095489502 539.746340751648 C-125.56901690112164 542.8476521155203 -128.5390709530394 546.3742247415315 -131.63097095489502 550.058840751648 C-132.40698657989503 550.9702079391479 -133.18300220489505 551.8815751266479 -133.98253345489502 552.820559501648 C-136.12415336373368 555.3566883410622 -138.23581372761907 557.9118709323894 -140.33165454864502 560.485598564148 C-141.6326172019992 562.0608340655035 -142.96752375472192 563.6020419996361 -144.30675220489502 565.144778251648 C-145.13561939239503 566.1476688766479 -145.96448657989504 567.150559501648 -146.81847095489502 568.183840751648 C-147.575150642395 569.073293876648 -148.331830329895 569.9627470016479 -149.11143970489502 570.879153251648 C-152.36992043443763 577.6976707679659 -149.246072215143 586.5697662076526 -147.61925220489502 593.687747001648 C-147.41429126739501 594.6079412460327 -147.209330329895 595.5281354904175 -146.99815845489502 596.4762144088745 C-146.55210289032567 598.4766579995592 -146.10349795077877 600.4765345007872 -145.65260791778564 602.4758939743042 C-144.41436267064785 607.968252610208 -143.195744781847 613.4649764664434 -141.97472095489502 618.961184501648 C-141.71201908111573 620.1414823532104 -141.44931720733643 621.321780204773 -141.17865467071533 622.537844657898 C-137.85489746236817 637.4997859388155 -134.6387798997332 652.484970308089 -131.41926670074463 667.4696187973022 C-130.78515617430958 670.420594003285 -130.1505248551132 673.3714571181756 -129.51591396331787 676.3223247528076 C-127.88613152618302 683.900848272941 -126.2578788916494 691.479699578022 -124.63097095489502 699.058840751648 C-112.72597168699019 697.7008518740724 -100.96311397843289 695.8328705070413 -89.16612720489502 693.750247001648 C-87.3026937910738 693.4240232952735 -85.43921816761627 693.0980406177877 -83.57570362091064 692.7722806930542 C-78.63206926532575 691.9065759954542 -73.68947694796918 691.0350731815848 -68.74726963043213 690.1612615585327 C-65.68157291364366 689.6192371421062 -62.61570868593316 689.0781679165324 -59.549824714660645 688.5372037887573 C-35.63862958827531 684.3151714138112 -11.728227065767555 680.0806076083027 12.126139640808105 675.5466032028198 C14.465859666141228 675.1022285086012 16.806240560482593 674.6613170906671 19.147318840026855 674.2241544723511 C40.11038688226961 670.2958174262585 59.43638916789678 665.5362364782225 74.36902904510498 649.058840751648 C76.46265858428274 645.8685481205199 77.94883268376441 642.5937820598023 79.36902904510498 639.058840751648 C85.88151178814701 623.1820037375652 94.36577572714168 609.9497986907227 104.36902904510498 596.058840751648 C104.96344799041754 595.2319071578979 105.55786693572998 594.4049735641479 106.17029857635498 593.552981376648 C116.36277950361887 579.4216634216144 127.18733749088233 565.8946646664542 138.48914623260498 552.639407157898 C141.31670670641608 549.3213093484184 144.0755439121208 545.9566373354145 146.80652904510498 542.558840751648 C150.180161346393 538.4066779192935 153.71763256951522 534.4640531127997 157.36902904510498 530.558840751648 C164.62042316176587 522.7936400762103 171.23307137605798 514.5737358582055 177.74402904510498 506.18384075164795 C178.16120189666754 505.648235282898 178.57837474822998 505.112629814148 179.00818920135498 504.56079387664795 C180.14960790689895 503.0761578777601 181.26019833775354 501.5679713533501 182.36902904510498 500.05884075164795 C182.98004467010492 499.2931376266479 183.59106029510497 498.5274345016479 184.22059154510498 497.73852825164795 C186.90637392325266 491.4717027026368 183.85560688422538 483.1084691327144 182.37293529510498 476.68384075164795 C182.1793291854858 475.8333012008667 181.98572307586664 474.9827616500854 181.78625011444092 474.10644817352295 C181.37952362718534 472.32777296056247 180.9701563216886 470.54969969131025 180.55823802947998 468.77221965789795 C179.9272931163805 466.0405010119349 179.31092307143058 463.30574444540866 178.69520092010498 460.57055950164795 C178.29698893495515 458.83728496671233 177.8979312385302 457.1042044634893 177.49793529510498 455.37134075164795 C177.2228287124634 454.1418168258667 177.2228287124634 454.1418168258667 176.94216442108154 452.88745403289795 C176.481393092203 450.92852303939196 175.9333555098557 448.99048681032866 175.36902904510498 447.05884075164795 C172.7709141345074 445.75978329634904 171.55046126784146 446.20344558908437 168.69959545135498 446.69214153289795 Z M190.36902904510498 519.058840751648 C188.96444923095635 520.602639893633 188.96444923095635 520.602639893633 187.49402904510498 522.683840751648 C184.37447403445606 526.8088721706879 181.11877461267864 530.7682600468866 177.74402904510498 534.683840751648 C176.97868846893311 535.5724479293823 176.97868846893311 535.5724479293823 176.19788646697998 536.479006767273 C171.8622099430729 541.5021852912689 167.5084195505508 546.5097455405045 163.15784740447998 551.520022392273 C159.22121277079623 556.059485478909 155.32158562451878 560.6284597931735 151.45594310760498 565.228518486023 C149.1677317620721 567.9483509247115 146.86099634867674 570.6472030032485 144.50965404510498 573.312747001648 C136.18067413013273 582.7911732874396 128.72135565343774 592.8105248851343 121.36902904510498 603.058840751648 C120.8268171310425 603.811653251648 120.28460521698003 604.564465751648 119.72596263885498 605.340090751648 C116.678967140199 609.5780912248322 113.66965323917384 613.8395369186363 110.70350170135498 618.134524345398 C109.85635115164928 619.3561197776667 109.00259804761185 620.5731835065718 108.14002513885498 621.783938407898 C101.43657328028416 631.2058407897603 97.04753182151865 641.1984755445718 92.63074779510498 651.836184501648 C91.31645874491164 654.9885693870968 89.93428417379607 657.9093501315986 88.13856029510498 660.812747001648 C86.21301237116245 664.3450435243769 85.83662128533422 667.099697676854 85.36902904510498 671.058840751648 C112.77288416241367 666.7820177579799 140.14832016779087 662.3406620927863 167.51380443572998 657.825198173523 C173.05871300186186 656.9103693564264 178.6041953490818 655.9990661990663 184.149808883667 655.0885219573975 C188.46762102777598 654.3790402801885 192.78506591083442 653.6673439859038 197.10240650177002 652.9549989700317 C199.1512442230321 652.6173048924435 201.20021229485997 652.2804006542692 203.2493143081665 651.9443140029907 C206.0756597962104 651.4805000212527 208.9014794940599 651.0136061099086 211.72718334197998 650.545901298523 C212.56371944427497 650.4093110275269 213.40025554656984 650.2727207565308 214.26214122772217 650.1319913864136 C217.39358883298064 649.6110379943467 220.351984114444 649.0645223952016 223.36902904510498 648.058840751648 C222.77906614525614 642.7104128865772 221.89347725834227 637.5712856841836 220.57825756072998 632.349856376648 C220.39910305023193 631.6229006576539 220.21994853973388 630.8959449386597 220.0353651046753 630.1469602584839 C219.443940854812 627.7518938332527 218.84598524392084 625.3585105401925 218.24793529510498 622.965090751648 C217.82452547479704 621.2564065232215 217.40151464818416 619.5476233814671 216.97887706756592 617.8387479782104 C215.86069024579524 613.3223208683322 214.73692069784397 608.8073007268199 213.61201000213623 604.2925443649292 C212.50736122076887 599.8548266979935 211.40820283472578 595.4157504371744 210.30848217010498 590.976809501648 C204.36383028998966 566.9953968486308 198.36887312850433 543.026494472908 192.36902904510498 519.058840751648 C191.709029045105 519.058840751648 191.04902904510504 519.058840751648 190.36902904510498 519.058840751648 Z M-166.63097095489502 600.058840751648 C-173.86567766615553 610.6227930291521 -180.55666506569952 621.4461933970653 -187.08116626739502 632.460696220398 C-188.63020278765396 635.0575529703342 -190.2009495199511 637.6399340611367 -191.77940845489502 640.218997001648 C-200.34637634474075 654.2410859824602 -207.6073850733058 668.2829665059243 -213.9236650466919 683.4599332809448 C-214.6823923527648 685.2822323429241 -215.44874179334067 687.1013518238647 -216.21519947052002 688.920413017273 C-216.67338062286376 690.0437504196167 -217.1315617752075 691.1670878219604 -217.60362720489502 692.324465751648 C-218.01878589630127 693.332834892273 -218.43394458770751 694.341204032898 -218.86168384552002 695.380129814148 C-219.96812980166771 699.2328511822382 -219.08227817645724 701.0849672735401 -217.44347095489502 704.621340751648 C-214.47030565072214 708.6197354710529 -210.3907982820317 710.0744897419545 -205.63097095489502 711.058840751648 C-198.24397160150278 711.5940286020591 -191.09620702636698 710.5675468229599 -183.82237720489502 709.379153251648 C-182.18957057952878 709.1199157333374 -182.18957057952878 709.1199157333374 -180.52377796173096 708.8554410934448 C-178.24159435325504 708.4910253428037 -175.96002641712505 708.1227345294767 -173.67906665802002 707.750735282898 C-170.18104359200356 707.181819575166 -166.6806908987317 706.6293272085013 -163.17979907989502 706.078372001648 C-160.95633497706098 705.7212741015747 -158.73302183878002 705.3632346681214 -156.50987720489502 705.004153251648 C-155.463042640686 704.8394855880738 -154.41620807647706 704.6748179244995 -153.33765125274658 704.5051603317261 C-152.3691171646118 704.3451453781128 -151.40058307647706 704.1851304244994 -150.40269947052002 704.020266532898 C-149.5512787246704 703.8825886154175 -148.69985797882077 703.744910697937 -147.82263660430908 703.6030607223511 C-145.3609164209621 703.122793787654 -145.3609164209621 703.122793787654 -142.63097095489502 701.058840751648 C-146.67005201168968 682.3203515775 -150.72657976119734 663.5857157322287 -154.80455493927002 644.8556547164917 C-155.33252082667735 642.4300140992135 -155.86006916410577 640.0042825353237 -156.38707447052002 637.5784330368042 C-157.66494055718124 631.6968908534966 -158.95001571560806 625.8170710590548 -160.25136280059814 619.940676689148 C-160.62889609235407 618.2302271977035 -161.00347842644567 616.5191236492958 -161.3750810623169 614.807375907898 C-161.88341057105117 612.468778034335 -162.4021166271403 610.13273986607 -162.92393970489502 607.797122001648 C-163.34969287872315 605.8641324996948 -163.34969287872315 605.8641324996948 -163.78404712677002 603.892092704773 C-164.06353199005127 602.9571195602417 -164.34301685333253 602.0221464157105 -164.63097095489502 601.058840751648 C-165.290970954895 600.7288407516479 -165.950970954895 600.398840751648 -166.63097095489502 600.058840751648 Z " fill="#000000" transform="translate(512.630970954895,70.94115924835205)"/>
</svg>
