<?xml version="1.0" encoding="UTF-8"?>
<!-- Generator: visioncortex VTracer 0.6.4 -->
<svg version="1.1" xmlns="http://www.w3.org/2000/svg" width="1024" height="1024">
<path d="M0 0 C3 0.5 3 0.5 4.6642303466796875 2.0660552978515625 C6.464137248851216 5.345717968740473 6.4122405396609 8.29840008975053 6.372314453125 11.943115234375 C6.375965118408203 12.686692810058588 6.379615783691406 13.43027038574219 6.3833770751953125 14.196380615234375 C6.3914728630393824 16.650685110930254 6.377879653009813 19.104327269001914 6.36328125 21.55859375 C6.362762468869562 23.26725768587019 6.363280865601212 24.975922224768567 6.3647918701171875 26.684585571289063 C6.364702186473949 30.26483069519803 6.3542817788744514 33.84485046446737 6.336181640625 37.425048828125 C6.313511800187314 42.00943952039802 6.312947707843875 46.593500489636995 6.319699287414551 51.177931785583496 C6.323044646532537 54.70643532966906 6.316398206283452 58.234864014633615 6.306570053100586 61.76335334777832 C6.302726257129393 63.45340647859285 6.30156643314325 65.14346794950598 6.303155899047852 66.83352470397949 C6.303527697498737 69.19834050909651 6.2908739609222835 71.56273748793035 6.274658203125 73.927490234375 C6.278374328613268 74.97110969543456 6.278374328613268 74.97110969543456 6.28216552734375 76.03581237792969 C6.226725638619257 81.11421651322831 5.655474683108878 84.8445253168911 2 88.5 C-0.6894634960457893 88.84480301231355 -2.314920280756837 88.93448022899449 -4.635894775390625 87.46250915527344 C-6.732501681916858 84.44616541958732 -6.417253730215521 81.33137918238918 -6.38818359375 77.787353515625 C-6.393440551757806 77.00330139160155 -6.398697509765611 76.2192492675781 -6.40411376953125 75.41143798828125 C-6.41732816779637 72.81705866270786 -6.408569962186107 70.22329193342387 -6.3984375 67.62890625 C-6.400458030412153 65.82673525090718 -6.4033692930901225 64.02456504803374 -6.407135009765625 62.22239685058594 C-6.41156047600532 58.443676988837666 -6.40512094537371 54.66516976840654 -6.39111328125 50.886474609375 C-6.374033484118684 46.042928806211165 -6.383853450366189 41.199882137415955 -6.401830673217773 36.35635471343994 C-6.412672985002473 32.63401023549051 -6.409219906738713 28.911784005303417 -6.401447296142578 25.189435958862305 C-6.399445889375272 23.403654770183437 -6.401902483739093 21.617862847898465 -6.408885955810547 19.832094192504883 C-6.4165064741944775 17.335120782541495 -6.404887709675165 14.838954343994814 -6.38818359375 12.342041015625 C-6.394256286621101 11.60372543334961 -6.400328979492201 10.865409851074219 -6.406585693359375 10.104721069335938 C-6.367983302343475 6.989370248672557 -6.163723172479081 4.801157119708066 -4.663238525390625 2.0411224365234375 C-3 0.5 -3 0.5 0 0 Z " fill="#000000" transform="translate(311,92.5)"/>
<path d="M0 0 C2.4530004147661657 3.6795006221492628 2.288899248725272 6.456918412284722 2.274658203125 10.712646484375 C2.279769134521473 11.496698608398432 2.284880065917946 12.280750732421879 2.2901458740234375 13.08856201171875 C2.304056766470694 15.682816702400828 2.3030839952330666 18.276806173655004 2.30078125 20.87109375 C2.304667377471503 22.67326455779626 2.3090018742025222 24.47543445004206 2.3137664794921875 26.277603149414063 C2.3212319180363465 30.05627408843999 2.320935085990584 33.83485160096242 2.315673828125 37.613525390625 C2.309878925637861 42.45704722030058 2.326809049414578 47.30018668641293 2.3500185012817383 52.14364528656006 C2.364746845086927 55.86597430425172 2.3656287695267224 59.58821104864643 2.362508773803711 63.310564041137695 C2.36302244488445 65.09635233404163 2.368268774885621 66.88214573126609 2.3783206939697266 68.66790580749512 C2.390650405628378 71.16484328364817 2.383914589791175 73.66103356703093 2.372314453125 76.157958984375 C2.379958190917989 76.89627456665039 2.3876019287109216 77.63459014892578 2.395477294921875 78.39527893066406 C2.352849968426085 82.5442367059322 1.9459278471781545 84.98795703193741 -1 88 C-3.343121300906091 87.74438676717386 -5.6784340289842135 87.40729227561678 -8 87 C-9.540642094526333 83.91871581094733 -9.156124542591158 80.67514866554399 -9.1611328125 77.293212890625 C-9.16609771728514 76.49794692993163 -9.171062622070338 75.70268096923829 -9.176177978515625 74.88331604003906 C-9.190811173102759 72.24642072389531 -9.197602971719789 69.60958553574625 -9.203125 66.97265625 C-9.208874825100452 65.14424130838489 -9.214632577455916 63.315826391682776 -9.22039794921875 61.48741149902344 C-9.230910769500213 57.65151690976529 -9.236751816891001 53.81564330240553 -9.240234375 49.979736328125 C-9.245724373895825 45.058765651164094 -9.269761940824367 40.13807094137462 -9.298206329345703 35.21718692779541 C-9.316805944564237 31.440009384004156 -9.322036841320767 27.662898723508533 -9.323570251464844 23.885679244995117 C-9.326602602735363 22.071145895245735 -9.334650653167785 20.256613881234912 -9.347755432128906 18.44212532043457 C-9.364762752961838 15.906595351149306 -9.36294909854388 13.371745104617176 -9.3564453125 10.836181640625 C-9.365660095214821 10.083348999023443 -9.374874877929699 9.330516357421871 -9.384368896484375 8.55487060546875 C-9.343703278967098 3.5078115460226087 -9.343703278967098 3.5078115460226087 -7.66912841796875 1.0336761474609375 C-5.050703899540963 -0.5878904974347989 -2.9929360259828286 -0.38207693948716326 0 0 Z " fill="#000000" transform="translate(335,93)"/>
<path d="M0 0 C1.2865724945067996 0.0037161254882676076 1.2865724945067996 0.0037161254882676076 2.5991363525390625 0.00750732421875 C3.5016915893554597 0.0023963928222769937 4.404246826171857 -0.0027145385742244343 5.3341522216796875 -0.0079803466796875 C8.328227395854242 -0.021920825979094616 11.322073529814475 -0.02091622289955808 14.316177368164063 -0.01861572265625 C16.391215884962207 -0.022500241921733277 18.466253605052202 -0.02683440057791131 20.541290283203125 -0.0316009521484375 C24.895071156655376 -0.03907278318584417 29.24877095522902 -0.03876494558249988 33.60255432128906 -0.03350830078125 C39.18940862175725 -0.027712808768313835 44.775931498635146 -0.044642039370216935 50.362730979919434 -0.06785297393798828 C54.64947458384779 -0.08256553178702575 58.93613792199221 -0.08346538905036027 63.22290229797363 -0.08034324645996094 C65.28304259204833 -0.08085772037583183 67.34318723439674 -0.08611897113050304 69.4033031463623 -0.09615516662597656 C72.28130162474258 -0.10845409509090587 75.15864876038984 -0.1017672842884565 78.03663635253906 -0.09014892578125 C78.89232711791988 -0.09779266357421079 79.7480178833008 -0.1054364013672 80.629638671875 -0.113311767578125 C86.4579669162024 -0.06115008709173253 86.4579669162024 -0.06115008709173253 88.56747531890869 1.6444520950317383 C90.4084750819602 3.93706179306173 90.86474035677384 6.113512130340013 91.56617736816406 8.96185302734375 C91.8521075439453 10.108071289062508 92.13803771972653 11.254289550781237 92.43263244628906 12.43524169921875 C92.87192077636723 14.27759399414063 92.87192077636723 14.27759399414063 93.32008361816406 16.15716552734375 C93.62647766113287 17.41698242187499 93.93287170410156 18.67679931640626 94.24855041503906 19.97479248046875 C96.81572947638699 30.682801202107868 99.12637421807881 41.41061111847145 100.88258361816406 52.28216552734375 C100.99972717285152 53.00339599609376 101.1168707275391 53.724626464843766 101.23756408691406 54.46771240234375 C105.16737019326433 79.7165706547342 104.90002714800767 108.67028545525272 90.01930236816406 130.55560302734375 C80.79570855288136 142.32538087573005 68.680606257926 153.67749496627067 53.26173400878906 155.61077880859375 C52.38509094238282 155.69053955078124 51.50844787597657 155.77030029296873 50.60523986816406 155.85247802734375 C49.71715637207035 155.93513916015627 48.82907287597652 156.0178002929688 47.91407775878906 156.10296630859375 C46.90848815917968 156.19166992187502 46.90848815917968 156.19166992187502 45.88258361816406 156.28216552734375 C45.7545877256523 191.2990554134223 45.964900155263194 226.2759583241841 46.88258361816406 261.28216552734375 C49.57540135437387 261.82491647058697 52.26841024323289 262.3666868387611 54.96168518066406 262.90716552734375 C57.25054901477017 263.36715985769223 59.53895939620941 263.8294160397 61.82691955566406 264.29388427734375 C66.85088512286757 265.3075038533848 71.86605422181538 266.30936691865924 76.92945861816406 267.10638427734375 C77.65197814941405 267.2239306640625 78.37449768066404 267.34147705078124 79.11891174316406 267.46258544921875 C81.00133683426418 267.76133598804637 82.88719839095154 268.03820373453163 84.77320861816406 268.31341552734375 C88.61470094219067 269.5102623820656 90.3437290882872 271.20462415072177 92.88258361816406 274.28216552734375 C93.50758361816406 276.84466552734375 93.50758361816406 276.84466552734375 92.88258361816406 279.28216552734375 C89.10054237594113 283.56417810649174 85.37676489615922 283.9279443154557 79.97340393066406 284.34588623046875 C78.85030822753902 284.4073583984375 77.72721252441409 284.46883056640627 76.57008361816406 284.53216552734375 C74.76749084472658 284.64274291992183 74.76749084472658 284.64274291992183 72.92848205566406 284.75555419921875 C58.51488261134557 285.5437302812014 44.06317357670332 285.5304520641152 29.632583618164063 285.59466552734375 C28.382545471191406 285.60429321289064 27.13250732421875 285.6139208984375 25.844589233398438 285.62384033203125 C22.226857733583074 285.64767025138053 18.609754105415618 285.6498538879137 14.991958618164063 285.64544677734375 C13.905364532470685 285.6545558166504 12.818770446777307 285.66366485595705 11.699249267578125 285.6730499267578 C4.628808979168525 285.6308932496672 -2.646874656571299 285.24233346948125 -8.242416381835938 280.46966552734375 C-9.49760390431743 277.33169672114 -9.13610842477135 275.47406726187467 -8.117416381835938 272.28216552734375 C-5.076973666407866 269.41726800333765 -2.2921399514765426 268.6417382592657 1.7575836181640625 267.84466552734375 C2.978325805664099 267.6023217773438 4.199067993164022 267.35997802734374 5.4568023681640625 267.11029052734375 C6.931807145629705 266.832886120073 8.407095989258892 266.55699011806905 9.882583618164063 266.28216552734375 C10.792178344726608 266.1100756835938 11.70177307128904 265.93798583984375 12.638931274414063 265.76068115234375 C15.614888872375218 265.19927263642853 18.592057060550815 264.64499004962687 21.570083618164063 264.09466552734375 C22.538652954101508 263.91556640625 23.507222290039067 263.73646728515627 24.505142211914063 263.55194091796875 C25.417315063476508 263.3868603515625 26.329487915039067 263.22177978515623 27.269302368164063 263.05169677734375 C28.49459655761723 262.82897094726565 28.49459655761723 262.82897094726565 29.744644165039063 262.60174560546875 C31.882583618164063 262.28216552734375 31.882583618164063 262.28216552734375 34.88258361816406 262.28216552734375 C34.88258361816406 227.30216552734373 34.88258361816406 192.3221655273437 34.88258361816406 156.28216552734375 C31.582583618164108 155.9521655273437 28.28258361816404 155.62216552734378 24.882583618164063 155.28216552734375 C8.053599249107492 150.33366708589574 -4.766779786048119 139.4893297201633 -13.117416381835938 124.28216552734375 C-15.0791555859563 120.36413639466997 -16.66938186036839 116.41655374725804 -18.117416381835938 112.28216552734375 C-18.709096069335942 110.65021240234375 -18.709096069335942 110.65021240234375 -19.312728881835938 108.98529052734375 C-27.712077413869565 81.61398691945803 -20.387167987061048 51.29339584553421 -14.554916381835938 24.09466552734375 C-14.407389221191352 23.402630310058584 -14.25986206054688 22.710595092773445 -14.107864379882813 21.997589111328125 C-9.393645963901463 0.08522167976380501 -9.393645963901463 0.08522167976380501 0 0 Z M-0.1174163818359375 11.28216552734375 C-1.0737596219940997 15.582218393215896 -2.0258035580706064 19.883196312476002 -2.9742431640625 24.18499755859375 C-3.295981091982185 25.641625093607757 -3.618798177679878 27.09801477843547 -3.94281005859375 28.55413818359375 C-10.992329656978995 60.24929233252507 -18.443731302648985 95.00219111363097 -0.1174163818359375 124.28216552734375 C7.542270102864109 134.55607948122469 17.871926392375826 143.3092379972037 30.882583618164063 145.28216552734375 C46.26932442266491 146.40609412520337 60.28009731055795 143.72746689055077 72.50758361816406 133.78216552734375 C86.54968694320473 120.53396203693444 91.02105054872789 101.94847664310495 91.80836486816406 83.36419677734375 C92.40929588858194 59.8555945274629 87.22724542385117 34.830595964221914 80.88258361816406 12.28216552734375 C79.16271156285745 10.562293472037112 76.97381333142255 11.162417651535065 74.68125915527344 11.157745361328125 C73.56456344604499 11.16313827514648 73.56456344604499 11.16313827514648 72.42530822753906 11.16864013671875 C71.64487655639653 11.168494110107417 70.86444488525387 11.168348083496085 70.06036376953125 11.168197631835938 C67.46852382012912 11.168896943554245 64.87675483542614 11.176690166408719 62.28492736816406 11.18450927734375 C60.492737215972966 11.186373392664791 58.700546555740175 11.187797325712097 56.908355712890625 11.188796997070313 C52.181875643266494 11.192622690788795 47.45542610275777 11.202453408810186 42.72895812988281 11.2135009765625 C37.90972811963627 11.22371399469202 33.09049319632538 11.228294381180888 28.271255493164063 11.23333740234375 C18.808351424360694 11.24407563344542 9.345470055697206 11.261152667666948 -0.1174163818359375 11.28216552734375 Z M35.88258361816406 272.28216552734375 C35.88258361816406 273.27216552734376 35.88258361816406 274.26216552734377 35.88258361816406 275.28216552734375 C38.85258361816409 275.28216552734375 41.82258361816412 275.28216552734375 44.88258361816406 275.28216552734375 C45.2125836181641 274.29216552734374 45.54258361816403 273.30216552734373 45.88258361816406 272.28216552734375 C40.83248767311602 271.344304702868 40.83248767311602 271.344304702868 35.88258361816406 272.28216552734375 Z " fill="#000000" transform="translate(732.1174163818359,147.71783447265625)"/>
<path d="M0 0 C2.5636342353311647 2.5636342353311647 2.2464092244985068 4.2571795105488235 2.2789764404296875 7.7524871826171875 C2.2764234924316042 8.557088775634767 2.2738705444336347 9.361690368652347 2.271240234375 10.190673828125 C2.276466979980455 11.038151855468755 2.28169372558591 11.885629882812495 2.287078857421875 12.7587890625 C2.297339824117671 14.604690093555547 2.3031028985906232 16.45062022771849 2.304960250854492 18.29654884338379 C2.3086202361084815 21.22824698435724 2.3253423203810826 24.159605657512742 2.3457183837890625 27.091232299804688 C2.4011279812124826 35.42883953235432 2.431643410085769 43.76649937547717 2.456298828125 52.104248046875 C2.472285617903026 57.203042508898676 2.5026338834194917 62.30160229171315 2.5410633087158203 67.4002742767334 C2.552631352471508 69.33489146052244 2.5586429343790087 71.26955088560027 2.558744430541992 73.20420265197754 C2.516481139102325 95.38803775729849 2.516481139102325 95.38803775729849 12 115 C14.607989700306007 116.43735795982775 17.130837209560582 117.10632634396148 20 118 C40.279398786423485 144.8211403304311 21.233701997256674 224.53296444373547 18.62109375 257.92578125 C18.56380411148075 258.6600118637085 18.506514472961385 259.394242477417 18.44748878479004 260.1507225036621 C17.89314315390874 267.249333685821 17.332795902074224 274.34728136049085 16.740941047668457 281.44287300109863 C15.768236155142404 293.1314854474172 14.80369959314612 304.8094200127503 14.671875 316.54296875 C14.655217895507803 317.34140701293944 14.638560791015607 318.1398452758789 14.62139892578125 318.9624786376953 C14.634729408655915 323.48970372705617 15.21566792649287 326.39263446237396 18 330 C21.015812369695595 332.34563184309656 24.214697430905233 332.3558661118793 27.96875 332.2578125 C31.098186638987045 331.86061477274393 33.369343599175636 330.69113625767284 36 329 C39.75648659263459 323.3652701110481 39.170204028861235 317.2662599486477 39.1484375 310.71484375 C39.14629241943362 309.7008299255371 39.144147338867185 308.6868161010742 39.141937255859375 307.64207458496094 C39.07108005106733 297.32293669407784 38.50061781844164 287.0504593779839 37.83197021484375 276.7552795410156 C37.47166915468574 271.19717614750505 37.13662539854607 265.63751546977227 36.796875 260.078125 C36.72826263427737 258.9662532043457 36.659650268554685 257.8543814086914 36.588958740234375 256.7088165283203 C34.03552338100195 215.1904002691649 31.812370800253632 173.47587354666132 33.3125 131.875 C33.3348974609375 131.03428955078124 33.357294921874995 130.1935791015625 33.38037109375 129.327392578125 C33.609682196601284 124.36503805601515 34.32430569923116 120.67569430076884 38 117 C39.66617115107175 116.95936167924214 41.33388094848419 116.9572789986791 43 117 C43.2797265625 116.26781249999999 43.559453125000005 115.53562499999998 43.84765625 114.78125 C44.90293751368188 112.23426606867287 46.111261432035974 109.91284524514327 47.4375 107.5 C53.11373512133383 96.02120445866564 53.43255863031402 84.3209222804671 53.41069030761719 71.79035568237305 C53.40615694469665 68.96545133485296 53.420360153780734 66.14115517223445 53.4390869140625 63.316314697265625 C53.48178179944722 56.31576478209868 53.49316341111165 49.31523264411618 53.50531005859375 42.3145751953125 C53.516824250111824 36.36494316162586 53.54029921783109 30.41559628624941 53.58000183105469 24.466083526611328 C53.59357924006514 21.683434236935412 53.589403843453056 18.90116918034326 53.5845947265625 16.118499755859375 C53.59392885052887 14.42193097083478 53.604096022786564 12.725366492938832 53.615234375 11.02880859375 C53.60601203918458 9.869377441406243 53.60601203918458 9.869377441406243 53.59660339355469 8.6865234375 C53.65649690023514 3.509944935615451 53.65649690023514 3.509944935615451 55.3326416015625 1.021636962890625 C57.95257471958797 -0.5836690805997335 60.013342309230666 -0.38127544988545026 63 0 C65.60603359662588 3.909050394938845 65.28052063856273 7.200667241323231 65.2587890625 11.73486328125 C65.2640460205078 13.074458541870115 65.2640460205078 13.074458541870115 65.2694091796875 14.441116333007813 C65.27822847849069 17.400926942319728 65.27237362843084 20.360499338474582 65.265625 23.3203125 C65.26697230653161 25.379547585431155 65.2689133876147 27.438782360896624 65.27142333984375 29.498016357421875 C65.27437546123241 33.820648385978316 65.27007674968416 38.14319786947064 65.2607421875 42.4658203125 C65.24939050798565 47.99033812756841 65.25587932387566 53.51466069294949 65.26788711547852 59.03917121887207 C65.27513999726273 63.2961268083597 65.27280133221262 67.55303672159872 65.26763153076172 71.80999374389648 C65.26630227288376 73.84563088292583 65.26791725364205 75.88127224098119 65.27259063720703 77.91690444946289 C65.27770744532194 80.77430311520891 65.26987175433828 83.63139361613989 65.2587890625 86.48876953125 C65.26283752441407 87.32131759643556 65.26688598632813 88.1538656616211 65.27105712890625 89.01164245605469 C65.17324401939294 102.72285708148627 59.65109331938527 117.0570809646938 50 127 C47.38696289062506 127.616455078125 47.38696289062506 127.616455078125 45 128 C44.54421491428957 172.5801221928217 45.82012169186561 216.77436104160523 48.49491882324219 261.2835693359375 C49.437177811602 276.9647577790381 50.199895699832325 292.606494167022 50.296539306640625 308.31982421875 C50.30702747978967 309.9988945082813 50.321849649780916 311.67794436893604 50.341400146484375 313.35693359375 C50.3650619282767 315.6731427928012 50.367587541966714 317.98838089878643 50.36328125 320.3046875 C50.36775268554686 322.28444580078127 50.36775268554686 322.28444580078127 50.372314453125 324.30419921875 C49.82530905141755 329.734079724355 48.182624487459975 334.6290982569177 43.875 338.25 C38.17251273983101 342.7305257044185 31.554588570454882 344.6469582616974 24.328125 344.34375 C17.16813161535299 343.28656976870985 11.730958418521311 340.58855945527904 7.15625 334.9765625 C3.4430322288804973 328.6289672561267 3.726529938794556 322.3892762702287 3.8125 315.25 C3.8221679687500227 313.59883178710936 3.8221679687500227 313.59883178710936 3.83203125 311.914306640625 C3.9186720200320906 302.5889168849055 4.334817206287596 293.30068084780027 5 284 C4.659687500000018 284.9809765625 4.319375000000036 285.961953125 3.96875 286.97265625 C-7.426826898165814 319.03974553130126 -29.196229194328225 344.42481773343974 -59.87109375 359.66796875 C-88.66281387904382 373.236352437676 -120.90744310623674 376.02690223643873 -151.06982421875 365.26123046875 C-183.36422321013433 353.2712088992194 -209.10076378503607 331.2762128831498 -223.93359375 300.015625 C-231.68365948503885 282.81805509020046 -235.09965904757127 264.80366909574826 -235 246 C-234.9972607421875 245.29536621093746 -234.994521484375 244.59073242187503 -234.99169921875 243.86474609375 C-234.75183936381268 225.63975820678547 -229.75061988312143 209.3544862665036 -222 193 C-221.50427490234375 191.95271728515627 -221.50427490234375 191.95271728515627 -220.99853515625 190.88427734375 C-207.37901322688847 162.66028052754194 -181.53209926494424 141.64051570665188 -152.30419921875 131.020263671875 C-130.3542474621234 123.54100152708673 -104.40892564642377 121.2722638578457 -82 128 C-81.299072265625 128.203994140625 -80.59814453125 128.40798828125 -79.8759765625 128.6181640625 C-49.3774566845492 137.61450719524032 -22.21383815203535 156.98778975627522 -6.467041015625 185.04833984375 C0.7076175281259793 198.3417122608247 6.1149277535540705 212.1612245396974 9 227 C11.043209298262184 203.68302634879842 12.084298461063668 180.5270634098497 12.125 157.125 C12.127678833007849 156.25124725341797 12.130357666015584 155.37749450683594 12.13311767578125 154.47726440429688 C12.153816967484431 145.58880037158147 12.142441103004614 136.83125106608327 11 128 C10.391401367187541 127.87858642578124 9.782802734374968 127.7571728515625 9.15576171875 127.632080078125 C4.699139446072763 126.32537622037174 2.1272628363780086 122.43739111323598 -0.1328125 118.58203125 C-0.8063667212791756 117.33058323186458 -1.4703460593383397 116.0739379291405 -2.125 114.8125 C-2.4588671875000045 114.20341796874999 -2.792734375000009 113.5943359375 -3.13671875 112.966796875 C-7.506359766988169 104.69875063697336 -9.455718747708602 96.6063224740287 -9.38818359375 87.283447265625 C-9.396069030761737 85.91323173522949 -9.396069030761737 85.91323173522949 -9.40411376953125 84.51533508300781 C-9.417190361280518 81.53217879257605 -9.408625009520506 78.54956679385683 -9.3984375 75.56640625 C-9.400460560137901 73.48038124988452 -9.403373931160843 71.39435694110762 -9.407135009765625 69.30833435058594 C-9.41154055193033 64.95524300140306 -9.405179873831344 60.602337248114566 -9.39111328125 56.249267578125 C-9.373947796505092 50.66486538328974 -9.38392022346693 45.08089344262382 -9.401830673217773 39.496506690979004 C-9.41265286762075 35.19775628266183 -9.40923065152191 30.89910858859723 -9.401447296142578 26.60035514831543 C-9.399444813951959 24.540221013227068 -9.4019062403504 22.48007758460254 -9.408885955810547 20.419954299926758 C-9.416482774880365 17.549979896766402 -9.404924468658976 14.680712554738946 -9.38818359375 11.810791015625 C-9.3942562866211 10.958317871093755 -9.400328979492201 10.105844726562495 -9.406585693359375 9.2275390625 C-9.343913611375001 3.444435392575741 -9.343913611375001 3.444435392575741 -7.667596817016602 1.278151512145996 C-5.132133852588879 -0.665187422603978 -3.0907897803413107 -0.32880742344056557 0 0 Z M-185 164 C-185.67546875 164.52207031249998 -186.3509375 165.044140625 -187.046875 165.58203125 C-207.27717599552372 181.68275245515304 -219.89363055031848 209.63071333218005 -222.814697265625 234.822998046875 C-225.43309536080034 265.584863415358 -218.3850064245162 294.8526595169211 -198.60546875 318.94921875 C-178.0020245956596 343.28200139931596 -149.3976927518821 356.532639621574 -118 360 C-90.22614876903043 362.0798390898767 -62.03876786669986 350.6313002627321 -41 333 C-40.14277343750001 332.29359375 -39.285546874999994 331.5871875 -38.40234375 330.859375 C-20.137181618602654 315.16319239558436 -7.381035991501562 293.70171989646883 -3 270 C-2.828715820312482 269.09209716796875 -2.6574316406249636 268.1841943359375 -2.48095703125 267.248779296875 C0.9591411136499346 244.01152751302527 -1.3183234419100813 219.4130666078541 -12.93994140625 198.87890625 C-13.984191336049207 197.0280201468828 -14.985515014907492 195.15900807161597 -15.98046875 193.28125 C-20.19097467376264 185.46489372344462 -25.06998277948412 178.60532167267428 -31 172 C-31.901054687499993 170.97519531249998 -31.901054687499993 170.97519531249998 -32.8203125 169.9296875 C-43.19939135824686 158.8317114048183 -56.259250015896185 151.1589853403491 -70 145 C-70.92683593749999 144.579765625 -71.853671875 144.15953125 -72.80859375 143.7265625 C-110.98623260797007 127.47815940204794 -154.07082419572524 138.55686515542203 -185 164 Z " fill="#000000" transform="translate(293,93)"/>
<path d="M0 0 C1.5161314778688109 1.2938321343262942 3.0178255834790946 2.604902818173855 4.5 3.9375 C5.109726562499986 4.466015625000011 5.719453125000001 4.994531250000023 6.34765625 5.5390625 C21.253199763083927 19.324143744446644 29.8329186675129 39.74841557259691 30.77734375 59.796875 C31.487740622541423 84.89116452463759 24.005339091580595 104.77657664160824 6.8125 123.125 C-8.701830951870704 138.04078423304856 -30.017058099407905 146.5367103119704 -51.53662109375 146.2890625 C-75.65231175244656 145.45045842976276 -95.4790054701887 133.6631892288833 -111.75390625 116.5703125 C-125.3570027581013 100.75771107962396 -131.5071280663749 79.55712199051789 -130.5 58.9375 C-128.64907619028503 36.67353074599981 -119.28390290797756 17.381301236368643 -102.6875 2.3984375 C-72.66884135213883 -21.339143115564127 -30.67246565608383 -23.897609399218112 0 0 Z M-103.80859375 21.62890625 C-115.14382675273762 36.34970979041731 -119.98778108724152 53.32609227645406 -118.1328125 71.703125 C-115.66122509222724 90.42518431880825 -106.44751658388418 106.9626263411808 -91.9921875 119.03125 C-76.67616584962934 130.25971603306914 -59.090862252670576 136.05455609414855 -40.10546875 133.4765625 C-24.5202274862161 130.50294744405915 -10.246076714337192 123.84531473750877 0.5 111.9375 C1.1019921875000023 111.33937500000002 1.7039843750000045 110.74124999999998 2.32421875 110.125 C10.99343758448046 101.14203800770025 15.93283235624017 90.07506861969642 18.5 77.9375 C18.84031250000001 76.48343750000004 18.84031250000001 76.48343750000004 19.1875 75 C21.433707133477498 52.98717009192046 14.419000505464055 33.829172840556055 0.85546875 16.8828125 C-10.620153540553787 4.2741540845560735 -28.817797754849153 -3.4068208174702477 -45.59375 -4.31640625 C-69.06772295447624 -5.156575480961465 -88.61671548767595 3.917900966173818 -103.80859375 21.62890625 Z " fill="#000000" transform="translate(230.5,276.0625)"/>
<path d="M0 0 C1.8225690074672798 -0.003026058571606427 3.645136745184118 -0.0069178061574461935 5.467702269554138 -0.011592566967010498 C10.441020226935166 -0.021822224183097205 15.41426568949231 -0.019703685855063213 20.38758945465088 -0.015411972999572754 C25.764590743398117 -0.01293565523099005 31.141574984517888 -0.02196996520507355 36.51856994628906 -0.029449462890625 C47.03775655507786 -0.042172008729153276 57.55691760846793 -0.04399332070380524 68.07611061632633 -0.04164920002222061 C76.6268782973101 -0.03986364721811242 85.17763824174176 -0.04162075613464822 93.7284049987793 -0.04587364196777344 C95.55626415867357 -0.04676642546428411 95.55626415867357 -0.04676642546428411 97.4210497662425 -0.04767724499106407 C99.89679651573715 -0.04888903025016589 102.37254326408322 -0.05010316433526896 104.84829001128674 -0.05131962150335312 C128.04241130302637 -0.062185105960395504 151.2365180390512 -0.060036980979589316 174.43064014613628 -0.05393477529287338 C195.64156820095724 -0.04876283466359155 216.85245037027772 -0.06003015573992343 238.0633693486452 -0.07903299480676651 C259.85955403882394 -0.09841011192838778 281.6557170164508 -0.10666784689425413 303.45191037654877 -0.10290974378585815 C315.68224624298614 -0.10099798256754866 327.91254302495383 -0.10348316123139512 340.14287185668945 -0.11762428283691406 C350.5509910075534 -0.1295371833871286 360.95904699215225 -0.13094370299654656 371.36716701090336 -0.11883411556482315 C376.67499042108125 -0.11294571929215635 381.98269827992704 -0.11184516301210579 387.29051399230957 -0.12383651733398438 C392.15356871717813 -0.13469534387240856 397.01641140015806 -0.1315918811827146 401.8794562071562 -0.11757483333349228 C403.63428663489344 -0.11492800292865013 405.3891336828942 -0.11729398533270796 407.14394779503345 -0.12531069666147232 C421.97893561350236 -0.1883548498711889 434.598968697282 0.824175721859433 445.8816833496094 11.334915161132813 C455.06553386573205 20.90281760792965 455.68646616383967 32.92351056708537 457.3824157714844 45.50508117675781 C457.63828712936515 47.355574301036654 457.8949039673139 49.20596447545449 458.15220642089844 51.05625915527344 C458.8459106904619 56.06123226337456 459.5288187478209 61.067623515659875 460.209459066391 66.07438778877258 C460.9245649006782 71.32312492177994 461.6486612001363 76.57062245176553 462.3715057373047 81.81829833984375 C463.58359590509417 90.62795749742736 464.7888520224857 99.43853062516826 465.9898376464844 108.24971008300781 C467.3771340657453 118.42729556512086 468.77432553478616 128.60348411861298 470.1770278811455 138.77895694971085 C471.528212473919 148.5818463045124 472.8732516351191 158.38556873076982 474.2152042388916 168.1897258758545 C474.78552929042985 172.35604472723014 475.3578371517349 176.52208402964231 475.9317226409912 180.68791389465332 C476.60734939127303 185.5948016050479 477.2775318640795 190.5024035644767 477.9435634613037 195.41060256958008 C478.18841931340444 197.20873173758469 478.4350901462117 199.00661485691944 478.6837348937988 200.80422401428223 C479.02358171992466 203.2635148794891 479.3567327622395 205.72362563836657 479.68824768066406 208.18405151367188 C479.83692512542007 209.24297264188522 479.83692512542007 209.24297264188522 479.98860615491867 210.3232861161232 C481.8226922626959 224.14825833860573 481.8226922626959 224.14825833860573 477.6551208496094 230.2606964111328 C473.8118382348782 233.65708569856963 471.0971967018007 234.6052776857582 465.9986267089844 234.4965362548828 C461.454957557744 234.03928191587897 457.1460093704309 232.67684638634137 452.7801208496094 231.3856964111328 C439.93383578476005 227.48037230838634 439.93383578476005 227.48037230838634 426.6551208496094 226.2606964111328 C426.81109741210935 226.90136047363285 426.9670739746093 227.54202453613277 427.1277770996094 228.2021026611328 C429.7187573179351 239.71566376375904 429.7187573179351 239.71566376375904 426.5613708496094 245.1396026611328 C423.73902107769754 248.89489582987107 421.50129769306227 250.42081637302215 417.0203552246094 251.8593292236328 C416.2044995117187 252.1235266113281 415.38864379882807 252.38772399902348 414.5480651855469 252.65992736816406 C413.61105773925783 252.9573080444336 413.61105773925783 252.9573080444336 412.6551208496094 253.2606964111328 C412.6808895111084 253.91794425010676 412.7066581726074 254.57519208908082 412.7332077026367 255.25235652923584 C413.36468084698856 271.3671512472905 413.99068946550415 287.4821480646874 414.61087799072266 303.59738063812256 C414.9109434188035 311.3910994239735 415.21274780603903 319.1847430732272 415.5188903808594 326.9782257080078 C415.7862314698141 333.78405684595293 416.05006116662685 340.59001427008764 416.309956073761 347.39613395929337 C416.4472305096938 350.988051803944 416.58607064095736 354.5798911424538 416.72914123535156 358.1715831756592 C417.08782848956275 367.1999286189789 417.4021761356157 376.2286886990023 417.6551208496094 385.2606964111328 C417.6914462280274 386.48070972442633 417.72777160644523 387.70072303771974 417.76519775390625 388.957706451416 C417.8588762921361 392.44032902477943 417.9219008649493 395.9219996391314 417.9734802246094 399.4054718017578 C418.00287940979 400.43575972557073 418.03227859497065 401.46604764938354 418.0625686645508 402.52755641937256 C418.09602181138416 406.9774046257671 418.1121783060257 409.50911543449797 415.7602233886719 413.37664794921875 C410.94074423037637 417.69003987522797 404.7267354755477 416.559544077312 398.5892028808594 416.6107940673828 C397.14014584227516 416.6273158444827 395.6911690388215 416.6545567321674 394.2425231933594 416.6928253173828 C392.1452541483627 416.7479031753811 390.04989297316456 416.76951343722294 387.9519958496094 416.7841339111328 C386.69741577148443 416.80395324707024 385.44283569335937 416.8237725830079 384.1502380371094 416.8441925048828 C379.50518317418675 416.06871883050553 377.93088000026626 414.5972086820435 374.6551208496094 411.2606964111328 C373.5906932863886 408.06741372147076 373.36781746090173 405.4344901854706 373.1460876464844 402.0771026611328 C373.05884429931643 400.78062805175773 372.9716009521485 399.4841534423829 372.8817138671875 398.1483917236328 C372.78905524844583 396.7066728267391 372.6966042917188 395.26494057147374 372.6043395996094 393.8231964111328 C372.50458750435985 392.30462903524494 372.4046374699658 390.7860746505861 372.30450439453125 389.2675323486328 C371.97680552800557 384.26569839269996 371.65937003018416 379.26323372166166 371.3426208496094 374.2606964111328 C371.2327534921649 372.5359238873714 371.1228800145569 370.8111517534512 371.01300048828125 369.0863800048828 C369.2766953066914 341.74141649508863 367.7288967838231 314.3874009086976 366.3574867248535 287.02174377441406 C366.21764702205746 284.26121307303106 366.0735946698103 281.5009310123613 365.92840576171875 278.7406768798828 C365.7002987653391 274.3908204037126 365.4840091043019 270.04053459776446 365.27707290649414 265.6896209716797 C365.1993353303096 264.0900833595018 365.11782497823697 262.4907239417777 365.03225326538086 260.89158630371094 C364.91600266653813 258.70248642891966 364.8141267333865 256.5131692651132 364.7159118652344 254.3231964111328 C364.65549209594724 253.09729797363275 364.5950723266601 251.8713995361328 364.53282165527344 250.6083526611328 C364.6872054631533 246.38245467256195 365.7744390090793 243.02206009219287 367.6551208496094 239.2606964111328 C352.48208941080816 230.58731815604506 338.36167492605523 225.1222451078213 320.6551208496094 224.9481964111328 C319.7025036621094 224.91919250488286 318.7498864746094 224.8901885986328 317.7684020996094 224.8603057861328 C303.53945494373295 224.736823601202 291.5869980047662 230.37873999628926 279.2176208496094 236.6981964111328 C254.39163872834843 249.3483191526568 228.55921988965088 256.29390466840823 200.98568725585938 248.0355987548828 C190.04142517873458 244.3966832056691 179.6606549376267 239.2559203116159 169.31405639648438 234.2101593017578 C157.48746454639212 228.45441687897585 146.89056981922306 224.90534537160102 133.65512084960938 224.2606964111328 C132.9422692871094 224.21944641113282 132.22941772460933 224.17819641113283 131.49496459960938 224.1356964111328 C112.12639973803806 223.5564496115344 90.87213672545988 229.5098370879308 76.46762084960938 242.9481964111328 C67.08043658373714 251.64223415948277 53.3697009957167 254.36198375577635 40.907073974609375 254.2907257080078 C39.92194824218751 254.28639022827144 38.93682250976565 254.2820547485352 37.921844482421875 254.277587890625 C37.17382568359375 254.27201370239254 36.42580688476562 254.2664395141602 35.655120849609375 254.2606964111328 C35.60762695312502 255.43164352416989 35.56013305664061 256.60259063720696 35.511199951171875 257.80902099609375 C34.26793867553704 288.3786834830373 32.93418133368539 318.94334013556943 31.477874755859375 349.5036163330078 C31.258167316513777 354.12320839479867 31.04337567415888 358.742993893013 30.832366943359375 363.3629913330078 C30.571544607435158 369.07264284535813 30.30266265689113 374.7818605525946 30.027908325195313 380.49085807800293 C29.926225542590487 382.6312844290553 29.827342021447407 384.77184582583357 29.731430053710938 386.9125385284424 C29.598524769249593 389.8663416595465 29.455233903607734 392.8194692919111 29.309417724609375 395.7726593017578 C29.272996673583975 396.6352082824708 29.236575622558576 397.49775726318353 29.199050903320313 398.3864440917969 C28.589578536707506 410.11536540859424 28.589578536707506 410.11536540859424 24.487152099609375 414.6649932861328 C20.902491092966898 416.6847643498754 18.447676705520394 416.77750651616225 14.342620849609375 416.7919464111328 C13.65128051757813 416.79577331542964 12.959940185546884 416.7996002197266 12.247650146484375 416.8035430908203 C10.791987468179855 416.80625428104406 9.336275413636201 416.79894852396615 7.880706787109375 416.7821807861328 C5.661170397750709 416.7607548095791 3.4448698923815755 416.78200413150853 1.225433349609375 416.8075714111328 C-0.19384457856426707 416.8049279879683 -1.6131205045246588 416.79980269660985 -3.032379150390625 416.7919464111328 C-4.314996337890648 416.7874346923828 -5.597613525390614 416.7829229736328 -6.919097900390625 416.7782745361328 C-10.883536924097712 416.17931425033896 -12.529672976976599 415.0576220249793 -15.344879150390625 412.2606964111328 C-16.857692946357815 409.23506881919843 -16.493254227315617 406.1177749406411 -16.473541259765625 402.8000030517578 C-16.469367699623092 401.6135889196396 -16.469367699623092 401.6135889196396 -16.465109825134277 400.40320682525635 C-16.373802183309692 388.80416513358864 -15.79781036589327 377.2181149332073 -15.286285400390625 365.6317901611328 C-15.176185836511195 363.0685797171211 -15.066488589286905 360.50535196432156 -14.957168579101563 357.9421081542969 C-14.669797094818932 351.2227220420268 -14.378227317634355 344.50352641799293 -14.085357666015625 337.7843780517578 C-13.56381326760959 325.8170726100235 -13.048640699448924 313.8494922958531 -12.536285400390625 301.8817901611328 C-12.4817784500122 300.61166454315185 -12.427271499633775 299.3415389251709 -12.371112823486328 298.0329246520996 C-11.547258536826462 278.7791176316664 -10.820725371531921 259.5264333138207 -10.344879150390625 240.2606964111328 C-11.269741210937468 239.83506408691403 -11.269741210937468 239.83506408691403 -12.213287353515625 239.4008331298828 C-15.054573853692773 237.8810979385156 -16.540394530904734 235.9046413145728 -18.532379150390625 233.3856964111328 C-19.227183837890607 232.5220245361328 -19.921988525390645 231.65835266113277 -20.637847900390625 230.7685089111328 C-22.23381334475829 228.42386402489933 -22.76772697618742 226.96553745100505 -23.344879150390625 224.2606964111328 C-27.38802251026351 225.17092809918904 -31.42933833276288 226.08898152965799 -35.469879150390625 227.0106964111328 C-37.25736572265623 227.41795959472654 -37.25736572265623 227.41795959472654 -39.080963134765625 227.8334503173828 C-45.257840785579106 229.25794402451208 -51.34831644464495 230.7744594694783 -57.407379150390625 232.6356964111328 C-64.08000284956881 234.59871796911102 -69.34115891288278 235.76255652988675 -75.71987915039063 232.5731964111328 C-80.61842761280852 228.2578084799552 -81.70882136115756 224.67683972273323 -82.34487915039063 218.2606964111328 C-82.16527149322917 215.83553870987873 -81.88859772314578 213.41638810930215 -81.53622436523438 211.01025390625 C-81.43710667848586 210.31460211098192 -81.33798899173738 209.61895031571385 -81.23586773872375 208.90221816301346 C-80.90363120961388 206.58754928405824 -80.5573861809167 204.2752045491644 -80.21109008789063 201.9626007080078 C-79.96895962043055 200.29633610139 -79.72769494475173 198.6299454890402 -79.48722839355469 196.96343994140625 C-78.83268287687414 192.44492385759122 -78.16591412716204 187.92828770369044 -77.49684047698975 183.41190314292908 C-76.79601308475605 178.667421609509 -76.10615301691604 173.921345465027 -75.41500854492188 169.17544555664063 C-74.25116254247607 161.19435431972306 -73.08010112032395 153.2143500499683 -71.90396118164063 145.2350616455078 C-70.25356845484802 134.03818443380328 -68.6164772328519 122.8393926793542 -66.98194074630737 111.6401914358139 C-65.70461128263543 102.8921995435744 -64.4233093242598 94.14478881496939 -63.141754150390625 85.39741516113281 C-63.00594782829285 84.47000133275992 -62.87014150619507 83.54258750438692 -62.73021984100342 82.58707022666931 C-61.94328368189707 77.21425081123846 -61.15435369832963 71.84173090077752 -60.362531661987305 66.46962928771973 C-60.12454478965836 64.85342555123452 -59.887115697073796 63.23713954778009 -59.650339126586914 61.620758056640625 C-58.89959929099305 56.49796502233926 -58.13395065397711 51.37773180895988 -57.344879150390625 46.26069641113281 C-57.22246888160706 45.46668560266494 -57.10005861282349 44.672674794197064 -56.973938941955566 43.85460305213928 C-56.59510071087857 41.42295474871207 -56.20703593929284 38.99295873877833 -55.815887451171875 36.563262939453125 C-55.70137198209761 35.82799084365365 -55.58685651302338 35.092718747854235 -55.468870878219604 34.3351656794548 C-53.532666380723924 22.5220805552147 -48.82386921763461 13.1514839544447 -39.321441650390625 5.6669464111328125 C-28.190001366242768 -1.4505544396977825 -12.72616740238908 -0.030206898480571454 0 0 Z M49.2110481262207 12.268486022949219 C39.74346703772778 12.272496677203321 30.27623243224116 12.299592351158424 20.80879120901227 12.35178092867136 C15.78112750225273 12.378886375070692 10.753910162181455 12.396229219758425 5.726169466972351 12.388124227523804 C1.054760720549666 12.380967725903417 -3.6156833260426993 12.40197620931292 -8.286896660923958 12.444425910711288 C-9.997637172615555 12.455103604250553 -11.708476415865675 12.455665510358756 -13.419218108057976 12.445178657770157 C-25.330157010059736 12.321880450243782 -25.330157010059736 12.321880450243782 -35.75781685113907 17.677249789237976 C-44.910470388732875 26.80905156684389 -45.01736210887094 42.77591587734298 -46.749176025390625 54.95137023925781 C-46.970886060812575 56.48089706247339 -47.193073353701465 58.01035476845709 -47.41569519042969 59.53974914550781 C-48.01366425450635 63.65751931787486 -48.60485658639544 67.77623555639934 -49.19463539123535 71.89518570899963 C-49.81811972070017 76.24197899276078 -50.447556388544484 80.58791074971055 -51.076202392578125 84.9339599609375 C-52.132199136362715 92.24050201843545 -53.18402775178674 99.54763416004698 -54.233062744140625 106.85517883300781 C-55.43667116865123 115.23930334056604 -56.64559232318635 123.62264723884164 -57.85771703720093 132.00554448366165 C-59.15902651685602 141.00541736674654 -60.45679819060837 150.00579772988635 -61.75335121154785 159.00635695457458 C-62.121761496299115 161.5624244392369 -62.49075869368957 164.11840661557164 -62.85987854003906 166.67437171936035 C-65.53144221011738 185.18312234142456 -68.1283235904857 203.69060511253736 -70.34487915039063 222.2606964111328 C-68.9212640463897 222.27731231566156 -67.49759204057315 222.28909243615828 -66.07391357421875 222.2988739013672 C-64.8847165966034 222.3095039463043 -64.8847165966034 222.3095039463043 -63.67149543762207 222.32034873962402 C-60.37667413981589 222.23587251401898 -57.348456725589244 221.5699521929639 -54.149566650390625 220.7997589111328 C-53.51302154541014 220.6491299438477 -52.876476440429684 220.49850097656247 -52.22064208984375 220.3433074951172 C-50.21799569167749 219.86683515523714 -48.219078773919534 219.37640463791217 -46.219879150390625 218.8856964111328 C-44.87503970920193 218.5644922985208 -43.529988438888154 218.2441737440172 -42.184722900390625 217.9247589111328 C-36.19856409342452 216.49301233834353 -30.260741085174345 214.9625783917029 -24.344879150390625 213.2606964111328 C-24.27457048416136 212.68993094444272 -24.20426181793215 212.11916547775263 -24.13182258605957 211.5311040878296 C-22.41840412766095 197.6247486162406 -20.698807304114496 183.71916873775035 -18.972383499145508 169.81442165374756 C-18.137636478385048 163.09009564910286 -17.304960364297926 156.36552543421658 -16.477203369140625 149.6403350830078 C-15.67826477528996 143.14933099767063 -14.873496710396239 136.65906509745696 -14.065181732177734 130.16922187805176 C-13.757853268928443 127.69397411523335 -13.452473773312136 125.21848355718748 -13.14908218383789 122.74275016784668 C-12.723584876398036 119.27337722705079 -12.291146097013552 115.80493472997546 -11.857086181640625 112.33662414550781 C-11.671506500244163 110.8034504699707 -11.671506500244163 110.8034504699707 -11.482177734375 109.23930358886719 C-9.765391291938897 95.68120855268103 -9.765391291938897 95.68120855268103 -7.344879150390625 93.26069641113281 C-4.907379150390625 93.01069641113281 -4.907379150390625 93.01069641113281 -2.344879150390625 93.26069641113281 C4.2400905656669465 103.13815098521911 -2.0026668888523886 123.66295834821267 -3.469879150390625 134.6981964111328 C-3.7871818118886154 137.1351021455439 -4.103659188532845 139.5721154696049 -4.419342041015625 142.0092315673828 C-5.8272906667154984 152.84919237978056 -7.266699843903325 163.6849583408191 -8.710662841796875 174.52017211914063 C-9.27141893282078 178.7327863580192 -9.828725061911598 182.94585462464056 -10.386077880859375 187.15892028808594 C-10.774211973165677 190.0743495015338 -11.169764762550074 192.98870237425103 -11.566070556640625 195.9030303955078 C-11.803791728745637 197.68628109568135 -12.041272967369707 199.46956380326912 -12.278472900390625 201.2528839111328 C-12.38750442504886 202.03803878784174 -12.496535949707038 202.8231936645508 -12.608871459960938 203.63214111328125 C-14.187866484293409 215.0815463382005 -14.187866484293409 215.0815463382005 -9.942535400390625 225.3544464111328 C-2.449252408807979 234.29508724216544 8.756641490202242 240.90546823283228 20.373870849609375 242.6747589111328 C36.618356433482916 243.90678450316818 53.46021040327548 244.60312273632303 67.65512084960938 235.2606964111328 C74.9059012385103 228.38175091397045 75.21089854371616 218.88668945080713 75.71762084960938 209.5106964111328 C75.83375732421877 207.69493103027344 75.83375732421877 207.69493103027344 75.95223999023438 205.8424835205078 C76.28295386918177 200.6635241992317 76.58425843906656 195.4829976074534 76.88461303710938 190.3022003173828 C77.11009789231548 186.47514196267207 77.35104044636967 182.6492668974057 77.59262084960938 178.8231964111328 C77.65522094726566 177.63951477050784 77.71782104492183 176.45583312988288 77.78231811523438 175.2362823486328 C77.85249145507817 174.13187805175778 77.92266479492184 173.02747375488275 77.99496459960938 171.8896026611328 C78.05031372070312 170.9209527587891 78.10566284179686 169.95230285644527 78.16268920898438 168.9542999267578 C78.72852538899326 165.8591732167738 79.89890667859925 163.8469605936798 81.65512084960938 161.2606964111328 C84.5926208496096 161.6356964111328 84.5926208496096 161.6356964111328 87.65512084960938 162.2606964111328 C90.80828228104554 168.56701927400513 88.5270093573937 177.92586012317634 87.71762084960938 184.7606964111328 C86.20970156405957 197.544012158128 85.9954764249818 210.4032803057031 85.65512084960938 223.2606964111328 C88.70097903901888 222.25670404888115 91.71539696964021 221.23731143754856 94.70590209960938 220.0771026611328 C119.81991953250713 210.4224923665697 145.9549971916777 210.80789308226701 170.69808959960938 221.3676300048828 C174.59490169918865 223.14589081579356 178.3292851971164 225.2177102319621 182.07675170898438 227.2875518798828 C201.8430863120625 238.1107967973951 224.31071442109487 243.18006522493488 246.59262084960938 237.6981964111328 C256.2020720987674 234.66809381217013 265.29183528827207 230.40240135543297 274.3269958496094 225.9833526611328 C295.30323117274565 215.75804975683434 315.7409557930133 209.80065090933897 339.0926208496094 214.9481964111328 C339.7761462402343 215.09668029785155 340.45967163085936 215.24516418457029 341.1639099121094 215.3981475830078 C353.9652398705098 218.51614660217513 365.9177157258614 225.1383261927067 377.7371520996094 230.8249053955078 C396.4130771429551 240.61170649226062 396.4130771429551 240.61170649226062 416.6551208496094 240.2606964111328 C415.5057587025301 229.39601880762007 414.1834595645155 218.57907758963802 412.61046600341797 207.7679958343506 C409.8042785693683 188.3723195819673 407.66397461820316 168.92499382711583 405.6615905761719 149.43238830566406 C405.3147398672287 146.07275700992489 404.9611030937133 142.71385357073177 404.6074028015137 139.35493755340576 C404.260177562972 136.0528348394363 403.9159736499289 132.75042280611206 403.57276153564453 129.44790077209473 C403.4123519043362 127.90559575483894 403.2513236593958 126.3633549159772 403.08959197998047 124.82118797302246 C400.6551208496094 101.53569033904012 400.6551208496094 101.53569033904012 400.6551208496094 93.26069641113281 C406.171168057553 92.89295993060318 406.171168057553 92.89295993060318 408.304160118103 94.5137357711792 C409.9008610871656 96.57846917288066 410.1648015772628 97.82055096348438 410.45799255371094 100.39956665039063 C410.56019607543953 101.24170211791989 410.6623995971679 102.08383758544926 410.7677001953125 102.95149230957031 C410.8659811401367 103.87248718261719 410.96426208496086 104.79348205566407 411.0655212402344 105.74238586425781 C411.1797895812988 106.71520004272463 411.2940579223632 107.68801422119145 411.4117889404297 108.6903076171875 C411.78773781718724 111.9169112260904 412.14519739888 115.1452910572159 412.5027770996094 118.37397766113281 C412.76154875242855 120.62315385805778 413.021530346145 122.87219115064477 413.2826690673828 125.12109375 C413.9689405703364 131.0574607771548 414.63985054144814 136.9954642180703 415.3072814941406 142.93397521972656 C416.1155353749573 150.10222416271301 416.94066070146573 157.2685453798499 417.7643117904663 164.43503856658936 C418.40633188512675 170.02282004502683 419.04558269782115 175.61086553408586 419.67588806152344 181.19998168945313 C420.4856992707947 198.21352874392494 420.4856992707947 198.21352874392494 424.6551208496094 214.2606964111328 C426.8568451057787 214.96514816837612 426.8568451057787 214.96514816837612 429.5457458496094 215.4442901611328 C431.0665173339844 215.75040222167968 431.0665173339844 215.75040222167968 432.6180114746094 216.0626983642578 C433.7027575683594 216.27241271972662 434.78750366210943 216.4821270751953 435.9051208496094 216.6981964111328 C438.1085004214747 217.13702428790145 440.3116282252299 217.5771182988592 442.5144958496094 218.0185089111328 C443.57732788085934 218.23023742675787 444.6401599121094 218.4419659423828 445.7351989746094 218.6601104736328 C449.2338171515736 219.3797259180585 452.6892023178218 220.21082331673074 456.1551208496094 221.0731964111328 C460.79810007398646 222.17955558374206 464.8933929295765 222.54079805348772 469.6551208496094 222.2606964111328 C468.91072269602785 212.63526164760583 467.634269893971 203.0873162513809 466.3543395996094 193.5224151611328 C466.1193158374209 191.75418935618973 465.88443612443393 189.98594439992053 465.6496887207031 188.21768188476563 C464.884351215715 182.46069226338977 464.11366243718464 176.70442437075053 463.3426208496094 170.9481964111328 C463.07666341447543 168.96016158754276 462.8107231547093 166.97212446617482 462.5447998046875 164.9840850830078 C460.59405988727235 150.40793252844117 458.6289079798306 135.83374501908816 456.6551208496094 121.26069641113281 C456.51460296630864 120.22298347473145 456.3740850830078 119.18527053833009 456.22930908203125 118.1161117553711 C454.45942220821405 105.0508883733703 452.6760070652367 91.98759965012846 450.873291015625 78.92686462402344 C450.3540949169561 75.16411613528544 449.83844659865997 71.40090816276768 449.32586669921875 67.63725280761719 C448.7223045853867 63.20782559102054 448.1108557157926 58.77955713374865 447.49332427978516 54.3520565032959 C447.2692662380472 52.736762214672524 447.04783724230265 51.12110055445021 446.82933807373047 49.50504493713379 C444.673441810334 30.800645509776245 444.673441810334 30.800645509776245 434.0379333496094 15.913040161132813 C429.61690997952803 12.844717971449484 426.11839032784496 12.135665048988244 420.8370351791382 12.134855270385742 C419.6151255458593 12.132247523069395 418.39321591258044 12.129639775753049 417.13427871465683 12.12695300579071 C415.7705747009845 12.129115544381534 414.4068708340285 12.131372221035747 413.0431671142578 12.133712768554688 C411.5991677610755 12.132561070206918 410.1551687005551 12.13097321649866 408.71117025613785 12.128985524177551 C404.7301212503114 12.124794609692174 400.74909608904545 12.12688231038544 396.7680469751358 12.129971742630005 C392.4739030187983 12.132228355486404 388.1797632503026 12.128743710536867 383.8856201171875 12.125991821289063 C375.44363969904884 12.121528097243356 367.0016681435924 12.122516099304846 358.55968736857176 12.125404462218285 C351.6492987217541 12.127669110832528 344.7389125475835 12.127966369479907 337.82852363586426 12.126880645751953 C336.84190831620253 12.126727412715582 335.8552929965406 12.126574179679153 334.8387802429497 12.126416303217411 C332.8329156580469 12.126096498930053 330.82705107384265 12.125772283826791 328.8211864903569 12.12544371187687 C309.9463574098845 12.122583892278328 291.0715331585686 12.125877069787066 272.19670487195253 12.131244078278542 C256.20603439894467 12.13565246106458 240.2153712459417 12.134987558602745 224.22470092773438 12.130325317382813 C205.54916707147572 12.124882587325374 186.87363755199584 12.122921406781813 168.19810301065445 12.125937581062317 C166.1732985582326 12.126255988451135 164.1484941051723 12.126570362246355 162.12368965148926 12.126880645751953 C161.12833846043793 12.127034921273605 160.13298726938666 12.1271891967952 159.10747392103076 12.127348147332668 C152.29686216339223 12.128189419947375 145.48625332775305 12.126770620055595 138.6756420135498 12.124401092529297 C118.5912975142868 12.118331899795294 98.50727223988895 12.134496007612654 78.42304211854935 12.207090973854065 C68.68567591329963 12.24196467622943 58.94848067163946 12.264884375022461 49.2110481262207 12.268486022949219 Z M374.6551208496094 242.2606964111328 C374.7066581726074 243.09338043212892 374.7581954956055 243.92606445312504 374.81129455566406 244.7839813232422 C375.4889645938613 255.7345183351498 376.16601363596294 266.68509367876595 376.8426208496094 277.6356964111328 C376.8977270126343 278.5275602340698 376.9528331756592 279.41942405700684 377.0096092224121 280.3383140563965 C378.8420718477305 309.99914355577255 380.6606498913118 339.66080324327277 382.4676208496094 369.3231964111328 C382.5231298446655 370.2343999481201 382.57863883972163 371.14560348510736 382.6358299255371 372.0844192504883 C383.3094608252659 383.14314583722637 383.9825187760164 394.20190720498886 384.6551208496094 405.2606964111328 C391.91512084960937 405.2606964111328 399.17512084960936 405.2606964111328 406.6551208496094 405.2606964111328 C406.8254055733614 392.5590897472093 406.177540925574 379.9069043658826 405.5965270996094 367.2216339111328 C405.48653868764495 364.77142075962047 405.37683852805526 362.3211946535547 405.2674102783203 359.87095642089844 C404.979287283393 353.4336378352847 404.6878913553013 346.9964719119083 404.3955993652344 340.55934143066406 C403.93071249495006 330.3106265965664 403.47057704171016 320.061697921878 403.01090812683105 309.81274795532227 C402.85196849259603 306.2800770039697 402.69148441956213 302.74747904653555 402.53074645996094 299.2148895263672 C401.8229129976031 283.56628657102544 401.2112930171123 267.91541007099363 400.6551208496094 252.2606964111328 C399.8797538471222 251.9181129455567 399.104386844635 251.57552947998045 398.3055238723755 251.22256469726563 C397.2876689815521 250.77277755737305 396.2698140907287 250.32299041748047 395.2211151123047 249.8595733642578 C394.21242779731756 249.4138648986816 393.2037404823303 248.9681564331055 392.1644868850708 248.50894165039063 C390.0374403592939 247.5680480480312 387.9117458815301 246.6240970432541 385.7867126464844 245.6786651611328 C384.3970629882813 245.06958312988286 384.3970629882813 245.06958312988286 382.9793395996094 244.4481964111328 C382.0314758300781 244.0292510986328 381.0836120605469 243.6103057861328 380.1070251464844 243.1786651611328 C377.62321414752216 242.08538508719812 377.62321414752216 242.08538508719812 374.6551208496094 242.2606964111328 Z M0.655120849609375 248.2606964111328 C-0.2572266800078751 258.6097387751446 -0.6833671542487991 268.94307995034933 -1.028472900390625 279.3231964111328 C-1.0886263348512557 281.0668028944332 -1.1490784875393842 282.81039909422475 -1.209808349609375 284.5539855957031 C-1.3374371568773427 288.22868914628384 -1.463648550511266 291.9034370351509 -1.588623046875 295.57823181152344 C-1.9120304534224033 305.08069672850274 -2.2443783838709805 314.5828481825413 -2.579254150390625 324.0849151611328 C-2.6283823490142595 325.4812596988678 -2.6283823490142595 325.4812596988678 -2.6785030364990234 326.9058132171631 C-3.2703839372479138 343.6771983918384 -3.95469288543984 360.44263842775786 -4.786041259765625 377.2040557861328 C-5.242452378608334 386.5715062796986 -5.4197336385034305 395.8808532468431 -5.344879150390625 405.2606964111328 C1.915120849609366 405.2606964111328 9.175120849609357 405.2606964111328 16.655120849609375 405.2606964111328 C20.21927477662973 345.863377873275 20.21927477662973 345.863377873275 23.467620849609375 286.4481964111328 C23.53051300048827 285.24576293945313 23.593405151367165 284.04332946777345 23.658203125 282.80445861816406 C23.83295907901629 279.4501546860324 24.00455413540692 276.0957081846602 24.174652099609375 272.7411651611328 C24.224401855468727 271.7835578918457 24.274151611328136 270.8259506225586 24.325408935546875 269.8393249511719 C24.58324952161263 264.64056998383523 24.79646015586684 259.4656375653168 24.655120849609375 254.2606964111328 C22.953179809432584 252.55875537095608 20.60563568164048 252.7264530831785 18.280120849609375 252.3856964111328 C12.259370391728112 251.4327718782307 6.501469800637096 249.9601709220143 0.655120849609375 248.2606964111328 Z " fill="#000000" transform="translate(291.3448791503906,453.7393035888672)"/>
<path d="M0 0 C4.804595230478299 1.6286763493146736 5.841588900550391 3.633107411514004 8.130767822265625 8.02264404296875 C13.137212549602282 18.401808452503133 16.86951687101839 29.330642978077435 20.3515625 40.296875 C20.559208564758364 40.94595573425295 20.766854629516615 41.59503646850584 20.980792999267578 42.26378631591797 C26.35517153292858 59.06900624443551 31.328235902882284 75.99499356936383 36.30393981933594 92.9215087890625 C37.603567476480066 97.33919189036101 38.90776742992091 101.75552422238934 40.2119140625 106.171875 C40.60718669891355 107.5104468154907 40.60718669891355 107.5104468154907 41.01044464111328 108.87606048583984 C41.54440796034669 110.6842406869257 42.07839185747889 112.49241481139643 42.612396240234375 114.30058288574219 C43.413091756252356 117.0123373349337 44.21330067452959 119.72423500108152 45.013427734375 122.4361572265625 C49.69972048413524 138.3155157826145 54.432894230195416 154.18067187220163 59.178802490234375 170.04229736328125 C70.49579612045125 207.86847194999768 70.49579612045125 207.86847194999768 75.9852294921875 226.52734375 C76.48224901187416 228.21554412971784 76.98047296355048 229.9033905473534 77.4801025390625 231.5908203125 C87.28922873734814 264.7428136737292 87.28922873734814 264.7428136737292 81.6875 278.25 C80.24190416574322 280.89001360860607 78.5741142022672 283.31210535895684 76.8125 285.75 C76.33417724609376 286.4272412109375 75.85585449218752 287.104482421875 75.363037109375 287.80224609375 C66.5368202728248 300.1933615301441 57.192330383852436 312.0925380013032 47.17578125 323.53955078125 C45.65663937788645 325.2854674407033 44.154193542428175 327.0444667953086 42.65625 328.80859375 C37.42762651963676 334.96387259790276 32.11526945751393 341.00729387315005 26.61865234375 346.924560546875 C23.701258722987404 350.0856844538905 20.943862384442355 353.33470724814015 18.25 356.6875 C13.895241930746351 362.0977200788574 9.224659505368095 367.1576306346742 4.48828125 372.23046875 C2.1907233419154863 374.6941707853514 -0.046755294844842865 377.20114828227156 -2.25 379.75 C-2.783671874999982 380.35843750000004 -3.3173437499999636 380.9668750000001 -3.8671875 381.59375 C-5.213644218274339 383.1367166176983 -6.544950075945053 384.6928683815943 -7.875 386.25 C-10.3125 388.25 -10.3125 388.25 -13.3125 388.8125 C-18.886020783202298 387.7674648531496 -22.013518925587277 383.6196000279084 -25.375 379.3125 C-28.908431972425774 374.90013419803927 -32.58201030939256 370.6957003605577 -36.4375 366.5625 C-40.22832771330991 362.4986192147305 -43.96852607229505 358.41031050038896 -47.60546875 354.20703125 C-49.64883430555835 351.8644084963737 -51.729308592286884 349.55726577761845 -53.8125 347.25 C-56.48298344306795 344.2913024922502 -59.135480582235346 341.32073528302806 -61.75 338.3125 C-64.56072524714284 335.0844048785714 -67.4282990028264 331.9126155730696 -70.3125 328.75 C-73.6910661260232 325.04169393675227 -77.05451104491374 321.32588533194814 -80.3359375 317.53125 C-81.93388518880897 315.6869783591611 -83.54560269745866 313.8574209302942 -85.1640625 312.03125 C-95.32753745527202 300.4818466417364 -103.6557573304417 290.52210567295003 -103.538818359375 274.482177734375 C-103.17762884710498 269.32383042807203 -101.63005305675915 264.83591312607234 -99.875 260 C-99.48521972656249 258.8777905273437 -99.09543945312498 257.7555810546876 -98.69384765625 256.599365234375 C-97.52709645333584 253.25754048714145 -96.34199370752401 249.92320246074394 -95.14886474609375 246.59075927734375 C-93.57474202905416 242.18521448268666 -92.01758812039338 237.7736453923294 -90.45703125 233.36328125 C-88.29635457617076 227.2606389319825 -86.13341488183244 221.15882098713155 -83.9638671875 215.059326171875 C-77.48596568328048 196.83297848886423 -71.21958445680843 178.538817685322 -65.01397705078125 160.21827697753906 C-61.797522533781716 150.72291107207468 -58.55530898530594 141.23639055190267 -55.3125 131.75 C-51.74365758775275 121.30727753235624 -48.17918329140275 110.86311315335456 -44.62890625 100.4140625 C-41.82237582122718 92.15439282841817 -39.0071444538944 83.89774215965394 -36.18238830566406 75.644287109375 C-34.5563112773865 70.89260051152462 -32.93436414625944 66.1395753185983 -31.3203125 61.3837890625 C-29.66766664049294 56.51578746298321 -28.00337355902559 51.65190051786584 -26.331512451171875 46.79046630859375 C-25.706406680361397 44.96682398107663 -25.08508667269882 43.14187840272632 -24.468048095703125 41.31549072265625 C-10.772430592876276 0.8130136296510386 -10.772430592876276 0.8130136296510386 0 0 Z M-2.3125 16.25 C-11.11848405003775 36.791900293194544 -18.087883031984802 57.93342879511306 -25.213821411132813 79.098388671875 C-28.68998142079181 89.40540131620014 -32.27447599695722 99.67340798211922 -35.875 109.9375 C-40.889901631820635 124.2451874529578 -45.819706670580786 138.57913024359755 -50.6875 152.9375 C-56.738864664137736 170.78700048307428 -62.98089958574053 188.56470525943166 -69.32763671875 206.311279296875 C-71.34221869000953 211.9506956492554 -73.3319174027464 217.59856561826018 -75.3125 223.25 C-75.68997375488277 224.3196801757813 -76.06744750976566 225.38936035156246 -76.45635986328125 226.491455078125 C-77.61050451086112 229.7763144476354 -78.74683460078973 233.0668516409819 -79.87890625 236.359375 C-80.2377439880371 237.37429016113288 -80.59658172607419 238.38920532226564 -80.96629333496094 239.43487548828125 C-81.2888056945801 240.38416931152346 -81.61131805419927 241.33346313476568 -81.943603515625 242.3115234375 C-82.37721946716306 243.56325347900383 -82.37721946716306 243.56325347900383 -82.81959533691406 244.84027099609375 C-83.39720102772674 247.66408925185635 -83.13117125026122 249.4999203558184 -82.3125 252.25 C-80.56734667575608 254.62262079901814 -80.56734667575608 254.62262079901814 -78.3125 256.875 C-74.94713633044569 260.45937940043007 -71.7604873053881 264.0989058917231 -68.6875 267.9375 C-65.62831018687643 271.718998519 -62.472229231979554 275.2099474482211 -58.98046875 278.58984375 C-56.60696144020062 280.9522339295427 -54.44784289608128 283.48070351825186 -52.26171875 286.015625 C-49.982293064965575 288.6285137612017 -47.650376467760225 291.1893002077786 -45.3125 293.75 C-41.85921846578606 297.5366299779389 -38.45150948934224 301.3547631993215 -35.08984375 305.22265625 C-32.26670132152606 308.4429000310504 -29.388528599398796 311.61323369114075 -26.515625 314.7890625 C-23.965369621289142 317.63775201877274 -21.47914906538267 320.5370579274497 -19.015625 323.4609375 C-16.950253206212892 325.6305253017305 -14.680807817525078 327.4214085898701 -12.3125 329.25 C-11.825234375000036 328.6299609375001 -11.337968749999959 328.0099218749999 -10.8359375 327.37109375 C-5.056420084732167 320.15195108765636 1.1217041171306619 313.4172622610829 7.4609375 306.69140625 C10.379246763234619 303.59226514492593 13.207109901992226 300.4292410229384 15.984375 297.203125 C18.18115904779131 294.6838772387714 20.43439619176138 292.21897004136326 22.6875 289.75 C26.74467649641963 285.2968528245003 30.751067381325015 280.8100259048017 34.6875 276.25 C35.12852050781248 275.74065917968755 35.569541015624964 275.231318359375 36.02392578125 274.70654296875 C42.3998120483393 267.3377770190259 48.66282715754346 259.9105858802021 54.6875 252.25 C55.6530800141652 251.0425160680204 56.61927012826823 249.83551985931047 57.5859375 248.62890625 C58.59918282150636 247.3569496290611 59.61220467107705 246.08481495661135 60.625 244.8125 C61.11041259765625 244.20857421874996 61.5958251953125 243.60464843750003 62.095947265625 242.982421875 C64.12891480628195 240.41537885951027 65.64327302663276 238.38268092010162 66.6875 235.25 C66.18648625225899 232.97171377052587 65.56757804906476 230.71906823273548 64.8984375 228.484375 C64.58311820983886 227.41749198913567 64.58311820983886 227.41749198913567 64.26142883300781 226.3290557861328 C63.536526494172676 223.88355869820248 62.799317920040494 221.44193131352142 62.0625 219 C61.53145225928108 217.216970123299 61.001292698468205 215.43367552625875 60.471923828125 213.650146484375 C59.25531542948147 209.55510720857887 58.03385340704108 205.46154945078843 56.81005859375 201.36865234375 C54.434551639624146 193.41390089943707 52.08610929214501 185.45123406352025 49.73828125 177.48828125 C39.48251967477529 142.7141336624561 29.202591419945406 107.94676499674313 18.6875 73.25 C18.39252624511721 72.2755090332031 18.09755249023442 71.30101806640619 17.79364013671875 70.2969970703125 C16.025485961236313 64.45825408538155 14.24880461007831 58.62221702978468 12.460205078125 52.789703369140625 C11.916479418862082 51.01427061775087 11.374710485315063 49.238237053822274 10.835205078125 47.461517333984375 C7.603596730948766 36.83146483678286 4.002109056135623 26.49111253735714 -0.3125 16.25 C-0.9724999999999682 16.25 -1.6324999999999363 16.25 -2.3125 16.25 Z M69.6875 249.25 C68.02238498042459 251.09944509554316 66.40933653060904 252.9676523849257 64.8125 254.875 C64.07700927734368 255.74765502929688 64.07700927734368 255.74765502929688 63.32666015625 256.637939453125 C59.8126157429009 260.83449137541857 56.41793440119602 265.1136707929211 53.0625 269.4375 C48.52079455903913 275.2862519979525 43.69996620786992 280.7975081326606 38.6875 286.25 C37.51615335282406 287.5792238039693 36.34925407146113 288.91238407368473 35.1875 290.25 C31.79496906856184 294.14512810646613 28.33555799487374 297.9778276273021 24.875 301.8125 C22.961958508079647 303.9441748052827 21.068623879027882 306.0901911018568 19.1875 308.25 C15.794969068561727 312.14512810646613 12.335557994873739 315.9778276273021 8.875 319.8125 C6.961958508079647 321.9441748052827 5.068623879027882 324.0901911018568 3.1875 326.25 C2.6332031250000227 326.88164062500005 2.0789062500000455 327.51328125 1.5078125 328.1640625 C0.1383098406472527 329.7334067491295 -1.219034254705548 331.31337409115986 -2.5703125 332.8984375 C-3.351484375000041 333.798203125 -4.132656249999968 334.69796875 -4.9375 335.625 C-5.651640625000027 336.457734375 -6.365781250000055 337.29046874999995 -7.1015625 338.1484375 C-9.5137289082478 340.44127412126727 -11.046747318669986 341.5767525241565 -14.3125 342.25 C-18.790281180296915 340.41914810694675 -21.721000939544183 336.924102724201 -24.875 333.375 C-25.932080071037262 332.20683974010626 -26.989378169027077 331.03887674433645 -28.046875 329.87109375 C-28.585058593749977 329.2728076171875 -29.123242187499955 328.67452148437496 -29.677734375 328.05810546875 C-31.792336038911117 325.71928528910166 -33.93638568143001 323.40871635794474 -36.082275390625 321.0986328125 C-40.305807463154906 316.55093345793546 -44.478537137446665 311.9678009679276 -48.5390625 307.2734375 C-50.7638809236762 304.7349882853209 -53.03753319325301 302.24358223562365 -55.3125 299.75 C-59.36967649641974 295.2968528245003 -63.3760673813249 290.8100259048018 -67.3125 286.25 C-67.75352050781248 285.74065917968755 -68.19454101562496 285.231318359375 -68.64892578125 284.70654296875 C-75.0246880663816 277.3379203079728 -81.30222196628426 269.9219431371548 -87.3125 262.25 C-91.07996022224427 266.01746022224415 -92.1222578220503 271.5700667106212 -92.4921875 276.78125 C-91.9188894785575 288.858728318389 -83.1629298019459 296.93333279408625 -75.3125 305.25 C-74.17961983695511 306.53476080028827 -73.05381339065264 307.82581864559734 -71.9375 309.125 C-68.80226289578411 312.735723300116 -65.56344553282418 316.24388290304796 -62.3125 319.75 C-58.481406587031074 323.8821708999128 -54.69614575254559 328.04038699826447 -51.01171875 332.3046875 C-49.0184357194471 334.5866529004951 -46.977569726303045 336.8222857394469 -44.9375 339.0625 C-41.827211491036905 342.50378204961294 -38.847716881360725 346.01321297759694 -35.9375 349.625 C-32.191500256007544 354.2566564260221 -28.259540971141064 358.65831955385124 -24.212158203125 363.02392578125 C-20.813831239525143 366.689632261522 -17.529250106028258 370.4246755495881 -14.3125 374.25 C-10.635794164893355 372.7394797697756 -8.59375537939377 370.6011384992688 -6 367.625 C-4.814707031250009 366.27535156249996 -4.814707031250009 366.27535156249996 -3.60546875 364.8984375 C-2.848789062500032 364.02445312500004 -2.0921093750000637 363.1504687500001 -1.3125 362.25 C-0.14618699677225777 360.91635729395364 1.0204481925685513 359.5829962369264 2.1875 358.25 C2.7469531250000045 357.60675781250006 3.306406250000009 356.963515625 3.8828125 356.30078125 C5.917081410676474 353.9891120333223 7.989723097367346 351.7146856975289 10.0625 349.4375 C13.134967731690494 346.0391644785848 16.071926219646116 342.5740947700017 18.9375 339 C22.516014522224623 334.5706498571067 26.28769199847443 330.39319469288625 30.1875 326.25 C34.82372736081652 321.31975822070194 39.23245189158649 316.28945108834273 43.4609375 311 C45.44855346871839 308.5451199263548 47.4944811801588 306.1538670803126 49.567626953125 303.771240234375 C67.26815019632693 284.5309405142441 67.26815019632693 284.5309405142441 73.5625 260.4375 C73.02048572207548 256.5372323093676 72.1727541411376 252.91362688147285 70.6875 249.25 C70.35749999999996 249.25 70.02750000000003 249.25 69.6875 249.25 Z " fill="#000000" transform="translate(880.3125,458.75)"/>
</svg>
