<?xml version="1.0" encoding="UTF-8"?>
<!-- Generator: visioncortex VTracer 0.6.4 -->
<svg version="1.1" xmlns="http://www.w3.org/2000/svg" width="1024" height="1024">
<path d="M0 0 C9.65385015462266 7.418515820701344 15.49545822856112 15.791640180478524 20 27 C20.515625 26.340000000000003 21.03125 25.680000000000007 21.5625 25 C22.366874999999936 24.00999999999999 23.171249999999986 23.02000000000001 24 22 C24.497578125000018 21.372226562500003 24.995156250000036 20.744453125000007 25.5078125 20.09765625 C34.34674143323514 9.388163286708135 45.34695694836887 4.867383952868266 59 3 C73.4998082956148 1.9520280734212037 83.31124301779118 5.740124979981701 94.3515625 14.96484375 C100.2976743337706 20.463505696613964 104.00917428226091 26.481885156585363 107 34 C107 34.66 107 35.31999999999999 107 36 C107.88042968750005 35.72285156250001 108.760859375 35.445703124999994 109.66796875 35.16015625 C110.82941406249995 34.797929687500016 111.99085937500001 34.435703125 113.1875 34.0625 C114.3360546875 33.7028515625 115.48460937499999 33.343203125 116.66796875 32.97265625 C129.8830251550644 29.11503720561427 143.03568426796483 30.151169878764875 155.19921875 36.73046875 C171.74708614874794 47.13257862048019 179.70145803384025 62.81173575077844 185 81 C185.72445312499997 80.86722656249998 186.44890625000005 80.73445312500002 187.1953125 80.59765625 C189.19220145317365 80.2328912012203 191.18962266867095 79.87103087208851 193.1875 79.51171875 C195.1700625912605 79.15100250075676 197.14902150803573 78.77019569839285 199.125 78.375 C212.15814198680255 76.67502495824314 225.5048726752011 79.97540707201222 236 88 C245.40922155155658 95.83820251332546 251.9187277517791 106.27189248282968 253.43359375 118.5 C254.29950180199273 128.76261394954432 254.29950180199273 128.76261394954432 253 134 C254.28132812499996 134.146953125 255.56265625000003 134.29390625 256.8828125 134.4453125 C273.72639817310073 136.55504712817705 288.52929118163445 140.66504259350822 299.75 154.3125 C308.5243849493627 166.29603500028702 312.6020844305085 179.12499434195286 311 194 C309.6532717503002 202.37289653604392 307.5080262183337 210.28033198945468 304 218 C306.9405802267653 218.9961433016705 309.8757933775855 219.9641972714079 312.859375 220.82421875 C325.15310664491847 224.49572509260406 334.60755323233195 231.46195928452562 341.5 242.375 C348.6050175696854 255.57003262941566 349.6685123422716 269.06377180479785 345.8515625 283.40625 C345 285.9999999999999 345 285.9999999999999 343.8984375 288.15625 C342.78097582174144 290.1076422495637 342.78097582174144 290.1076422495637 343 293 C344.83022259929817 294.5228061530546 344.83022259929817 294.5228061530546 347.1875 295.875 C359.7879041525381 303.8736891563917 365.8057980933073 315.74017005940783 369 330 C370.62220240480883 343.28583769538454 367.17822849540835 357.339438620103 359 368 C356.78102309021517 370.47346721935776 354.47747478966755 372.78639826485323 352 375 C352.556875 375.4125 353.11375 375.825 353.6875 376.25 C367.51138237818066 386.7113163942988 376.39751527585065 398.41564375574785 379 416 C380.22191235103344 429.1828853646707 376.9842625877868 442.04814912945847 368.9921875 452.66796875 C363.4323591935348 459.2254665957786 357.535003766548 464.13956097672997 349 466 C350.44034226793383 468.88068453586766 352.38124391976714 469.15626355507334 355.3125 470.4375 C368.68553984863274 476.97259694629247 377.89643449102175 487.8464890654234 383.23828125 501.640625 C387.16947504186965 513.8172457707141 385.7152065187065 527.5089270811542 380.4375 539 C375.8436637943636 547.7058798336085 369.4041111950355 554.8546257989578 361 560 C360.34000000000003 560 359.67999999999995 560 359 560 C359 560.66 359 561.32 359 562 C359.99 562.061875 359.99 562.061875 361 562.125 C365.45966225365123 563.4257348239817 368.4805186029846 566.0345110451074 372 569 C373.013203125 569.83337890625 373.013203125 569.83337890625 374.046875 570.68359375 C382.92615311608347 578.6852687964706 388.51876456796776 590.7477035173731 389.2109375 602.6171875 C389.7873299135431 619.8509059941389 385.2383747506017 632.9773952978919 373.40234375 645.65234375 C371.3572276472936 647.6509043641895 369.33801755368336 649.3639276702862 367 651 C367.85271484374994 651.5839453125 367.85271484374994 651.5839453125 368.72265625 652.1796875 C381.4742198289258 661.4187168710414 388.4721022477719 675.6187144460583 391 691 C392.4105790480769 704.7445446269928 388.991657853206 718.8997469212239 380.5234375 729.921875 C377.55477829992765 733.4842660400868 374.32569695460495 736.772117661707 371 740 C371.598125 740.78375 372.19624999999996 741.5675 372.8125 742.375 C380.0599632657095 753.4260964689897 379.8995173151603 768.1740402504123 377.7890625 780.73828125 C375.0294223038021 792.1457048332933 368.28498753295025 799.9344174778334 358.734375 806.359375 C346.46240519714524 813.7225568817129 334.3446314101832 815.8976001014487 320.2734375 813.31640625 C313.91720554812355 811.4884206886608 308.61737162096176 808.8920795881116 303.21875 805.07421875 C300.31484128824593 803.6682770321613 299.03583108635894 804.013119925487 296 805 C293.5041638314244 806.1516157240856 291.11482770577265 807.4429786472125 288.6953125 808.74609375 C276.88322483997194 814.2412823570565 261.93515020447126 813.5594284092374 249.86328125 809.203125 C245.43710327874714 807.3432848701966 241.16709559247545 805.3896264990478 237 803 C236.3644921875 802.64421875 235.72898437499998 802.2884375 235.07421875 801.921875 C226.09208264055508 796.2657183368462 219.91971359303534 784.7613357480847 217.42041015625 774.65673828125 C216.92607534112358 772.4415464234575 216.45122203285553 770.2243382675836 216 768 C215.3410473632813 767.9655981445312 214.68209472656247 767.9311962890625 214.003173828125 767.895751953125 C194.66595021495698 766.8067351688333 179.15907742572665 764.8068971246383 165.09375 749.9921875 C155.41666014365387 737.7970793647067 151.76320801733652 723.3815115590409 153 708 C155.04987303723044 693.0229997009557 164.89476504965762 680.029293937133 176.70703125 670.91015625 C178.77107156585544 669.5287119441125 180.8363590760796 668.2180497053182 183 667 C182.203359375 666.321953125 181.40671874999998 665.64390625 180.5859375 664.9453125 C169.50785025073856 655.3113579990267 164.44388777951815 646.4643286739762 161 632 C160.7976171875 631.1814453125 160.59523437500002 630.362890625 160.38671875 629.51953125 C158.37120145245103 616.3881306750595 162.42065531100798 603.7880716787244 169.875 593.0625 C174.69770976954874 586.8437426655819 179.13939316386984 581.917221179544 187 580 C186.34000000000003 579.34 185.67999999999995 578.68 185 578 C184.54496093750004 577.5372265625 184.08992187499996 577.074453125 183.62109375 576.59765625 C182.47676318330127 575.469870221615 181.29836157069622 574.3761613143972 180.09765625 573.30859375 C169.30211404755926 563.3833255830727 166.55908103102877 551.7683868150324 165.8203125 537.5390625 C165.58399293365767 526.2744965043515 167.44570768823587 517.3711265338011 174 508 C176.820851829179 505.08251213752123 179.79488801276477 502.485742407878 183 500 C182.15437499999996 499.01 181.30875000000003 498.02 180.4375 497 C179.61572265625 496.03126953125 179.61572265625 496.03126953125 178.77734375 495.04296875 C177.63274183899125 493.7273054544888 176.459737528711 492.4355647112037 175.25390625 491.17578125 C164.84574531582496 480.1185590548964 160.47287649542852 466.2834361801107 160.578125 451.3447265625 C161.06588495337417 436.9622258320851 167.8387478934469 425.4795664651084 178.14453125 415.8125 C180.07325972052195 414.1262461784671 180.07325972052195 414.1262461784671 181 412 C180.26394531250003 411.744765625 179.52789062500005 411.48953125 178.76953125 411.2265625 C168.91600715368065 406.86266043195445 163.76974904397355 396.507602383379 159.7822265625 387.048828125 C154.4318378790798 373.0349511489505 154.83807357388048 359.5100793071573 160.6875 345.75 C161.33718750000003 344.38874999999996 161.33718750000003 344.38874999999996 162 343 C161.11183593750002 342.7434765625 160.22367187500004 342.486953125 159.30859375 342.22265625 C149.68916898212478 338.6678983369599 141.9815885260101 330.00189898092947 137.49609375 320.97265625 C131.9330369607071 308.15068205473517 131.6453670868874 296.28163038499355 136 283 C136.72314778162854 281.36287377214654 137.4713127435582 279.73645001680325 138.25 278.125 C140.04801012841529 274.33755661162724 140.21611215369376 272.11607190480953 139 268 C138.65684393381537 266.3353280193595 138.32201735868978 264.66888996329635 138 263 C137.27296875000002 263.023203125 136.54593750000004 263.04640625 135.796875 263.0703125 C120.01446210460972 263.3535865776096 106.23662327729255 260.3778239956168 94.5 249.1875 C86.06206126896461 240.05565183384653 81.91947506400197 230.96065093654568 81.375 218.5625 C81.31699218750009 217.46518554687498 81.31699218750009 217.46518554687498 81.2578125 216.345703125 C81.16466016319237 214.56416468355496 81.08129713529843 212.78211878167292 81 211 C77.46695158542684 209.31460770885627 73.92231955940315 207.65511757500525 70.375 206 C69.3759765625 205.52304687499998 68.376953125 205.04609375 67.34765625 204.5546875 C65.88779296875009 203.8779296875 65.88779296875009 203.8779296875 64.3984375 203.1875 C63.5081787109375 202.7685546875 62.617919921875 202.349609375 61.70068359375 201.91796875 C56.26315071270824 200.06973844510787 52.46595202608205 200.94786629076378 47.384765625 203.439453125 C46.42086914062497 203.933486328125 46.42086914062497 203.933486328125 45.4375 204.4375 C35.57391629559959 209.40371113731032 27.21039103957787 210.4188729251631 16.5 207.375 C4.935365060095137 203.47940114113533 -5.340660036563577 196.72202260328982 -11.5625 185.9375 C-12.274062500000014 184.48343749999998 -12.274062500000014 184.48343749999998 -13 183 C-13.689648437499955 183.4705078125 -14.379296875000023 183.94101562499998 -15.08984375 184.42578125 C-26.800494463178893 192.18468974720906 -38.17439318384862 195.57807928796615 -52.3125 193.69140625 C-57.130461414578406 192.6280671096731 -60.82786731343833 190.503279611937 -65 188 C-65.66000000000003 188 -66.32 188 -67 188 C-67.45439453125005 188.9783984375 -67.45439453125005 188.9783984375 -67.91796875 189.9765625 C-73.65385692498552 201.94250767735446 -80.91774368861809 208.32189402962865 -93.3125 213.375 C-106.29787389445409 217.6358258091177 -119.52086744416295 216.32164125751706 -132 211 C-132.08249999999998 212.15499999999997 -132.16500000000002 213.31 -132.25 214.5 C-133.7499740059842 225.49980937721728 -141.8401925181136 233.83782612158302 -150.07421875 240.73828125 C-158.628577392821 246.53085534147 -168.8407194791654 248.60002832595137 -179 249 C-178.94779296874998 250.631953125 -178.94779296874998 250.631953125 -178.89453125 252.296875 C-178.57167198862425 266.5793208100523 -179.9550871730296 279.23073678439437 -190.0390625 290.22265625 C-196.51376391487094 296.3427362092861 -203.79467453665018 299.77024423251123 -212 303 C-211.27683593749998 304.61068359374997 -211.27683593749998 304.61068359374997 -210.5390625 306.25390625 C-209.9008000339212 307.6899967986772 -209.26279277599951 309.12620079214395 -208.625 310.5625 C-208.14933593749998 311.619208984375 -208.14933593749998 311.619208984375 -207.6640625 312.697265625 C-202.2768201137544 324.8746781022427 -200.60768844645168 338.54926517013996 -204.5625 351.5 C-210.37470313483186 366.08149207510445 -219.23240576078365 374.0908948027462 -233 381 C-232.32904296875 381.873984375 -232.32904296875 381.873984375 -231.64453125 382.765625 C-221.40712944523716 396.6483276606166 -218.66060624517422 410.0988215842011 -220 427 C-220.82167112297577 431.01445034368146 -222.11341226644834 434.3737550417402 -224 438 C-224.63615234374998 439.27037109375 -224.63615234374998 439.27037109375 -225.28515625 440.56640625 C-229.89227780713418 448.9721572804259 -236.51894577873873 455.13611567191117 -244 461 C-242.83984375 461.85658203125 -242.83984375 461.85658203125 -241.65625 462.73046875 C-232.01494946392006 470.23588711286425 -224.65514610450396 478.6389609584578 -222 491 C-220.51758872432157 506.94370698704984 -221.30091933344283 520.1277045343619 -231.5 533 C-234.52044289284117 536.4883988339856 -237.71465541071655 539.7609278697206 -241 543 C-240.5037109375 543.461484375 -240.00742187499998 543.92296875 -239.49609375 544.3984375 C-227.8073616188724 555.6213947264716 -219.3704085205709 569.2018047855477 -218.5625 585.75 C-219.20859060003136 603.1944462008455 -226.8836658316999 616.8836658316999 -239 629 C-238.27296875000002 629.60134765625 -238.27296875000002 629.60134765625 -237.53125 630.21484375 C-226.09842192297793 639.9107614076283 -215.3673126172365 652.3877759340991 -214 668 C-212.90939138948602 683.0261630781928 -215.79326944836032 696.8136366516479 -225 709 C-228.4024772595609 712.6337598763636 -232.14779904415172 715.8513655840082 -236 719 C-235.2471875 719.739921875 -234.494375 720.47984375 -233.71875 721.2421875 C-226.99710019426277 728.0604127339806 -222.50383910590153 735.0898466486645 -219 744 C-218.56687499999998 745.093125 -218.13374999999996 746.18625 -217.6875 747.3125 C-215.35554459537434 759.8202608066287 -216.7232464225175 774.2320871917021 -224 785 C-233.824688655273 797.4264836746536 -245.2272803552491 805.0665587336619 -261 808 C-276.564583829648 809.6243804874165 -290.46699612077634 806.7541930643732 -303 797 C-306.1449467327062 794.1251433069294 -309.1183609823364 791.1377847081226 -312 788 C-312.74765625 788.2049609375 -313.4953125 788.409921875 -314.265625 788.62109375 C-315.742890625 789.0252148437501 -315.742890625 789.0252148437501 -317.25 789.4375 C-318.22453125000004 789.7043359375 -319.19906249999997 789.971171875 -320.203125 790.24609375 C-321.12609375 790.4948828125 -322.0490625 790.743671875 -323 791 C-323.6496875 791.1894921875 -324.299375 791.378984375 -324.96875 791.57421875 C-336.365091569184 793.9630672712328 -346.4124614625965 790.8500140136013 -357 787 C-357.2874609375 787.7463671875 -357.574921875 788.492734375 -357.87109375 789.26171875 C-362.73114055566725 801.05027518866 -371.294460622301 807.880048042832 -382.875 812.8125 C-397.1875634175513 818.2512740986695 -411.5719714963425 816.674321433075 -425.59765625 810.9375 C-437.9711955516099 804.6525276563251 -447.9273182347366 793.5755150579458 -452.2734375 780.48046875 C-452.513203125 779.6619140625 -452.75296875 778.843359375 -453 778 C-453.193359375 777.4005859375 -453.38671875 776.801171875 -453.5859375 776.18359375 C-455.3769381430826 766.7385997926117 -454.82136796769134 755.820751624671 -451 747 C-450.574609375 746.002265625 -450.14921875 745.00453125 -449.7109375 743.9765625 C-445.96436980947897 735.8623383574277 -441.40688373550563 730.0366809401438 -434 725 C-435.4479617491053 721.5065049862857 -437.2361224140808 719.8163996199297 -440.1875 717.5 C-449.7931454122971 709.1452505336772 -455.1962382536009 696.8139782417629 -456.34375 684.23046875 C-456.72809288867336 668.424367453308 -452.0801360437647 655.6386714206894 -441.21484375 644.140625 C-434.86131386861314 638 -434.86131386861314 638 -430 638 C-430 637.34 -430 636.68 -430 636 C-430.87205078125 635.5958789062499 -430.87205078125 635.5958789062499 -431.76171875 635.18359375 C-442.4278034138797 629.5434128544406 -448.55944039237727 618.7287044746321 -452.22265625 607.61328125 C-452.4791796875 606.7508984375 -452.735703125 605.888515625 -453 605 C-453.2255859375 604.2510546875 -453.451171875 603.502109375 -453.68359375 602.73046875 C-457.39213658637783 588.5357013417952 -453.91318198400364 574.9895473134125 -447.34375 562.18359375 C-444.2025981010541 557.0792219142129 -440.57816547739225 553.6847188673819 -435.625 550.375 C-434.797421875 549.80265625 -434.797421875 549.80265625 -433.953125 549.21875 C-430.43464510930187 546.823540684736 -426.8432585692185 544.822935333436 -423 543 C-423.99 542.0409375 -423.99 542.0409375 -425 541.0625 C-426.0033395701387 540.0449488212191 -427.0028315494698 539.023599421508 -428 538 C-428.62777343749997 537.368359375 -429.255546875 536.73671875 -429.90234375 536.0859375 C-439.58972130607276 525.8593393122072 -444.8582260587153 513.2144371525379 -445.4375 499.125 C-444.99611205348043 484.4632438634369 -438.91532842969946 472.00742536583743 -428.44140625 461.9765625 C-424.6227998570006 458.88501876422765 -420.48793287215005 456.93004367040646 -416 455 C-414.6625908108491 454.34154811641474 -413.3278191849664 453.6775827877517 -412 453 C-412.62906250000003 452.52691406250005 -413.258125 452.053828125 -413.90625 451.56640625 C-425.03637276009397 442.9673806838431 -435.73762735442386 432.591558317665 -437.7578125 418.05859375 C-439.1200769181841 400.8545124687393 -437.184763223588 388.18068362785755 -425.8125 374.75 C-418.8531264893653 367.38125157697505 -410.34575801441053 362.71522726004963 -401 359 C-401.4125 358.608125 -401.825 358.21625 -402.25 357.8125 C-406.62275609572424 353.28357404371417 -409.5726253589653 348.45929399271876 -412.375 342.875 C-412.72046875 342.194375 -413.0659375 341.51375 -413.421875 340.8125 C-419.1592321472828 329.0164937051866 -418.0268792747168 315.21791779942487 -414 303 C-408.1522535133631 289.0366309854344 -398.38565961551785 280.36396566049854 -385 274 C-384.34000000000003 274 -383.68 274 -383 274 C-383.41572265625 272.8050390625 -383.41572265625 272.8050390625 -383.83984375 271.5859375 C-384.2020703125 270.526328125 -384.56429687499997 269.46671875 -384.9375 268.375 C-385.47697265625 266.80878906249995 -385.47697265625 266.80878906249995 -386.02734375 265.2109375 C-389.75226970444237 252.9141939877444 -389.25881060013876 239.01361708725506 -383.4375 227.5 C-375.5881264749221 214.13535922588653 -363.52372986541246 204.48319011980738 -348.75390625 199.640625 C-343.88410865856184 198.50779265248815 -338.98636184000355 198.17404404328113 -334 198 C-334.33773437499997 197.29875000000004 -334.67546875 196.59749999999997 -335.0234375 195.875 C-337.6344934898917 190.32084621803375 -339.95989702191804 185.06332758813676 -341 179 C-341.1340625 178.26652343750004 -341.268125 177.53304687499997 -341.40625 176.77734375 C-343.59498067109524 161.48110099177757 -338.49179450289483 148.32216872957443 -329.89453125 135.9765625 C-323.5221034558036 128.24607632343384 -314.66806452936964 123.02632169518941 -304.74609375 121.2421875 C-300.80949613922263 120.89500534940512 -296.88826908629574 120.79084516995763 -292.9375 120.75 C-292.1813037109375 120.74049316406251 -291.425107421875 120.730986328125 -290.64599609375 120.72119140625 C-285.462242316373 120.75165089525743 -280.9848726085778 121.57413405520816 -276 123 C-276.33000000000004 122.34 -276.65999999999997 121.68 -277 121 C-278.07571575339307 105.79517156261696 -274.7725296070058 92.43131063952416 -264.75 80.75 C-256.12983618442854 71.65964543085195 -245.28018984840003 65.66055026925602 -232.65234375 64.76171875 C-219.57460537264978 64.50043901375432 -209.89831337661906 67.76660616596078 -199 75 C-198.97421874999998 74.03062499999999 -198.9484375 73.06125 -198.921875 72.0625 C-198.27500579859856 54.82712597608179 -195.1905422916999 38.551150338656385 -182.25 26.0625 C-172.8257645534806 18.201863194682943 -161.51686070346187 14.896511652995983 -149.4375 13.625 C-137.65436775518128 14.910432608525682 -127.84646868238605 19.009641190102926 -119 27 C-118.67000000000002 27.659999999999997 -118.33999999999997 28.319999999999993 -118 29 C-113.11222756061608 28.480024208576168 -108.83411661191894 27.387767729934637 -104.2109375 25.71875 C-100.09631310718902 24.381133589616212 -96.23656565792226 23.875849290442204 -91.91796875 23.90234375 C-90.98662109374999 23.905566406250003 -90.05527343749998 23.908789062500006 -89.095703125 23.912109375 C-88.13599609375001 23.92048828125 -87.17628906250002 23.928867187500003 -86.1875 23.9375 C-84.718935546875 23.944267578124993 -84.718935546875 23.944267578124993 -83.220703125 23.951171875 C-80.81373889332019 23.962913163935013 -78.4069014307318 23.97933580861212 -76 24 C-75.78561279296878 23.3350048828125 -75.5712255859375 22.670009765624997 -75.350341796875 21.98486328125 C-71.40060316863571 10.154006888141524 -61.95382283006717 1.655199584609619 -51.1875 -4.1875 C-34.096053759982624 -12.134689983198754 -15.611619701524432 -10.491557017569164 0 0 Z M-54 11 C-54.99000000000001 11.823710937499996 -54.99000000000001 11.823710937499996 -56 12.6640625 C-60.10766291262394 16.412304907769354 -63.12002168944565 20.390138270215957 -64 26 C-63.753938205105726 28.970968338353117 -63.506665185435 30.483448664605305 -61.3984375 32.6328125 C-60.73070312499999 33.12523437499999 -60.06296874999998 33.61765624999998 -59.375 34.125 C-49.179732452548706 42.55114240952145 -42.41551005496393 56.931221120449095 -41 70 C-40.52786197352566 76.32664955475656 -40.247305605153656 82.66116685737671 -40 89 C-37.041905357575104 89.32349299980251 -34.872948219661566 89.5592509645644 -32 89 C-29.965137945344964 86.73974760855788 -28.81561156344867 85.11483590018125 -27.4375 82.5 C-26.677612544294334 81.20441952620476 -25.91329055806625 79.9114296890794 -25.14453125 78.62109375 C-24.596599121093732 77.68112548828125 -24.596599121093732 77.68112548828125 -24.03759765625 76.72216796875 C-17.263794426206687 65.47924844293226 -6.17612090052171 59.82560555320447 6 56 C6.990000000000009 55.670000000000016 7.980000000000018 55.34 9 55 C13.154472585358121 44.84709106145098 10.795187755868938 34.806199418891 7 25 C2.3738610042072423 15.14550273085564 -4.724751308850159 7.865358203287002 -15 4 C-28.5617408021792 -0.17100991279674815 -42.96313971104075 1.8169873377018746 -54 11 Z M34.1875 26.625 C28.175219226841136 34.05862374553686 25.596793978902156 42.600494832291275 25 52 C24.670000000000073 52.99000000000001 24.339999999999918 53.97999999999999 24 55 C25.728632812499995 55.6226171875 25.728632812499995 55.6226171875 27.4921875 56.2578125 C31.834615447522992 57.88885214739636 35.976850325849 59.804921453554755 40.125 61.875 C40.8017578125 62.20113281249999 41.478515625 62.527265624999984 42.17578125 62.86328125 C52.9489451097819 68.2186064182088 59.12102321232237 76.49211497471609 63.4375 87.6875 C65.71042391113315 95.02856063212789 65.34684412620709 102.40796745968834 65 110 C66.73017507546854 109.54548815880861 68.45909876582425 109.08621142576419 70.1875 108.625 C71.15042968750004 108.36976562500001 72.11335937499996 108.11453125 73.10546875 107.8515625 C75.82210206634943 107.05233704390801 78.39137175406074 106.09686379628158 81 105 C80.78343749999999 104.2381640625 80.56687499999998 103.47632812500001 80.34375 102.69140625 C76.34371980928654 87.85796095943738 77.91077806421367 74.56506587978043 85.24609375 60.83203125 C87.62979534544138 56.983069876514406 90.3415113551257 53.509727877380726 93.265625 50.05859375 C96.2796481512022 46.48113834305502 97.56332037582342 44.07747259202051 97.44921875 39.3203125 C95.71205330491671 30.347475331482997 88.20432712697516 23.093326234948677 80.93359375 18.13671875 C65.65774834478566 9.156373269358838 46.03317659139941 14.292163548781133 34.1875 26.625 Z M-177.8125 37.875 C-185.94287319710327 47.81212279645956 -187.44960135022478 57.80833292978582 -186.58203125 70.41015625 C-185.86897831464307 74.80811361639616 -184.51998373050554 78.82314855852906 -183 83 C-182.37134033203125 82.97905273437499 -181.7426806640625 82.95810546875 -181.094970703125 82.9365234375 C-168.93723805199352 82.58512459749656 -158.41460491318048 82.42312943094697 -147 87 C-145.6730384202105 87.35785731046249 -144.34156681954704 87.70152494647078 -143 88 C-142.96132812500002 86.27716796875 -142.96132812500002 86.27716796875 -142.921875 84.51953125 C-142.3782606318997 67.52790917681159 -138.3472414577614 53.93488331895233 -127.16015625 40.84765625 C-125.81610515496811 39.07741634510887 -125.81610515496811 39.07741634510887 -126.0234375 36.97265625 C-128.59499000699913 31.778120185861724 -135.565120023078 28.808750532446936 -140.4375 26.0625 C-154.46475991969078 21.878931252022042 -168.17959556416486 27.442769451404075 -177.8125 37.875 Z M-120.75 46.625 C-130.12956715660147 58.19978500176353 -133.02218682123754 70.42559435525806 -132 85 C-130.68808974854238 93.25310812735171 -126.44979707692454 100.05257488635004 -122 107 C-121.51402343749999 107.79148437499998 -121.02804687499997 108.58296875000002 -120.52734375 109.3984375 C-116.18859513618321 115.90051759535777 -110.47174473601723 118.33135928447749 -103 120 C-87.64522458477222 120.92828671985023 -76.15789713955547 119.18690698894494 -64 109 C-54.75587706899404 100.16318516748663 -50.87319316062565 90.13067300886149 -50.5625 77.4375 C-50.54509662532388 66.83635862585999 -53.337371563445515 55.84132110807133 -60.35546875 47.6328125 C-68.4663297023522 39.579748656571894 -79.55982773318362 33.952306220410776 -91.125 33.75 C-102.43750485059962 33.90023246813544 -112.9241604333796 38.35196960100126 -120.75 46.625 Z M99.125 57.875 C91.6888207860519 66.95177510767292 88.64138276830192 77.0391619522 88.75 88.625 C88.74226562499996 89.457734375 88.73453125000003 90.29046875 88.7265625 91.1484375 C88.72500081189833 97.33535473669929 88.72500081189833 97.33535473669929 91 103 C95.69914012155039 106.4541488144464 101.48408616942379 108.21288611498781 107 109.9375 C115.64571932100489 112.7156874424823 122.03478310163553 116.4713283419863 127.7109375 123.55859375 C129.03022308085235 125.18932884643024 129.03022308085235 125.18932884643024 131.4375 126.375 C134.52863744468834 125.92263842272854 134.89211955994222 125.26014538626382 136.9375 123 C143.33323042437667 116.04811910393846 152.4958612119425 112.31681430810897 161.625 110.5625 C165.54491121281956 109.75519281790403 165.54491121281956 109.75519281790403 168.5625 107.328125 C169.66341090833544 105.2396322474224 170.36413703289338 103.27093916823787 171 101 C171.41250000000002 99.824375 171.82500000000005 98.64875 172.25 97.4375 C175.21257206242365 83.7558035662619 172.55076127210145 72.34786288698007 165.25 60.75 C158.28854570606416 50.858080571300775 150.35520244005988 45.25617017371644 138.45703125 42.38671875 C122.66499850866433 39.90116828673732 109.8447324286966 46.41277528186981 99.125 57.875 Z M-14.1875 79.25 C-22.353708929370896 88.79596132215266 -25.55309364712366 99.08412838424962 -25.30859375 111.49609375 C-24.335224293389274 122.54814947885774 -20.717015910505552 133.21861832235078 -12.12109375 140.6171875 C-3.374462515099708 146.58963468665917 6.613782511511317 148.07111628792063 17 147 C30.396696475837416 144.2775944015807 39.44180875900781 138.3690439675429 47 127 C53.46975864015542 115.57946953085604 56.08583634800334 104.80939036803872 53.31640625 91.78515625 C50.14387002146282 82.39918807179646 44.61432026777243 75.01196815579488 36 70 C17.605795506970026 62.12555794278316 -0.49375669827702495 64.76278746023328 -14.1875 79.25 Z M-256.90625 87.96484375 C-264.3649538226549 96.70353699984784 -266.69510898417707 106.32803474557531 -266.3203125 117.671875 C-265.55104614337307 125.66474007129443 -263.0138991516012 132.6797499528203 -258 139 C-257.6141674804687 139.5103076171875 -257.2283349609375 140.020615234375 -256.830810546875 140.54638671875 C-254.71834291782875 143.0324655419907 -253.08592656849896 144.74254403599116 -249.849853515625 145.509765625 C-247.3648750773932 145.67266432564958 -244.9271093793899 145.6779754218236 -242.4375 145.625 C-234.76115418993317 145.70860654872763 -228.59163983267922 146.53952340233565 -221.3359375 149.16015625 C-219.10004505385405 150.11277645876987 -219.10004505385405 150.11277645876987 -217 150 C-217.10828125 149.03513671875 -217.10828125 149.03513671875 -217.21875 148.05078125 C-218.6816792473872 133.80753954974426 -219.92982020204636 117.15447749722975 -211 105 C-209.30125178553055 103.17556874340988 -207.554949421478 101.43030742304586 -205.75 99.7109375 C-203.28355968256608 97.29955165393736 -201.16141750383736 94.68539750476762 -199 92 C-200.36342354996992 86.37587785637402 -204.517478350423 83.28068613483532 -209 80 C-224.74803754625725 71.09332302711681 -244.73699110619373 75.42152976724475 -256.90625 87.96484375 Z M184 94 C181.41065073000038 97.78483512247922 179.87359604482026 101.49908124733926 179 106 C179.33000000000004 106.99000000000001 179.65999999999997 107.98000000000002 180 109 C182.02936222418998 109.850481672694 182.02936222418998 109.850481672694 184.5 110.375 C196.59406874499678 113.7592777596085 205.56319597073195 121.18667263084458 212.3125 131.8125 C215.546676420248 137.5897895028362 217.79391699240887 143.7722081467119 220 150 C223.15568555289963 148.537433408131 225.82497809735048 146.74419361253243 228.625 144.6875 C232.92666811147274 141.62583725795625 237.29523867481805 139.19319488331502 242.06640625 136.9453125 C243.95810009406136 136.1501283096091 243.95810009406136 136.1501283096091 245 135 C245.68213087258584 124.93856962935894 244.26614804845758 112.26855348543023 238 104 C231.44980334069544 97.03096305697434 223.89201890773097 90.70127634613371 214.008056640625 89.822998046875 C198.36482227523538 88.98067162254614 198.36482227523538 88.98067162254614 184 94 Z M-199.3984375 105.87109375 C-207.76607573653644 116.99392994246921 -209.10160048313264 128.53770359300205 -208 142 C-205.93704858634726 151.8300877602368 -199.16111396378795 160.116586768032 -191.04296875 165.78515625 C-181.72170411946547 171.32801150831023 -171.42781993262992 172.16652250327945 -161 169.75 C-150.70939384838675 166.95406172484468 -143.39671716202542 162.855242106142 -137.85546875 153.4921875 C-137.12360588227523 152.1874132311344 -136.4009822238629 150.87741530756918 -135.6875 149.5625 C-135.1808984375 148.63183715820313 -135.1808984375 148.63183715820313 -134.6640625 147.682373046875 C-129.81179697479342 138.29829779152237 -128.5090854636215 129.20220522046512 -131.625 119.0625 C-135.47436953027437 108.55692899029287 -139.97617677317254 101.42768105344052 -150 96 C-167.48345984402982 88.39483528453917 -186.16518467126247 91.85388044562634 -199.3984375 105.87109375 Z M-44 99 C-44.42410156250003 99.7850390625 -44.848203125 100.57007812500001 -45.28515625 101.37890625 C-52.57057892726493 114.42861939718887 -61.75297850362159 122.27742431203359 -75.875 127.421875 C-79.13211313832403 128.642010469213 -79.13211313832403 128.642010469213 -79.92578125 131.21484375 C-79.95027343750002 132.1339453125 -79.97476562499997 133.053046875 -80 134 C-80.05542968750001 135.1769140625 -80.11085937500002 136.353828125 -80.16796875 137.56640625 C-80.60799129385117 155.94559018417365 -80.60799129385117 155.94559018417365 -72.3828125 171.64453125 C-62.68426143168449 179.59251397195976 -50.3827215452244 183.0197535390185 -38 182 C-27.928973839283458 179.9857947678567 -21.023509987090506 175.2841493284925 -15 167 C-12.502863545628088 162.60621151723421 -10.032824710856744 158.1425417812983 -11 153 C-13.00845213265984 151.0600855513924 -14.904121253597623 149.46660136424399 -17.125 147.8125 C-25.749511072953965 140.95616492258017 -29.943914437404942 133.52245029037215 -33 123 C-33.534019272097794 121.33086729928871 -34.07555200223237 119.66411762003312 -34.625 118 C-34.86476562500002 117.2575 -35.10453124999998 116.51499999999999 -35.3515625 115.75 C-35.861952648712645 113.99892466675016 -35.861952648712645 113.99892466675016 -37 113 C-37.23481692801636 110.81707226177389 -37.41363322527633 108.62796825664819 -37.5625 106.4375 C-37.64628906249999 105.2399609375 -37.73007812499998 104.042421875 -37.81640625 102.80859375 C-37.87699218749998 101.88175781249998 -37.937578125000016 100.954921875 -38 100 C-39.98000000000002 99.67000000000002 -41.95999999999998 99.34 -44 99 Z M64 124 C63.00999999999999 124.72187500000001 62.01999999999998 125.44375 61 126.1875 C53.584164151583764 132.51334422765157 48.63521399650244 142.42540624590134 47.825439453125 152.08154296875 C47.11109833145474 164.6586309142225 47.68555074016331 174.09344601225587 55.828125 184.2890625 C62.37763395077775 191.39767587340515 71.19025066565791 197.12930526680685 80.90234375 198.37109375 C93.98246141757932 198.65727393062912 106.1098607376814 194.7276454973083 116 186 C122.23881359235236 179.68105485692018 124.12149193269352 176.09645839900867 124.5 167.1875 C124.70903650999412 162.3370787588409 125.03957649527399 157.76370058344088 126 153 C126.16789760407119 150.33841011251127 126.27542250323177 147.72466426796046 126.3125 145.0625 C126.34150390624995 144.37220703125 126.37050781250002 143.6819140625 126.400390625 142.970703125 C126.47841723228078 136.63854384183296 124.09001009393023 133.46761695964037 120.140625 128.8046875 C111.215571801137 119.69523237554068 100.74224044633081 115.96679428111992 88 115.5625 C78.9103584635343 115.77180095643178 71.23066617819404 118.45088409580455 64 124 Z M140.56640625 134.01953125 C133.72589703111555 142.66825487587133 130.97097963084036 153.13097235075136 132 164 C133.75371057975258 173.7002116442565 137.417356666842 182.47539992263148 145 189 C145.57492187499997 189.5040234375 146.14984374999995 190.008046875 146.7421875 190.52734375 C156.01463447969252 198.14266667107273 166.26928534626165 199.10714061949386 178 198 C188.40324588879753 195.67209289214009 197.29915842156993 190.15217049621344 203.4921875 181.453125 C209.99357933259364 170.8757310340186 210.75745947451048 158.74570069859953 208.33984375 146.71484375 C205.6385213937773 138.40038403019753 199.7364199259399 129.40333782345988 192 125 C172.4701458590215 116.3419286427904 155.66482376784165 118.15042884725693 140.56640625 134.01953125 Z M-121 124 C-120.94779296874998 124.804375 -120.94779296874998 124.804375 -120.89453125 125.625 C-120.36272482887739 141.0220620972643 -124.10030865446458 154.36464751694447 -133.90234375 166.3203125 C-136.93602918635895 169.4934014246818 -140.07353513092704 171.97727567350785 -144 174 C-143.72142200900737 182.63591772077228 -140.96647593830062 188.63354329481194 -135.140625 195.046875 C-127.09171011376839 202.5806593335128 -118.07977693298147 205.39627648282197 -107.23046875 205.27734375 C-98.82214616866946 204.55546841351332 -90.98225639125388 200.96916611468657 -85 195 C-82.7830099511416 192.11643165137355 -80.86544236550964 189.11897210793808 -79 186 C-78.34000000000003 185.01 -77.68 184.01999999999998 -77 183 C-77.22642843468424 178.93299696163314 -79.93121803129941 176.2679306692844 -82.375 173.1875 C-89.61827516618729 163.83112986468007 -91.10804438121022 155.8051123550876 -91.517578125 144.23828125 C-91.77064356853288 138.36564495395749 -91.77064356853288 138.36564495395749 -94 133 C-97.23947231993918 131.27007770669914 -100.69723809084161 130.5079963809312 -104.25 129.625 C-108.82342290472167 128.41821046492458 -112.96774629821579 126.82389102780539 -117.22265625 124.76953125 C-118.98309553948855 123.86755852842734 -118.98309553948855 123.86755852842734 -121 124 Z M-321.3125 143.375 C-327.22607821135136 150.79563969457664 -330.39201385090803 159.25263846511268 -330.3125 168.75 C-330.3068603515625 169.45519775390625 -330.301220703125 170.1603955078125 -330.29541015625 170.886962890625 C-330.0692273080978 180.6676914976016 -327.3805104303912 188.51892117659372 -321 196 C-313.52537031767463 203.11664933355502 -303.81589306358364 209.21788078034683 -293.25 209.0625 C-292.45078125 209.0534765625 -291.6515625 209.04445312500002 -290.828125 209.03515625 C-290.22484375 209.0235546875 -289.6215625 209.011953125 -289 209 C-289.0157104492188 208.39639648437503 -289.0314208984375 207.79279296875 -289.047607421875 207.1708984375 C-289.48802161736796 187.67374342014824 -288.22716909393995 173.17363336720803 -274.4921875 158.375 C-270.6693032633607 154.73187521022464 -266.4582375719921 151.81083036898042 -262 149 C-268.8593014123204 139.50069254582436 -274.4845097646215 134.04371765649083 -286.125 131.25 C-299.7450896320497 130.06564437982178 -311.8435180984262 133.03232151399172 -321.3125 143.375 Z M227 157.5 C223.4130934233325 162.01620198515042 222.27697068460247 167.13010508871224 220.90625 172.6484375 C219.77596532482028 176.8285420314836 218.0419026840865 180.19783638135618 216 184 C212.7883607872941 193.48603370110476 214.4664941206745 204.6136152571509 218.515625 213.44921875 C225.0955268622222 224.7562606342924 237.09046807285984 230.86774059023196 249.1875 234.875 C259.0030301124191 237.46542607100412 266.01592894825626 235.6756337081282 275 231 C277.86468916711203 229.19420583855316 280.44826996566894 227.22228132097848 283 225 C284.2684375 223.9171875 284.2684375 223.9171875 285.5625 222.8125 C295.0483123406459 211.86733191463935 300.3931170315616 199.16449287750595 300.21875 184.6484375 C299.36511940417597 174.31340992913073 294.4979292361569 164.12890363616702 287 157 C270.2272053904402 143.09491977696533 243.10573207309642 141.53133798710016 227 157.5 Z M-267 165 C-267.6148828125 165.57492187499997 -268.229765625 166.14984375 -268.86328125 166.7421875 C-276.0690324669083 174.1793868288005 -279.67488578538166 183.6319923538706 -280.1328125 193.921875 C-279.5883813053788 206.5398685694558 -274.81988548916 216.83442062680024 -266.2890625 225.98828125 C-258.1878624874218 233.10793655115663 -247.7436131999438 234.4186540344876 -237.375 235.3125 C-226.91418460981913 234.34390598239065 -218.50746956276214 229.91461740753476 -211.25 222.375 C-203.49726970593719 212.99960522578453 -200.92331063727175 200.90424154565733 -202 189 C-204.51450800199223 176.9159929732832 -209.77051706383276 167.14764234196804 -220 160 C-235.09902723064727 151.8161779919556 -254.2055234983136 152.85513268051847 -267 165 Z M31.19140625 154.65625 C20.692357143282493 157.0973636782034 10.747767529075873 157.31236783991932 0 157 C-0.4958789198094564 158.4162301949758 -0.985554146315053 159.83463340489288 -1.47265625 161.25390625 C-1.8826989746094114 162.4383532714844 -1.8826989746094114 162.4383532714844 -2.301025390625 163.646728515625 C-4.232663298053694 170.150066898337 -3.0414485927516353 175.47203667151916 -0.390625 181.5390625 C3.4906579587523083 188.40762503936514 9.577900077548975 193.37782098548132 17 196 C25.903905538586173 198.18900003274211 34.61811993674132 197.75324676913453 43.07421875 194.265625 C45.33638014716314 192.7789306943593 46.02215769241741 191.48905314657384 47 189 C46.61328125 188.47792968750002 46.2265625 187.955859375 45.828125 187.41796875 C38.226958122999804 176.67473536691296 36.34782254610411 166.8868253331571 36 154 C33.84388309367739 153.924156899675 33.84388309367739 153.924156899675 31.19140625 154.65625 Z M-197 175 C-196.71125 175.81339843750004 -196.4225 176.62679687499997 -196.125 177.46484375 C-191.17598294105056 192.7414971021043 -191.35270493049302 206.9346097489294 -198.6875 221.4375 C-199.12449218749998 222.2405859375 -199.56148437500002 223.04367187499997 -200.01171875 223.87109375 C-201.2105312039223 226.06233025587142 -201.2105312039223 226.06233025587142 -201 229 C-198.98234667464402 230.6393319345907 -198.98234667464402 230.6393319345907 -196.375 232.0625 C-195.516484375 232.5691015625 -194.65796875 233.07570312500002 -193.7734375 233.59765625 C-185.23474232782922 237.915109160999 -175.26993464405723 238.5005665060163 -165.98046875 236.27734375 C-163.5202314693347 235.3438896665525 -161.29049072734648 234.29185376829935 -159 233 C-158.3567578125 232.64937499999996 -157.713515625 232.29874999999998 -157.05078125 231.9375 C-149.67475034169917 227.32948069069278 -145.25468680629308 219.22484342013962 -143 211 C-142.775703125 210.291015625 -142.55140625 209.58203125 -142.3203125 208.8515625 C-141.7451399367891 206.32965203053686 -141.57193479248497 204.55982994094006 -142 202 C-143.7168636395669 199.35390604004897 -145.67910379369943 197.12007591352295 -147.78515625 194.7734375 C-151.5571257909163 190.0501599443553 -153.70254504443062 184.55218280929267 -156 179 C-156.99966796875003 179.2165625 -156.99966796875003 179.2165625 -158.01953125 179.4375 C-170.23030566018974 181.89673288820603 -179.2310088430798 181.13954246084228 -191 177 C-192.99930712140082 176.33125828695938 -194.9991045488968 175.66397427525396 -197 175 Z M126.8125 191 C116.53539854375765 200.01756326711143 104.98338921440086 204.4927987576683 92 208 C91.53149141895778 220.04240574975165 92.29980627022246 230.2910600798457 100 240 C105.7900993166744 246.25330726200843 113.45830779654739 250.28819231637897 122 251 C127.6694932512496 251.42807568115614 127.6694932512496 251.42807568115614 133 250 C133.03867187499998 248.368046875 133.03867187499998 248.368046875 133.078125 246.703125 C133.5799345376638 232.00295864415602 136.69766783140983 219.61300717320887 146.4375 208.125 C148.2235704622036 206.17905839692298 148.2235704622036 206.17905839692298 147.85546875 204.07421875 C146.72658531094714 201.33706301421432 145.27833806972524 200.39427737494043 142.875 198.6875 C138.99342078739858 195.82282013383087 135.63074642652964 192.78006857423838 132.3125 189.28515625 C129.81648589200324 186.8411424359199 128.99748214911995 188.91285287248252 126.8125 191 Z M202 196 C201.28650390625 196.56267578125 201.28650390625 196.56267578125 200.55859375 197.13671875 C190.665449056954 204.36982822171137 177.71403705629643 208.73832472410004 165.37890625 207.80078125 C160.64511104368478 207.43070489445512 160.64511104368478 207.43070489445512 156.28515625 208.9921875 C148.60477814017202 216.85591681138885 142.82502884363112 232.70093379083323 142.625 243.5625 C142.90749371301854 255.00349537725253 146.48790717029237 266.64534238156 154.77734375 274.734375 C163.33115662422836 281.80132878566104 175.02288087920863 284.95374969410153 186 284 C199.88211238420502 281.99316942986957 212.82327820136402 275.7997122655022 222 265 C226.65293860219685 258.4586302496312 232.73613514726583 249.53667515925383 232.9296875 241.296875 C230.8444678720574 236.1451559192006 225.04765876304998 233.1936024366437 220.6015625 230.1552734375 C210.4585898503367 222.8387267030172 206.7468125758171 211.61220173579227 204.67578125 199.80859375 C204.4527734375 198.88175781250004 204.22976562500003 197.95492187499997 204 197 C203.34000000000003 196.66999999999996 202.67999999999995 196.34000000000003 202 196 Z M-365.7109375 220.296875 C-372.97524803780504 227.8749265244877 -377.5695788398001 236.53716437513617 -378.06640625 247.12109375 C-377.75033840217736 260.82356456442903 -374.10892411988607 272.84905260481946 -364.453125 282.80859375 C-355.30666292435393 290.9792390118431 -345.2765619494326 294.29641041837783 -333.15234375 294.3984375 C-328.8826181416267 293.85876957923904 -325.0296861563229 292.47235307750793 -321 291 C-321.0348046875 289.76765625 -321.069609375 288.53531250000003 -321.10546875 287.265625 C-321.4156104121827 271.86919544872956 -320.0639329141324 258.3749257047052 -309.43359375 246.20703125 C-308.3102931336992 245.1157335002605 -307.15883570340293 244.05348700309355 -306 243 C-306 242.34000000000003 -306 241.68 -306 241 C-305.401875 240.7525 -304.80375 240.505 -304.1875 240.25 C-301.7051791316025 238.83153093234426 -300.63671964544005 237.30735262337106 -299 235 C-304.3599917319526 223.6169247754408 -308.0965312149025 216.95664946256426 -320 212 C-335.8539294960234 206.33788232284877 -352.81275202898803 209.36872938479098 -365.7109375 220.296875 Z M-294 220 C-292.88786133851636 223.49529293609146 -291.6842680915688 226.74469192385857 -290 230 C-288.5407730713647 229.8859040673084 -287.0825940238774 229.75834456369853 -285.625 229.625 C-284.812890625 229.55539062499997 -284.00078125 229.48578125 -283.1640625 229.4140625 C-280.7966580938419 229.17107411884683 -280.7966580938419 229.17107411884683 -279 227 C-283.10342806744814 221.14730307934076 -283.10342806744814 221.14730307934076 -289.3125 218.4375 C-291.955463672626 218.87169296161318 -291.955463672626 218.87169296161318 -294 220 Z M296 231 C295.2149609375 231.116015625 294.429921875 231.23203124999998 293.62109375 231.3515625 C290.487083293753 232.12689146533086 288.6393869603744 233.44538796332154 286.0625 235.375 C282.4672731613973 237.99215316950597 279.053227300539 240.18671410239045 275 242 C275.68062499999996 242.68062499999996 276.36125000000004 243.36125000000004 277.0625 244.0625 C277.51753906249996 244.52140625000004 277.97257812500004 244.98031249999997 278.44140625 245.453125 C279.5172356472266 246.52086545439028 280.6096021667606 247.57210955058173 281.71484375 248.609375 C293.7296851384606 260.0721120795817 296.4609459664706 274.04243975761585 298 290 C298.7669921875 289.8904296875 299.53398437500005 289.780859375 300.32421875 289.66796875 C301.4341015625 289.5094140625 302.54398437500004 289.350859375 303.6875 289.1875 C304.94562499999995 289.001875 306.20375 288.81624999999997 307.5 288.625 C310.82771550248435 288.1461484067463 314.1589722391799 287.7493060146977 317.5 287.375 C318.44012939453125 287.2613208007813 319.3802587890625 287.1476416015625 320.348876953125 287.030517578125 C322.22293280196106 286.8040577460432 324.0992084059627 286.5951882273826 325.977294921875 286.405029296875 C331.1183187290857 285.8520512416883 331.1183187290857 285.8520512416883 335.05078125 282.76953125 C338.74603145225706 271.9879164623448 338.3880839596218 259.97773628732114 333.48828125 249.72265625 C328.8344649003476 241.20898172058332 324.4817666486166 234.1576735059772 314.75 231.1875 C308.506702026423 229.67785008015966 302.16886805188074 228.9437106493731 296 231 Z M-219.150390625 238.181640625 C-223.30338294585317 241.0235984070024 -227.30897760332186 243.16861512140065 -232 245 C-231.40187500000002 245.88687500000003 -230.80375000000004 246.77375 -230.1875 247.6875 C-229.1046875 249.32718749999998 -229.1046875 249.32718749999998 -228 251 C-227.4225 251.78375 -226.84500000000003 252.5675 -226.25 253.375 C-224.81067356055627 256.39758552283183 -224.94606790147202 258.6705164662083 -225.09375 261.96875 C-225.10926120380407 264.3052064302038 -225.10926120380407 264.3052064302038 -223.5 267.375 C-220.95818749170695 273.5177135617082 -221.7887604455176 279.57340426974076 -222.5625 286.0625 C-222.70687499999997 287.361875 -222.85125 288.66125 -223 290 C-221.8874140942154 291.32745165663005 -221.8874140942154 291.32745165663005 -219.0625 291.25 C-210.49590713312205 291.07445506420333 -203.15883531381348 287.8812912331481 -197 282 C-190.37636042630515 274.62568127461975 -188.51958474404398 268.0641850327473 -188.77734375 258.1796875 C-189.19175618040617 252.18086846145292 -189.19175618040617 252.18086846145292 -192 247 C-194.92594558687296 244.5638049620028 -197.92210541754076 242.38526305497282 -201.08984375 240.2734375 C-204.21885025089955 237.82903242144494 -205.87552082712392 235.31741937956934 -208 232 C-212.01233755997612 232 -215.8934977183739 235.90991731401004 -219.150390625 238.181640625 Z M-302.875 253.375 C-310.4292920267701 263.7977849897654 -312.1075749138941 274.3971857209215 -311 287 C-309.4360981721257 294.8641920487394 -306.34334167942256 301.06580803871816 -301 307 C-300.46375 307.616171875 -299.9275 308.23234375 -299.375 308.8671875 C-292.0773452677761 316.7391946880008 -283.11425751559625 320.93867367892074 -272.375 321.375 C-260.9116609809298 321.14544627746545 -250.7456498532572 317.14363533546083 -242.29296875 309.4453125 C-235.78078034142334 302.5539333739619 -231.19980894293224 292.1461080766346 -230.93359375 282.625 C-231.48828794951186 271.3294090281226 -235.09330897510353 257.3929795389561 -243 249 C-245.82089185959717 246.60417403705446 -248.7596803134786 244.77678385346496 -252 243 C-252.82371093749998 242.51273437500004 -253.64742187499996 242.02546874999996 -254.49609375 241.5234375 C-271.3282547174276 232.56962824838172 -291.23565442565575 239.18490422532074 -302.875 253.375 Z M241 243 C241.14437499999997 244.03125 241.28875000000005 245.0625 241.4375 246.125 C241.41931126262807 256.3834478777376 232.97853283635163 268.01033712722676 226 275 C220.80124783144345 279.5265129338006 215.2959626387094 283.7434504156549 209.609375 287.63671875 C207.6891224984181 288.9680308681461 207.6891224984181 288.9680308681461 207.5 291.875 C208.2125584086407 303.08591896261345 213.12009128169416 313.75333529667665 221.375 321.3125 C230.4647656758135 328.54026521799267 240.5161477713532 330.9128190233027 252 330 C262.4318769098202 328.2821759579638 271.88842877655793 322.3579334563457 278.50390625 314.171875 C286.34972533015184 302.7821219750276 288.7952150261485 290.5223187299067 286.46484375 276.86328125 C284.02857727341325 267.31790931714346 280.4094068892193 260.5126334363574 273 254 C272.3296875 253.3773828125 271.65937499999995 252.754765625 270.96875 252.11328125 C262.3179588985686 244.63786937430655 252.08066598850826 243.6325577040684 241 243 Z M149 283 C144.30972566845628 292.80693723868245 142.28509943267784 303.1010436080066 145.90625 313.63671875 C150.14500754338712 322.9877615737561 156.67855315643374 328.7555638795727 165.703125 333.3828125 C167.9625226972704 334.2123077270732 167.9625226972704 334.2123077270732 170.01171875 333.35546875 C172.33641015295348 331.7706594831535 174.43081480451838 330.0241908685946 176.5625 328.1875 C181.69820759780532 324.01709427079834 186.88215639906286 321.4315616009382 193 319 C194.44439453125005 318.41025390625 194.44439453125005 318.41025390625 195.91796875 317.80859375 C198.27248862953627 316.85549472965175 200.63216243390787 315.91939896817894 203 315 C202.4068136488263 311.7488824983746 201.62143218639505 308.73136715631443 200.5 305.625 C199.15741676430036 301.72759817986235 198.50990222104144 298.07921776833155 198 294 C196.77578956310583 292.54174461561666 196.77578956310583 292.54174461561666 193.09765625 292.97265625 C191.41925648094366 293.0017887030999 189.7408716352221 293.03178943709594 188.0625 293.0625 C175.2893598439167 293.1511285051074 164.39549746508044 291.10455854457683 153.26953125 284.33984375 C151.1522086090814 282.83054009121173 151.1522086090814 282.83054009121173 149 283 Z M-394.5625 292.3671875 C-403.3818533213251 302.38482252259206 -406.9297588880693 312.8276789430598 -406.40234375 325.99609375 C-405.57846598996025 336.79376894154916 -399.8081627001162 344.8599854503971 -392 352 C-384.6934713563407 357.83698246908875 -377.2103854704826 359.4847571300254 -368 359 C-366.3368733542478 357.3368733542478 -366.5328753274514 355.1696193224658 -366.2021484375 352.93359375 C-364.2952490055176 340.5700547462213 -359.72650880505864 328.40702117646543 -350 320 C-341.9585827050512 314.12357966907587 -333.6898761834035 310.24060174596144 -324.0625 307.8125 C-323.37865234375 307.63525390625 -322.6948046875 307.4580078125 -321.990234375 307.275390625 C-320.32809189909017 306.8453257885758 -318.6642221174535 306.4219456333827 -317 306 C-317.99 303.525 -317.99 303.525 -319 301 C-319.6200390625 301.144375 -320.24007812499997 301.28875 -320.87890625 301.4375 C-336.1860422682895 304.6459826588554 -350.2566422483261 303.857932339893 -363.875 295.75 C-368.18596735111623 292.85719658098316 -371.37753906430635 289.66505604376096 -374.46484375 285.50390625 C-379.4462572518087 280.62389556756654 -390.51996334196406 288.71512313279703 -394.5625 292.3671875 Z M295 306 C292.40176752972366 309.1808664181565 290.21279620422354 312.5456099156011 288 316 C287.0678806613214 317.19172817305855 286.1309634594103 318.37973239782383 285.1875 319.5625 C280.2045889736694 326.6668483939764 280.8713223720988 334.426951438795 281.41796875 342.765625 C282.0487849589506 346.271100308799 282.765494050868 348.23231475714897 285 351 C287.6120476569761 352.45719046591296 287.6120476569761 352.45719046591296 290.625 353.4375 C302.5934213510376 358.0862716224778 310.2432057468832 365.18912919501315 317 376 C328.63409921413154 375.74808052882787 339.4536240837107 372.1257489136979 348 364 C354.6867952994619 356.6734657425031 357.6382988454052 348.85708374385064 358 339 C357.05884425849956 326.53810073141744 354.0876088377079 315.7582589846546 344.8984375 306.99609375 C330.7306247013779 295.0060189610601 309.29365402405915 292.83551710308234 295 306 Z M-227 305 C-227.32871093749998 305.556875 -227.657421875 306.11375 -227.99609375 306.6875 C-235.27922129955329 318.37208403613965 -245.33808503916038 325.91254209974744 -258.76953125 329.2578125 C-263.161064168124 330.27471756596583 -267.5708540056619 331.1633835344028 -272 332 C-271.6506640625 332.9526171875 -271.301328125 333.905234375 -270.94140625 334.88671875 C-270.4815833373881 336.1535777949513 -270.0219583822869 337.42050870339057 -269.5625 338.6875 C-269.217353515625 339.626259765625 -269.217353515625 339.626259765625 -268.865234375 340.583984375 C-266.69810013480776 346.582863213793 -265.853218291917 351.9579489664114 -265.4375 358.3125 C-265.3537109375 359.5667578125 -265.269921875 360.821015625 -265.18359375 362.11328125 C-265.12300781249996 363.0658984375 -265.06242187500004 364.018515625 -265 365 C-264.27554687500003 365.1817578125 -263.55109375 365.363515625 -262.8046875 365.55078125 C-254.5938864628821 367.68558951965065 -254.5938864628821 367.68558951965065 -250.8125 369.6875 C-246.32302291912055 371.7825893044104 -242.40548350898075 371.74565776022695 -237.76953125 370.30859375 C-227.96557773255677 366.2756421309485 -220.2731172490063 359.99349275564083 -215.7421875 350.3125 C-211.7354088512443 339.77719390257244 -211.35792636247834 329.0192084360448 -215.7265625 318.546875 C-219.7685611059448 310.2302976783054 -219.7685611059448 310.2302976783054 -227 305 Z M-347.11328125 330.50390625 C-354.8198420578137 340.69954259822555 -359.11610247363586 352.4099561505102 -357.53125 365.21484375 C-355.01678858721976 378.39727748023756 -347.98805719746434 390.20379915038006 -337 398 C-328.1721793206812 403.91313225768414 -316.17318193844824 402.98718312988007 -306 402 C-301.9595202426548 401.1706150223671 -298.6053056436179 399.98619565457494 -295 398 C-294.352890625 397.66097656249997 -293.70578125 397.321953125 -293.0390625 396.97265625 C-283.57048692263953 391.1633336796107 -279.3162515513085 380.3237958417709 -276.469482421875 370.093505859375 C-273.64401154520715 357.49422724916883 -276.13610719966954 344.9986025506692 -282.8125 334.1875 C-288.8077309892513 325.82690492317806 -297.54818899834663 319.8601680676773 -307.61328125 317.34765625 C-321.7855953196543 315.28327662283266 -337.25960132196104 319.93068782823 -347.11328125 330.50390625 Z M174.7578125 343.5234375 C167.89365439952212 353.19427357934 165.91431966467349 363.37335059077645 167 375 C169.4749860695157 387.04151253510514 174.2431085952063 395.0831347195589 184.375 402.1875 C190.81948583485212 406.3174917458937 198.32116384586516 408.58409557025857 206 407 C206.69802734375003 406.0061328125 206.69802734375003 406.0061328125 207.41015625 404.9921875 C209 403 209 403 211.91796875 402.609375 C212.99691406249997 402.65578125 214.07585937500005 402.7021875 215.1875 402.75 C216.2741796875 402.78609375 217.36085937500002 402.8221875 218.48046875 402.859375 C219.31191406250002 402.90578125 220.14335937500005 402.9521875 221 403 C221.12117187499996 402.2381640625 221.24234375000003 401.476328125 221.3671875 400.69140625 C221.8920538394243 397.45742211247057 222.44555939802171 394.229030829831 223 391 C223.1817578125 389.78763671875 223.1817578125 389.78763671875 223.3671875 388.55078125 C225.39947562586565 376.9999191468654 233.57315956364528 367.2434856893434 242.4609375 359.9921875 C251.29884548610858 353.8613864645913 261.55452435966265 351.08909512806747 272 349 C271.66999999999996 344.71 271.34000000000003 340.42 271 336 C269.61812499999996 336.309375 268.23625000000004 336.61875 266.8125 336.9375 C265.2093870030851 337.2964058948317 263.60516489664406 337.65038538817134 262 338 C261.27296875 338.18046875 260.54593750000004 338.3609375 259.796875 338.546875 C243.66139910605852 341.1610023794654 229.79186976933659 338.62127007877706 216.1796875 329.5859375 C214 328 214 328 212 326 C196.99269499454726 324.54768016076264 184.21462954554943 332.3820052722475 174.7578125 343.5234375 Z M246 370 C245.38253906249997 370.5246484375 244.76507812499995 371.049296875 244.12890625 371.58984375 C236.15519835931593 378.87764128449624 232.43897908720498 388.4999955951996 231.81640625 399.13671875 C231.57090389826908 411.57069079943045 233.6317328104766 420.3373984690104 242.125 429.625 C251.3492422439524 438.4071217006692 262.12687222765123 441.5017220667462 274.5390625 441.328125 C281.49539916035803 440.6686077545485 291.51516082249714 438.76707009911013 296.4921875 433.386962890625 C298.00872634619407 431.2875312004753 299.52076615407145 429.1884994155164 301 427.0625 C301.535283203125 426.29558837890625 302.07056640625 425.5286767578125 302.6220703125 424.738525390625 C310.0429568404021 413.8283554350728 312.24338914324346 405.19813944779196 309.875 392.25 C307.27542133304075 380.9163229146121 302.6487798222902 370.9652248676901 292.6953125 364.50390625 C277.5887056331086 355.761886210635 258.8953567460841 358.6378491515395 246 370 Z M-418.375 382.125 C-425.5722445617937 390.8296756609784 -429.05096133536 401.81476864509705 -428 413 C-425.755263217144 424.0478912746589 -421.3579063295382 433.07997364593086 -412.1875 439.875 C-403.815419576752 445.29448412130864 -395.4312341593328 448.11493038655703 -385.5 448.4375 C-384.1903125 448.49808593750004 -382.880625 448.5586718750001 -381.53125 448.62109375 C-377.84124468917827 448.3505259822091 -377.84124468917827 448.3505259822091 -375.765625 445.46875 C-374.19345366063766 442.3800594040846 -372.6584270826295 439.28858042533284 -371.213134765625 436.138916015625 C-364.55753880222056 421.7901596990839 -354.7599448805281 416.8956087412646 -341 410 C-341.2526577098172 406.3915296315853 -341.8929088512131 405.1115461405764 -344.44140625 402.45703125 C-345.47430850742444 401.5667885822101 -346.5151313935276 400.68567700560783 -347.5625 399.8125 C-356.27076437396954 392.18628930940315 -363.7104973530398 383.8701653489257 -367 372.5625 C-367.495 371.2940625 -367.495 371.2940625 -368 370 C-384.03976057366754 364.2454755084732 -406.85162788009933 370.2131996063948 -418.375 382.125 Z M-265 375 C-265.5684765625 376.134375 -266.136953125 377.26875 -266.72265625 378.4375 C-275.0165724549923 394.73260595569076 -283.60593223581736 404.0853212097941 -301 411 C-298.46560668395597 413.6089342959276 -296.1614663606743 415.88517947685386 -293.1875 418 C-282.31067572604206 426.93754552743826 -277.95457430548663 442.7037511060977 -276 456 C-263.23676703374906 456.61263518238 -254.17140606283027 455.3384467306188 -244.1015625 446.9765625 C-235.40439810685461 438.79670156518296 -230.07963148465785 428.55288352843127 -229.6875 416.5 C-229.86574106125306 404.52220068379654 -234.88906331252048 394.75702690994433 -242.7734375 386.0390625 C-248.3615732582296 380.6395557969005 -257.0694182826864 375 -265 375 Z M321 388 C320.99065429687505 388.59836669921873 320.98130859375 389.1967333984375 320.9716796875 389.813232421875 C320.6598924454422 405.7281370863272 319.81234824739727 418.3008078827713 310.48828125 431.7578125 C308.8503676386151 434.01360554993767 308.8503676386151 434.01360554993767 308 437 C309.2336328125 437.3287109375 309.2336328125 437.3287109375 310.4921875 437.6640625 C323.1630121147855 441.2633960510823 333.53613862760176 446.80420794140264 341 458 C342.68076231164605 457.3697141331327 344.34302621318943 456.69040574450446 346 456 C346.90685546875 455.65001953125 346.90685546875 455.65001953125 347.83203125 455.29296875 C356.08579969510095 451.7277314926487 361.22707759941 445.31057280128175 364.9375 437.25 C369.31718828882447 425.5361896275168 368.90860660625594 413.70383004651876 363.77734375 402.27734375 C360.04297993356715 395.547167178323 354.82462199320935 387.8959141471786 347.4453125 384.99609375 C344.94031055607945 384.4516936314884 342.55631796495175 384.1586975917839 340 384 C338.88625 383.87625 337.77250000000004 383.7525 336.625 383.625 C331.13848100816847 384.19257093018945 326.15692630080855 386.1031995215417 321 388 Z M178.79296875 430.4296875 C172.42634383833615 439.55657027096913 169.9968686600099 450.02206970179896 171 461 C172.7807432410765 468.9879053956861 176.00613232889395 475.5621223998994 181 482 C181.5246484375 482.6999609375 182.04929687499998 483.399921875 182.58984375 484.12109375 C188.17232641154806 491.06964275696214 195.38187000043888 495.67851110712934 204 498 C206.6339225313933 498.212146480039 209.12126772024067 498.33451091621805 211.75 498.3125 C212.45447265625 498.3068603515625 213.1589453125 498.30122070312495 213.884765625 498.29541015625 C223.92776325809882 498.0629759763822 230.41833641913968 495.39949150484256 238 489 C238.63035156249998 488.55914062500005 239.26070312499996 488.11828125 239.91015625 487.6640625 C244.7124512124185 484.13626195435927 246.25188834135224 480.53912412043815 248.046875 474.93359375 C250.55292486704434 467.2203009215151 254.14272585178128 460.3528277177959 258.86328125 453.77734375 C260.17959698979564 452.0708132299891 260.17959698979564 452.0708132299891 260 450 C258.96552734374995 449.6712890625 258.96552734374995 449.6712890625 257.91015625 449.3359375 C242.74262844680186 444.2176770890442 232.6859503696444 434.95295605566207 225 421 C222.84780500672503 416.85987503867136 222.84780500672503 416.85987503867136 219.16015625 414.3671875 C203.39584833069375 411.68754022257724 188.8991404612359 418.52820784006144 178.79296875 430.4296875 Z M-358.875 431.5 C-366.6866596259868 442.13253671314874 -367.18164277880254 454.2155444892943 -366 467 C-363.40478833660904 478.5455270098174 -355.35486475167374 486.93272398298325 -346.01953125 493.74609375 C-340.0454086888947 497.45536520476753 -335.7441454336737 498.52410261027694 -328.8125 498.4375 C-327.9696948242188 498.4299267578125 -327.1268896484375 498.422353515625 -326.258544921875 498.41455078125 C-315.8386526438223 498.1401058630354 -307.73832927238755 495.0318575978383 -300 488 C-299.3825390625 487.44828125000004 -298.765078125 486.8965625000001 -298.12890625 486.328125 C-292.41061040987006 480.57293692864346 -290.2705119065165 473.61841185161734 -288 466 C-287.7976171875 465.33484375 -287.595234375 464.6696875 -287.38671875 463.984375 C-285.34875982059816 453.52696958448337 -286.96867834660776 442.8056862744065 -292.390625 433.65234375 C-300.04039581026484 422.8822716881798 -310.3193570645277 418.2920798023806 -323 416 C-337.48567333897813 414.1474408518718 -349.8754599915718 420.4943125313597 -358.875 431.5 Z M264.8984375 460.05859375 C261.4047981414076 464.3511179974755 259.78350074508114 469.0257226529943 258.125 474.25 C257.81820312499997 475.1278515624999 257.51140625000005 476.0057031250001 257.1953125 476.91015625 C253.15974325982597 489.21503924570925 255.0224204842758 499.34614319731236 260 511 C265.3028763709219 520.7628099661192 274.6013500769966 526.7481885120505 285 530 C288.016142946277 530.8223152528333 288.016142946277 530.8223152528333 291 531 C291.62906250000003 531.0631640624999 292.25812499999995 531.126328125 292.90625 531.19140625 C303.2981278107226 531.7750080835732 313.4075250589682 527.5651683689805 322 522 C322.86625000000004 521.443125 323.73249999999996 520.88625 324.625 520.3125 C333.77044550129096 511.4077241171641 338.0110844782736 500.78954252399217 338.419921875 488.124755859375 C338.51733764047447 474.9641565431283 335.5979140388647 466.88395315562195 326.33984375 457.27734375 C318.00538942229207 449.5733918773433 308.77224091293726 446.6104281430946 297.63671875 446.72265625 C286.49083414617087 447.5726646354692 272.74491085580814 451.72156251011506 264.8984375 460.05859375 Z M-423.375 472.25 C-432.0978884366896 482.86761420367543 -435.1916583934228 494.3853028551447 -434 508 C-431.41841877185095 519.5291070757112 -424.3787328417194 528.081262657748 -415 535 C-406.4348380188016 540.3022431312181 -395.77873999622085 540.2369771666193 -386 541 C-384.9390149406846 536.8560706494773 -383.941183091402 532.7836538796338 -383.25 528.5625 C-381.4383543765781 520.4171165768629 -375.9228950801353 513.5123501379956 -369 509 C-364.43288849734404 506.46610969843914 -359.72737473750936 504.2161618048241 -355 502 C-356.50643357146 498.50092942925437 -358.564188648248 496.1782056635343 -361.1875 493.4375 C-370.72270071437174 483.01173303533255 -375.6047977278686 472.7512789270604 -378 459 C-394.45970885661234 458.30560603261165 -411.3837035877228 459.63462124656337 -423.375 472.25 Z M-267.37109375 465.75 C-270.4058606382761 465.6021879141174 -272.21019581379244 465.75181445358066 -275 467 C-277.9641204130159 470.80351734413546 -280.03347057373344 474.86658593313496 -282.1181640625 479.19921875 C-288.20836167606564 491.6359013628628 -295.507754036274 499.753877018137 -308 506 C-306.5089549051397 509.54023541239553 -304.4785041213908 511.6419356445491 -301.6875 514.25 C-295.17577145952487 520.6471221181628 -291.68277746278545 527.33148463101 -288.11328125 535.6796875 C-287.0993761416953 538.1217177983744 -287.0993761416953 538.1217177983744 -285 540 C-276.0525773112299 542.9091346993542 -263.3658734733542 542.250437071543 -254.96484375 538.12890625 C-254.31644531250004 537.7563671875 -253.66804687500002 537.383828125 -253 537 C-251.948125 536.401875 -250.89625 535.80375 -249.8125 535.1875 C-238.5289336022309 526.4113928017351 -233.58606080002437 515.7600605660343 -231.6796875 501.625 C-231.20627119447948 492.78789563028363 -234.42063677438256 485.4764744278025 -240.066650390625 478.847412109375 C-246.10387680851284 472.1745886128689 -252.2060501194108 466.62078034434876 -261.5 465.625 C-265 466 -265 466 -267.37109375 465.75 Z M350 481 C349.90203125000005 482.22074218750004 349.8040625 483.4414843750001 349.703125 484.69921875 C348.1067822267014 502.9235133409827 344.50492391994203 517.7689502919301 330 530 C326.0836316190339 532.8049665431244 322.08148542673143 535.4422691325816 318 538 C324.6442205640807 549.0664045849298 324.6442205640807 549.0664045849298 335 556 C343.8368264342523 556.789002360201 351.5375385126604 554.0488866758659 358.75 548.9375 C367.9415012593515 541.1929613718164 372.66316762316524 530.1373182045508 374.37890625 518.41015625 C374.85233530064954 508.9873909515876 371.7537903496733 499.0341324301419 365.71484375 491.78125 C361.8119838763996 487.72725432263826 357.6821076102623 484.1214050735082 353 481 C352.01 481 351.02 481 350 481 Z M240.25 500.3125 C228.78662291849912 507.6141083994572 217.65203395667083 507.5567796704307 204.609375 505.453125 C198.7649918173887 504.66481284978727 194.9882049365657 504.3024603779229 190.125 507.9375 C188.71061974724114 509.2504816684618 187.334323782473 510.6057358913613 186 512 C185.01 512.95712890625 185.01 512.95712890625 184 513.93359375 C176.40021852420432 521.8025341530634 175.52496135352078 529.7740956789784 175.573486328125 540.32666015625 C175.76158411589915 546.5254841588433 176.88145978077318 551.5722293070204 180 557 C180.59812499999998 558.051875 181.19624999999996 559.10375 181.8125 560.1875 C188.35485832579707 568.5991035617391 196.80829873150014 575.5954906548668 207.578125 577.75390625 C221.8233156393968 579.288861941532 221.8233156393968 579.288861941532 235 575 C237.22487198866372 571.7887315631604 238.77363384686475 568.3926112909711 240.3125 564.8125 C247.3113264899439 549.3106216252586 254.9893829646844 543.0368773341702 270 536 C270 535.34 270 534.68 270 534 C268.1769456684258 532.655782004651 268.1769456684258 532.655782004651 265.875 531.3125 C253.46565575778527 523.240591127713 249.55103286506414 510.7676916667849 246 497 C243.9659793278173 497 241.82746182092308 499.21146812210145 240.25 500.3125 Z M-373.375 523.625 C-379.4407896225721 532.5685932219174 -381.22827798172847 543.4140165698454 -380 554 C-378.2720694544995 562.8748148727481 -375.1370885211533 569.3968034898983 -369 576 C-368.14535156249997 576.9551953125 -368.14535156249997 576.9551953125 -367.2734375 577.9296875 C-359.2933974795827 586.4198670651015 -349.5781616760871 591.3011084387606 -337.92578125 592.05859375 C-328.42810033373655 591.8683865220374 -320.672950939017 588.3586677114499 -313 583 C-311.948125 582.278125 -310.89625 581.55625 -309.8125 580.8125 C-300.4930943258175 571.4930943258175 -296.5345047865695 560.56958387099 -295.87890625 547.625 C-296.2872409083925 535.4013044197343 -302.1162377080436 525.360330282477 -310.875 517.125 C-328.48341108588625 502.6560730612098 -358.9022364851677 506.60244440190945 -373.375 523.625 Z M253.51171875 557 C245.79961367179294 567.2030950905479 245.23498480855142 578.6733842539171 246 591 C247.62264470030857 601.8422168611529 254.49549332361016 612.2075603131678 263 619 C271.22018772038746 624.8661385810617 285.0735433121981 627.3235275583736 295 626 C302.26935865518897 624.6284228952474 307.48930499322637 621.8779429705053 313 617 C313.91072265624996 616.21109375 313.91072265624996 616.21109375 314.83984375 615.40625 C322.0895236580683 608.6800699540023 327.8149997105105 599.7319379973927 328.3359375 589.6796875 C328.6123748764337 575.0345820957483 326.3960454455555 562.7387411780271 315.89453125 551.80859375 C308.3242949186074 544.7334847518138 300.95442674642754 540.6070653313952 290.41015625 540.86328125 C276.22447465511675 541.6679795576514 263.24155653628384 546.1937593349733 253.51171875 557 Z M-260.53515625 549.98828125 C-265.68594122273566 551.3393749676264 -270.707264585492 551.2199042212256 -276 551.125 C-276.9655078125 551.1159765625 -277.931015625 551.106953125 -278.92578125 551.09765625 C-281.28412098872883 551.0743063515968 -283.641922858674 551.041560470224 -286 551 C-286.31130859375 552.5971484375 -286.31130859375 552.5971484375 -286.62890625 554.2265625 C-289.7521857945625 569.3200819563934 -294.60877660711606 581.9541840499902 -307 592 C-309.30078125 593.265625 -309.30078125 593.265625 -311 594 C-311 594.66 -311 595.32 -311 596 C-309.5455337953894 597.2428532936939 -308.03384276622853 598.4190479378267 -306.5 599.5625 C-298.47297197351554 605.8573202859313 -292.8097728370398 612.7829763483822 -287.73828125 621.6171875 C-285.0004386075145 625.3701852795868 -281.5613390951671 627.2766533151321 -277 628 C-264.5544457809042 628.978323205367 -253.7201962041015 627.2398549132822 -244.03125 618.97265625 C-235.33574063501544 610.5279788859285 -230.6762918365743 601.0016919335404 -229.96484375 588.8203125 C-230.12602123966883 575.8902961065697 -234.1336984080989 564.4636103307239 -243 555 C-248.28176737484694 550.0929921728141 -253.2777701328488 547.9594208216694 -260.53515625 549.98828125 Z M-436.84765625 566.0078125 C-444.5273416742128 575.3291014424107 -445.0031529889088 586.4181427644161 -444 598 C-441.8999615032992 608.7001961498563 -436.35546148784385 618.560742984244 -427.21484375 624.75390625 C-417.0291184490967 630.4844994968927 -405.9131580930789 632.4322594923233 -394.5 629.6875 C-392.6541036369664 629.167707754915 -390.8190084484111 628.6072278202785 -389 628 C-388.1440625 627.7744140625 -387.28812500000004 627.548828125 -386.40625 627.31640625 C-382.98273655814023 625.4434776300216 -381.7085317704205 622.6115015320468 -380 619.25 C-376.2083255543297 611.9749173237545 -372.55776872104866 606.549030785581 -365.25 602.3125 C-361.02916821704787 600.0836681582682 -361.02916821704787 600.0836681582682 -359 596 C-359.652265625 595.6248828125 -360.30453124999997 595.249765625 -360.9765625 594.86328125 C-370.68213085717616 589.1802272119485 -376.33069971217384 583.7306816676136 -382 574 C-382.3931640625 573.363203125 -382.786328125 572.72640625 -383.19140625 572.0703125 C-387.0037202400073 565.3426995764578 -388.29585406973325 557.4692353539351 -390 550 C-410.18616707127273 549.1661789148242 -422.624947951339 550.5522690211168 -436.84765625 566.0078125 Z M339 568 C338.98541748046875 568.633896484375 338.9708349609375 569.26779296875 338.955810546875 569.9208984375 C338.41554545062786 590.9435105925279 336.45167673476635 607.8617863601172 321.2890625 623.83203125 C318.0740229554459 626.8769919107978 314.6759307199551 629.5360246400301 311 632 C314.48810612221666 639.4475779366248 321.8231035879802 645.2983014617697 329.375 648.375 C340.6133155846827 650.3126406180487 351.18824896059425 648.3095044405696 360.9375 642.1875 C370.27087602352185 635.3282364507207 375.623184724829 625.6150301006887 377.71875 614.23046875 C379.1107102995578 603.191450263229 377.6919382436697 591.1959724678818 370.92578125 582.0625 C364.87654178880643 575.5838013478495 355.57407167497763 568.3674376343723 346.379150390625 567.853515625 C345.0641857910156 567.879619140625 345.0641857910156 567.879619140625 343.72265625 567.90625 C342.39053100585943 567.926552734375 342.39053100585943 567.926552734375 341.031494140625 567.947265625 C340.3611010742187 567.96466796875 339.69070800781253 567.9820703125 339 568 Z M183 595 C182.2265625 595.683203125 181.453125 596.36640625 180.65625 597.0703125 C173.74761652184293 604.0667675901675 171.45444422836454 613.4449045843368 170.97265625 623.03125 C171.08059016937102 634.7497898174205 175.1301497119356 645.2272127555601 183.125 653.875 C192.151029917002 662.2890956853408 201.8340392192399 665.1930280722128 213.8125 665.0625 C214.99489257812502 665.0557324218751 214.99489257812502 665.0557324218751 216.201171875 665.048828125 C218.13414760736248 665.0371131205615 220.06708392539156 665.0191799830998 222 665 C222.29519531250003 663.95328125 222.59039062500005 662.9065625000001 222.89453125 661.828125 C227.02730986821052 647.5167361454195 232.738932048145 635.1077785427708 245.953125 627.2421875 C248.612496195709 625.7761238921091 251.2860946748939 624.3619414591066 254 623 C253.17499999999995 622.071875 252.35000000000002 621.14375 251.5 620.1875 C243.83765924545514 611.1783345047513 237.66408560855245 603.2210867428269 236.43359375 591.2265625 C236.35036865234372 590.4307275390624 236.26714355468744 589.634892578125 236.181396484375 588.81494140625 C236.12153564453126 588.2160107421874 236.06167480468753 587.617080078125 236 587 C234.14761718750003 587.16048828125 234.14761718750003 587.16048828125 232.2578125 587.32421875 C230.54726059850418 587.4506427092969 228.83627639125416 587.571293554691 227.125 587.6875 C226.22112548828125 587.7494555664063 225.3172509765625 587.8114111328125 224.385986328125 587.875244140625 C218.0817659468836 588.1917487000604 212.78152838801452 587.4404665540976 206.6875 585.9375 C196.45117789554035 583.6402618708313 190.39015228280505 588.280364144943 183 595 Z M-369 618 C-376.2611619609057 627.6028374984336 -377.9804312729506 637.071419512434 -377 649 C-374.974360792492 660.8162287104632 -368.7709063028992 671.0881048661163 -359 678 C-348.22943001258784 684.4557544878678 -337.2099536061891 686.9435873317617 -324.7421875 684.3125 C-313.1916099773717 680.7675657219555 -304.06564606622146 674.1694523264497 -297.6484375 663.8203125 C-291.8728580809373 652.8093157658158 -292.8343665678358 638.7042705862076 -295.96875 626.96484375 C-299.2226598594955 617.6098529039505 -305.2038330974875 609.5245474395908 -314.118896484375 604.901123046875 C-320.6759315423668 601.9626168316648 -326.4377937194018 601.4161342646133 -333.5625 601.5625 C-334.53896484375 601.55541015625 -335.5154296875 601.5483203125 -336.521484375 601.541015625 C-350.5062251037127 601.6626220661193 -359.9756504191979 607.5855916818127 -369 618 Z M238.1015625 647.71484375 C232.06921246481897 658.2052475916685 230.54581474216513 668.3000329768494 233.25 680.0625 C236.38181644028975 691.4261091938953 242.7678862756742 701.3553429564555 252.875 707.90625 C264.1933397359112 713.7318660405425 274.71868684921935 716.0426902607775 287.0625 712.5 C298.3549072617907 708.2875182334943 307.77426427732723 700.339804848064 312.875 689.3125 C316.6476451065381 678.2041560751934 316.43313235582207 664.875287239938 312 654 C310.2393238378912 650.4734539407909 308.21200026224517 647.257170386156 306 644 C305.62874999999997 643.2923046875 305.25749999999994 642.584609375 304.875 641.85546875 C303.42117703329563 639.5073533662768 302.4127265645435 638.3848448374029 300 637 C296.5857859413418 636.5180805346085 293.3237218831971 636.3292123843861 289.883544921875 636.28125 C284.4711225588924 636.1886012808305 279.7061389145697 635.397425832795 274.5 633.9375 C258.7552618656481 629.6602364783458 247.75420902131088 633.9111619962734 238.1015625 647.71484375 Z M-262.625 637 C-269.11390107465195 638.1663594336716 -275.42598324498414 638.190858550952 -282 638 C-282.121171875 638.8108203125 -282.24234375000003 639.621640625 -282.3671875 640.45703125 C-282.71830460168786 642.7771050219221 -283.0768614882592 645.0960606356897 -283.44140625 647.4140625 C-283.78089735747426 649.5934529661637 -284.1053574784905 651.7753492106385 -284.40234375 653.9609375 C-286.21863870154044 666.0349744159546 -292.1366043209649 676.4719876107649 -301.875 683.875 C-303.0467578125 684.7064453125 -303.0467578125 684.7064453125 -304.2421875 685.5546875 C-304.822265625 686.031640625 -305.40234375 686.50859375 -306 687 C-306 687.66 -306 688.32 -306 689 C-304.35578869377287 690.2666076246885 -302.6572705029307 691.4630554610078 -300.9375 692.625 C-293.32522160958274 698.0414288547199 -288.2849809724068 703.9825653807453 -283.75 712.1171875 C-280.34160566905655 715.7842546149882 -275.5486741818387 716.0643209061897 -270.765625 716.3359375 C-257.1945387736845 716.6087006828024 -247.2346955356556 714.4995000151359 -237 705 C-228.626930154278 696.7264121722469 -224.7939317891354 688.7659044940558 -224.6875 677 C-224.66388086820206 664.6747497234344 -228.40492023609215 653.1189252034036 -236.91796875 643.9296875 C-241.82627501429965 639.3916403155991 -246.39618179554236 636.3533155102409 -253.1875 635.6875 C-256.4177530225975 635.9522748379178 -259.4433987417217 636.4188665244407 -262.625 637 Z M-436.0234375 654.53515625 C-443.7290981879237 664.1443892422526 -445.9082735420231 674.9185201870581 -445 687 C-443.2450564352114 697.2347128904478 -437.4926218964256 707.832174041702 -429 714 C-425.11215765973407 716.0200980519814 -421.11878543084174 717.5206822314813 -417 719 C-416.0035546875 719.4176562499999 -415.007109375 719.8353125 -413.98046875 720.265625 C-406.41577049048544 723.239949348433 -400.7841967434939 723.2855726608557 -393 721 C-392.2458984375 720.7847265625 -391.491796875 720.569453125 -390.71484375 720.34765625 C-384.98412420841646 718.1282446356295 -382.7391234475523 713.944665543855 -379.6953125 708.8125 C-374.4511117828741 700.1124435107588 -367.92642913444666 695.6904061133381 -359 691 C-361.50717017788025 688.4427976012751 -364.070072690731 686.0511813674518 -366.8125 683.75 C-379.38911390942167 672.7133796305076 -385.6610968276226 660.1070014739233 -386.8515625 643.37890625 C-386.90054687500003 642.5938671875 -386.94953125 641.808828125 -387 641 C-390.45825936063756 640.9410163058407 -393.9163861981888 640.9060786862807 -397.375 640.875 C-398.82326171875 640.84986328125 -398.82326171875 640.84986328125 -400.30078125 640.82421875 C-414.57884225875375 640.7283928371895 -426.01956294503543 643.91266754411 -436.0234375 654.53515625 Z M323 657 C323.322265625 658.1408203125 323.64453125 659.281640625 323.9765625 660.45703125 C326.83768327271946 671.9749413341601 326.0399672563145 685.2530109975647 321 696 C317.25935832003495 702.0461361807356 311.48514841841063 709.7574257907947 305 713 C305 713.66 305 714.32 305 715 C305.44085937499995 715.4266796875 305.88171875 715.853359375 306.3359375 716.29296875 C308.4113217515828 718.4219427357785 309.3554509053331 720.6286286682919 310.625 723.3125 C313.743647908526 729.1561051157282 317.149411348532 732.0394611643175 323 735 C323.6148828125 735.337734375 324.229765625 735.6754687499999 324.86328125 736.0234375 C333.2265381018582 739.9274845957282 342.911724468987 739.008337347225 351.396484375 736.042724609375 C362.0549986726455 732.0259887778459 370.7302128699199 726.680846122267 376.3984375 716.484375 C381.01099059886803 705.0347751091929 380.97586360055686 690.0810019142073 376.8125 678.5 C374.826437260225 674.1586346871397 372.7728729846631 671.0182983877304 369 668 C368.21624999999995 667.154375 367.4325 666.30875 366.625 665.4375 C363.0929025845925 662.1576952571215 359.3089991593241 660.1544995796621 355 658 C352.0542197899273 658.1447775629825 349.1272858532975 658.3388421554334 346.1875 658.5625 C338.1248618392458 659.0998053964366 330.9293929796486 658.7225431787028 323 657 Z M185 679 C184.2471875 679.4021875 183.494375 679.804375 182.71875 680.21875 C174.2456053365513 685.2097804181958 167.92624272799128 693.7711866497743 164.625 703.01171875 C162.09677294039795 715.0998043787222 163.06768291068988 728.1840031677299 169.73046875 738.7421875 C176.9770543611504 748.4910871046214 186.04036009064146 753.8457791467615 198 756 C204.00001068990855 756.4176747749957 209.9958835576191 756.2425905633286 216 756 C216.17015625 754.888828125 216.34031249999998 753.7776562500001 216.515625 752.6328125 C219.05243668190826 736.7527286686745 222.52989726452859 726.3230508473248 235.9375 716.5 C237.61828353765884 715.3236777394582 239.30348002289247 714.1535108705107 241 713 C239.56094636354294 709.7107345452409 237.74935279025988 707.5574772737543 235.25 705 C227.67400073761462 696.5990280411662 224.2143612817681 686.9552610782212 222 676 C220.816640625 676.0116015625 219.63328124999998 676.023203125 218.4140625 676.03515625 C216.81771449593293 676.0452928655407 215.2213593074398 676.0543352823855 213.625 676.0625 C212.79879150390627 676.067978515625 211.97258300781255 676.07345703125 211.121337890625 676.0791015625 C206.81229445241945 676.0841824823445 202.70410524874978 675.9215324636347 198.4375 675.25 C193.14009282334143 674.6241077137167 189.52675176303978 676.3859602495122 185 679 Z M-361.4375 703.3125 C-369.8774331415658 709.7753890292443 -377.2318514803743 719.2142940302831 -379 730 C-379.61049988943944 739.6278835023073 -379.9218097026944 748.3944755819349 -375 757 C-374.56429687499997 757.7773046875 -374.12859375 758.554609375 -373.6796875 759.35546875 C-367.59721391747837 769.276880577228 -358.32940058552754 776.2819856561849 -347.07763671875 779.56005859375 C-334.50227104388176 782.2229033582755 -321.1605797504337 780.0278863058148 -310.22265625 773.48828125 C-300.45037615412946 766.9448037165612 -294.17144983786886 758.490530394992 -290.5625 747.1875 C-287.9970645858698 733.7617213327185 -289.9758176189403 720.8548160275833 -297.26171875 709.3203125 C-300.04282343551733 705.6080064703431 -303.3755000047261 702.8545661285424 -307 700 C-308.0626698704382 699.0418550348509 -309.12518644036675 698.083539998538 -310.1875 697.125 C-322.02671996898005 688.1798115789928 -350.0568101014819 695.8481063312661 -361.4375 703.3125 Z M239.484375 726.27734375 C230.41001680984118 736.0277716728693 226.37513200198157 746.1393873764839 225.86328125 759.59375 C226.34002335070238 771.9073174009994 230.68688090923388 783.2081183390293 239.80859375 791.6796875 C250.45696970076676 800.2926595969984 262.70701362480656 801.9258796480234 276 801 C288.4309783332859 798.580841262221 297.58913530957796 791.0432306551195 305 781 C309.61365154615476 772.6927603663166 310.1819056421681 765.5580493684517 310.1875 756.1875 C310.19974609375004 755.11951171875 310.21199218749996 754.0515234375 310.224609375 752.951171875 C310.24213972055406 743.5023156213541 308.6657689555748 737.2229727109144 303 729.6875 C302.3232421875 728.758408203125 302.3232421875 728.758408203125 301.6328125 727.810546875 C299.86323706832616 725.3996312351012 298.11736791791725 723.1173679179172 296 721 C294.0789698768625 721.1924422515699 294.0789698768625 721.1924422515699 291.953125 721.8515625 C287.1586256960079 723.041564125811 282.6783653867369 723.3831527963387 277.75 723.375 C276.519267578125 723.37693359375 276.519267578125 723.37693359375 275.263671875 723.37890625 C268.8331326448738 723.2682949418978 263.5176129301906 722.1199388194522 257.46875 719.875 C250.7417113828135 717.490733148339 244.39237265701672 721.8342340698125 239.484375 726.27734375 Z M-253.0625 725 C-261.2236103438561 726.7479301188953 -269.701771466926 726.1533553527673 -278 726 C-279.54901661745555 730.845323979401 -280.23110836746105 735.0002441641907 -280.375 740.125 C-281.1935355599486 753.7314763571782 -285.19804490345837 765.0211869549283 -295.5546875 774.28515625 C-297.1435941000019 775.6092450833349 -298.75981555332885 776.9017575061752 -300.41015625 778.1484375 C-302.27759886439947 779.9099418851839 -302.27759886439947 779.9099418851839 -301.96484375 782.50390625 C-299.8050246567301 788.0914544305646 -294.1323741927973 791.6707043953137 -288.9375 794.3125 C-276.69125956863553 799.1898819649055 -264.0430544801394 798.659050899865 -251.8125 794.3125 C-243.4392733464153 790.6836537777401 -235.0035456886843 784.223255650418 -230.96875 775.86328125 C-227.03297096966435 764.8394557252171 -227.9440947678121 751.8564079899165 -232 741 C-235.01109085910196 734.6493356426214 -239.11325113209188 728.0588999043567 -245 724 C-248.23075014850122 724 -250.06666187911026 724.2170586399127 -253.0625 725 Z M-429.9609375 735.26171875 C-437.3032047654017 741.5209312655244 -442.19963038868246 750.4276776290386 -443.222412109375 760.104248046875 C-443.67926045971797 768.9592462869637 -444.006713204112 777.3407235089413 -439 785 C-438.672578125 785.595546875 -438.34515625 786.19109375 -438.0078125 786.8046875 C-432.36994290020164 796.0639623901798 -422.07616389574343 801.1094311028419 -412 804 C-411.3503125 804.1920703124999 -410.700625 804.384140625 -410.03125 804.58203125 C-399.80765547561185 806.6857324309799 -388.98965471021546 804.7550265244491 -380.1875 799.25 C-373.2720077359006 794.2272989995986 -369.56639660594 789.1269225854766 -367 781 C-370.1353459738165 777.1592011820748 -373.06679910317314 773.8929753035268 -377 770.875 C-386.4135243702717 762.8474056039365 -389.660437907852 748.1653517120865 -390.6875 736.3125 C-390.80221315467236 734.5423185739778 -390.91033650978676 732.7716268928338 -391 731 C-391.6329296875 731.162421875 -392.265859375 731.32484375 -392.91796875 731.4921875 C-397.06641693519725 732.1757087472441 -401.1157728956224 732.1445956129387 -405.3125 732.125 C-406.537431640625 732.13080078125 -406.537431640625 732.13080078125 -407.787109375 732.13671875 C-411.7131958736626 732.1304620384484 -415.43640922608523 731.9748000718049 -419.3125 731.33203125 C-424.3417572331429 730.8791849948971 -426.0771562834666 732.3588925830034 -429.9609375 735.26171875 Z M353.5556640625 745.42333984375 C341.983990905097 748.5736731768282 332.80761636878765 748.2722560709694 321 746 C321.04640625 747.11375 321.09281250000004 748.2275 321.140625 749.375 C321.58459351397175 764.727498994597 318.70669830400584 777.298400626041 312.07421875 791.109375 C310.85395068330695 793.838536067616 310.85395068330695 793.838536067616 311.06640625 796.25390625 C312.3649993516191 798.6826556911035 313.72106410080676 799.1616899084398 316.25 800.1875 C317.01828125 800.5110546875 317.78656249999995 800.834609375 318.578125 801.16796875 C327.8674109223898 804.3592879459178 338.29935331370234 804.2126045205165 347.37109375 800.44921875 C356.21507450106094 795.5738593760867 364.76564261439944 786.7030721568019 368 777 C368.94274475770226 765.7414520282091 367.06802583952276 754.1360516790455 362 744 C358.96031444716846 744 356.4707228874232 744.6252874155714 353.5556640625 745.42333984375 Z " fill="#000000" transform="translate(547,100)"/>
</svg>
