<?xml version="1.0" encoding="UTF-8"?>
<!-- Generator: visioncortex VTracer 0.6.4 -->
<svg version="1.1" xmlns="http://www.w3.org/2000/svg" width="1024" height="1024">
<path d="M0 0 C2.203802639818832 2.0950312648921283 4.112719963802988 4.355701027925477 6.07421875 6.6796875 C10.542091425672652 11.885389021051026 15.553384598420962 16.595951136960537 20.440673828125 21.40234375 C24.630016211036377 25.546776019656562 28.60363521363081 29.78190597796379 32.4453125 34.24951171875 C34.46041064744804 36.51839578238105 36.644082409483644 38.51567862384607 38.9375 40.5 C42.10456097750534 43.28854688185791 45.167414908569526 46.11511969084282 48.125 49.125 C51.253628109659076 52.297428903194316 54.501001628574386 55.25634350526565 57.87890625 58.16015625 C60.2249105845483 60.19508818659722 62.51736450381236 62.28290966619238 64.8125 64.375 C69.10122487506123 68.24594954476606 73.52108705228648 71.913718944707 78.01171875 75.546875 C81.40750966361793 78.33453080882617 84.73655442777442 81.19229232146256 88.0625 84.0625 C98.68263601303954 93.19946434821878 109.75654376359614 101.65094748878931 121 110 C121.76054687500005 110.565576171875 122.52109374999998 111.13115234374999 123.3046875 111.7138671875 C167.53468355409177 144.57410927253738 213.70130618730718 174.29177450753468 263 199 C264.0604150390625 199.5322216796875 265.120830078125 200.064443359375 266.21337890625 200.61279296875 C307.3170605276706 221.10937815811252 350.92313238673455 238.01090031059312 395.3828125 249.4921875 C410.4848587049743 253.45960916059187 410.4848587049743 253.45960916059187 414 258 C415.3136834057216 260.6273668114432 415.1560829787853 262.6213196912157 415.19287109375 265.563720703125 C415.20893402099614 266.72865554809573 415.22499694824216 267.8935903930664 415.2415466308594 269.0938262939453 C415.2859045619724 274.4238031352562 415.32750091547837 279.7536317653817 415.35009765625 285.083740234375 C415.3634332381771 287.89787327908454 415.3912771935709 290.7112805150391 415.43212890625 293.525146484375 C415.49093017569146 297.57548268417446 415.50875754317565 301.6250404870871 415.5234375 305.67578125 C415.54610687255854 306.93425369262695 415.5687762451172 308.1927261352539 415.5921325683594 309.4893341064453 C415.56855579954174 319.20442078675615 415.56855579954174 319.20442078675615 412.71728515625 322.332763671875 C410 324 410 324 406 324 C406.01381041328864 347.5917920823609 406.0560589425967 371.1833852555438 406.1320905685425 394.77506256103516 C406.1667322200783 405.7292960927916 406.1920950211238 416.68340389159926 406.195556640625 427.6376953125 C406.19859766827926 437.1863317665968 406.21910693754114 446.7347442476314 406.2605245709419 456.2832942008972 C406.28184352648077 461.33845432641283 406.2944607805947 466.3932961192279 406.28615379333496 471.44850158691406 C406.27860677089654 476.2092805801094 406.2944630658486 480.96941492337953 406.3280601501465 485.73007583618164 C406.3362855398051 487.4747083088198 406.3360526405962 489.21940497970456 406.3265972137451 490.9640312194824 C405.96224469765116 502.44865474416235 405.96224469765116 502.44865474416235 410.8012590408325 512.5213851928711 C414.26071592123947 516.788532426704 414.53199879478154 522.7686785179814 414 528 C412.6011916512915 532.2030231987137 410.8567506103236 536.2514110798119 408.90834045410156 540.22802734375 C407.7749727738717 543.6867131315389 408.01667064466324 546.163660653829 408.396240234375 549.78125 C408.46287998199466 550.4499691104888 408.5295197296142 551.1186882209778 408.5981788635254 551.807671546936 C408.823442430898 554.039797007631 409.0661503264472 556.2696804349047 409.30859375 558.5 C409.47284692202754 560.09789626431 409.63588816239246 561.6959175054325 409.7978057861328 563.2940521240234 C410.1478793017279 566.7287451318646 410.50522415764476 570.1625725624054 410.8682861328125 573.5959167480469 C411.7401033878708 581.846753612282 412.5737034978066 590.1014985655155 413.4111747741699 598.355878829956 C413.7013199562979 601.2120906890879 413.9929004872092 604.0681536926335 414.2845764160156 606.9242095947266 C416.17005085498874 625.4361532974232 417.8723470820763 643.9633030563509 419.531494140625 662.4967193603516 C420.1032774271747 668.8837223445145 420.67720005049136 675.2705339963775 421.25112533569336 681.6573448181152 C421.3875461395213 683.1758018527896 421.5238719112158 684.6942674285442 421.660099029541 686.2127418518066 C422.51664618210066 695.7556491344327 423.3982886376971 705.2955509891018 424.32421875 714.83203125 C424.4712171936035 716.3487467193604 424.4712171936035 716.3487467193604 424.6211853027344 717.8961029052734 C425.05229776657256 722.3310872798826 425.4888442259588 726.7654357035267 425.9345703125 731.198974609375 C427.9736730625565 751.7264450982597 427.9736730625565 751.7264450982597 425 756 C419.39112667541167 760.1612509516001 412.8298399095214 759.4499604962446 406.15625 759.43359375 C404.9137951660156 759.4388356018067 403.67134033203126 759.4440774536133 402.3912353515625 759.4494781494141 C399.09891187906203 759.4575293251221 395.807007034564 759.4504493139168 392.51470947265625 759.4391479492188 C390.5016175423349 759.4375013230829 388.48908923362956 759.4494917304213 386.47607421875 759.466552734375 C382.59836463655904 759.4972375912087 378.7215615754468 759.5006356539382 374.84375 759.49609375 C373.6467346191406 759.5073277282714 372.4497192382812 759.518561706543 371.2164306640625 759.5301361083984 C360.64844489514394 759.4417278860348 360.64844489514394 759.4417278860348 356 755 C354.625 752.75 354.625 752.75 354 751 C353.09233886718755 750.990654296875 352.184677734375 750.98130859375 351.24951171875 750.9716796875 C347.8607318571853 750.9274951616302 344.4731877414358 750.8658088935563 341.0849609375 750.79248046875 C339.62251294849204 750.7643688967121 338.15991579531396 750.7431056904032 336.697265625 750.72900390625 C334.58646830667885 750.7074358137603 332.47744571149315 750.660723438572 330.3671875 750.609375 C329.0998779296875 750.588427734375 327.83256835937505 750.56748046875 326.52685546875 750.5458984375 C321.7592446305332 749.8079517509257 318.59246697913454 748.0144872137706 315.5849609375 744.2099609375 C314.71907847380237 740.9386887916772 315.174501108555 737.9368896282606 315.640625 734.640625 C315.7370025634766 733.9003204345703 315.8333801269531 733.1600158691406 315.93267822265625 732.3972778320313 C317.27073453473747 722.4732536034296 319.00869321936216 712.6095613660442 320.75 702.75 C320.92740722656254 701.7401000976563 321.10481445312496 700.7302001953125 321.28759765625 699.689697265625 C328.996577847667 655.8798739625634 339.672436881555 613.2244197519282 354.8125 571.375 C355.17279296874995 570.373720703125 355.5330859375 569.37244140625 355.904296875 568.3408203125 C357.5405215073107 563.8389342400519 359.23757127724207 559.3853880581564 361.1015625 554.97265625 C364.4357669427757 547.8566165167291 364.4357669427757 547.8566165167291 364.09765625 540.3984375 C362.5402216332649 538.3650143084681 360.8820848919853 536.7288919356608 359 535 C355.4892776227241 527.6593986656959 356.3976871509909 519.481649440901 359 512 C358.41734375 511.55011718749995 357.8346875 511.100234375 357.234375 510.63671875 C351.6885521438337 506.2855149681966 346.4219888494756 501.7312612697789 341.263916015625 496.93505859375 C338.62765402644027 494.48468961239394 335.9665700051132 492.09931321048543 333.1875 489.8125 C330.08912160196905 487.19194381274974 327.49069751633294 484.26959929701434 324.8671875 481.1796875 C322.8801013958383 478.8600346838448 320.819527065863 476.62128382593664 318.75 474.375 C313.1633475974709 468.1728689429549 308.0658005795659 461.62803493859667 303 455 C302.54866699218746 454.4162158203126 302.09733398437504 453.8324316406249 301.63232421875 453.23095703125 C290.75396436145786 439.1145700596792 281.99523615347584 423.78970610955434 273.4375 408.1875 C272.9367797851562 407.2747631835937 272.4360595703125 406.3620263671876 271.920166015625 405.421630859375 C271.4502221679687 404.55417236328117 270.98027832031255 403.68671386718756 270.49609375 402.79296875 C270.0854467773438 402.0352416992188 269.6747998046875 401.27751464843755 269.251708984375 400.496826171875 C267.6910523820319 397.3837317556154 266.3483219252047 394.21074516212684 265 391 C262.91750682323004 405.5789064924012 261.83160793242473 420.24442473271756 260.66143798828125 434.918701171875 C260.39535154201894 438.24613984732775 260.1251765979016 441.573243508891 259.85546875 444.900390625 C259.43413901490067 450.1037405428809 259.0164929198904 455.3073665562663 258.6015625 460.51123046875 C258.21052980405693 465.4069693130423 257.80934634264145 470.30169121960125 257.3984375 475.19580078125 C257.25782897949216 476.8910262298584 257.25782897949216 476.8910262298584 257.1143798828125 478.62049865722656 C256.9404856648109 480.7142003371273 256.76387572248086 482.8076792091259 256.5838623046875 484.90086364746094 C255.26875340620234 494.81654909066447 255.26875340620234 494.81654909066447 257.09375 504.2421875 C257.55781249999995 504.781015625 258.021875 505.31984375 258.5 505.875 C261.87418298361365 510.70075458055294 261.9271719964545 515.2879582361285 261 521 C259.8356851865434 524.253844076892 258.4860206778668 527.5139793221332 256 530 C256.21143095076764 537.6516472493245 257.7787305521516 545.3292459940934 259.00390625 552.8671875 C259.3092468614459 554.7762269476385 259.614570476686 556.6852691934384 259.9192352294922 558.5944166183472 C260.2431239996165 560.6234195860492 260.5679518127138 562.6522709448394 260.8927917480469 564.6811218261719 C264.71059309462055 588.5611599995297 268.2720467247542 612.462026474998 271.4375 636.4375 C271.59840118408204 637.6533074951171 271.7593023681641 638.8691149902344 271.9250793457031 640.1217651367188 C272.8277514515381 646.9654145102822 273.71085040319986 653.8112812552703 274.57537841796875 660.6598510742188 C275.01619097870787 664.1273611197054 275.46935947549616 667.5931456696918 275.92236328125 671.05908203125 C276.2105543105811 673.3218646104337 276.4981741197116 675.584720031955 276.78515625 677.84765625 C276.99186195373534 679.4018350982666 276.99186195373534 679.4018350982666 277.20274353027344 680.9874114990234 C278.36959438750455 690.3723681379396 278.36959438750455 690.3723681379396 277 695 C273.0209340586583 698.8743536797274 269.7970276896931 700.1162315662549 264.33251953125 700.1611328125 C263.3878884887695 700.1707403564453 262.44325744628907 700.1803479003906 261.4700012207031 700.1902465820313 C260.4512289428711 700.194496459961 259.432456665039 700.1987463378906 258.3828125 700.203125 C257.3335055541992 700.2088250732422 256.28419860839847 700.2145251464843 255.20309448242188 700.2203979492188 C252.98224902721142 700.2298468629691 250.76138955767567 700.2363814985265 248.54052734375 700.240234375 C245.1452588753359 700.2499420761249 241.75059518445437 700.2809678433022 238.35546875 700.3125 C236.19792026184302 700.3190299528111 234.0403674444916 700.3242804542438 231.8828125 700.328125 C230.86808868408207 700.3404718017578 229.85336486816402 700.3528186035156 228.80789184570313 700.3655395507813 C219.91538871581702 700.3374753100323 219.91538871581702 700.3374753100323 216 697 C215.66999999999996 696.34 215.34000000000003 695.68 215 695 C214.2135107421875 694.9854174804688 213.42702148437502 694.9708349609375 212.61669921875 694.955810546875 C209.03565041917034 694.881106373922 205.45551089356934 694.7845179332102 201.875 694.6875 C200.01874999999995 694.6536621093751 200.01874999999995 694.6536621093751 198.125 694.619140625 C196.92617187500002 694.58369140625 195.72734375000005 694.5482421875 194.4921875 694.51171875 C193.3924560546875 694.4855346679688 192.292724609375 694.4593505859375 191.15966796875 694.432373046875 C187.54151051427414 693.9372597064425 185.11114344867894 692.8941159746357 182 691 C176.1985234855398 682.2977852283096 182.98863321232204 663.1805014803452 184.875 653.4375 C185.07085693359375 652.4184356689453 185.2667138671875 651.3993713378907 185.468505859375 650.3494262695313 C192.08332748848284 616.1265609326773 200.57506088787954 582.3494865250564 211.92578125 549.37890625 C212.36023559570322 548.1097436523437 212.36023559570322 548.1097436523437 212.803466796875 546.81494140625 C213.3282858970888 545.2961632790933 213.86386950413475 543.7810342274105 214.413330078125 542.27099609375 C216.0906582661769 537.6228910709701 216.0906582661769 537.6228910709701 215 533 C213.35366057487056 530.9832342042165 211.68732277207425 528.9826042571873 210 527 C209 523.9999999999999 209 523.9999999999999 209.46484375 521.46875 C210.0415457547639 517.8464894742101 210.05707490056795 515.5363188440689 209 512 C205.20024688255967 507.8680280307616 199.94765074633312 505.21176681899396 195.17626953125 502.3544921875 C191.8818416451163 500.30406747219035 188.8455142770606 497.9775900120376 185.8125 495.5625 C185.2463598632812 495.1141479492187 184.68021972656254 494.6657958984375 184.096923828125 494.203857421875 C173.3357055849765 485.5520781532741 163.11862603904922 475.9401178401422 154.125 465.4609375 C152.47630038344607 463.55159787053503 150.809375906078 461.66653072173585 149.125 459.7890625 C140.7028669706384 450.33498892617285 133.21578569303392 440.3972696673427 126 430 C125.55559570312505 429.36626464843744 125.11119140624999 428.732529296875 124.6533203125 428.07958984375 C114.07128608004155 412.9385777578764 105.00104408044638 396.7447068667582 97.00927734375 380.10107421875 C95.87577123520668 377.74138540159385 94.72833007719396 375.38865525884324 93.58203125 373.03515625 C92.76205051134548 371.3364055292656 91.9430246664067 369.63719352181806 91.125 367.9375 C90.55229370117183 366.75873291015625 90.55229370117183 366.75873291015625 89.968017578125 365.55615234375 C89.60989990234373 364.8041455078125 89.25178222656245 364.052138671875 88.8828125 363.27734375 C88.40932373046871 362.29109008789067 88.40932373046871 362.29109008789067 87.92626953125 361.284912109375 C86.70714309081143 358.27758360224163 85.89148144786861 355.12018506754 85 352 C25.930000000000064 352 -33.139999999999986 352 -94 352 C-94.99000000000001 354.97 -95.98000000000002 357.94 -97 361 C-109.67956213175842 393.5787699184341 -129.32683377153234 426.0710153753437 -152.496337890625 452.241455078125 C-154.42450105615745 454.49645739689913 -156.2573281345256 456.8227220481805 -158.109375 459.140625 C-162.75424928640035 464.8370961234916 -167.7544762196634 470.0607175750213 -172.968505859375 475.229248046875 C-174.46781932799257 476.7175976144424 -175.95583344321676 478.2166750551769 -177.443359375 479.716796875 C-178.39779499095005 480.66991466476304 -179.35284878047457 481.6224139278943 -180.30859375 482.57421875 C-181.16251708984373 483.4258862304687 -182.01644042968752 484.2775537109376 -182.896240234375 485.155029296875 C-185 487 -185 487 -187 487 C-187 487.6600000000001 -187 488.31999999999994 -187 489 C-189.00369776548848 490.75399682814793 -191.01270499078078 492.3853036047575 -193.125 494 C-193.75011474609374 494.48331787109373 -194.3752294921875 494.96663574218746 -195.019287109375 495.464599609375 C-199.48591586040578 498.8951000062109 -204.00119713034644 502.25902210785387 -208.5625 505.5625 C-209.1330712890625 505.97951171875 -209.70364257812503 506.39652343750004 -210.29150390625 506.826171875 C-213.40939124451666 509.05178426325074 -216.3747450609274 510.7510760451985 -220 512 C-219.88140625 512.70125 -219.7628125 513.4025 -219.640625 514.125 C-218.72511488188564 520.8631544693218 -218.9377207096365 525.4077713665126 -223 531 C-223.7972448730469 531.6562133789062 -223.7972448730469 531.6562133789062 -224.610595703125 532.32568359375 C-226.22064234477506 533.9019753027036 -226.22064234477506 533.9019753027036 -225.993896484375 536.06298828125 C-224.67174422095763 541.6845838308914 -223.05236299094486 547.1285360923263 -221.18359375 552.593017578125 C-207.8165644634795 591.7247629393391 -199.8983035108759 632.695525376803 -193.25 673.43359375 C-193.12222167968753 674.1968043518067 -192.994443359375 674.9600149536133 -192.86279296875 675.7463531494141 C-192.15542010345928 680.1984930464239 -191.72189867626184 684.476951557417 -192 689 C-194.2186302935404 691.9071707294667 -195.51944928577046 692.8398164285901 -199 694 C-201.06498892382587 694.0831575170675 -203.13257889531025 694.1073587845291 -205.19921875 694.09765625 C-206.40771484375 694.09443359375 -207.6162109375 694.0912109375 -208.861328125 694.087890625 C-210.12396484375 694.07951171875 -211.3866015625 694.0711328125 -212.6875 694.0625 C-214.59885742187498 694.0557324218751 -214.59885742187498 694.0557324218751 -216.548828125 694.048828125 C-219.69926563719537 694.0370287335686 -222.84960948571154 694.0205659720226 -226 694 C-226.34031249999998 694.9281249999999 -226.34031249999998 694.9281249999999 -226.6875 695.875 C-228.5047751527045 698.8172550091406 -229.6339401803865 699.1434567780232 -233 700 C-236.4480625656936 700.290153662535 -239.88100661506456 700.3040596656002 -243.33984375 700.30078125 C-244.33955703735353 700.3050663757324 -245.33927032470706 700.3093515014648 -246.36927795410156 700.3137664794922 C-248.47982018968162 700.3194996627391 -250.5903821816786 700.3200175075154 -252.700927734375 700.315673828125 C-255.92270749233825 700.3125145057403 -259.1435680897928 700.3359839237187 -262.365234375 700.361328125 C-264.4192696786182 700.36360134032 -266.4733074433699 700.3643045110282 -268.52734375 700.36328125 C-269.4868846130371 700.3724909973145 -270.4464254760742 700.3817007446289 -271.43504333496094 700.3911895751953 C-277.69545368390425 700.3480710647102 -282.1058402454734 699.6635255489912 -286.88720703125 695.26318359375 C-288.510987742716 691.9607599001804 -288.1179313809338 689.4353671809716 -287.8046875 685.7890625 C-287.74675018310546 685.0814981079102 -287.6888128662109 684.3739337158203 -287.6291198730469 683.6449279785156 C-287.43982743671666 681.4275154164972 -287.22394549102216 679.2141607914009 -287 677 C-286.8090576171875 675.0562548828125 -286.8090576171875 675.0562548828125 -286.6142578125 673.0732421875 C-286.1617649809201 668.8341543317435 -285.6559722647897 664.6048383650195 -285.125 660.375 C-285.0251782226562 659.5710580444336 -284.9253564453125 658.7671160888672 -284.822509765625 657.9388122558594 C-282.44728832431537 639.0051044776515 -279.4682958076943 620.160250219992 -276.5 601.3125 C-276.3242733383179 600.1951811599731 -276.3242733383179 600.1951811599731 -276.1449966430664 599.055290222168 C-275.3414911911518 593.9487820925399 -274.5327579984026 588.8431257257662 -273.71875 583.73828125 C-273.606549949646 583.0341988372803 -273.494349899292 582.3301164245605 -273.3787498474121 581.6046981811523 C-272.1565972232697 573.9545146484656 -270.8942085556538 566.3135701276215 -269.54296875 558.68505859375 C-269.42547523498536 558.0187036037445 -269.3079817199707 557.352348613739 -269.18692779541016 556.6658010482788 C-268.6334789179376 553.531245562106 -268.0723892307765 550.3984349439484 -267.4979248046875 547.2676544189453 C-265.2197304443106 536.6839308600061 -265.2197304443106 536.6839308600061 -267.9375 526.6875 C-268.61812499999996 525.800625 -269.29875000000004 524.91375 -270 524 C-272.297681537912 517.1069553862641 -271.0036353721322 512.1187076055666 -267.97265625 505.78515625 C-267 504 -267 504 -266 503 C-265.2619807933786 492.3067700094564 -266.6360700136436 481.5458417770834 -267.6796875 470.91796875 C-267.8547294625695 469.0916232695753 -268.02929070051584 467.2652316587489 -268.2033996582031 465.4387969970703 C-268.56787268291566 461.628664714891 -268.93635524065985 457.818950510838 -269.30810546875 454.009521484375 C-269.7800499780483 449.172648478003 -270.2446456983916 444.33510729113584 -270.7065258026123 439.49726390838623 C-271.06659387021386 435.72968839259784 -271.42925426951535 431.962366092916 -271.7927894592285 428.19512367248535 C-271.9646510990466 426.41372414332466 -272.1360605845033 424.6322809223559 -272.3069725036621 422.8507900238037 C-273.36293883249414 411.8747112720383 -274.5664141633311 400.93371441771615 -276 390 C-276.3002709960938 390.650216217041 -276.60054199218746 391.30043243408204 -276.909912109375 391.97035217285156 C-286.33352306103905 412.34093472521954 -296.71731225776944 431.86736883291064 -310 450 C-310.5170751953125 450.70640625 -311.034150390625 451.4128125 -311.56689453125 452.140625 C-317.7948148384655 460.5867856330498 -324.2445025299711 468.66467199991143 -331.44921875 476.296875 C-333.883937470747 478.8770057117258 -336.22553056904025 481.5190165166624 -338.5625 484.1875 C-346.6187688922151 493.12625771079695 -355.9487250617573 500.44936897130174 -365.43603515625 507.78369140625 C-367.64240629824604 509.4996047733159 -369.8226456796741 511.2474953031523 -372 513 C-371.505 514.485 -371.505 514.485 -371 516 C-370.2191657795492 523.9533542740202 -370.70656180226194 529.9486927314568 -374.80859375 536.87890625 C-376.00832430041214 539.0148199840124 -376.59229223734167 540.5944227021176 -377 543 C-376.14593555234717 545.8059459413083 -375.21432867155755 548.4395999111198 -374.1328125 551.15625 C-373.82283828735353 551.9621003723145 -373.512864074707 552.7679507446289 -373.19349670410156 553.5982208251953 C-372.5264715324246 555.3315947622733 -371.85498930159855 557.0632587901546 -371.1795349121094 558.7933654785156 C-369.4021818158029 563.3552298531218 -367.6674128684698 567.9331652105816 -365.93359375 572.51171875 C-365.588653717041 573.4216508483887 -365.243713684082 574.3315829467773 -364.88832092285156 575.2690887451172 C-360.4497768877043 587.0324249727257 -356.59423781818003 598.9523203102094 -353 611 C-352.7967510986328 611.6810479736328 -352.5935021972656 612.3620959472656 -352.38409423828125 613.0637817382813 C-350.81665813215704 618.3276570641257 -349.277155790041 623.5993123143479 -347.75 628.875 C-347.4451417541504 629.9207872009277 -347.4451417541504 629.9207872009277 -347.1341247558594 630.9877014160156 C-340.706011936567 653.1268656763087 -336.4645733450564 675.6437481119381 -332.495849609375 698.327880859375 C-331.8167504909431 702.2089039609617 -331.12715408094675 706.08798119068 -330.4347562789917 709.9666509628296 C-329.8959940673865 712.9917182224322 -329.3629033623614 716.0177640068172 -328.8314914703369 719.0441303253174 C-328.57931926499475 720.4760755370646 -328.32536891239374 721.9077088997562 -328.06952476501465 723.3390026092529 C-327.7146236067863 725.3290616502871 -327.36825313340603 727.3206362489288 -327.022216796875 729.312255859375 C-326.8241191101074 730.438367767334 -326.62602142333986 731.564479675293 -326.4219207763672 732.7247161865234 C-325.25292981551917 741.7993514892272 -325.25292981551917 741.7993514892272 -327.75 745.8125 C-331.5247232963558 749.482369871457 -334.17959549473443 750.2278065235281 -339.48455810546875 750.2265930175781 C-340.18574768066406 750.2162704467773 -340.8869372558594 750.2059478759766 -341.609375 750.1953125 C-342.3361846923828 750.1924826049805 -343.0629943847656 750.1896527099609 -343.81182861328125 750.1867370605469 C-346.1247225050311 750.1755752255268 -348.4372238808762 750.1504785147191 -350.75 750.125 C-352.3216089759045 750.1149650096286 -353.89322404429566 750.1058400643392 -355.46484375 750.09765625 C-359.3100462156392 750.0756490447441 -363.1549566387438 750.0411471548373 -367 750 C-367.3003515625 750.78890625 -367.600703125 751.5778125 -367.91015625 752.390625 C-368.9960861776142 754.9906292711336 -369.82530888344337 756.2602471067547 -372 758 C-375.0654636080253 759.0218212026751 -377.1903968526591 759.1385985931809 -380.40185546875 759.1611328125 C-381.5066525268555 759.1707403564453 -382.61144958496095 759.1803479003906 -383.7497253417969 759.1902465820313 C-384.94348785400393 759.194496459961 -386.13725036621094 759.1987463378906 -387.3671875 759.203125 C-388.5940628051758 759.2088250732422 -389.82093811035156 759.2145251464843 -391.0849914550781 759.2203979492188 C-393.68246598877687 759.2298504408674 -396.2799525286863 759.2363829149073 -398.87744140625 759.240234375 C-402.8521004941688 759.2499440588596 -406.8262434730422 759.2809677801258 -410.80078125 759.3125 C-413.3229135920711 759.3190296109744 -415.84504963608214 759.3242802461363 -418.3671875 759.328125 C-419.556901550293 759.3404718017578 -420.7466156005859 759.3528186035156 -421.9723815917969 759.3655395507813 C-423.6390336608887 759.3610379028321 -423.6390336608887 759.3610379028321 -425.33935546875 759.3564453125 C-426.31403778076174 759.3600909423828 -427.2887200927735 759.3637365722657 -428.2929382324219 759.3674926757813 C-432.5189242948184 758.7938009541942 -435.1490285129844 757.0400382738053 -437.822998046875 753.77197265625 C-439.36855655172474 750.1320076564441 -439.1532772662789 747.587277334315 -438.83203125 743.6484375 C-438.7755390930176 742.9134603881836 -438.71904693603517 742.1784832763672 -438.6608428955078 741.4212341308594 C-438.46216422884174 738.9451119308508 -438.2342552946948 736.473000534196 -438 734 C-437.91941345214843 733.1260559082032 -437.83882690429687 732.2521118164062 -437.75579833984375 731.3516845703125 C-437.21061828261657 725.5005824538462 -436.62109632381356 719.654533948791 -436.0165710449219 713.8092956542969 C-435.44556147197477 708.2838526542022 -434.8870887862963 702.7571412722609 -434.328125 697.23046875 C-434.15826332092286 695.5538994598389 -434.15826332092286 695.5538994598389 -433.98497009277344 693.8434600830078 C-432.9120833393513 683.2133060620054 -431.9144414150024 672.5768373037507 -430.9375 661.9375 C-428.2214506400635 632.4421925903475 -425.3183542700948 602.967155425697 -422.3125 573.5 C-422.20390655517576 572.4352142333985 -422.0953131103515 571.3704284667969 -421.9834289550781 570.2733764648438 C-421.67316028618956 567.2342711132952 -421.3621581985648 564.1952419841202 -421.05078125 561.15625 C-420.9592779541016 560.2611270141601 -420.86777465820313 559.3660040283203 -420.77349853515625 558.4437561035156 C-420.6425881958008 557.1693214416505 -420.6425881958008 557.1693214416505 -420.509033203125 555.869140625 C-420.4267295837402 555.0592820739746 -420.3444259643555 554.2494235229492 -420.25962829589844 553.4150238037109 C-420.08188094962463 551.7616444183388 -419.8878457193186 550.1099575308309 -419.67994689941406 548.4600982666016 C-419.52972328186036 547.2550388336181 -419.52972328186036 547.2550388336181 -419.37646484375 546.025634765625 C-419.2353578186035 544.9547939300537 -419.2353578186035 544.9547939300537 -419.0914001464844 543.8623199462891 C-418.9589852907709 541.1643064696651 -419.7919325361993 539.6262604901469 -421.3125 537.4375 C-425.1960457810054 531.1957007920888 -426.6523573269317 525.6547552795008 -425.62109375 518.30859375 C-424.6906344352163 514.8500940327851 -423.0269823921427 511.9798144616733 -421.15625 508.9453125 C-418.7941603768753 504.971256309743 -418.8481060995182 501.27786533799303 -418.84178161621094 496.8057403564453 C-418.83684363901614 496.06813765704624 -418.83190566182134 495.3305349576474 -418.826818048954 494.57058066129684 C-418.8114271757936 492.09238484847606 -418.80307813043333 489.61421497509605 -418.794677734375 487.135986328125 C-418.78510045933217 485.3621650279297 -418.7750904679094 483.5883460187167 -418.7646789550781 481.8145294189453 C-418.7376075130908 476.992561427905 -418.7166100669413 472.17058362693024 -418.6966769695282 467.3485815525055 C-418.67483123351303 462.31168971996 -418.6474356387853 457.27482820317164 -418.62062072753906 452.2379608154297 C-418.57067472760116 442.697015707683 -418.5257429703577 433.15605379034764 -418.4825983643532 423.61507576704025 C-418.43324228671776 412.7542496602589 -418.37831811639273 401.8934539664599 -418.32291877269745 391.03265726566315 C-418.2090694442056 368.6884665452046 -418.1022368234559 346.3442466570113 -418 324 C-418.78890624999997 323.863359375 -419.5778125 323.72671875 -420.390625 323.5859375 C-423.2893662826293 322.93502254132574 -424.2149835935695 322.32052132835963 -426 320 C-427.02037060217106 316.93888819348695 -427.13856369896587 314.820475538741 -427.1611328125 311.614013671875 C-427.1707403564453 310.51244430541993 -427.18034790039064 309.41087493896487 -427.19024658203125 308.2759246826172 C-427.19449645996093 307.08529922485354 -427.1987463378906 305.89467376708984 -427.203125 304.66796875 C-427.2088250732422 303.4434651184082 -427.2145251464844 302.2189614868164 -427.22039794921875 300.9573516845703 C-427.2298511317349 298.36407333459437 -427.23638318848435 295.7707829543501 -427.240234375 293.177490234375 C-427.2499355902762 289.2138162028842 -427.2809552209438 285.25066157469416 -427.3125 281.287109375 C-427.319030492666 278.7682322475214 -427.32428078176997 276.24935140956467 -427.328125 273.73046875 C-427.3404718017578 272.5459159851074 -427.35281860351563 271.36136322021486 -427.36553955078125 270.1409149169922 C-427.33710142308803 259.61293872805004 -427.33710142308803 259.61293872805004 -424 255 C-418.57647140606 250.45760951652397 -410.3041430550765 249.35844865462627 -403.625 247.75 C-368.8869157164719 239.00372808517932 -335.7602942331084 226.40217713319657 -303 212 C-302.0304638671875 211.5757373046875 -301.060927734375 211.151474609375 -300.06201171875 210.71435546875 C-273.8309632315662 199.16811613633126 -248.53867200525934 185.78945594028528 -224 171 C-223.03126953125002 170.42008300781254 -222.06253906250004 169.84016601562496 -221.064453125 169.24267578125 C-197.6898244890216 155.2418448484308 -175.00970849796687 140.29961311472817 -152.9072265625 124.37158203125 C-150.81414608337462 122.8663431511007 -148.71574007864825 121.36869303919167 -146.6171875 119.87109375 C-137.80317786982863 113.564922143991 -129.1567577089158 107.10733224599107 -120.68994140625 100.3427734375 C-118.9620123460328 98.96981622409425 -117.22324463952788 97.6118633565452 -115.48046875 96.2578125 C-109.10354466446682 91.29886065708502 -102.83639147381768 86.24344323036837 -96.696533203125 80.9931640625 C-93.21835090453698 78.01933687702626 -89.69026679670009 75.11972361535209 -86.125 72.25 C-82.41044912458972 69.22890362955056 -78.98009105777629 66.09752346909127 -75.65234375 62.66015625 C-73.95636405858352 60.95615774207562 -72.19510303911949 59.382859170965844 -70.375 57.8125 C-61.351590199894645 50.01082847070194 -52.74086905792615 41.814827555062635 -44.36328125 33.328125 C-42.543466989155945 31.53538235625939 -40.747875923643335 29.89393212953297 -38.75 28.3125 C-35.82787784573401 25.855260915730867 -33.51822749452282 23.204347166512377 -31.05078125 20.3046875 C-28.63855575457802 17.593805514668645 -26.084630212582 15.044327504182405 -23.5 12.5 C-19.596666030872314 8.655564074302248 -15.951916280213368 4.7428106836433415 -12.53515625 0.4609375 C-8.855575322676827 -3.0407502018291837 -4.193105269388525 -2.315469777272824 0 0 Z M-9.98046875 20.94140625 C-10.708789062499989 21.8063671875 -11.437109374999977 22.671328125000002 -12.1875 23.5625 C-14.844887354954722 26.70827205802749 -17.55439986268277 29.540606718242145 -20.67578125 32.21484375 C-25.717956399650063 36.545723633481145 -30.33800470558782 41.26736841324822 -35 46 C-40.2586208967478 51.33829697094092 -45.51821461016567 56.58277545827849 -51.20849609375 61.46240234375 C-53.799862889441215 63.686499928822684 -56.301406657109794 65.99807970214735 -58.8125 68.3125 C-59.8488731155627 69.26441570360342 -60.885333375038726 70.21623653915992 -61.921875 71.16796875 C-63.89317623390127 72.98035391830757 -65.86137677376695 74.79594069288686 -67.828125 76.61328125 C-73.1011958434056 81.45697346758544 -78.48102262447333 86.0920709479372 -84.0546875 90.5859375 C-86.7929945100459 92.83033237030287 -89.47444529667172 95.12533635610293 -92.1474609375 97.4462890625 C-97.94563345236247 102.47896362395454 -103.84211377453863 107.25632118416723 -110.03125 111.80859375 C-113.07790282075916 114.05750458216565 -116.07161634641307 116.36503352657076 -119.0625 118.6875 C-150.99400729328505 143.35896539991177 -184.36383492027716 165.86185896984614 -219.55224609375 185.6240234375 C-221.80579452142854 186.8908296352255 -224.0538255799188 188.16686319341272 -226.30078125 189.4453125 C-264.02556012173994 210.78924792183466 -303.1978859790373 229.02400666737435 -343.8125 244.125 C-344.9251321411133 244.53925735473632 -344.9251321411133 244.53925735473632 -346.06024169921875 244.96188354492188 C-353.965855299836 247.8960176476328 -361.8690857838457 250.74066314886767 -370 253 C-370 253.33000000000004 -370 253.65999999999997 -370 254 C-130.41999999999996 254 109.16000000000008 254 356 254 C353.16165494758707 252.10776996505808 350.908705965723 251.16777039954536 347.70703125 250.07421875 C346.61809570312505 249.69660400390626 345.52916015625 249.31898925781252 344.4072265625 248.929931640625 C342.6278369140625 248.31492797851564 342.6278369140625 248.31492797851564 340.8125 247.6875 C311.4348464043401 237.34942943248893 282.77583020656016 225.18213758196407 255.02978515625 211.0244140625 C252.8243906887385 209.91137158166305 250.60704782724997 208.8251185650945 248.38671875 207.7421875 C236.3022682935009 201.82613122696114 224.5952398600342 195.365518247448 212.927734375 188.6689453125 C210.03019074771987 187.0172101360418 207.11972376210406 185.39125376135615 204.203125 183.7734375 C190.80929405031839 176.32889614332652 177.8198892337041 168.3929297665859 165 160 C163.79537109374996 159.21278564453127 163.79537109374996 159.21278564453127 162.56640625 158.40966796875 C148.08043082463178 148.916051378622 133.95208887786066 138.9472344765664 120 128.6875 C119.23502197265623 128.1249853515625 118.47004394531245 127.56247070312497 117.681884765625 126.98291015625 C112.3887553497176 123.07107275260867 107.18254180625308 119.05681591576132 102 115 C100.83882838800173 114.09858886592849 99.67739350111424 113.1975167128679 98.515625 112.296875 C91.07981474552037 106.50862017645426 83.81145677767165 100.55869299676965 76.66064453125 94.42236328125 C74.94376032911373 92.95183000256054 73.22051317851981 91.48903076766061 71.49609375 90.02734375 C64.80705781968913 84.34478549399188 58.2473530739403 78.55003797001976 51.8046875 72.58984375 C49.178658054934544 70.16497254933373 46.533418722234046 67.76426417870567 43.875 65.375 C43.06160156250007 64.64281249999999 42.24820312499992 63.91062500000001 41.41015625 63.15625 C39.841429087466736 61.752785828657466 38.26620584308057 60.35653800742304 36.68359375 58.96875 C30.678937004694717 53.66645013923613 25.03065933283881 48.0663000939513 19.396728515625 42.37744140625 C15.712934019840077 38.67069637895921 11.981401264943997 35.11849204822789 7.97265625 31.76171875 C6.3033231086283195 30.27088855839881 4.744481786552797 28.745800469588062 3.18359375 27.14453125 C2.6882714843750364 26.636962890625 2.1929492187500728 26.12939453125 1.6826171875 25.6064453125 C0.7036782786117328 24.59553583179951 -0.2686314600834976 23.57815422279799 -1.2333984375 22.5537109375 C-2.433810235063561 21.313314387809044 -3.7127365403774775 20.150010812877667 -5 19 C-8.10516319851024 18.64998541864844 -8.10516319851024 18.64998541864844 -9.98046875 20.94140625 Z M-413 269 C-413.1011035312438 271.9453557026499 -413.1396927942829 274.8667755979689 -413.1328125 277.8125 C-413.1337692260742 278.69655517578127 -413.1347259521484 279.5806103515625 -413.1357116699219 280.491455078125 C-413.13639351491736 282.36442129481213 -413.1345389304747 284.23738985896705 -413.13037109375 286.1103515625 C-413.12502289242474 288.9876838754833 -413.1303159330745 291.8648600785519 -413.13671875 294.7421875 C-413.1360579692995 296.5572920134208 -413.1347768082934 298.3723964291907 -413.1328125 300.1875 C-413.13483673095703 301.05415283203126 -413.13686096191407 301.9208056640625 -413.1389465332031 302.813720703125 C-413.51260413785786 306.72003219276877 -413.51260413785786 306.72003219276877 -412 310 C-410.22315230639026 310.0978705653136 -408.4423627461516 310.1244721455861 -406.6628217101097 310.1241984963417 C-404.91139849349855 310.12756943628193 -404.91139849349855 310.12756943628193 -403.12459298968315 310.1310084760189 C-401.1720342449844 310.12706795558336 -401.1720342449844 310.12706795558336 -399.1800298690796 310.1230478286743 C-397.79235114182427 310.1237865798367 -396.4046725900049 310.1249642120901 -395.0169945657253 310.1265443265438 C-391.16870649351813 310.12963380518715 -387.32044454502915 310.12642140328217 -383.4721584049985 310.1222661929205 C-379.29881957518876 310.11884931027583 -375.12548355385786 310.12119946555214 -370.9521442055702 310.12284368276596 C-363.6262879858043 310.12492351356326 -356.30043986205396 310.1232633068008 -348.9745845794678 310.1192054748535 C-338.081182331506 310.11318825019947 -327.1877852243165 310.1128680089916 -316.29438161756843 310.1137474635616 C-297.97291441859863 310.1150636406308 -279.65145081661484 310.1117113382105 -261.329984664917 310.1057300567627 C-243.1803733291365 310.0998200206846 -225.03076349034154 310.095965525296 -206.88115119934082 310.094877243042 C-205.7541200070316 310.0948085034033 -204.62708881472236 310.09473976376466 -203.46590516204014 310.09466894110665 C-197.7426576072288 310.09433062413405 -192.0194100511053 310.0940292344369 -186.29616249352694 310.09374206513166 C-145.72193608418127 310.0916397215316 -105.14771163354709 310.0848969816936 -64.573486328125 310.075439453125 C-25.147705184363986 310.0662602013253 14.278075424115286 310.05917405213444 53.703857421875 310.054931640625 C55.525661317179924 310.0547343513696 55.525661317179924 310.0547343513696 57.38426933158189 310.0545330764726 C69.58075384561607 310.05321459577254 81.77723836380642 310.0519387758817 93.97372288559563 310.0506942172069 C118.82101853280813 310.0481577682429 143.6683141449995 310.0453365157282 168.51560974121094 310.04234313964844 C169.658134945808 310.0422058496904 170.80066015040506 310.0420685597323 171.97780733089894 310.04192710947245 C248.31853904882655 310.0327210750604 324.6592696268027 310.0167985912196 401 310 C401 296.14 401 282.28 401 268 C323.5052037562341 267.982947459405 246.0104073522374 267.9669689153261 168.51560974121094 267.95765686035156 C167.36963117641392 267.9575188032817 166.223652611617 267.95738074621187 165.04294742364436 267.95723850559443 C140.14092483412503 267.9542459675451 115.23890222451894 267.95147573294304 90.33687958493829 267.9489346705377 C78.12587219280226 267.94768727605447 65.91486480610547 267.94639073032903 53.703857421875 267.945068359375 C52.488681071353994 267.9449376003165 51.273504720833216 267.94480684125796 50.02150484453887 267.9446721198037 C10.596522786782202 267.94040673809815 -28.82845784272689 267.9328924281504 -68.25343903433532 267.923702779226 C-108.74980413652946 267.91428048932397 -149.24616844755707 267.90811695301164 -189.74253462743945 267.9060850099195 C-195.4554068200988 267.90579683260904 -201.16827901005558 267.9054711952024 -206.88115119934082 267.905122756958 C-208.00558511713052 267.90505533394867 -209.13001903492022 267.9049879109394 -210.28852670779452 267.9049184448086 C-228.42751508076987 267.90373428733056 -246.5665010155576 267.89908967491846 -264.7054883921519 267.89316796604544 C-282.91783906181024 267.8872955409479 -301.1301873015196 267.8850282891349 -319.3425388857722 267.88649862259626 C-330.17797738879665 267.88726226571686 -341.01340703446874 267.88520426562513 -351.8488439468201 267.879202456912 C-359.07271867293366 267.87547258507965 -366.29658755113627 267.8753221154708 -373.520462669665 267.8781681864057 C-377.645596027329 267.8796883870431 -381.7707125514489 267.8795709535866 -385.8958441540599 267.8751168176532 C-389.6400823807602 267.8711043545292 -393.38429045731084 267.8715965538945 -397.12852815911174 267.8758600242436 C-399.12721746405475 267.8769240558658 -401.12590747168775 267.8730251343139 -403.12459298968315 267.8689915239811 C-404.8760162062943 267.8723624639213 -404.8760162062943 267.8723624639213 -406.6628217101097 267.8758015036583 C-408.18433470943944 267.8755675327219 -408.18433470943944 267.8755675327219 -409.73658534511924 267.87532883509994 C-411.96819520990886 267.7458127575811 -411.96819520990886 267.7458127575811 -413 269 Z M-83 323 C-86.0348331489655 330.76688584923113 -86.0348331489655 330.76688584923113 -88 338 C-32.889999999999986 338 22.220000000000027 338 79 338 C78.00999999999999 335.36 77.01999999999998 332.72 76 330 C75.66999999999996 327.69 75.34000000000003 325.38 75 323 C22.860000000000014 323 -29.279999999999973 323 -83 323 Z M-405 324 C-405 383.73 -405 443.46000000000004 -405 505 C-403.68 504.66999999999996 -402.36 504.34000000000003 -401 504 C-400.6679052734375 502.8376684570312 -400.335810546875 501.67533691406254 -399.99365234375 500.477783203125 C-393.79296875002115 478.7753906250741 -393.79296875002115 478.7753906250741 -393.0034942626953 476.0129089355469 C-392.4715124397003 474.15051678426425 -391.9400145305233 472.2879863430794 -391.4089813232422 470.4253234863281 C-390.08567178441484 465.785924045495 -388.7546520235562 461.14905068338646 -387.405517578125 456.51708984375 C-384.2753088512072 445.73952386512997 -381.39734868204744 434.95037041635146 -378.9375 424 C-378.7701333618164 423.25787261962887 -378.60276672363284 422.51574523925774 -378.4303283691406 421.7511291503906 C-372.24783102655266 394.21509397004183 -368.83988877797606 367.1177955359777 -367 339 C-366.67 334.05 -366.34000000000003 329.1 -366 324 C-378.87 324 -391.74 324 -405 324 Z M-353 324 C-353.433125 330.27 -353.86625000000004 336.54 -354.3125 343 C-355.421155829664 358.40122868946304 -356.6595138211097 373.7281880355941 -359 389 C-359.140185546875 389.92232421874996 -359.28037109375 390.8446484374999 -359.4248046875 391.794921875 C-363.4016882723936 417.3769059067438 -370.02782171824737 442.23555250284153 -376.94921875 467.147216796875 C-377.2082145690918 468.08266830444336 -377.4672103881836 469.0181198120117 -377.7340545654297 469.98191833496094 C-378.22336345578606 471.74731677675595 -378.71532169400206 473.51198386738906 -379.2104034423828 475.27577209472656 C-380.3815528524754 479.5017133542881 -381.382969421859 483.64872671301 -382 488 C-378.9688590380326 485.3371285007015 -377.0821334913196 482.06541952672046 -375.0625 478.625 C-374.67408935546877 477.96854492187504 -374.28567871093753 477.31208984374996 -373.885498046875 476.6357421875 C-372.58405632121475 474.42745157945683 -371.29172665712616 472.2139856459477 -370 470 C-369.54947265625003 469.23333007812494 -369.0989453125 468.46666015625 -368.634765625 467.6767578125 C-328.6758718742449 399.8947683673931 -328.6758718742449 399.8947683673931 -312 324 C-325.53 324 -339.06 324 -353 324 Z M-297 324 C-299.4783436367669 332.2384106197557 -299.4783436367669 332.2384106197557 -301.62109375 340.52734375 C-308.5441143863837 368.92908412121415 -317.6473666301375 396.4721314983658 -330 423 C-330.7960385656929 424.75239271645387 -331.59161061364375 426.5049974263967 -332.38671875 428.2578125 C-340.5672183175129 446.0674935054112 -350.26503142071596 463.09936758294646 -360.837646484375 479.594482421875 C-361.9501199363695 481.3608888622275 -362.98420405311265 483.17628196033525 -364 485 C-363.67 485.65999999999997 -363.34000000000003 486.31999999999994 -363 487 C-350.7724429297385 476.7687787779445 -339.8049667664237 465.448396832003 -330.267578125 452.68212890625 C-329.01785297675275 451.0236916428787 -327.7416245506336 449.3901565461349 -326.453125 447.76171875 C-312.8636524572612 430.53769959604324 -301.4687566604923 411.7873265844071 -291.97216796875 392.0224609375 C-290.98127300234444 389.9610410726824 -289.9770209963857 387.9064475770956 -288.97265625 385.8515625 C-281.898473771656 371.2511135984298 -276.06280163730906 356.8942472492281 -272.83984375 340.95703125 C-271.92826465364044 336.4855513588397 -270.5532386328579 332.2898971764647 -269 328 C-268.67 326.68 -268.34000000000003 325.36 -268 324 C-277.57 324 -287.14 324 -297 324 Z M-253 324 C-253.65999999999997 328.29 -254.32 332.58 -255 337 C-253.9444676413721 338.279193616316 -253.9444676413721 338.279193616316 -251.53434658050537 338.1230478286743 C-249.87650189876558 338.1216651391983 -249.87650189876558 338.1216651391983 -248.18516540527344 338.12025451660156 C-246.92166763305664 338.1216291809082 -245.65816986083985 338.12300384521484 -244.35638427734375 338.1244201660156 C-242.94323707130866 338.1208805527976 -241.53009010115863 338.117245736423 -240.116943359375 338.113525390625 C-238.63898215656127 338.11324352633375 -237.1610208134441 338.1134012374283 -235.6830596923828 338.1139678955078 C-231.65844171669812 338.1142559009903 -227.63385328426511 338.10835870401047 -223.60924220085144 338.1013939380646 C-219.40783635356354 338.09516088489886 -215.2064298989535 338.094556640081 -211.00502014160156 338.09336853027344 C-203.04353743158418 338.0902550703823 -195.0820683826601 338.0820414865223 -187.12059170007706 338.07201904058456 C-178.05907410828695 338.0608583572918 -168.99755587878457 338.05534756708914 -159.93603312969208 338.0503236055374 C-141.29068078128824 338.0398588836962 -122.64534198694219 338.0220587452382 -104 338 C-102.68 333.38 -101.36000000000001 328.76 -100 324 C-150.49 324 -200.98000000000002 324 -253 324 Z M91 324 C92.32000000000005 328.62 93.63999999999999 333.24 95 338 C144.16999999999996 338 193.34000000000003 338 244 338 C243.82451680168742 330.32881654244835 243.82451680168742 330.32881654244835 241 324 C239.06371699801696 323.903370272071 237.12385737504178 323.87812855932026 235.18516540527344 323.87974548339844 C233.9216676330566 323.8783708190918 232.65816986083985 323.87699615478516 231.35638427734375 323.8755798339844 C229.94323707130866 323.8791194472024 228.53009010115863 323.882754263577 227.116943359375 323.886474609375 C225.63898215656127 323.88675647366625 224.1610208134441 323.88659876257174 222.6830596923828 323.8860321044922 C218.65844171669812 323.8857440990097 214.63385328426511 323.89164129598953 210.60924220085144 323.8986060619354 C206.40783635356354 323.90483911510114 202.2064298989535 323.905443359919 198.00502014160156 323.90663146972656 C190.04353743158413 323.9097449296177 182.08206838266017 323.9179585134777 174.12059170007706 323.92798095941544 C165.05907410828695 323.9391416427082 155.9975558787845 323.94465243291086 146.93603312969208 323.9496763944626 C128.2906807812882 323.9601411163038 109.64534198694219 323.9779412547618 91 324 Z M257 324 C259.3759893102598 335.80997217904553 259.3759893102598 335.80997217904553 262 342 C262.35708195776215 343.9332640369468 262.68749197297655 345.8715321759089 263 347.8125 C265.3429293104996 359.1011594051344 270.33152546215786 369.51239498774294 275 380 C275.390263671875 380.87978515625 275.78052734375 381.75957031250005 276.1826171875 382.666015625 C281.04192844573095 393.51805451849066 286.5359340156143 403.8436105728173 292.76025390625 413.97216796875 C293.9573050884661 415.9301646445057 295.12733362320444 417.9020893446432 296.29296875 419.87890625 C302.7682773882209 430.71122729398917 310.3470875247966 440.64095880481887 318.111083984375 450.576416015625 C319.3483993967153 452.1639602961345 320.5774278526842 453.7580064312576 321.797119140625 455.359130859375 C325.64343756056337 460.39149137615493 329.6980721871023 465.0991504386308 334.0625 469.6875 C334.6993774414062 470.36232421875 335.33625488281245 471.03714843750004 335.992431640625 471.732421875 C342.52749309536546 478.6220990675946 349.2390523053517 485.33280966937616 356 492 C356 488.6854055135427 355.4968122962374 487.8155249213237 353.796875 485.0703125 C353.3175048828125 484.2864819335938 352.838134765625 483.50265136718747 352.34423828125 482.695068359375 C351.5550903320312 481.4228845214843 351.5550903320312 481.4228845214843 350.75 480.125 C349.63638166719204 478.2965702558839 348.52445076612435 476.4671118823046 347.4140625 474.63671875 C346.84333007812506 473.69747558593747 346.27259765625 472.75823242187494 345.6845703125 471.79052734375 C332.1833938154522 449.42553497255335 319.48984459653184 426.3709786155516 310 402 C309.651630859375 401.12972167968746 309.30326171875004 400.2594433593749 308.9443359375 399.36279296875 C299.1624288335245 374.89078836809927 292.5010238153063 349.5040165062019 286 324 C276.42999999999995 324 266.86 324 257 324 Z M301 324 C302.29614231287303 332.75720515628836 304.1585425196216 341.26057107962976 306.4375 349.8125 C306.60718292236334 350.4495184326172 306.77686584472656 351.0865368652344 306.9516906738281 351.74285888671875 C312.97491701420154 374.17339670487814 320.8320641284861 396.10865403849743 331 417 C331.70697021484375 418.4731567382812 331.70697021484375 418.4731567382812 332.42822265625 419.97607421875 C340.1991492634613 436.1210367163259 348.77396950389584 451.646679033533 358 467 C359.18394531831404 468.981560820195 360.36754219730176 470.9633298701418 361.55078125 472.9453125 C364.35589637576527 477.6370501567611 367.17259105598305 482.3216664890781 370 487 C371.3074165923108 483.0777502230676 370.2002772541291 480.45995815892684 369.04296875 476.65234375 C368.5897081765771 475.103195981392 368.1367611159419 473.55395645809097 367.68408203125 472.004638671875 C367.44030822753905 471.18111907958985 367.1965344238281 470.3575994873047 366.94537353515625 469.5091247558594 C354.2113794572572 426.2999969889945 345.5227631808219 383.9833499358531 342.898681640625 339.00244140625 C342.81678337097173 337.6157752227783 342.81678337097173 337.6157752227783 342.7332305908203 336.2010955810547 C342.63178043700145 334.4522705831983 342.5349029240657 332.7031727940923 342.4431610107422 330.9538116455078 C342.5730833575502 327.1639177272465 342.5730833575502 327.1639177272465 341 324 C338.04294679467796 323.9113170112561 335.10934943799157 323.8847970407043 332.15234375 323.90234375 C331.2659169006348 323.9037586975098 330.3794900512695 323.90517364501954 329.46620178222656 323.90663146972656 C326.62326745685914 323.91224784550485 323.7804106891516 323.92480308700385 320.9375 323.9375 C319.0149750923048 323.9425128919286 317.0924489554177 323.947076163282 315.169921875 323.951171875 C310.44658450806037 323.96222259411564 305.72330542118345 323.979498173464 301 324 Z M355 324 C357.22886291905354 359.5353463973924 360.6963016932351 393.3513418726369 369 428 C369.425390625 429.7764892578125 369.425390625 429.7764892578125 369.859375 431.5888671875 C374.39779024211305 450.2597740107516 379.88951967900766 468.6774535241907 385.328125 487.1015625 C385.55290527343755 487.8661729431152 385.777685546875 488.6307833862304 386.00927734375 489.41856384277344 C387.56106078676567 494.6514179610199 389.2450055108694 499.83188125612105 391 505 C391.65999999999997 505 392.32000000000005 505 393 505 C393 445.27 393 385.53999999999996 393 324 C380.46000000000004 324 367.91999999999996 324 355 324 Z M-262 352 C-263.80887992793913 359.82081849328307 -263.80887992793913 359.82081849328307 -263.87432861328125 367.17478942871094 C-263.7565757751465 368.5173152923584 -263.7565757751465 368.5173152923584 -263.6364440917969 369.886962890625 C-263.5388882446289 370.8310400390625 -263.44133239746094 371.7751171875 -263.3408203125 372.747802734375 C-263.24678924560544 373.7721290588379 -263.15275817871094 374.7964553833008 -263.0558776855469 375.85182189941406 C-262.7437703466577 379.2138760177477 -262.41113376196324 382.57355106759644 -262.078125 385.93359375 C-261.85461476548153 388.2950540145167 -261.6323666658684 390.6566340449385 -261.41131591796875 393.01832580566406 C-260.8265558775395 399.22812416652914 -260.22421899533447 405.4360966783711 -259.6182861328125 411.64385986328125 C-259.0105421496362 417.9041063456018 -258.42029662257494 424.1659993577539 -257.828125 430.427734375 C-255.97439867313653 449.9613242713863 -254.0938726234856 469.49051010453684 -252 489 C-249.7345300361461 485.6017950542192 -249.06966526905535 482.5050115855993 -248.265625 478.58203125 C-248.10706527709965 477.8296820068359 -247.9485055541992 477.07733276367185 -247.78514099121094 476.30218505859375 C-247.26406472905967 473.80745333314235 -246.75557142930973 471.31041791689745 -246.25 468.8125 C-246.0742544555664 467.9504293823243 -245.8985089111328 467.08835876464843 -245.71743774414063 466.2001647949219 C-238.09927876915197 428.63178263518057 -232.2419524759452 390.4077412187763 -233 352 C-242.57 352 -252.14 352 -262 352 Z M-219 352 C-219.2475 356.8675 -219.495 361.735 -219.75 366.75 C-221.83930520344927 403.77342559830925 -226.68470529118576 440.5390496576608 -234.852783203125 476.719482421875 C-235.07816017150878 477.7322399139405 -235.07816017150878 477.7322399139405 -235.30809020996094 478.7654571533203 C-235.71641150806852 480.5954180372678 -236.13307306312413 482.42351225420725 -236.55029296875 484.25146484375 C-237.26776405220784 486.952612061712 -237.26776405220784 486.952612061712 -236 489 C-216.44016027711513 464.89639219989635 -202.22479199704844 436.8485992743041 -191 408 C-190.6530810546875 407.1234375 -190.306162109375 406.24687500000005 -189.94873046875 405.34375 C-185.12458100961965 393.108126536948 -180.8437849973837 380.7416427764588 -176.9375 368.1875 C-176.63744552612303 367.22750091552734 -176.63744552612303 367.22750091552734 -176.33132934570313 366.24810791015625 C-173.93179462983636 359.2496978484066 -173.93179462983636 359.2496978484066 -173 352 C-188.18 352 -203.36 352 -219 352 Z M-158 352 C-162.41857683611482 365.9864621980091 -162.41857683611482 365.9864621980091 -166.75 380 C-173.78660447013408 402.4353377099924 -182.6619313946066 423.8944579481357 -193 445 C-193.56767089843748 446.1666015625 -194.13534179687497 447.33320312499995 -194.72021484375 448.53515625 C-201.95495685181686 463.2947654751554 -209.8724110316811 476.94192370672556 -219.66552734375 490.1474609375 C-221.25423950238417 492.35293987268403 -222.66545793781933 494.6327204409374 -224 497 C-200.94272853980925 488.803698834618 -177.871699200548 461.8918371696942 -163 443 C-161.54205649846722 441.2705046347097 -160.08371366906306 439.54134583000064 -158.625 437.8125 C-140.79841370098302 415.96952510675044 -126.58983887708814 390.8119405858056 -114.375 365.5 C-113.84132812500002 364.3944677734375 -113.30765624999998 363.288935546875 -112.7578125 362.14990234375 C-112.26796875000002 361.1207470703125 -111.77812499999999 360.091591796875 -111.2734375 359.03125 C-110.8343505859375 358.10892578125 -110.395263671875 357.1866015625 -109.94287109375 356.236328125 C-108.87050077336744 354.0973446187738 -108.87050077336744 354.0973446187738 -109 352 C-125.17000000000002 352 -141.34000000000003 352 -158 352 Z M100 352 C101.86528305257309 357.59584915771916 103.44178433990191 362.26491180010174 106.00390625 367.40625 C106.57423583984371 368.5533544921875 107.14456542968753 369.700458984375 107.732177734375 370.88232421875 C108.34142809113644 372.0886493858662 108.95155409615745 373.2945326596669 109.5625 374.5 C109.87534942626951 375.12038146972657 110.18819885253902 375.74076293945313 110.51052856445313 376.37994384765625 C124.68033246268874 404.438023397797 142.15464081624748 430.45062815968083 163 454 C163.73307373046873 454.82999511718754 163.73307373046873 454.82999511718754 164.48095703125 455.6767578125 C179.1348698153148 472.1679214471246 195.5414294335368 487.3352065164577 215 498 C213.70144368703973 495.2873521305711 212.2731332471077 492.81445135370575 210.56640625 490.33984375 C181.45212390928282 447.67616573682164 164.74837719272216 401.161257309074 150 352 C133.5 352 117 352 100 352 Z M165 352 C166.51594318624234 359.5797159312117 168.22531654663976 366.60696618523394 170.5 373.9375 C170.84893310546875 375.06212646484374 171.1978662109375 376.1867529296875 171.557373046875 377.345458984375 C182.87028599344706 413.2190068529841 197.35700998577204 448.09844350974424 219 479 C219.77130095494704 480.11295732455346 220.54217675782218 481.2262094869046 221.3125 482.33984375 C222.86306858366163 484.56878608901354 224.42288051305366 486.7898114232231 226 489 C226.65999999999997 488.66999999999996 227.32000000000005 488.34000000000003 228 488 C227.7587841796875 486.9835339355468 227.7587841796875 486.9835339355468 227.5126953125 485.946533203125 C221.59116744313917 460.8983013705681 217.1410577285294 436.0515190506194 213.8544158935547 410.5378723144531 C213.4102048841196 407.0918476315918 212.9491333493338 403.6518575087455 212.44677734375 400.213623046875 C210.97174911583522 390.0084858886271 210.369090550769 379.8511276277408 209.875 369.5625 C209.58624999999995 363.766875 209.2975 357.97125 209 352 C194.48000000000002 352 179.96000000000004 352 165 352 Z M222 352 C223.44415700629327 398.5018556026446 231.23462596654576 443.6003821374585 241 489 C241.33000000000004 489 241.65999999999997 489 242 489 C246.12341423412784 442.5105145328064 246.12341423412784 442.5105145328064 250 396 C250.10441406250004 394.7040087890625 250.20882812499997 393.40801757812505 250.31640625 392.07275390625 C250.61267424884625 388.3614346865252 250.90177303720532 384.649644200039 251.1875 380.9375 C251.31354614257816 379.34929443359374 251.31354614257816 379.34929443359374 251.442138671875 377.72900390625 C252.50477479051688 364.6890565292231 252.50477479051688 364.6890565292231 250 352 C240.76 352 231.51999999999998 352 222 352 Z M-365 487 C-364 489 -364 489 -364 489 Z M371 487 C372 489 372 489 372 489 Z M-383 488 C-382 490 -382 490 -382 490 Z M-256 513 C-256.22706414132165 515.7247696958594 -256.1594936935199 517.6205150050733 -255.09375 520.15625 C-251.64208635250907 523.1957747045069 -247.73436656108686 522.418205604372 -243.3125 522.25 C-242.41982421875002 522.231953125 -241.5271484375 522.21390625 -240.607421875 522.1953125 C-238.40386496128463 522.1481775927548 -236.20247398696358 522.0824065673637 -234 522 C-232.89363604774678 519.6093126617421 -232.89363604774678 519.6093126617421 -232 517 C-232.32999999999998 516.34 -232.65999999999997 515.68 -233 515 C-233.59014892578125 514.9749438476563 -234.1802978515625 514.9498876953126 -234.788330078125 514.924072265625 C-237.46326813626513 514.8079994836079 -240.13786380440854 514.6853242804007 -242.8125 514.5625 C-243.74126953125 514.52318359375 -244.6700390625 514.4838671875 -245.626953125 514.443359375 C-246.51962890624998 514.40146484375 -247.4123046875 514.3595703125 -248.33203125 514.31640625 C-249.15421142578123 514.2797485351563 -249.9763916015625 514.2430908203125 -250.823486328125 514.205322265625 C-253 514 -253 514 -256 513 Z M243 514 C241.48042359654426 514.1512383142374 239.95527497950707 514.2488169312877 238.4296875 514.31640625 C237.08583984375002 514.379248046875 237.08583984375002 514.379248046875 235.71484375 514.443359375 C234.7776953125 514.48267578125 233.84054687499997 514.5219921875 232.875 514.5625 C231.45767578125003 514.627275390625 231.45767578125003 514.627275390625 230.01171875 514.693359375 C227.67462908069422 514.7995907236048 225.3374316976914 514.9016317648197 223 515 C222.66999999999996 516.32 222.34000000000003 517.64 222 519 C225.04917442773876 521.9935905188997 227.62933971053963 522.4078767875345 231.84375 522.458984375 C232.5553125 522.45189453125 233.26687500000003 522.4448046875 234 522.4375 C234.7115625 522.45748046875 235.42312500000003 522.4774609375 236.15625 522.498046875 C239.66665182295424 522.4947722464339 241.64082963135354 522.2682483099168 244.484375 520.14453125 C246.31322412164002 517.5568040134527 246.34479509438233 516.1031558494407 246 513 C244.77639320225 512.92546440075 244.77639320225 512.92546440075 243 514 Z M-412 520 C-411.6062754944561 525.8689275120871 -411.6062754944561 525.8689275120871 -409 531 C-405.01582619310955 531.5295420882576 -401.00805457710163 531.1922328334341 -397 531 C-395.5420703125 530.95359375 -395.5420703125 530.95359375 -394.0546875 530.90625 C-393.170390625 530.8546875 -392.28609374999996 530.803125 -391.375 530.75 C-390.578359375 530.70359375 -389.78171875 530.6571875 -388.9609375 530.609375 C-386.885728943819 530.1668809269354 -386.885728943819 530.1668809269354 -385.7265625 528.390625 C-384.7595585258894 525.2088699884104 -384.8729162516127 522.3041774580701 -385 519 C-389.3124860946329 518.9711346312273 -393.62494761729954 518.9532474526234 -397.9375 518.9375 C-399.785048828125 518.924931640625 -399.785048828125 518.924931640625 -401.669921875 518.912109375 C-403.424658203125 518.907275390625 -403.424658203125 518.907275390625 -405.21484375 518.90234375 C-406.2988647460937 518.8971069335937 -407.3828857421875 518.8918701171875 -408.499755859375 518.886474609375 C-410.94049947908024 518.71573103098 -410.94049947908024 518.71573103098 -412 520 Z M371 519 C370.8191451263284 523.6117992786253 371.1532958309523 526.7903869532337 373 531 C376.9582723532461 531.0578564656985 380.91643669597624 531.0935471701156 384.875 531.125 C386.0029296875 531.1417578125 387.130859375 531.158515625 388.29296875 531.17578125 C389.90751953125005 531.18544921875 389.90751953125005 531.18544921875 391.5546875 531.1953125 C393.04718017578125 531.2110229492188 393.04718017578125 531.2110229492188 394.56982421875 531.22705078125 C397.18171416713835 531.2437940129862 397.18171416713835 531.2437940129862 399 529 C399.53361593192926 527.0996888996032 399.53361593192926 527.0996888996032 399.75 525 C399.84796874999995 524.29875 399.9459375 523.5975 400.046875 522.875 C400.2092584798338 520.7497826358355 400.2092584798338 520.7497826358355 398 519 C395.1828852129024 518.7213860302923 395.1828852129024 518.7213860302923 391.8984375 518.8046875 C390.68671874999995 518.8111328125 389.475 518.817578125 388.2265625 518.82421875 C386.955546875 518.8409765625 385.68453124999996 518.857734375 384.375 518.875 C383.09625000000005 518.8840234375 381.8175 518.893046875 380.5 518.90234375 C377.33314833111694 518.9259769714096 374.1666657627285 518.9589237129161 371 519 Z M242 541 C234.1541982355277 589.1280653253119 229.7585325614973 637.2235774224655 230 686 C240.89 686 251.77999999999997 686 263 686 C262.1450812389992 673.9670849459246 262.1450812389992 673.9670849459246 260.87109375 661.99609375 C260.76116088867184 661.0945909118652 260.6512280273438 660.1930880737305 260.5379638671875 659.2642669677734 C260.17636923785176 656.3213353927496 259.8078231962437 653.3793453315656 259.4375 650.4375 C259.3091677856445 649.4114263916016 259.1808355712891 648.3853527832032 259.0486145019531 647.3281860351563 C254.5807387979238 611.7672365361492 249.12950456747762 576.3122560927849 243 541 C242.66999999999996 541 242.34000000000003 541 242 541 Z M-253 543 C-259.42021678073286 580.8969753039554 -265.7671493232938 618.7556164434723 -270.375 656.92578125 C-270.76143090396926 660.1156252397092 -271.1726941608964 663.2992987265579 -271.625 666.48046875 C-271.81062499999996 667.7862890625 -271.99625000000003 669.0921093750001 -272.1875 670.4375 C-272.3460546875 671.5087109375 -272.504609375 672.579921875 -272.66796875 673.68359375 C-273.07710314187045 677.7701243229176 -273 681.8930396795195 -273 686 C-262.11 686 -251.22000000000003 686 -240 686 C-239.76690189218778 642.8768500547324 -243.2027957345863 600.1553161719908 -249.0625 557.4375 C-249.22484130859374 556.2224780273438 -249.38718261718748 555.0074560546875 -249.554443359375 553.755615234375 C-249.71307861328125 552.6387231445312 -249.8717138671875 551.5218310546875 -250.03515625 550.37109375 C-250.17316650390626 549.3803686523438 -250.31117675781252 548.3896435546875 -250.453369140625 547.368896484375 C-250.81947944884564 544.8271794140752 -250.81947944884564 544.8271794140752 -253 543 Z M-405 546 C-407.21838675387124 560.5743505390753 -408.90063916811073 575.1342025017118 -410.25 589.8125 C-410.56676579953614 593.1944007724798 -410.88540443319397 596.5761221278296 -411.20411682128906 599.9578399658203 C-411.4325775938238 602.3829067773754 -411.6604601724798 604.8080281201301 -411.88780212402344 607.2332000732422 C-412.8142020151896 617.0979427589316 -413.77121258432635 626.9594865407275 -414.73828125 636.8203125 C-414.8892916052122 638.360798732879 -415.0402976537228 639.9012853879401 -415.19129943847656 641.4417724609375 C-415.26642603874205 642.2081604003906 -415.34155263900755 642.9745483398438 -415.4189558029175 643.76416015625 C-415.4942819309235 644.5326025390625 -415.5696080589295 645.301044921875 -415.647216796875 646.0927734375 C-415.72273175239565 646.8630688476562 -415.7982467079163 647.6333642578124 -415.87604999542236 648.427001953125 C-418.13376173837696 671.4656328284424 -420.3707037098176 694.5058205904672 -422.4375 717.5625 C-422.5212185668945 718.486022644043 -422.60493713378906 719.409545288086 -422.6911926269531 720.3610534667969 C-422.9213461611865 722.9083734474368 -423.14711767290515 725.4560365852676 -423.37109375 728.00390625 C-423.4363424682617 728.723293762207 -423.50159118652346 729.4426812744141 -423.5688171386719 730.1838684082031 C-423.94068753375933 734.5023486821983 -424 738.637808229287 -424 743 C-409.81 743 -395.62 743 -381 743 C-381.9760585595874 704.7385044641751 -386.02719039153385 666.9934296448225 -390.63543701171875 629.0120239257813 C-390.97631236006555 626.1957075746066 -391.31325575948114 623.378952464188 -391.64892578125 620.56201171875 C-394.4491800178294 597.1631800822516 -398.34856477527353 574.101121478647 -403 551 C-403.33346582823845 549.3333598377916 -403.666857795972 547.6667048811305 -404 546 C-404.33 546 -404.65999999999997 546 -405 546 Z M393 546 C387.790007563925 573.3937621254761 382.7366376274232 600.7424331782665 379.31903076171875 628.4231567382813 C378.9705153043684 631.2381508254969 378.6164616923188 634.05242183494 378.26220703125 636.86669921875 C373.7941476873541 672.5079307563502 370.23828183309377 708.0898268402794 369 744 C383.52 744 398.03999999999996 744 413 744 C411.8229762102844 730.2561666574629 410.5989001178797 716.5173929710758 409.3359375 702.78125 C409.25957942962646 701.9506720352173 409.1832213592529 701.1200940704346 409.104549407959 700.264347076416 C408.268473867519 691.1743142502362 407.42922691421245 682.0845751880197 406.58863639831543 672.9949588775635 C406.1368269694177 668.1086543226946 405.68551382044154 663.22230401136 405.234375 658.3359375 C405.14327579498286 657.3496221542358 405.0521765899658 656.3633068084716 404.9583168029785 655.3471031188965 C403.6270891685167 640.92468622072 402.3253940624153 626.499831339633 401.0416831970215 612.073112487793 C400.50162413371754 606.0152598178677 399.9565892231243 599.9578526920013 399.41136360168457 593.900463104248 C398.8877077890626 588.0761516976669 398.3722895640816 582.2511829519764 397.862548828125 576.4256381988525 C397.54497868573276 572.8189756124068 397.21963346630946 569.2130464584728 396.89205169677734 565.6072807312012 C396.741167255355 563.9283019028983 396.59359993602425 562.2490213694454 396.44950103759766 560.5694465637207 C396.25311671733823 558.28516916662 396.04529604884294 556.0022212804685 395.83447265625 553.71923828125 C395.6641502380371 551.797865447998 395.6641502380371 551.797865447998 395.4903869628906 549.8376770019531 C395.32855926513673 548.9012435913086 395.16673156738284 547.964810180664 395 547 C394.34000000000003 546.67 393.67999999999995 546.34 393 546 Z M378 550 C379 552 379 552 379 552 Z M-237 551 C-236.87810302734374 552.0948974609375 -236.75620605468748 553.189794921875 -236.630615234375 554.31787109375 C-236.17917918478093 558.3745346447743 -235.7289736414058 562.4313341054964 -235.27899169921875 566.4881591796875 C-235.02295717234142 568.7933101136426 -234.76574219504505 571.098326174341 -234.50830078125 573.4033203125 C-230.56026585726977 608.8632658379092 -228.03452309926126 644.3838779799906 -226 680 C-219.73000000000002 680 -213.46000000000004 680 -207 680 C-208.34992606880814 667.4436524956587 -210.23648234074233 655.0978612390144 -212.5625 642.6875 C-212.73573791503907 641.758911743164 -212.90897583007813 640.8303234863281 -213.08746337890625 639.8735961914063 C-218.7590628079406 609.6690317902696 -226.7623837559804 580.2926993211935 -236 551 C-236.33000000000004 551 -236.65999999999997 551 -237 551 Z M226 551 C215.17196016791968 583.2146974027812 206.6534631045953 615.6784556241337 200 649 C199.7417041015625 650.28197265625 199.483408203125 651.5639453125 199.21728515625 652.884765625 C198.49055103487 656.5049004004804 197.77340834025892 660.1267269007292 197.0625 663.75 C196.74490722656253 665.35681640625 196.74490722656253 665.35681640625 196.4208984375 666.99609375 C196.23172851562504 667.9822265625 196.04255859374996 668.968359375 195.84765625 669.984375 C195.6827368164063 670.837412109375 195.5178173828125 671.69044921875 195.347900390625 672.5693359375 C194.88192847382595 675.4156871810954 194.88192847382595 675.4156871810954 195 680 C201.92999999999995 680 208.86 680 216 680 C216.15033691406245 677.496962890625 216.15033691406245 677.496962890625 216.3037109375 674.943359375 C221.0693188240981 596.1217517662232 221.0693188240981 596.1217517662232 226.484375 559.89453125 C226.88729166574126 556.8512894640604 227.1225209302337 554.0568972093297 227 551 C226.66999999999996 551 226.34000000000003 551 226 551 Z M377 552 C353.93285490919527 611.8787256314608 339.30964313354696 671.5304832907864 330 735 C338.58000000000004 735 347.15999999999997 735 356 735 C356.1353515625 732.9877734375 356.27070312499995 730.975546875 356.41015625 728.90234375 C360.2717614330428 673.8648734572887 365.9496024492644 617.9108000778011 376.66650390625 563.757080078125 C376.85905761718755 562.7673217773438 377.051611328125 561.7775634765625 377.25 560.7578125 C377.42015625 559.9239501953125 377.5903125 559.090087890625 377.765625 558.23095703125 C378.0130978729769 555.8753246216008 377.7197604552798 554.2408970603221 377 552 Z M-389 553 C-388.30008656983745 558.8579437178331 -387.44804295341424 564.6755900813714 -386.51171875 570.5 C-386.2162756092986 572.3580973289003 -385.9212060031039 574.2162540804972 -385.62646484375 576.074462890625 C-385.4731268310547 577.0404641723633 -385.31978881835937 578.0064654541015 -385.16180419921875 579.0017395019531 C-382.28405247513473 597.1931224408338 -379.61865172625494 615.3744261890794 -377.50341796875 633.671875 C-377.14324765579755 636.7848466473419 -376.7736394639544 639.8965579177034 -376.39892578125 643.0078125 C-373.35586732873946 668.2876989394015 -370.88998659957747 693.5491487382646 -369.141845703125 718.9515380859375 C-368.9075379427136 722.3352889701574 -368.6643176878313 725.7183849925354 -368.421875 729.1015625 C-368.28265625 731.048046875 -368.1434375 732.99453125 -368 735 C-359.09000000000003 735 -350.18 735 -341 735 C-342.53481769794985 721.1866407184511 -344.8501823189502 707.5444514934599 -347.31005859375 693.86767578125 C-347.75695870522094 691.3624416814897 -348.19533674298816 688.855666269151 -348.62353515625 686.34716796875 C-356.43617430621003 640.5821054342343 -371.4887622479463 596.283821919142 -388 553 C-388.33 553 -388.65999999999997 553 -389 553 Z " fill="#000000" transform="translate(518,131)"/>
</svg>
