<?xml version="1.0" encoding="UTF-8"?>
<!-- Generator: visioncortex VTracer 0.6.4 -->
<svg version="1.1" xmlns="http://www.w3.org/2000/svg" width="1024" height="1024">
<path d="M0 0 C0.6638470458984784 0.06368774414062273 1.3276940917968432 0.12737548828124545 2.01165771484375 0.1929931640625 C37.29220402904241 3.6061445379584995 72.35709898332982 9.007325385866267 107.367431640625 14.4654541015625 C111.40568610153878 15.093681112429863 115.44494664648107 15.715309706796404 119.484375 16.3359375 C120.24342132568358 16.45256240844725 121.00246765136717 16.569187316894528 121.78451538085938 16.689346313476563 C123.31611784572169 16.924644844112493 124.84772388565625 17.15992010510618 126.37933349609375 17.395172119140625 C128.7088799625169 17.753286680913135 131.03829559705594 18.112241080818194 133.36767578125 18.471435546875 C144.28594010479014 20.15449334366744 155.20642289403793 21.822705401817018 166.12796020507813 23.484390258789063 C172.35864151371788 24.432483528740335 178.58905449463157 25.382268267724527 184.81884765625 26.336181640625 C187.35318628771063 26.724146025188162 189.8875287616903 27.11208530967653 192.421875 27.5 C193.68909393310548 27.69399887084961 194.95631286621096 27.887997741699223 196.26193237304688 28.087875366210938 C203.57400449459942 29.205241574139762 210.8878188597621 30.309521067252405 218.20409107208252 31.3989839553833 C224.2126102069882 32.29395363048019 230.2193634285294 33.200311047791985 236.22567749023438 34.109954833984375 C238.76003981614838 34.49144464919951 241.29504913740573 34.86866357131106 243.83071899414063 35.241363525390625 C247.3589746646894 35.76045193034042 250.88465557005838 36.29459452535491 254.41015625 36.83203125 C255.95470489501952 37.05348815917969 255.95470489501952 37.05348815917969 257.53045654296875 37.2794189453125 C274.0352544134287 39.84576064389498 274.0352544134287 39.84576064389498 279 45.875 C280.6934904209576 50.95547126287266 280.3531512574673 56.24271206577839 280.4375 61.5625 C280.50614257812504 63.30176757812501 280.50614257812504 63.30176757812501 280.576171875 65.076171875 C280.6629044588816 71.70932905098505 280.21267025746624 76.04279802123256 275.883056640625 81.202392578125 C269.6140308946725 86.77079597311018 263.08865824989937 88.63967677128443 255.109375 90.96484375 C253.8193623756556 91.34882166946028 252.5296343727557 91.73375692781451 251.24017333984375 92.11958312988281 C248.50153030570118 92.93710237149207 245.76119245491134 93.74854425805614 243.019287109375 94.5550537109375 C238.72403471830864 95.81862959434375 234.43289259315623 97.09574816252393 230.142578125 98.3759765625 C228.70337140268668 98.8053359516129 227.26416241898244 99.23468776064783 225.824951171875 99.66403198242188 C225.1137814331055 99.87621242523193 224.40261169433597 100.08839286804198 223.66989135742188 100.30700302124023 C221.51500323443884 100.94940410666288 219.35972778202415 101.59049005605908 217.204345703125 102.23123168945313 C205.27674824834742 105.77880414910629 193.3802956819925 109.42201544348501 181.5 113.125 C178.40631485699237 114.08875007386712 175.31258118437063 115.05234384398295 172.21875 116.015625 C171.49874816894533 116.23996719360355 170.77874633789065 116.46430938720704 170.03692626953125 116.69544982910156 C160.03969086037125 119.80435963448753 150.01874230176634 122.83627529340356 140 125.875 C139.93019839891292 138.01963442768806 139.87703641980158 150.16422038048245 139.8445634841919 162.30901527404785 C139.8289706855437 167.94957233979403 139.80785018449671 173.58999119693294 139.773681640625 179.23046875 C139.74085906843936 184.68346878807301 139.72309908099385 190.13633667285296 139.71536827087402 195.58942794799805 C139.7098655929907 197.66002860703952 139.69912136418634 199.73062281295114 139.6828098297119 201.80116653442383 C139.50303991716748 225.58713830378014 144.55374788286042 243.98779354851627 157.65576171875 263.837890625 C158.98202806919824 265.84776465844345 160.29237529935938 267.86707080307457 161.59765625 269.890625 C163.39632313445827 272.6788756313148 165.2003601450723 275.4635310923441 167.0078125 278.24609375 C171.02547874772665 284.44574506762 174.98728291303712 290.6811932453718 178.93505859375 296.925537109375 C181.4452279261261 300.8911332612274 183.95490338029867 304.84781973253007 186.609375 308.71875 C190.91988227276545 315.038659887872 194.38931715493698 321.42529076257597 197.4375 328.4375 C197.76798339843754 329.1808862304688 198.09846679687496 329.9242724609376 198.43896484375 330.690185546875 C204.13347020343963 344.4432064797452 203.24948881770467 359.09764544956965 203.125 373.6875 C203.1149477822113 375.7480425141498 203.10582590680008 377.8085897868964 203.09765625 379.869140625 C203.07582581161353 384.8712131796549 203.04142003480126 389.87305287426864 203 394.875 C199.24649329069894 396.9873630831564 197.21187863946545 396.9737509494257 193 395.875 C191 393.875 191 393.875 190.7551727294922 391.9131622314453 C190.75780876159672 390.7086164093017 190.75780876159672 390.7086164093017 190.760498046875 389.479736328125 C190.75676681518553 388.56730667114266 190.75303558349606 387.6548770141601 190.7491912841797 386.7147979736328 C190.7533253479004 385.722234954834 190.75745941162108 384.7296719360352 190.76171875 383.70703125 C190.74627460759575 381.5943947963809 190.7299692577452 379.4817644975808 190.712890625 377.369140625 C190.69656851250966 374.04746892641344 190.68741643389546 370.72624873819336 190.694580078125 367.404541015625 C190.7086374744415 350.41170475923695 189.21666525651915 337.01354704883556 180.4375 322.125 C179.80231445312506 321.0154797363282 179.80231445312506 321.0154797363282 179.154296875 319.883544921875 C172.96415612678697 309.1889312888502 166.34280560403465 298.72905300945035 159.362548828125 288.53369140625 C151.5403104684534 277.0758105760641 144.7632335456907 264.97869515578805 138 252.875 C137.56929199218746 252.10607421875 137.13858398437503 251.3371484375 136.69482421875 250.544921875 C131.94758340766668 241.96086999742465 128 232.85788369666636 128 222.875 C127.36545898437498 222.83399169921876 126.73091796874996 222.7929833984375 126.0771484375 222.750732421875 C118.31959678277917 222.15769644827031 110.8525457541208 220.81333543192886 103.25 219.1875 C102.25116287231447 218.9759829711914 102.25116287231447 218.9759829711914 101.23214721679688 218.76019287109375 C85.57601379818311 215.42440318946302 70.07176187356583 211.45317680484078 54.5625 207.5 C53.313035888671834 207.18173248291015 52.06357177734378 206.8634649658203 50.7762451171875 206.53555297851563 C47.205307187987046 205.62386721378755 43.63555392844239 204.70772966136042 40.06640625 203.7890625 C38.978301544189435 203.51016677856444 37.89019683837887 203.23127105712888 36.76911926269531 202.9439239501953 C35.27574287414552 202.55716743469236 35.27574287414552 202.55716743469236 33.752197265625 202.16259765625 C32.87910415649412 201.9372232055664 32.006011047363245 201.7118487548828 31.106460571289063 201.47964477539063 C29 200.875 29 200.875 27 199.875 C26.900903320312523 201.04691894531254 26.801806640625045 202.21883789062497 26.69970703125 203.42626953125 C26.15613986898302 207.69070422777838 24.781634289618296 211.2567622501076 22.8046875 215.0546875 C22.28610671997069 216.0688423156738 22.28610671997069 216.0688423156738 21.757049560546875 217.10348510742188 C16.613745810783826 226.84862726324042 10.296467539497371 235.88958392395358 4.125 245 C2.89632253633215 246.83148617965185 1.6684540390851907 248.66351533168273 0.44140625 250.49609375 C-5.529570747547609 259.3898003284427 -11.57415868801877 268.2007927923962 -17.961181640625 276.8017578125 C-22.855890082317615 284.1798670046958 -27.09874715227022 293.13863224506997 -27.141845703125 302.12109375 C-27.14888015747067 302.9487524414062 -27.155914611816456 303.7764111328124 -27.163162231445313 304.629150390625 C-27.167326507568305 305.5146557617188 -27.17149078369141 306.4001611328125 -27.17578125 307.3125 C-27.198969193636003 309.19532380675037 -27.22308610307607 311.07813636130777 -27.248046875 312.9609375 C-27.283222726152417 315.9235805159408 -27.312548795020803 318.8858058791593 -27.325927734375 321.8486328125 C-27.34138150673266 324.7120979552054 -27.381559435888562 327.57435369339146 -27.42578125 330.4375 C-27.42387283325195 331.3230053710938 -27.421964416503897 332.2085107421875 -27.419998168945313 333.120849609375 C-27.542272642547346 339.25764676266044 -27.542272642547346 339.25764676266044 -29.902099609375 342.4404296875 C-33.348245035289665 344.7969466807124 -35.918831009798055 344.1470779326801 -40 343.875 C-41.600546653336096 340.6739066933279 -41.06240058023707 337.2198147223278 -40.984375 333.7109375 C-40.96787902832034 332.8860684204101 -40.95138305664068 332.0611993408204 -40.93438720703125 331.2113342285156 C-40.89680959644329 329.45430189186504 -40.85625382292585 327.6973311650328 -40.81298828125 325.9404296875 C-40.75138866661132 323.3093143645608 -40.709179063716874 320.6783769602339 -40.66796875 318.046875 C-40.18697907248145 294.6877950322384 -34.328449337079405 278.28343807044797 -20.40625 259.53125 C-16.51215323491988 254.26536914722118 -12.911547755821744 248.82279754531294 -9.318603515625 243.34912109375 C-6.650371027967822 239.30049347513398 -3.907387100649089 235.34390759644418 -1.012939453125 231.4541015625 C12.450229957205465 213.28806203338604 18.070704239676957 194.55925288469854 18.015625 172.01171875 C18.014497070312473 171.13173217773436 18.013369140624945 170.25174560546873 18.01220703125 169.3450927734375 C18.009279716091555 167.1883933304631 18.004796507039714 165.03169609588838 18 162.875 C13.369233587033591 164.33598429289748 8.73858311211336 165.7973354245458 4.1080322265625 167.25900268554688 C2.4033766789522133 167.79707725411055 0.6987053137834209 168.33510171404163 -1.0059814453125 168.87307739257813 C-10.732145902032698 171.94275743368166 -20.45670574636506 175.01731569063173 -30.17578125 178.109375 C-48.73074087805014 184.01107742007133 -67.30223959356942 189.8528604912293 -85.908447265625 195.591064453125 C-96.27759158765991 198.7898347953643 -106.64013195218206 202.0087808222346 -116.99609375 205.25 C-146.33254871058568 214.42729319651562 -175.70476606749526 223.46801615799257 -205.149169921875 232.29345703125 C-226.46520479862716 238.68546942586948 -247.7490023753594 245.1830588649201 -268.93359375 252 C-285.8210930143512 256.81885329326707 -302.41477120373906 252.83059501729008 -319 248.875 C-320.39062138640895 248.54506940415422 -321.7812465583078 248.21515476343274 -323.171875 247.88525390625 C-335.46750575762377 244.96076277657966 -347.7390966061764 241.9416620385487 -360 238.875 C-360.04686428711534 256.6261647530048 -360.0820592062863 274.3773132957857 -360.10362434387207 292.12852668762207 C-360.1139066276368 300.37200115707856 -360.12790818787244 308.615437032444 -360.15087890625 316.85888671875 C-360.17090663437034 324.04966251654605 -360.1837385459968 331.2404103419358 -360.18817698955536 338.43121325969696 C-360.190768592327 342.23342471855335 -360.19679528316783 346.03555620133307 -360.2114601135254 349.83774185180664 C-360.22519288531265 353.427888308026 -360.2291915094583 357.0179230315773 -360.2262153625488 360.60809326171875 C-360.2270145668234 362.53056272222136 -360.23769305272026 364.45302045560265 -360.24884033203125 366.3754577636719 C-360.180360925818 395.77645117852603 -347.55829735565743 417.40917637064376 -333.2421875 442.2109375 C-329.54281106135767 448.63955012090173 -325.96131747436203 455.1329611634717 -322.375 461.625 C-318.20635287452086 469.1687927708399 -313.9914380489028 476.6684106488227 -309.5625 484.0625 C-296.1108799668569 506.601937737464 -289.79006976744205 526.2740208962376 -289.90234375 552.63671875 C-289.90446617126463 554.5444280242921 -289.90446617126463 554.5444280242921 -289.90663146972656 556.4906768798828 C-289.9112449593946 559.8327838923897 -289.92019147679906 563.1748193700067 -289.93133544921875 566.5169067382813 C-289.94165995713837 569.9429055791321 -289.9461524714815 573.3689118817022 -289.951171875 576.794921875 C-289.96214077676836 583.4883005891545 -289.9788332338765 590.1816461763689 -290 596.875 C-293.1154987181577 598.4327493590788 -296.60443880116924 598.4398062192115 -300 597.875 C-302.22749531423983 596.2035379741405 -302.9282885629228 595.3045093577343 -303.3919982910156 592.5271606445313 C-303.4041285705566 591.1394143676757 -303.4041285705566 591.1394143676757 -303.41650390625 589.7236328125 C-303.4413536071777 588.1448837280273 -303.4413536071777 588.1448837280273 -303.4667053222656 586.5342407226563 C-303.47158462524413 584.8234634399414 -303.47158462524413 584.8234634399414 -303.4765625 583.078125 C-303.4921420288086 581.8971624755859 -303.5077215576172 580.7161999511719 -303.5237731933594 579.4994506835938 C-303.57137969940624 575.7079748898793 -303.5990262918191 571.9166803998183 -303.625 568.125 C-302.97661166298747 535.0352942984102 -302.97661166298747 535.0352942984102 -313.5625 504.375 C-314.0969775390625 503.4150512695312 -314.631455078125 502.4551025390625 -315.18212890625 501.466064453125 C-316.2701847908414 499.51367871551963 -317.36226186668694 497.563528138277 -318.45849609375 495.61572265625 C-319.82243630196075 493.1907000434255 -321.1748087519252 490.75993226873504 -322.51953125 488.32421875 C-324.5430437295092 484.6600769620684 -326.5784351734059 481.0027361777318 -328.619140625 477.34814453125 C-329.592550309635 475.6047498874466 -330.5651291322012 473.8608912109896 -331.537109375 472.11669921875 C-337.0592247520606 462.20888946068465 -342.5912212956224 452.30766929083984 -348.2421875 442.47265625 C-348.5977774047852 441.8532012939453 -348.9533673095703 441.2337463378906 -349.3197326660156 440.59552001953125 C-351.0400911164727 437.59954361105997 -352.7642215461697 434.60591740650864 -354.49462890625 431.61572265625 C-364.36411096656025 414.4607225488653 -370.86912794531867 398.87000814706994 -373.4331970214844 379.21897888183594 C-373.5395213890076 378.40490286827094 -373.6458457565308 377.5908268547058 -373.75539207458496 376.7520818710327 C-373.8361126899719 376.13264485359196 -373.91683330535886 375.5132078361512 -374 374.875 C-375.0937644958496 374.57270477294924 -376.1875289916992 374.2704095458985 -377.31443786621094 373.9589538574219 C-387.3556713544135 371.17937902524045 -397.38323114839966 368.355570131499 -407.3990955352783 365.4859962463379 C-409.8141648140065 364.7940959422299 -412.22949532269 364.1031137127593 -414.64488220214844 363.4123229980469 C-420.6429672714378 361.6967081065857 -426.6406372977483 359.9796442151701 -432.6383056640625 358.2625732421875 C-438.5411986963357 356.572703412877 -444.4442747623786 354.88347522209165 -450.34765625 353.1953125 C-451.1622392654419 352.96235725402835 -451.97682228088377 352.7294020080567 -452.81608963012695 352.48938751220703 C-465.76697147255425 348.78689338305026 -478.7302195021094 345.13132526782806 -491.7060241699219 341.51702880859375 C-494.80768657856595 340.6489479008651 -497.90436793324017 339.76432642700934 -501 338.875 C-501.0825 339.926875 -501.16499999999996 340.97875 -501.25 342.0625 C-504.5163857126697 367.178357709582 -522.2430560763307 388.69901325589353 -535.7428894042969 409.268798828125 C-557.2696645248961 440.5394499499487 -557.2696645248961 440.5394499499487 -564.30859375 477.1328125 C-564.3337083418993 479.4088572292429 -564.3591068722124 481.68489884025666 -564.384765625 483.9609375 C-564.4136994130674 487.50520288959365 -564.4377584871279 491.04941468209927 -564.456298828125 494.59375 C-564.4778188404294 498.04451944556297 -564.5171888172536 501.4947330608975 -564.55859375 504.9453125 C-564.558709564209 506.0129080200195 -564.558825378418 507.080503540039 -564.5589447021484 508.1804504394531 C-564.5722834777832 509.1626254272461 -564.585622253418 510.1448004150391 -564.599365234375 511.15673828125 C-564.6044358825684 512.022112121582 -564.6095065307618 512.8874859619141 -564.6147308349609 513.7790832519531 C-564.7418696594239 514.4707357788086 -564.8690084838868 515.1623883056641 -565 515.875 C-568.4699872923862 518.1883248615909 -569.9250924819942 518.2145756265005 -574 517.875 C-577 515.875 -577 515.875 -577.3944091796875 513.9223022460938 C-577.4028283691406 513.1226202392578 -577.4112475585937 512.3229382324218 -577.419921875 511.4990234375 C-577.4358337402343 510.5891668701172 -577.4517456054688 509.6793103027344 -577.4681396484375 508.74188232421875 C-577.4683410644532 507.74940490722656 -577.4685424804687 506.7569274902344 -577.46875 505.734375 C-577.4801702880859 504.185475769043 -577.4801702880859 504.185475769043 -577.4918212890625 502.60528564453125 C-577.5026592719123 500.4027345115693 -577.5054604981217 498.2001318273806 -577.5009765625 495.99755859375 C-577.5000237617338 492.7070611475756 -577.5411871107572 489.4190543124412 -577.5859375 486.12890625 C-577.7768864923975 452.8218339410107 -565.7449279816078 430.8636502828142 -547.696533203125 403.9114685058594 C-543.8619427039522 398.1816680568106 -540.0415225729827 392.44238046700764 -536.218994140625 386.70452880859375 C-535.148435561898 385.0977796899606 -534.0772017618619 383.491480506337 -533.005859375 381.88525390625 C-519.4108103498011 361.4491572196516 -511.7293109720148 342.84466554678284 -511.68115234375 318.00390625 C-511.6711067199707 316.79084304809567 -511.6610610961914 315.57777984619133 -511.6507110595703 314.3279571533203 C-511.6253672199598 311.0454298018601 -511.6083601213933 307.7629948774121 -511.5952830314636 304.4804000854492 C-511.57948685894536 301.0274127071557 -511.55274570792693 297.5745089717881 -511.5272521972656 294.12158203125 C-511.4807139328322 287.59729915109745 -511.4438579641002 281.07299990709475 -511.4105793237686 274.5486373901367 C-511.3722657865636 267.13311221052015 -511.32283866647856 259.7176737147096 -511.27259516716003 252.30222129821777 C-511.1947264637731 240.77183090917566 -511.1229592669557 229.241420183422 -511.06005859375 217.7109375 C-511.05384994506835 216.58049514770505 -511.0476412963867 215.45005279541016 -511.04124450683594 214.2853546142578 C-511.01749832301823 209.81516256866666 -510.99684673748493 205.34526599622052 -511 200.875 C-511.7999438476562 200.76180419921877 -512.5998876953125 200.6486083984375 -513.424072265625 200.531982421875 C-521.0274688751837 199.41536071874822 -528.4649339134372 197.9712575781897 -535.9375 196.1875 C-537.5932151794434 195.7992555236816 -537.5932151794434 195.7992555236816 -539.2823791503906 195.40316772460938 C-542.8559378545203 194.56471205101934 -546.427957538882 193.71988948015309 -550 192.875 C-555.0070173647182 191.69711596771356 -560.01498421345 190.52332495670038 -565.0234375 189.3515625 C-566.2786117553711 189.0577066040039 -567.5337860107422 188.7638507080078 -568.8269958496094 188.46109008789063 C-577.0309564463337 186.54756754145797 -585.2464203744123 184.69586765378727 -593.4765625 182.8984375 C-594.518588256836 182.67037414550782 -595.5606140136719 182.44231079101564 -596.6342163085938 182.20733642578125 C-601.5246777435596 181.13890317411432 -606.4170830167794 180.08063843348066 -611.3125 179.03515625 C-613.0547417036483 178.65649931091957 -614.7969323044014 178.27760713621677 -616.5390625 177.8984375 C-617.3146450805664 177.73644866943357 -618.0902276611328 177.5744598388672 -618.8893127441406 177.40756225585938 C-626.0952032013643 175.82523215601645 -631.6053209287377 173.02991555698395 -637 167.875 C-640.9119963156284 161.3219861806029 -640.4794043940695 155.31112520216232 -640.4375 147.875 C-640.45748046875 146.616875 -640.4774609375 145.35875 -640.498046875 144.0625 C-640.4953440330156 138.95953433353412 -640.4746278871128 134.9571982290924 -638.41015625 130.25 C-632.6012008844226 124.5257781810842 -626.1574132654541 122.89425265376764 -618.40234375 121.24609375 C-617.3632586669921 121.01588531494139 -616.3241735839844 120.78567687988283 -615.2536010742188 120.54849243164063 C-611.8174167885056 119.7911132079617 -608.377688019135 119.05146315672789 -604.9375 118.3125 C-602.476844239992 117.77523111236957 -600.0163159040155 117.23737833547136 -597.555908203125 116.698974609375 C-580.899042128356 113.07126527886362 -564.2042320054477 109.64401900985933 -547.4890441894531 106.29705810546875 C-531.4733349620868 103.08548732849681 -515.5006186093567 99.70583422040676 -499.54296875 96.21875 C-498.10284549713134 95.90418696403503 -498.10284549713134 95.90418696403503 -496.63362884521484 95.5832691192627 C-492.6402283104446 94.71090200977812 -488.6469090194175 93.8381636068525 -484.6536331176758 92.96522617340088 C-447.27218717262826 84.79389044253105 -409.84863300866425 76.93016055317003 -372.3125 69.5 C-363.9619006311962 67.84675826937934 -355.61139228073154 66.19306875669656 -347.26171875 64.53515625 C-346.2585675430298 64.33597217559816 -345.25541633605957 64.13678810119632 -344.221866607666 63.93156814575195 C-324.9850153030736 60.10735763877835 -305.7944149983552 56.08553654647534 -286.625 51.9375 C-285.57060604095454 51.70938314437865 -285.57060604095454 51.70938314437865 -284.49491119384766 51.47665786743164 C-278.97805895946925 50.28270600342415 -273.46150162894963 49.087389072272686 -267.94547271728516 47.889638900756836 C-252.70835034374954 44.58118749752066 -237.4498648854837 41.377147183581826 -222.1875 38.1875 C-219.63833688070048 37.65417939380259 -217.08918314967184 37.120813911517814 -214.5400390625 36.58740234375 C-209.5263115451255 35.538549510613734 -204.5124681741827 34.49025281338487 -199.49853515625 33.4423828125 C-186.95626082077177 30.82097357909214 -174.414703217524 28.196183594202978 -161.875 25.5625 C-160.07631973266598 25.18482986450195 -160.07631973266598 25.18482986450195 -158.24130249023438 24.799530029296875 C-144.3069427149162 21.870972437597004 -130.39017822916412 18.881204509254104 -116.5 15.75 C-103.31181036684029 12.782248390388133 -90.09467995351497 9.962795465968185 -76.855712890625 7.23028564453125 C-74.7485889714718 6.794744897923238 -72.64195438266768 6.356828024145841 -70.535888671875 5.91619873046875 C-46.724839872089206 0.9431087416093078 -24.354061898449004 -2.3758506834370223 0 0 Z M-37.7578125 10.609375 C-38.75580871582031 10.788025970458989 -39.753804931640616 10.966676940917978 -40.78204345703125 11.150741577148438 C-51.15019324889613 13.034351084427868 -61.45178617191584 15.207748142415227 -71.75 17.4375 C-73.79784889929692 17.877181984955115 -75.84578440579764 18.316460751897722 -77.893798828125 18.75537109375 C-87.20154534240805 20.752476773782007 -96.50541527164114 22.76751351206525 -105.80955505371094 24.781341552734375 C-109.75275464131846 25.63479954405429 -113.69603373251903 26.487889471832744 -117.63937377929688 27.3406982421875 C-119.68623568352632 27.783429137742957 -121.73304898458719 28.226384793315276 -123.77981567382813 28.6695556640625 C-137.80207625715684 31.704107632876486 -151.83393078357835 34.69062058150743 -165.875 37.63671875 C-167.04454664230343 37.88214164733887 -167.04454664230343 37.88214164733887 -168.23772048950195 38.13252258300781 C-172.25520613811182 38.97547471669455 -176.27276130015753 39.81809518596759 -180.29034423828125 40.66058349609375 C-181.09772285461418 40.829891281127914 -181.90510147094733 40.99919906616208 -182.73694610595703 41.17363739013672 C-184.36999238955246 41.51607483962755 -186.00304394006355 41.858487172747004 -187.63610076904297 42.20087432861328 C-205.67932916261947 45.98437577066494 -223.717657050348 49.78635451555374 -241.7265625 53.73046875 C-242.43555253982544 53.88574350357055 -243.14454257965087 54.041018257141104 -243.8750171661377 54.200998306274414 C-251.14479295406352 55.794218218219555 -258.41252892723696 57.3964427535073 -265.678466796875 59.007080078125 C-281.0254726210326 62.40113883450175 -296.4004207585949 65.62554266757496 -311.8007049560547 68.766845703125 C-323.5120402947474 71.15595471677943 -335.2158212381202 73.57883086330116 -346.9140625 76.03125 C-347.7454612350464 76.20548995971683 -348.57685997009276 76.3797299194336 -349.4334526062012 76.55924987792969 C-353.71778324706366 77.45725083452908 -358.00198441340945 78.35586742202707 -362.2861022949219 79.2548828125 C-371.673255184791 81.22464178086909 -381.06124382167184 83.19041333114194 -390.44921875 85.15625 C-391.4018340492248 85.3557424926758 -392.35444934844975 85.55523498535155 -393.3359317779541 85.76077270507813 C-420.55637105149316 91.46068340887007 -447.78509358327676 97.12058214205831 -475.01678466796875 102.76646423339844 C-484.7107688364514 104.77648951044046 -494.40389517406 106.79059605220283 -504.0963487625122 108.8079891204834 C-511.8775986844828 110.42745657366919 -519.6593604770053 112.0444499524408 -527.4414472579956 113.65989112854004 C-532.1069680265672 114.62847504936792 -536.7722728513982 115.59806696933094 -541.4369812011719 116.570556640625 C-546.6447535415124 117.65605817827162 -551.853224393785 118.73814151084048 -557.0625 119.81640625 C-557.8941876411438 119.98857288360597 -558.7258752822876 120.16073951721194 -559.5827655792236 120.3381233215332 C-573.7961460110846 123.27366531024796 -588.0421101442885 126.01835877854955 -602.316650390625 128.64002990722656 C-603.0524583435058 128.77633630752564 -603.7882662963867 128.91264270782472 -604.5463714599609 129.05307960510254 C-606.5169095340146 129.4178300575012 -608.4881638526368 129.77870519135035 -610.45947265625 130.13926696777344 C-614.049363568758 130.88525790923154 -617.4897258781491 131.82402046216316 -621 132.875 C-620.67 133.53499999999997 -620.34 134.195 -620 134.875 C-617.3308716860608 135.64249023784055 -614.7104225587021 136.28456592209204 -612 136.87109375 C-610.7377409362794 137.1547428894043 -610.7377409362794 137.1547428894043 -609.4499816894531 137.44412231445313 C-606.6350057326083 138.07473999374588 -603.8175415560302 138.6934549958268 -601 139.3125 C-599.0165785618647 139.7549460761128 -597.0333458655191 140.19823901689824 -595.05029296875 140.642333984375 C-590.8532049762443 141.58085419864392 -586.6550958204056 142.51459341864063 -582.4560546875 143.4443359375 C-573.0136477638656 145.5352487368308 -563.5761668801663 147.64808383281996 -554.13916015625 149.76321411132813 C-551.2717548435867 150.4046700523545 -548.4035535015178 151.04244017892705 -545.53515625 151.679443359375 C-534.2957249935345 154.18423369917116 -523.0857236804113 156.79825812878914 -511.8855171203613 159.47176361083984 C-496.48558604575123 163.14604834619172 -481.06105640018006 166.69426370780673 -465.609375 170.14453125 C-464.6071559715271 170.36835165023803 -463.6049369430542 170.59217205047605 -462.5723476409912 170.82277488708496 C-457.4163310787569 171.97371437038453 -452.2599591958017 173.123053755388 -447.1034240722656 174.27166748046875 C-389.6204350743058 187.07794134526227 -389.6204350743058 187.07794134526227 -365.24462890625 193.03366088867188 C-357.1693104042997 195.0065163340953 -349.08672491520196 196.94946863414816 -341 198.875 C-340.1334881591797 199.08169311523437 -339.26697631835935 199.28838623046875 -338.37420654296875 199.5013427734375 C-307.5697221746918 206.81400101827955 -280.37507784231923 210.87396939971916 -249.44580078125 200.9697265625 C-243.90984323060144 199.21095983038236 -238.3287358878066 197.6062425207076 -232.75289916992188 195.97964477539063 C-230.64527632856834 195.36263903718918 -228.5393578523056 194.74010872202433 -226.433837890625 194.115966796875 C-213.3797261829563 190.24921071549454 -200.2883113777428 186.51759685563502 -187.1875 182.8125 C-186.08235046386721 182.49987213134762 -184.97720092773437 182.18724426269534 -183.83856201171875 181.86514282226563 C-170.30974698265322 178.04087070859435 -156.77220810567508 174.24852741243365 -143.2265625 170.484375 C-142.5683777618408 170.30146408081055 -141.9101930236816 170.1185531616211 -141.23206329345703 169.9300994873047 C-138.57713726990164 169.1923314742197 -135.92218447799064 168.45465983068243 -133.2672233581543 167.7170181274414 C-131.28230872919698 167.16553670936037 -129.29740217323013 166.61402624720785 -127.3125 166.0625 C-126.65601470947263 165.88009765624997 -125.99952941894526 165.6976953125 -125.32315063476563 165.509765625 C-109.15459501249325 161.0166363209517 -93.00382842740919 156.48256947435016 -76.921142578125 151.690185546875 C-64.5509879652792 148.0079738171305 -52.139736169554226 144.47254140395808 -39.72705078125 140.93670654296875 C-14.936691935133013 133.88343613989906 -14.936691935133013 133.88343613989906 9.8125 126.6875 C10.468894653320262 126.49439239501953 11.125289306640639 126.30128479003906 11.80157470703125 126.10232543945313 C19.715556835891675 123.76997880616307 27.613844839491094 121.38853025769737 35.50390625 118.9765625 C38.960639271560126 117.92089534441311 42.417664651945756 116.86619287749886 45.875 115.8125 C46.752942199707036 115.54489868164063 47.63088439941407 115.27729736328126 48.535430908203125 115.0015869140625 C65.21256795548493 109.92945347175379 81.97121807839414 105.16054013238204 98.75 100.4375 C133.08723876542535 90.77018357636842 167.30763328510716 80.72752429773118 201.3369140625 70.02294921875 C204.7426388804489 68.95565262490862 208.1510708186056 67.89765068223153 211.56065368652344 66.8427734375 C231.6732563062934 60.66471095996519 231.6732563062934 60.66471095996519 251.5625 53.8125 C252.31740722656252 53.53776855468749 253.07231445312505 53.26303710937498 253.85009765625 52.97998046875 C256.73889892430805 51.890509569340395 258.79153080888057 51.083469191119434 261 48.875 C256.4303250326061 47.17808560557552 252.00257518047079 46.343909594477395 247.18359375 45.796875 C245.61928222544702 45.607107940984974 244.0549928457924 45.417158268334504 242.49072265625 45.22705078125 C241.66920715332026 45.129424438476576 240.84769165039063 45.03179809570315 240.00128173828125 44.93121337890625 C225.98826804503983 43.25752477757328 212.04289875164432 41.333908953581044 198.125 39 C184.5237708884972 36.729516154853656 170.9049205828727 34.67113149099703 157.25 32.75 C135.53874184988888 29.69291269143045 113.84978642953263 26.496749574084845 92.16307067871094 23.271038055419922 C68.11562148292592 19.694826168352023 44.067565214226875 16.126264926696194 20 12.6875 C18.50835327148434 12.473717041015618 18.50835327148434 12.473717041015618 16.986572265625 12.255615234375 C14.241298296448463 11.862638342410293 11.495729828622757 11.47180888716565 8.75 11.08203125 C7.982000732421852 10.972204132080066 7.2140014648437045 10.86237701416016 6.4227294921875 10.749221801757813 C-8.59783159351332 8.631391394314022 -22.749363779709142 7.856602143992632 -37.7578125 10.609375 Z M259.3828125 61.421875 C258.2380444335937 61.7660546875 257.0932763671875 62.110234375000005 255.913818359375 62.46484375 C254.0383532714843 63.03912109375 254.0383532714843 63.03912109375 252.125 63.625 C250.7976719452896 64.0275565610001 249.47027772123556 64.42989500070752 248.142822265625 64.83203125 C234.92445267319567 68.85022392965891 221.75576664376683 73.02828430442372 208.58726501464844 77.20634460449219 C198.89090715730356 80.28263120832503 189.18033279723647 83.30893451378233 179.4599151611328 86.3084716796875 C172.66759462548157 88.41062786558439 165.88548959405364 90.541942418301 159.113037109375 92.707275390625 C135.035829185956 100.4016944147944 110.88667700167309 107.82364943574925 86.66316223144531 115.04369735717773 C83.81563348442376 115.89270038369256 80.96851263306985 116.74306042570214 78.1214599609375 117.59365844726563 C55.09691994566742 124.46976306117301 32.05620254575899 131.2348483668291 8.86328125 137.52392578125 C-4.85609628317718 141.24699417953752 -18.495790324662494 145.20985677348267 -32.125 149.25 C-49.59389223034384 154.42600500778804 -67.08890698931884 159.49374761574916 -84.625 164.4375 C-85.7235833740234 164.74730804443357 -86.82216674804693 165.0571160888672 -87.95404052734375 165.37631225585938 C-92.36766993126798 166.62080479209015 -96.7813907059276 167.86497232798655 -101.19528198242188 169.10853576660156 C-112.88669338380612 172.40372188887858 -124.56998061675154 175.7271795746634 -136.25 179.0625 C-137.27159210205082 179.35412017822267 -138.29318420410164 179.64574035644534 -139.34573364257813 179.94619750976563 C-151.96601359933084 183.55083001895065 -164.57021962059468 187.20565138218183 -177.15957641601563 190.91671752929688 C-195.69286664394144 196.37956482098116 -214.2772202649724 201.65514592796524 -232.8772087097168 206.8854522705078 C-235.0485179330572 207.49606796241238 -237.21971450579997 208.10708296003133 -239.39089965820313 208.7181396484375 C-242.83270080971988 209.68654153764516 -246.2749281318401 210.65341401603632 -249.71751403808594 211.61902236938477 C-251.60607429984873 212.14888892197644 -253.4943861036523 212.679640783261 -255.3826904296875 213.21041870117188 C-258.5861577474598 214.10728743240338 -261.7916142866173 214.99590265273855 -265 215.875 C-265.7907693481445 216.09173370361327 -266.58153869628904 216.30846740722654 -267.3962707519531 216.53176879882813 C-284.2086140621164 220.95859892209035 -302.188415373774 218.31861257875892 -318.8046875 214.3515625 C-320.3767074883061 213.98791265386217 -321.94903217680417 213.62557783667205 -323.5216369628906 213.26446533203125 C-327.5658628473292 212.3322507686412 -331.6058605631583 211.3829275263015 -335.6450500488281 210.42916107177734 C-339.3409794354965 209.5594439938792 -343.04065702709875 208.70608994273005 -346.740234375 207.85205078125 C-354.8362815610482 205.9796101378564 -362.9260620962757 204.08091628508714 -371.0152931213379 202.17928314208984 C-375.1193285199348 201.21526610397706 -379.2241039569627 200.25441115063467 -383.328857421875 199.29345703125 C-385.0430151554708 198.89212304831466 -386.75717225476296 198.49078635616416 -388.47132873535156 198.08944702148438 C-389.75953364372253 197.78784227371216 -389.75953364372253 197.78784227371216 -391.07376289367676 197.48014450073242 C-395.4713112501647 196.45039839545905 -399.86870398302176 195.41998817871195 -404.26611328125 194.3896484375 C-407.8440658946014 193.55139119858984 -411.4220307747628 192.71318633058053 -415 191.875 C-415.88732566833494 191.66712356567382 -416.77465133666993 191.45924713134764 -417.6888656616211 191.2450714111328 C-431.22850834991004 188.07331777375123 -444.76950950031755 184.90742970136392 -458.3125 181.75 C-459.2098360443115 181.5407400894165 -460.1071720886231 181.33148017883298 -461.03170013427734 181.1158790588379 C-488.64710701517447 174.67756461379787 -516.2987868863812 168.4235181709339 -543.9906921386719 162.3231201171875 C-564.5222076396005 157.7997048993982 -585.0087550474143 153.1256948866976 -605.435546875 148.146240234375 C-607.1210739180656 147.7354329446879 -608.8066197602321 147.32470277666482 -610.4921875 146.9140625 C-611.261939086914 146.7264082336426 -612.0316906738282 146.53875396728517 -612.8247680664063 146.3454132080078 C-618.1922514111377 145.0462502891262 -623.5704988065411 143.88954745093383 -629 142.875 C-629.1626292811268 145.606569592259 -629.2811068612439 148.3284212214578 -629.375 151.0625 C-629.4252734375 151.83142578125 -629.475546875 152.6003515625 -629.52734375 153.392578125 C-629.5466796875 154.14345703125002 -629.566015625 154.8943359375 -629.5859375 155.66796875 C-629.6173583984375 156.35399169921874 -629.648779296875 157.04001464843748 -629.68115234375 157.746826171875 C-628.5648475290666 161.23457852656873 -626.0222197400238 163.04770299398746 -623 164.875 C-620.2297887747625 165.96396507001037 -617.429200804369 166.5926008236362 -614.51953125 167.19921875 C-613.6916157531739 167.3866262817383 -612.8637002563477 167.57403381347655 -612.0106964111328 167.76712036132813 C-609.2812238365448 168.38136974260112 -606.5471035534483 168.97155480351637 -603.8125 169.5625 C-601.8724656281786 169.99577037291806 -599.932855666209 170.43094503236642 -597.99365234375 170.867919921875 C-593.973172614903 171.7721194767513 -589.9510113173944 172.6681547847097 -585.92724609375 173.5576171875 C-577.8475069283701 175.34764969917018 -569.7844844487757 177.20853017277796 -561.7239990234375 179.08309936523438 C-559.9786497016587 179.48898264124102 -558.2331227741388 179.89410288261865 -556.4874267578125 180.29849243164063 C-540.1801476975386 184.07746745732356 -523.9279919873045 188.06941539543084 -507.67803955078125 192.08670043945313 C-491.48517705866334 196.08612836409634 -475.2626210494615 199.9202330516776 -459 203.625 C-438.02818500075904 208.4061962174647 -417.13125036831406 213.46549469355676 -396.25 218.625 C-395.1714776611328 218.8914054107666 -395.1714776611328 218.8914054107666 -394.0711669921875 219.16319274902344 C-384.4084121642878 221.55047210933907 -374.74834564449895 223.94848249023545 -365.0901985168457 226.35433197021484 C-363.6735584397715 226.70721672824158 -362.25689878826 227.0600229131714 -360.8402214050293 227.41275787353516 C-356.4938968677529 228.49494251446345 -352.1478251430487 229.57813357751206 -347.8021011352539 230.66272735595703 C-346.4505521881734 230.99999614135413 -345.09895625038956 231.33707669146668 -343.74730682373047 231.67394256591797 C-336.13242978649373 233.5723264034002 -328.5282391368735 235.50527695390088 -320.9385223388672 237.50201416015625 C-295.7683314359536 244.04818945480258 -276.0166084582498 242.1482560209052 -251.26177978515625 234.02719116210938 C-233.91292273895317 228.35171992690744 -216.40693315312097 223.26941473506457 -198.86672973632813 218.22329711914063 C-170.03317190624148 209.92585391431925 -141.30951826062233 201.37056218933355 -112.70913696289063 192.2987518310547 C-103.5856452115795 189.41250504970367 -94.42122614534765 186.66751162574428 -85.25 183.9375 C-61.11639957031218 176.74711720671252 -37.05949982134371 169.30890274271997 -13 161.875 C-11.175132334536215 161.31135379321745 -9.350262648175772 160.747714129259 -7.525390625 160.18408203125 C-2.4748951482935126 158.62390156815604 2.5751843514549364 157.06237937421736 7.625 155.5 C8.449224548339885 155.24500732421876 9.273449096679656 154.99001464843752 10.122650146484375 154.727294921875 C19.828448893984046 151.72379339051076 29.531235478153235 148.71078133689042 39.23054504394531 145.68638610839844 C64.40883598232517 137.83595450698527 89.59797989555034 130.0439910421273 114.88925170898438 122.5645751953125 C127.46023620973779 118.84588815942345 139.991531484672 115.03155924445434 152.48358154296875 111.0562744140625 C171.28743359027862 105.08085716688191 190.19787594887487 99.45050605052222 209.09375 93.774658203125 C221.54753489345865 90.03354404888887 233.99877595453484 86.28425131383585 246.43359375 82.48046875 C247.4874879455566 82.15992019653322 248.54138214111333 81.83937164306644 249.62721252441406 81.50910949707031 C261.2078779157007 78.74975788570663 261.2078779157007 78.74975788570663 270 71.875 C270.4522864737879 67.8306412416357 270.8524041702283 63.57980834045645 269 59.875 C265.25385542810545 59.875 262.9181786790201 60.352496933854525 259.3828125 61.421875 Z M107.54296875 134.20703125 C106.41841278076174 134.55505798339846 105.29385681152348 134.9030847167969 104.13522338867188 135.26165771484375 C100.48319881387715 136.3948747354226 96.83529310594099 137.54074217775582 93.1875 138.6875 C90.69143659456836 139.4657718242762 88.19526114111136 140.2436843792309 85.698974609375 141.021240234375 C67.3879579386462 146.7410402725265 49.145138238736536 152.64858609740622 31 158.875 C30.661581496358394 162.56205159619117 30.3301839183639 166.2497025874622 30 169.9375 C29.90460937499995 170.97583984375 29.809218750000014 172.01417968750002 29.7109375 173.083984375 C29.241000461121416 178.37077606238472 28.87954255453542 183.56734380921813 29 188.875 C40.40202197870906 192.64535776633204 52.011196157828635 195.41799090249543 63.6875 198.1875 C64.69102508544927 198.4266714477539 65.69455017089842 198.6658428955078 66.72848510742188 198.91226196289063 C80.30238150738819 202.14251214509824 93.89798319267675 205.23888449150957 107.5625 208.0625 C108.27401214599604 208.2107925415039 108.98552429199219 208.3590850830078 109.71859741210938 208.51187133789063 C118.29116172651823 210.3342202624441 118.29116172651823 210.3342202624441 127 210.875 C126.89240189920406 201.18249790118273 126.7797489588437 191.49007152589985 126.66066074371338 181.79770374298096 C126.60552049995954 177.29704500355564 126.5521148883663 172.79637966778273 126.502685546875 168.295654296875 C126.4549105404019 163.9513921168487 126.4025632945685 159.60720679286203 126.34705924987793 155.26303672790527 C126.32669512343921 153.6064921472805 126.30797241535879 151.94992654040334 126.29092597961426 150.29334449768066 C126.26675000202954 147.9712833564563 126.23671409230019 145.6493658411539 126.205322265625 143.327392578125 C126.19956680297855 142.64406356811526 126.19381134033199 141.96073455810546 126.18788146972656 141.25669860839844 C126.13300183151296 137.6802061365454 125.83364060001168 134.35596584679286 125 130.875 C118.79441231718556 130.30916715195713 113.37815984057306 132.3649999080999 107.54296875 134.20703125 Z M-500 205.875 C-500.12620602820584 235.98581669871942 -499.9690981269039 266.08069769312294 -499.5 296.1875 C-499.48804218292236 296.9552626037598 -499.4760843658447 297.7230252075195 -499.4637641906738 298.51405334472656 C-499.31590812092196 307.96781575680325 -499.1613075517438 317.42145682182013 -499 326.875 C-494.4831614861554 328.60161745331766 -490.01429034518515 330.246349424262 -485.359375 331.56640625 C-483.78373779296874 332.0153625488281 -483.78373779296874 332.0153625488281 -482.17626953125 332.473388671875 C-481.0456005859375 332.79154541015623 -479.914931640625 333.10970214843746 -478.75 333.4375 C-476.92057861328124 333.9563073730469 -476.92057861328124 333.9563073730469 -475.05419921875 334.485595703125 C-463.94206967014765 337.63241919540974 -452.8117786273194 340.7148009304266 -441.679931640625 343.791015625 C-432.6836086421492 346.2799056732234 -423.6991275338137 348.807579144844 -414.72265625 351.3671875 C-412.6215854265192 351.9652625789387 -410.5205112160073 352.56332575917986 -408.41943359375 353.161376953125 C-405.3220473738272 354.04323601281635 -402.2251624945309 354.92668854338217 -399.12969970703125 355.8152770996094 C-396.24774515206104 356.6425587838795 -393.364262485099 357.46431265441504 -390.48046875 358.28515625 C-389.6246974182129 358.5326058959961 -388.7689260864258 358.78005554199217 -387.88722229003906 359.0350036621094 C-387.0816337585449 359.2632986450195 -386.27604522705076 359.49159362792966 -385.446044921875 359.726806640625 C-384.75298751831053 359.9253675842285 -384.05993011474607 360.12392852783205 -383.3458709716797 360.32850646972656 C-380.27056441899987 361.04492913531067 -377.1259168882335 361.42844044453807 -374 361.875 C-374 319.96500000000003 -374 278.055 -374 234.875 C-397.0571329872563 229.0663922767397 -397.0571329872563 229.0663922767397 -420.125 223.30078125 C-420.85060119628906 223.1203408241272 -421.5762023925781 222.9399003982544 -422.32379150390625 222.75399208068848 C-436.69470242742335 219.1827971862147 -451.07763771397947 215.66397388972285 -465.4819030761719 212.22958374023438 C-467.8600895103118 211.66198020900833 -470.2376405359344 211.09170746266716 -472.6145324707031 210.51870727539063 C-475.91954078412635 209.72312035801326 -479.2268670093731 208.93806547291905 -482.53515625 208.15625 C-483.4990124511719 207.92266281127934 -484.4628686523438 207.68907562255856 -485.4559326171875 207.4484100341797 C-490.4379213116654 206.28561575364472 -494.8836079211478 205.61867564776105 -500 205.875 Z " fill="#000000" transform="translate(695,216.125)"/>
</svg>
